G04 #@! TF.GenerationSoftware,KiCad,Pcbnew,(5.1.5)-3*
G04 #@! TF.CreationDate,2021-01-22T16:49:15+10:30*
G04 #@! TF.ProjectId,HallSingle,48616c6c-5369-46e6-976c-652e6b696361,rev?*
G04 #@! TF.SameCoordinates,Original*
G04 #@! TF.FileFunction,Paste,Top*
G04 #@! TF.FilePolarity,Positive*
%FSLAX46Y46*%
G04 Gerber Fmt 4.6, Leading zero omitted, Abs format (unit mm)*
G04 Created by KiCad (PCBNEW (5.1.5)-3) date 2021-01-22 16:49:15*
%MOMM*%
%LPD*%
G04 APERTURE LIST*
%ADD10R,1.060000X0.650000*%
%ADD11R,0.900000X0.800000*%
%ADD12C,0.100000*%
G04 APERTURE END LIST*
D10*
X148600000Y-58600000D03*
X148600000Y-60500000D03*
X146400000Y-60500000D03*
X146400000Y-59550000D03*
X146400000Y-58600000D03*
D11*
X144272000Y-60510500D03*
X144272000Y-58610500D03*
X142272000Y-59560500D03*
D12*
G36*
X142130142Y-61876174D02*
G01*
X142153803Y-61879684D01*
X142177007Y-61885496D01*
X142199529Y-61893554D01*
X142221153Y-61903782D01*
X142241670Y-61916079D01*
X142260883Y-61930329D01*
X142278607Y-61946393D01*
X142294671Y-61964117D01*
X142308921Y-61983330D01*
X142321218Y-62003847D01*
X142331446Y-62025471D01*
X142339504Y-62047993D01*
X142345316Y-62071197D01*
X142348826Y-62094858D01*
X142350000Y-62118750D01*
X142350000Y-62606250D01*
X142348826Y-62630142D01*
X142345316Y-62653803D01*
X142339504Y-62677007D01*
X142331446Y-62699529D01*
X142321218Y-62721153D01*
X142308921Y-62741670D01*
X142294671Y-62760883D01*
X142278607Y-62778607D01*
X142260883Y-62794671D01*
X142241670Y-62808921D01*
X142221153Y-62821218D01*
X142199529Y-62831446D01*
X142177007Y-62839504D01*
X142153803Y-62845316D01*
X142130142Y-62848826D01*
X142106250Y-62850000D01*
X141193750Y-62850000D01*
X141169858Y-62848826D01*
X141146197Y-62845316D01*
X141122993Y-62839504D01*
X141100471Y-62831446D01*
X141078847Y-62821218D01*
X141058330Y-62808921D01*
X141039117Y-62794671D01*
X141021393Y-62778607D01*
X141005329Y-62760883D01*
X140991079Y-62741670D01*
X140978782Y-62721153D01*
X140968554Y-62699529D01*
X140960496Y-62677007D01*
X140954684Y-62653803D01*
X140951174Y-62630142D01*
X140950000Y-62606250D01*
X140950000Y-62118750D01*
X140951174Y-62094858D01*
X140954684Y-62071197D01*
X140960496Y-62047993D01*
X140968554Y-62025471D01*
X140978782Y-62003847D01*
X140991079Y-61983330D01*
X141005329Y-61964117D01*
X141021393Y-61946393D01*
X141039117Y-61930329D01*
X141058330Y-61916079D01*
X141078847Y-61903782D01*
X141100471Y-61893554D01*
X141122993Y-61885496D01*
X141146197Y-61879684D01*
X141169858Y-61876174D01*
X141193750Y-61875000D01*
X142106250Y-61875000D01*
X142130142Y-61876174D01*
G37*
G36*
X142130142Y-63751174D02*
G01*
X142153803Y-63754684D01*
X142177007Y-63760496D01*
X142199529Y-63768554D01*
X142221153Y-63778782D01*
X142241670Y-63791079D01*
X142260883Y-63805329D01*
X142278607Y-63821393D01*
X142294671Y-63839117D01*
X142308921Y-63858330D01*
X142321218Y-63878847D01*
X142331446Y-63900471D01*
X142339504Y-63922993D01*
X142345316Y-63946197D01*
X142348826Y-63969858D01*
X142350000Y-63993750D01*
X142350000Y-64481250D01*
X142348826Y-64505142D01*
X142345316Y-64528803D01*
X142339504Y-64552007D01*
X142331446Y-64574529D01*
X142321218Y-64596153D01*
X142308921Y-64616670D01*
X142294671Y-64635883D01*
X142278607Y-64653607D01*
X142260883Y-64669671D01*
X142241670Y-64683921D01*
X142221153Y-64696218D01*
X142199529Y-64706446D01*
X142177007Y-64714504D01*
X142153803Y-64720316D01*
X142130142Y-64723826D01*
X142106250Y-64725000D01*
X141193750Y-64725000D01*
X141169858Y-64723826D01*
X141146197Y-64720316D01*
X141122993Y-64714504D01*
X141100471Y-64706446D01*
X141078847Y-64696218D01*
X141058330Y-64683921D01*
X141039117Y-64669671D01*
X141021393Y-64653607D01*
X141005329Y-64635883D01*
X140991079Y-64616670D01*
X140978782Y-64596153D01*
X140968554Y-64574529D01*
X140960496Y-64552007D01*
X140954684Y-64528803D01*
X140951174Y-64505142D01*
X140950000Y-64481250D01*
X140950000Y-63993750D01*
X140951174Y-63969858D01*
X140954684Y-63946197D01*
X140960496Y-63922993D01*
X140968554Y-63900471D01*
X140978782Y-63878847D01*
X140991079Y-63858330D01*
X141005329Y-63839117D01*
X141021393Y-63821393D01*
X141039117Y-63805329D01*
X141058330Y-63791079D01*
X141078847Y-63778782D01*
X141100471Y-63768554D01*
X141122993Y-63760496D01*
X141146197Y-63754684D01*
X141169858Y-63751174D01*
X141193750Y-63750000D01*
X142106250Y-63750000D01*
X142130142Y-63751174D01*
G37*
G36*
X144950642Y-61851174D02*
G01*
X144974303Y-61854684D01*
X144997507Y-61860496D01*
X145020029Y-61868554D01*
X145041653Y-61878782D01*
X145062170Y-61891079D01*
X145081383Y-61905329D01*
X145099107Y-61921393D01*
X145115171Y-61939117D01*
X145129421Y-61958330D01*
X145141718Y-61978847D01*
X145151946Y-62000471D01*
X145160004Y-62022993D01*
X145165816Y-62046197D01*
X145169326Y-62069858D01*
X145170500Y-62093750D01*
X145170500Y-63006250D01*
X145169326Y-63030142D01*
X145165816Y-63053803D01*
X145160004Y-63077007D01*
X145151946Y-63099529D01*
X145141718Y-63121153D01*
X145129421Y-63141670D01*
X145115171Y-63160883D01*
X145099107Y-63178607D01*
X145081383Y-63194671D01*
X145062170Y-63208921D01*
X145041653Y-63221218D01*
X145020029Y-63231446D01*
X144997507Y-63239504D01*
X144974303Y-63245316D01*
X144950642Y-63248826D01*
X144926750Y-63250000D01*
X144439250Y-63250000D01*
X144415358Y-63248826D01*
X144391697Y-63245316D01*
X144368493Y-63239504D01*
X144345971Y-63231446D01*
X144324347Y-63221218D01*
X144303830Y-63208921D01*
X144284617Y-63194671D01*
X144266893Y-63178607D01*
X144250829Y-63160883D01*
X144236579Y-63141670D01*
X144224282Y-63121153D01*
X144214054Y-63099529D01*
X144205996Y-63077007D01*
X144200184Y-63053803D01*
X144196674Y-63030142D01*
X144195500Y-63006250D01*
X144195500Y-62093750D01*
X144196674Y-62069858D01*
X144200184Y-62046197D01*
X144205996Y-62022993D01*
X144214054Y-62000471D01*
X144224282Y-61978847D01*
X144236579Y-61958330D01*
X144250829Y-61939117D01*
X144266893Y-61921393D01*
X144284617Y-61905329D01*
X144303830Y-61891079D01*
X144324347Y-61878782D01*
X144345971Y-61868554D01*
X144368493Y-61860496D01*
X144391697Y-61854684D01*
X144415358Y-61851174D01*
X144439250Y-61850000D01*
X144926750Y-61850000D01*
X144950642Y-61851174D01*
G37*
G36*
X146825642Y-61851174D02*
G01*
X146849303Y-61854684D01*
X146872507Y-61860496D01*
X146895029Y-61868554D01*
X146916653Y-61878782D01*
X146937170Y-61891079D01*
X146956383Y-61905329D01*
X146974107Y-61921393D01*
X146990171Y-61939117D01*
X147004421Y-61958330D01*
X147016718Y-61978847D01*
X147026946Y-62000471D01*
X147035004Y-62022993D01*
X147040816Y-62046197D01*
X147044326Y-62069858D01*
X147045500Y-62093750D01*
X147045500Y-63006250D01*
X147044326Y-63030142D01*
X147040816Y-63053803D01*
X147035004Y-63077007D01*
X147026946Y-63099529D01*
X147016718Y-63121153D01*
X147004421Y-63141670D01*
X146990171Y-63160883D01*
X146974107Y-63178607D01*
X146956383Y-63194671D01*
X146937170Y-63208921D01*
X146916653Y-63221218D01*
X146895029Y-63231446D01*
X146872507Y-63239504D01*
X146849303Y-63245316D01*
X146825642Y-63248826D01*
X146801750Y-63250000D01*
X146314250Y-63250000D01*
X146290358Y-63248826D01*
X146266697Y-63245316D01*
X146243493Y-63239504D01*
X146220971Y-63231446D01*
X146199347Y-63221218D01*
X146178830Y-63208921D01*
X146159617Y-63194671D01*
X146141893Y-63178607D01*
X146125829Y-63160883D01*
X146111579Y-63141670D01*
X146099282Y-63121153D01*
X146089054Y-63099529D01*
X146080996Y-63077007D01*
X146075184Y-63053803D01*
X146071674Y-63030142D01*
X146070500Y-63006250D01*
X146070500Y-62093750D01*
X146071674Y-62069858D01*
X146075184Y-62046197D01*
X146080996Y-62022993D01*
X146089054Y-62000471D01*
X146099282Y-61978847D01*
X146111579Y-61958330D01*
X146125829Y-61939117D01*
X146141893Y-61921393D01*
X146159617Y-61905329D01*
X146178830Y-61891079D01*
X146199347Y-61878782D01*
X146220971Y-61868554D01*
X146243493Y-61860496D01*
X146266697Y-61854684D01*
X146290358Y-61851174D01*
X146314250Y-61850000D01*
X146801750Y-61850000D01*
X146825642Y-61851174D01*
G37*
G36*
X148930142Y-61876174D02*
G01*
X148953803Y-61879684D01*
X148977007Y-61885496D01*
X148999529Y-61893554D01*
X149021153Y-61903782D01*
X149041670Y-61916079D01*
X149060883Y-61930329D01*
X149078607Y-61946393D01*
X149094671Y-61964117D01*
X149108921Y-61983330D01*
X149121218Y-62003847D01*
X149131446Y-62025471D01*
X149139504Y-62047993D01*
X149145316Y-62071197D01*
X149148826Y-62094858D01*
X149150000Y-62118750D01*
X149150000Y-62606250D01*
X149148826Y-62630142D01*
X149145316Y-62653803D01*
X149139504Y-62677007D01*
X149131446Y-62699529D01*
X149121218Y-62721153D01*
X149108921Y-62741670D01*
X149094671Y-62760883D01*
X149078607Y-62778607D01*
X149060883Y-62794671D01*
X149041670Y-62808921D01*
X149021153Y-62821218D01*
X148999529Y-62831446D01*
X148977007Y-62839504D01*
X148953803Y-62845316D01*
X148930142Y-62848826D01*
X148906250Y-62850000D01*
X147993750Y-62850000D01*
X147969858Y-62848826D01*
X147946197Y-62845316D01*
X147922993Y-62839504D01*
X147900471Y-62831446D01*
X147878847Y-62821218D01*
X147858330Y-62808921D01*
X147839117Y-62794671D01*
X147821393Y-62778607D01*
X147805329Y-62760883D01*
X147791079Y-62741670D01*
X147778782Y-62721153D01*
X147768554Y-62699529D01*
X147760496Y-62677007D01*
X147754684Y-62653803D01*
X147751174Y-62630142D01*
X147750000Y-62606250D01*
X147750000Y-62118750D01*
X147751174Y-62094858D01*
X147754684Y-62071197D01*
X147760496Y-62047993D01*
X147768554Y-62025471D01*
X147778782Y-62003847D01*
X147791079Y-61983330D01*
X147805329Y-61964117D01*
X147821393Y-61946393D01*
X147839117Y-61930329D01*
X147858330Y-61916079D01*
X147878847Y-61903782D01*
X147900471Y-61893554D01*
X147922993Y-61885496D01*
X147946197Y-61879684D01*
X147969858Y-61876174D01*
X147993750Y-61875000D01*
X148906250Y-61875000D01*
X148930142Y-61876174D01*
G37*
G36*
X148930142Y-63751174D02*
G01*
X148953803Y-63754684D01*
X148977007Y-63760496D01*
X148999529Y-63768554D01*
X149021153Y-63778782D01*
X149041670Y-63791079D01*
X149060883Y-63805329D01*
X149078607Y-63821393D01*
X149094671Y-63839117D01*
X149108921Y-63858330D01*
X149121218Y-63878847D01*
X149131446Y-63900471D01*
X149139504Y-63922993D01*
X149145316Y-63946197D01*
X149148826Y-63969858D01*
X149150000Y-63993750D01*
X149150000Y-64481250D01*
X149148826Y-64505142D01*
X149145316Y-64528803D01*
X149139504Y-64552007D01*
X149131446Y-64574529D01*
X149121218Y-64596153D01*
X149108921Y-64616670D01*
X149094671Y-64635883D01*
X149078607Y-64653607D01*
X149060883Y-64669671D01*
X149041670Y-64683921D01*
X149021153Y-64696218D01*
X148999529Y-64706446D01*
X148977007Y-64714504D01*
X148953803Y-64720316D01*
X148930142Y-64723826D01*
X148906250Y-64725000D01*
X147993750Y-64725000D01*
X147969858Y-64723826D01*
X147946197Y-64720316D01*
X147922993Y-64714504D01*
X147900471Y-64706446D01*
X147878847Y-64696218D01*
X147858330Y-64683921D01*
X147839117Y-64669671D01*
X147821393Y-64653607D01*
X147805329Y-64635883D01*
X147791079Y-64616670D01*
X147778782Y-64596153D01*
X147768554Y-64574529D01*
X147760496Y-64552007D01*
X147754684Y-64528803D01*
X147751174Y-64505142D01*
X147750000Y-64481250D01*
X147750000Y-63993750D01*
X147751174Y-63969858D01*
X147754684Y-63946197D01*
X147760496Y-63922993D01*
X147768554Y-63900471D01*
X147778782Y-63878847D01*
X147791079Y-63858330D01*
X147805329Y-63839117D01*
X147821393Y-63821393D01*
X147839117Y-63805329D01*
X147858330Y-63791079D01*
X147878847Y-63778782D01*
X147900471Y-63768554D01*
X147922993Y-63760496D01*
X147946197Y-63754684D01*
X147969858Y-63751174D01*
X147993750Y-63750000D01*
X148906250Y-63750000D01*
X148930142Y-63751174D01*
G37*
G36*
X140480142Y-59951174D02*
G01*
X140503803Y-59954684D01*
X140527007Y-59960496D01*
X140549529Y-59968554D01*
X140571153Y-59978782D01*
X140591670Y-59991079D01*
X140610883Y-60005329D01*
X140628607Y-60021393D01*
X140644671Y-60039117D01*
X140658921Y-60058330D01*
X140671218Y-60078847D01*
X140681446Y-60100471D01*
X140689504Y-60122993D01*
X140695316Y-60146197D01*
X140698826Y-60169858D01*
X140700000Y-60193750D01*
X140700000Y-60681250D01*
X140698826Y-60705142D01*
X140695316Y-60728803D01*
X140689504Y-60752007D01*
X140681446Y-60774529D01*
X140671218Y-60796153D01*
X140658921Y-60816670D01*
X140644671Y-60835883D01*
X140628607Y-60853607D01*
X140610883Y-60869671D01*
X140591670Y-60883921D01*
X140571153Y-60896218D01*
X140549529Y-60906446D01*
X140527007Y-60914504D01*
X140503803Y-60920316D01*
X140480142Y-60923826D01*
X140456250Y-60925000D01*
X139543750Y-60925000D01*
X139519858Y-60923826D01*
X139496197Y-60920316D01*
X139472993Y-60914504D01*
X139450471Y-60906446D01*
X139428847Y-60896218D01*
X139408330Y-60883921D01*
X139389117Y-60869671D01*
X139371393Y-60853607D01*
X139355329Y-60835883D01*
X139341079Y-60816670D01*
X139328782Y-60796153D01*
X139318554Y-60774529D01*
X139310496Y-60752007D01*
X139304684Y-60728803D01*
X139301174Y-60705142D01*
X139300000Y-60681250D01*
X139300000Y-60193750D01*
X139301174Y-60169858D01*
X139304684Y-60146197D01*
X139310496Y-60122993D01*
X139318554Y-60100471D01*
X139328782Y-60078847D01*
X139341079Y-60058330D01*
X139355329Y-60039117D01*
X139371393Y-60021393D01*
X139389117Y-60005329D01*
X139408330Y-59991079D01*
X139428847Y-59978782D01*
X139450471Y-59968554D01*
X139472993Y-59960496D01*
X139496197Y-59954684D01*
X139519858Y-59951174D01*
X139543750Y-59950000D01*
X140456250Y-59950000D01*
X140480142Y-59951174D01*
G37*
G36*
X140480142Y-58076174D02*
G01*
X140503803Y-58079684D01*
X140527007Y-58085496D01*
X140549529Y-58093554D01*
X140571153Y-58103782D01*
X140591670Y-58116079D01*
X140610883Y-58130329D01*
X140628607Y-58146393D01*
X140644671Y-58164117D01*
X140658921Y-58183330D01*
X140671218Y-58203847D01*
X140681446Y-58225471D01*
X140689504Y-58247993D01*
X140695316Y-58271197D01*
X140698826Y-58294858D01*
X140700000Y-58318750D01*
X140700000Y-58806250D01*
X140698826Y-58830142D01*
X140695316Y-58853803D01*
X140689504Y-58877007D01*
X140681446Y-58899529D01*
X140671218Y-58921153D01*
X140658921Y-58941670D01*
X140644671Y-58960883D01*
X140628607Y-58978607D01*
X140610883Y-58994671D01*
X140591670Y-59008921D01*
X140571153Y-59021218D01*
X140549529Y-59031446D01*
X140527007Y-59039504D01*
X140503803Y-59045316D01*
X140480142Y-59048826D01*
X140456250Y-59050000D01*
X139543750Y-59050000D01*
X139519858Y-59048826D01*
X139496197Y-59045316D01*
X139472993Y-59039504D01*
X139450471Y-59031446D01*
X139428847Y-59021218D01*
X139408330Y-59008921D01*
X139389117Y-58994671D01*
X139371393Y-58978607D01*
X139355329Y-58960883D01*
X139341079Y-58941670D01*
X139328782Y-58921153D01*
X139318554Y-58899529D01*
X139310496Y-58877007D01*
X139304684Y-58853803D01*
X139301174Y-58830142D01*
X139300000Y-58806250D01*
X139300000Y-58318750D01*
X139301174Y-58294858D01*
X139304684Y-58271197D01*
X139310496Y-58247993D01*
X139318554Y-58225471D01*
X139328782Y-58203847D01*
X139341079Y-58183330D01*
X139355329Y-58164117D01*
X139371393Y-58146393D01*
X139389117Y-58130329D01*
X139408330Y-58116079D01*
X139428847Y-58103782D01*
X139450471Y-58093554D01*
X139472993Y-58085496D01*
X139496197Y-58079684D01*
X139519858Y-58076174D01*
X139543750Y-58075000D01*
X140456250Y-58075000D01*
X140480142Y-58076174D01*
G37*
G36*
X140080142Y-63751174D02*
G01*
X140103803Y-63754684D01*
X140127007Y-63760496D01*
X140149529Y-63768554D01*
X140171153Y-63778782D01*
X140191670Y-63791079D01*
X140210883Y-63805329D01*
X140228607Y-63821393D01*
X140244671Y-63839117D01*
X140258921Y-63858330D01*
X140271218Y-63878847D01*
X140281446Y-63900471D01*
X140289504Y-63922993D01*
X140295316Y-63946197D01*
X140298826Y-63969858D01*
X140300000Y-63993750D01*
X140300000Y-64481250D01*
X140298826Y-64505142D01*
X140295316Y-64528803D01*
X140289504Y-64552007D01*
X140281446Y-64574529D01*
X140271218Y-64596153D01*
X140258921Y-64616670D01*
X140244671Y-64635883D01*
X140228607Y-64653607D01*
X140210883Y-64669671D01*
X140191670Y-64683921D01*
X140171153Y-64696218D01*
X140149529Y-64706446D01*
X140127007Y-64714504D01*
X140103803Y-64720316D01*
X140080142Y-64723826D01*
X140056250Y-64725000D01*
X139143750Y-64725000D01*
X139119858Y-64723826D01*
X139096197Y-64720316D01*
X139072993Y-64714504D01*
X139050471Y-64706446D01*
X139028847Y-64696218D01*
X139008330Y-64683921D01*
X138989117Y-64669671D01*
X138971393Y-64653607D01*
X138955329Y-64635883D01*
X138941079Y-64616670D01*
X138928782Y-64596153D01*
X138918554Y-64574529D01*
X138910496Y-64552007D01*
X138904684Y-64528803D01*
X138901174Y-64505142D01*
X138900000Y-64481250D01*
X138900000Y-63993750D01*
X138901174Y-63969858D01*
X138904684Y-63946197D01*
X138910496Y-63922993D01*
X138918554Y-63900471D01*
X138928782Y-63878847D01*
X138941079Y-63858330D01*
X138955329Y-63839117D01*
X138971393Y-63821393D01*
X138989117Y-63805329D01*
X139008330Y-63791079D01*
X139028847Y-63778782D01*
X139050471Y-63768554D01*
X139072993Y-63760496D01*
X139096197Y-63754684D01*
X139119858Y-63751174D01*
X139143750Y-63750000D01*
X140056250Y-63750000D01*
X140080142Y-63751174D01*
G37*
G36*
X140080142Y-61876174D02*
G01*
X140103803Y-61879684D01*
X140127007Y-61885496D01*
X140149529Y-61893554D01*
X140171153Y-61903782D01*
X140191670Y-61916079D01*
X140210883Y-61930329D01*
X140228607Y-61946393D01*
X140244671Y-61964117D01*
X140258921Y-61983330D01*
X140271218Y-62003847D01*
X140281446Y-62025471D01*
X140289504Y-62047993D01*
X140295316Y-62071197D01*
X140298826Y-62094858D01*
X140300000Y-62118750D01*
X140300000Y-62606250D01*
X140298826Y-62630142D01*
X140295316Y-62653803D01*
X140289504Y-62677007D01*
X140281446Y-62699529D01*
X140271218Y-62721153D01*
X140258921Y-62741670D01*
X140244671Y-62760883D01*
X140228607Y-62778607D01*
X140210883Y-62794671D01*
X140191670Y-62808921D01*
X140171153Y-62821218D01*
X140149529Y-62831446D01*
X140127007Y-62839504D01*
X140103803Y-62845316D01*
X140080142Y-62848826D01*
X140056250Y-62850000D01*
X139143750Y-62850000D01*
X139119858Y-62848826D01*
X139096197Y-62845316D01*
X139072993Y-62839504D01*
X139050471Y-62831446D01*
X139028847Y-62821218D01*
X139008330Y-62808921D01*
X138989117Y-62794671D01*
X138971393Y-62778607D01*
X138955329Y-62760883D01*
X138941079Y-62741670D01*
X138928782Y-62721153D01*
X138918554Y-62699529D01*
X138910496Y-62677007D01*
X138904684Y-62653803D01*
X138901174Y-62630142D01*
X138900000Y-62606250D01*
X138900000Y-62118750D01*
X138901174Y-62094858D01*
X138904684Y-62071197D01*
X138910496Y-62047993D01*
X138918554Y-62025471D01*
X138928782Y-62003847D01*
X138941079Y-61983330D01*
X138955329Y-61964117D01*
X138971393Y-61946393D01*
X138989117Y-61930329D01*
X139008330Y-61916079D01*
X139028847Y-61903782D01*
X139050471Y-61893554D01*
X139072993Y-61885496D01*
X139096197Y-61879684D01*
X139119858Y-61876174D01*
X139143750Y-61875000D01*
X140056250Y-61875000D01*
X140080142Y-61876174D01*
G37*
G36*
X144950642Y-63901174D02*
G01*
X144974303Y-63904684D01*
X144997507Y-63910496D01*
X145020029Y-63918554D01*
X145041653Y-63928782D01*
X145062170Y-63941079D01*
X145081383Y-63955329D01*
X145099107Y-63971393D01*
X145115171Y-63989117D01*
X145129421Y-64008330D01*
X145141718Y-64028847D01*
X145151946Y-64050471D01*
X145160004Y-64072993D01*
X145165816Y-64096197D01*
X145169326Y-64119858D01*
X145170500Y-64143750D01*
X145170500Y-65056250D01*
X145169326Y-65080142D01*
X145165816Y-65103803D01*
X145160004Y-65127007D01*
X145151946Y-65149529D01*
X145141718Y-65171153D01*
X145129421Y-65191670D01*
X145115171Y-65210883D01*
X145099107Y-65228607D01*
X145081383Y-65244671D01*
X145062170Y-65258921D01*
X145041653Y-65271218D01*
X145020029Y-65281446D01*
X144997507Y-65289504D01*
X144974303Y-65295316D01*
X144950642Y-65298826D01*
X144926750Y-65300000D01*
X144439250Y-65300000D01*
X144415358Y-65298826D01*
X144391697Y-65295316D01*
X144368493Y-65289504D01*
X144345971Y-65281446D01*
X144324347Y-65271218D01*
X144303830Y-65258921D01*
X144284617Y-65244671D01*
X144266893Y-65228607D01*
X144250829Y-65210883D01*
X144236579Y-65191670D01*
X144224282Y-65171153D01*
X144214054Y-65149529D01*
X144205996Y-65127007D01*
X144200184Y-65103803D01*
X144196674Y-65080142D01*
X144195500Y-65056250D01*
X144195500Y-64143750D01*
X144196674Y-64119858D01*
X144200184Y-64096197D01*
X144205996Y-64072993D01*
X144214054Y-64050471D01*
X144224282Y-64028847D01*
X144236579Y-64008330D01*
X144250829Y-63989117D01*
X144266893Y-63971393D01*
X144284617Y-63955329D01*
X144303830Y-63941079D01*
X144324347Y-63928782D01*
X144345971Y-63918554D01*
X144368493Y-63910496D01*
X144391697Y-63904684D01*
X144415358Y-63901174D01*
X144439250Y-63900000D01*
X144926750Y-63900000D01*
X144950642Y-63901174D01*
G37*
G36*
X146825642Y-63901174D02*
G01*
X146849303Y-63904684D01*
X146872507Y-63910496D01*
X146895029Y-63918554D01*
X146916653Y-63928782D01*
X146937170Y-63941079D01*
X146956383Y-63955329D01*
X146974107Y-63971393D01*
X146990171Y-63989117D01*
X147004421Y-64008330D01*
X147016718Y-64028847D01*
X147026946Y-64050471D01*
X147035004Y-64072993D01*
X147040816Y-64096197D01*
X147044326Y-64119858D01*
X147045500Y-64143750D01*
X147045500Y-65056250D01*
X147044326Y-65080142D01*
X147040816Y-65103803D01*
X147035004Y-65127007D01*
X147026946Y-65149529D01*
X147016718Y-65171153D01*
X147004421Y-65191670D01*
X146990171Y-65210883D01*
X146974107Y-65228607D01*
X146956383Y-65244671D01*
X146937170Y-65258921D01*
X146916653Y-65271218D01*
X146895029Y-65281446D01*
X146872507Y-65289504D01*
X146849303Y-65295316D01*
X146825642Y-65298826D01*
X146801750Y-65300000D01*
X146314250Y-65300000D01*
X146290358Y-65298826D01*
X146266697Y-65295316D01*
X146243493Y-65289504D01*
X146220971Y-65281446D01*
X146199347Y-65271218D01*
X146178830Y-65258921D01*
X146159617Y-65244671D01*
X146141893Y-65228607D01*
X146125829Y-65210883D01*
X146111579Y-65191670D01*
X146099282Y-65171153D01*
X146089054Y-65149529D01*
X146080996Y-65127007D01*
X146075184Y-65103803D01*
X146071674Y-65080142D01*
X146070500Y-65056250D01*
X146070500Y-64143750D01*
X146071674Y-64119858D01*
X146075184Y-64096197D01*
X146080996Y-64072993D01*
X146089054Y-64050471D01*
X146099282Y-64028847D01*
X146111579Y-64008330D01*
X146125829Y-63989117D01*
X146141893Y-63971393D01*
X146159617Y-63955329D01*
X146178830Y-63941079D01*
X146199347Y-63928782D01*
X146220971Y-63918554D01*
X146243493Y-63910496D01*
X146266697Y-63904684D01*
X146290358Y-63901174D01*
X146314250Y-63900000D01*
X146801750Y-63900000D01*
X146825642Y-63901174D01*
G37*
M02*
