G04 #@! TF.GenerationSoftware,KiCad,Pcbnew,(5.1.9)-1*
G04 #@! TF.CreationDate,2021-01-31T14:06:30+01:00*
G04 #@! TF.ProjectId,HallSingle,48616c6c-5369-46e6-976c-652e6b696361,rev?*
G04 #@! TF.SameCoordinates,Original*
G04 #@! TF.FileFunction,Paste,Top*
G04 #@! TF.FilePolarity,Positive*
%FSLAX46Y46*%
G04 Gerber Fmt 4.6, Leading zero omitted, Abs format (unit mm)*
G04 Created by KiCad (PCBNEW (5.1.9)-1) date 2021-01-31 14:06:30*
%MOMM*%
%LPD*%
G01*
G04 APERTURE LIST*
%ADD10R,1.600000X1.500000*%
%ADD11R,1.200000X1.200000*%
%ADD12R,1.060000X0.650000*%
%ADD13R,0.800000X0.900000*%
G04 APERTURE END LIST*
D10*
X140208000Y-58240000D03*
D11*
X141208000Y-61490000D03*
X139208000Y-61490000D03*
G36*
G01*
X140695000Y-64433000D02*
X141245000Y-64433000D01*
G75*
G02*
X141445000Y-64633000I0J-200000D01*
G01*
X141445000Y-65033000D01*
G75*
G02*
X141245000Y-65233000I-200000J0D01*
G01*
X140695000Y-65233000D01*
G75*
G02*
X140495000Y-65033000I0J200000D01*
G01*
X140495000Y-64633000D01*
G75*
G02*
X140695000Y-64433000I200000J0D01*
G01*
G37*
G36*
G01*
X140695000Y-62783000D02*
X141245000Y-62783000D01*
G75*
G02*
X141445000Y-62983000I0J-200000D01*
G01*
X141445000Y-63383000D01*
G75*
G02*
X141245000Y-63583000I-200000J0D01*
G01*
X140695000Y-63583000D01*
G75*
G02*
X140495000Y-63383000I0J200000D01*
G01*
X140495000Y-62983000D01*
G75*
G02*
X140695000Y-62783000I200000J0D01*
G01*
G37*
G36*
G01*
X148253000Y-65045000D02*
X148253000Y-64495000D01*
G75*
G02*
X148453000Y-64295000I200000J0D01*
G01*
X148853000Y-64295000D01*
G75*
G02*
X149053000Y-64495000I0J-200000D01*
G01*
X149053000Y-65045000D01*
G75*
G02*
X148853000Y-65245000I-200000J0D01*
G01*
X148453000Y-65245000D01*
G75*
G02*
X148253000Y-65045000I0J200000D01*
G01*
G37*
G36*
G01*
X146603000Y-65045000D02*
X146603000Y-64495000D01*
G75*
G02*
X146803000Y-64295000I200000J0D01*
G01*
X147203000Y-64295000D01*
G75*
G02*
X147403000Y-64495000I0J-200000D01*
G01*
X147403000Y-65045000D01*
G75*
G02*
X147203000Y-65245000I-200000J0D01*
G01*
X146803000Y-65245000D01*
G75*
G02*
X146603000Y-65045000I0J200000D01*
G01*
G37*
G36*
G01*
X138917000Y-64433000D02*
X139467000Y-64433000D01*
G75*
G02*
X139667000Y-64633000I0J-200000D01*
G01*
X139667000Y-65033000D01*
G75*
G02*
X139467000Y-65233000I-200000J0D01*
G01*
X138917000Y-65233000D01*
G75*
G02*
X138717000Y-65033000I0J200000D01*
G01*
X138717000Y-64633000D01*
G75*
G02*
X138917000Y-64433000I200000J0D01*
G01*
G37*
G36*
G01*
X138917000Y-62783000D02*
X139467000Y-62783000D01*
G75*
G02*
X139667000Y-62983000I0J-200000D01*
G01*
X139667000Y-63383000D01*
G75*
G02*
X139467000Y-63583000I-200000J0D01*
G01*
X138917000Y-63583000D01*
G75*
G02*
X138717000Y-63383000I0J200000D01*
G01*
X138717000Y-62983000D01*
G75*
G02*
X138917000Y-62783000I200000J0D01*
G01*
G37*
G36*
G01*
X145038000Y-63317000D02*
X145538000Y-63317000D01*
G75*
G02*
X145763000Y-63542000I0J-225000D01*
G01*
X145763000Y-63992000D01*
G75*
G02*
X145538000Y-64217000I-225000J0D01*
G01*
X145038000Y-64217000D01*
G75*
G02*
X144813000Y-63992000I0J225000D01*
G01*
X144813000Y-63542000D01*
G75*
G02*
X145038000Y-63317000I225000J0D01*
G01*
G37*
G36*
G01*
X145038000Y-61767000D02*
X145538000Y-61767000D01*
G75*
G02*
X145763000Y-61992000I0J-225000D01*
G01*
X145763000Y-62442000D01*
G75*
G02*
X145538000Y-62667000I-225000J0D01*
G01*
X145038000Y-62667000D01*
G75*
G02*
X144813000Y-62442000I0J225000D01*
G01*
X144813000Y-61992000D01*
G75*
G02*
X145038000Y-61767000I225000J0D01*
G01*
G37*
G36*
G01*
X148153000Y-63242000D02*
X148153000Y-62742000D01*
G75*
G02*
X148378000Y-62517000I225000J0D01*
G01*
X148828000Y-62517000D01*
G75*
G02*
X149053000Y-62742000I0J-225000D01*
G01*
X149053000Y-63242000D01*
G75*
G02*
X148828000Y-63467000I-225000J0D01*
G01*
X148378000Y-63467000D01*
G75*
G02*
X148153000Y-63242000I0J225000D01*
G01*
G37*
G36*
G01*
X146603000Y-63242000D02*
X146603000Y-62742000D01*
G75*
G02*
X146828000Y-62517000I225000J0D01*
G01*
X147278000Y-62517000D01*
G75*
G02*
X147503000Y-62742000I0J-225000D01*
G01*
X147503000Y-63242000D01*
G75*
G02*
X147278000Y-63467000I-225000J0D01*
G01*
X146828000Y-63467000D01*
G75*
G02*
X146603000Y-63242000I0J225000D01*
G01*
G37*
D12*
X148928000Y-58600000D03*
X148928000Y-60500000D03*
X146728000Y-60500000D03*
X146728000Y-59550000D03*
X146728000Y-58600000D03*
D13*
X143068000Y-60182000D03*
X144968000Y-60182000D03*
X144018000Y-58182000D03*
G36*
G01*
X143712250Y-62542000D02*
X142799750Y-62542000D01*
G75*
G02*
X142556000Y-62298250I0J243750D01*
G01*
X142556000Y-61810750D01*
G75*
G02*
X142799750Y-61567000I243750J0D01*
G01*
X143712250Y-61567000D01*
G75*
G02*
X143956000Y-61810750I0J-243750D01*
G01*
X143956000Y-62298250D01*
G75*
G02*
X143712250Y-62542000I-243750J0D01*
G01*
G37*
G36*
G01*
X143712250Y-64417000D02*
X142799750Y-64417000D01*
G75*
G02*
X142556000Y-64173250I0J243750D01*
G01*
X142556000Y-63685750D01*
G75*
G02*
X142799750Y-63442000I243750J0D01*
G01*
X143712250Y-63442000D01*
G75*
G02*
X143956000Y-63685750I0J-243750D01*
G01*
X143956000Y-64173250D01*
G75*
G02*
X143712250Y-64417000I-243750J0D01*
G01*
G37*
M02*
