G04 #@! TF.GenerationSoftware,KiCad,Pcbnew,(5.1.5)-3*
G04 #@! TF.CreationDate,2021-01-22T17:02:41+10:30*
G04 #@! TF.ProjectId,HallSingle,48616c6c-5369-46e6-976c-652e6b696361,rev?*
G04 #@! TF.SameCoordinates,Original*
G04 #@! TF.FileFunction,Copper,L1,Top*
G04 #@! TF.FilePolarity,Positive*
%FSLAX46Y46*%
G04 Gerber Fmt 4.6, Leading zero omitted, Abs format (unit mm)*
G04 Created by KiCad (PCBNEW (5.1.5)-3) date 2021-01-22 17:02:41*
%MOMM*%
%LPD*%
G04 APERTURE LIST*
%ADD10R,1.060000X0.650000*%
%ADD11R,0.900000X0.800000*%
%ADD12C,1.524000*%
%ADD13C,0.100000*%
%ADD14O,1.700000X1.700000*%
%ADD15R,1.700000X1.700000*%
%ADD16C,0.800000*%
%ADD17C,0.304800*%
%ADD18C,0.609600*%
%ADD19C,0.254000*%
G04 APERTURE END LIST*
D10*
X148600000Y-58600000D03*
X148600000Y-60500000D03*
X146400000Y-60500000D03*
X146400000Y-59550000D03*
X146400000Y-58600000D03*
D11*
X144272000Y-60510500D03*
X144272000Y-58610500D03*
X142272000Y-59560500D03*
D12*
X142000000Y-79000000D03*
X144500000Y-76500000D03*
X142000000Y-74000000D03*
G04 #@! TA.AperFunction,SMDPad,CuDef*
D13*
G36*
X142130142Y-61876174D02*
G01*
X142153803Y-61879684D01*
X142177007Y-61885496D01*
X142199529Y-61893554D01*
X142221153Y-61903782D01*
X142241670Y-61916079D01*
X142260883Y-61930329D01*
X142278607Y-61946393D01*
X142294671Y-61964117D01*
X142308921Y-61983330D01*
X142321218Y-62003847D01*
X142331446Y-62025471D01*
X142339504Y-62047993D01*
X142345316Y-62071197D01*
X142348826Y-62094858D01*
X142350000Y-62118750D01*
X142350000Y-62606250D01*
X142348826Y-62630142D01*
X142345316Y-62653803D01*
X142339504Y-62677007D01*
X142331446Y-62699529D01*
X142321218Y-62721153D01*
X142308921Y-62741670D01*
X142294671Y-62760883D01*
X142278607Y-62778607D01*
X142260883Y-62794671D01*
X142241670Y-62808921D01*
X142221153Y-62821218D01*
X142199529Y-62831446D01*
X142177007Y-62839504D01*
X142153803Y-62845316D01*
X142130142Y-62848826D01*
X142106250Y-62850000D01*
X141193750Y-62850000D01*
X141169858Y-62848826D01*
X141146197Y-62845316D01*
X141122993Y-62839504D01*
X141100471Y-62831446D01*
X141078847Y-62821218D01*
X141058330Y-62808921D01*
X141039117Y-62794671D01*
X141021393Y-62778607D01*
X141005329Y-62760883D01*
X140991079Y-62741670D01*
X140978782Y-62721153D01*
X140968554Y-62699529D01*
X140960496Y-62677007D01*
X140954684Y-62653803D01*
X140951174Y-62630142D01*
X140950000Y-62606250D01*
X140950000Y-62118750D01*
X140951174Y-62094858D01*
X140954684Y-62071197D01*
X140960496Y-62047993D01*
X140968554Y-62025471D01*
X140978782Y-62003847D01*
X140991079Y-61983330D01*
X141005329Y-61964117D01*
X141021393Y-61946393D01*
X141039117Y-61930329D01*
X141058330Y-61916079D01*
X141078847Y-61903782D01*
X141100471Y-61893554D01*
X141122993Y-61885496D01*
X141146197Y-61879684D01*
X141169858Y-61876174D01*
X141193750Y-61875000D01*
X142106250Y-61875000D01*
X142130142Y-61876174D01*
G37*
G04 #@! TD.AperFunction*
G04 #@! TA.AperFunction,SMDPad,CuDef*
G36*
X142130142Y-63751174D02*
G01*
X142153803Y-63754684D01*
X142177007Y-63760496D01*
X142199529Y-63768554D01*
X142221153Y-63778782D01*
X142241670Y-63791079D01*
X142260883Y-63805329D01*
X142278607Y-63821393D01*
X142294671Y-63839117D01*
X142308921Y-63858330D01*
X142321218Y-63878847D01*
X142331446Y-63900471D01*
X142339504Y-63922993D01*
X142345316Y-63946197D01*
X142348826Y-63969858D01*
X142350000Y-63993750D01*
X142350000Y-64481250D01*
X142348826Y-64505142D01*
X142345316Y-64528803D01*
X142339504Y-64552007D01*
X142331446Y-64574529D01*
X142321218Y-64596153D01*
X142308921Y-64616670D01*
X142294671Y-64635883D01*
X142278607Y-64653607D01*
X142260883Y-64669671D01*
X142241670Y-64683921D01*
X142221153Y-64696218D01*
X142199529Y-64706446D01*
X142177007Y-64714504D01*
X142153803Y-64720316D01*
X142130142Y-64723826D01*
X142106250Y-64725000D01*
X141193750Y-64725000D01*
X141169858Y-64723826D01*
X141146197Y-64720316D01*
X141122993Y-64714504D01*
X141100471Y-64706446D01*
X141078847Y-64696218D01*
X141058330Y-64683921D01*
X141039117Y-64669671D01*
X141021393Y-64653607D01*
X141005329Y-64635883D01*
X140991079Y-64616670D01*
X140978782Y-64596153D01*
X140968554Y-64574529D01*
X140960496Y-64552007D01*
X140954684Y-64528803D01*
X140951174Y-64505142D01*
X140950000Y-64481250D01*
X140950000Y-63993750D01*
X140951174Y-63969858D01*
X140954684Y-63946197D01*
X140960496Y-63922993D01*
X140968554Y-63900471D01*
X140978782Y-63878847D01*
X140991079Y-63858330D01*
X141005329Y-63839117D01*
X141021393Y-63821393D01*
X141039117Y-63805329D01*
X141058330Y-63791079D01*
X141078847Y-63778782D01*
X141100471Y-63768554D01*
X141122993Y-63760496D01*
X141146197Y-63754684D01*
X141169858Y-63751174D01*
X141193750Y-63750000D01*
X142106250Y-63750000D01*
X142130142Y-63751174D01*
G37*
G04 #@! TD.AperFunction*
G04 #@! TA.AperFunction,SMDPad,CuDef*
G36*
X144950642Y-61851174D02*
G01*
X144974303Y-61854684D01*
X144997507Y-61860496D01*
X145020029Y-61868554D01*
X145041653Y-61878782D01*
X145062170Y-61891079D01*
X145081383Y-61905329D01*
X145099107Y-61921393D01*
X145115171Y-61939117D01*
X145129421Y-61958330D01*
X145141718Y-61978847D01*
X145151946Y-62000471D01*
X145160004Y-62022993D01*
X145165816Y-62046197D01*
X145169326Y-62069858D01*
X145170500Y-62093750D01*
X145170500Y-63006250D01*
X145169326Y-63030142D01*
X145165816Y-63053803D01*
X145160004Y-63077007D01*
X145151946Y-63099529D01*
X145141718Y-63121153D01*
X145129421Y-63141670D01*
X145115171Y-63160883D01*
X145099107Y-63178607D01*
X145081383Y-63194671D01*
X145062170Y-63208921D01*
X145041653Y-63221218D01*
X145020029Y-63231446D01*
X144997507Y-63239504D01*
X144974303Y-63245316D01*
X144950642Y-63248826D01*
X144926750Y-63250000D01*
X144439250Y-63250000D01*
X144415358Y-63248826D01*
X144391697Y-63245316D01*
X144368493Y-63239504D01*
X144345971Y-63231446D01*
X144324347Y-63221218D01*
X144303830Y-63208921D01*
X144284617Y-63194671D01*
X144266893Y-63178607D01*
X144250829Y-63160883D01*
X144236579Y-63141670D01*
X144224282Y-63121153D01*
X144214054Y-63099529D01*
X144205996Y-63077007D01*
X144200184Y-63053803D01*
X144196674Y-63030142D01*
X144195500Y-63006250D01*
X144195500Y-62093750D01*
X144196674Y-62069858D01*
X144200184Y-62046197D01*
X144205996Y-62022993D01*
X144214054Y-62000471D01*
X144224282Y-61978847D01*
X144236579Y-61958330D01*
X144250829Y-61939117D01*
X144266893Y-61921393D01*
X144284617Y-61905329D01*
X144303830Y-61891079D01*
X144324347Y-61878782D01*
X144345971Y-61868554D01*
X144368493Y-61860496D01*
X144391697Y-61854684D01*
X144415358Y-61851174D01*
X144439250Y-61850000D01*
X144926750Y-61850000D01*
X144950642Y-61851174D01*
G37*
G04 #@! TD.AperFunction*
G04 #@! TA.AperFunction,SMDPad,CuDef*
G36*
X146825642Y-61851174D02*
G01*
X146849303Y-61854684D01*
X146872507Y-61860496D01*
X146895029Y-61868554D01*
X146916653Y-61878782D01*
X146937170Y-61891079D01*
X146956383Y-61905329D01*
X146974107Y-61921393D01*
X146990171Y-61939117D01*
X147004421Y-61958330D01*
X147016718Y-61978847D01*
X147026946Y-62000471D01*
X147035004Y-62022993D01*
X147040816Y-62046197D01*
X147044326Y-62069858D01*
X147045500Y-62093750D01*
X147045500Y-63006250D01*
X147044326Y-63030142D01*
X147040816Y-63053803D01*
X147035004Y-63077007D01*
X147026946Y-63099529D01*
X147016718Y-63121153D01*
X147004421Y-63141670D01*
X146990171Y-63160883D01*
X146974107Y-63178607D01*
X146956383Y-63194671D01*
X146937170Y-63208921D01*
X146916653Y-63221218D01*
X146895029Y-63231446D01*
X146872507Y-63239504D01*
X146849303Y-63245316D01*
X146825642Y-63248826D01*
X146801750Y-63250000D01*
X146314250Y-63250000D01*
X146290358Y-63248826D01*
X146266697Y-63245316D01*
X146243493Y-63239504D01*
X146220971Y-63231446D01*
X146199347Y-63221218D01*
X146178830Y-63208921D01*
X146159617Y-63194671D01*
X146141893Y-63178607D01*
X146125829Y-63160883D01*
X146111579Y-63141670D01*
X146099282Y-63121153D01*
X146089054Y-63099529D01*
X146080996Y-63077007D01*
X146075184Y-63053803D01*
X146071674Y-63030142D01*
X146070500Y-63006250D01*
X146070500Y-62093750D01*
X146071674Y-62069858D01*
X146075184Y-62046197D01*
X146080996Y-62022993D01*
X146089054Y-62000471D01*
X146099282Y-61978847D01*
X146111579Y-61958330D01*
X146125829Y-61939117D01*
X146141893Y-61921393D01*
X146159617Y-61905329D01*
X146178830Y-61891079D01*
X146199347Y-61878782D01*
X146220971Y-61868554D01*
X146243493Y-61860496D01*
X146266697Y-61854684D01*
X146290358Y-61851174D01*
X146314250Y-61850000D01*
X146801750Y-61850000D01*
X146825642Y-61851174D01*
G37*
G04 #@! TD.AperFunction*
G04 #@! TA.AperFunction,SMDPad,CuDef*
G36*
X148930142Y-61876174D02*
G01*
X148953803Y-61879684D01*
X148977007Y-61885496D01*
X148999529Y-61893554D01*
X149021153Y-61903782D01*
X149041670Y-61916079D01*
X149060883Y-61930329D01*
X149078607Y-61946393D01*
X149094671Y-61964117D01*
X149108921Y-61983330D01*
X149121218Y-62003847D01*
X149131446Y-62025471D01*
X149139504Y-62047993D01*
X149145316Y-62071197D01*
X149148826Y-62094858D01*
X149150000Y-62118750D01*
X149150000Y-62606250D01*
X149148826Y-62630142D01*
X149145316Y-62653803D01*
X149139504Y-62677007D01*
X149131446Y-62699529D01*
X149121218Y-62721153D01*
X149108921Y-62741670D01*
X149094671Y-62760883D01*
X149078607Y-62778607D01*
X149060883Y-62794671D01*
X149041670Y-62808921D01*
X149021153Y-62821218D01*
X148999529Y-62831446D01*
X148977007Y-62839504D01*
X148953803Y-62845316D01*
X148930142Y-62848826D01*
X148906250Y-62850000D01*
X147993750Y-62850000D01*
X147969858Y-62848826D01*
X147946197Y-62845316D01*
X147922993Y-62839504D01*
X147900471Y-62831446D01*
X147878847Y-62821218D01*
X147858330Y-62808921D01*
X147839117Y-62794671D01*
X147821393Y-62778607D01*
X147805329Y-62760883D01*
X147791079Y-62741670D01*
X147778782Y-62721153D01*
X147768554Y-62699529D01*
X147760496Y-62677007D01*
X147754684Y-62653803D01*
X147751174Y-62630142D01*
X147750000Y-62606250D01*
X147750000Y-62118750D01*
X147751174Y-62094858D01*
X147754684Y-62071197D01*
X147760496Y-62047993D01*
X147768554Y-62025471D01*
X147778782Y-62003847D01*
X147791079Y-61983330D01*
X147805329Y-61964117D01*
X147821393Y-61946393D01*
X147839117Y-61930329D01*
X147858330Y-61916079D01*
X147878847Y-61903782D01*
X147900471Y-61893554D01*
X147922993Y-61885496D01*
X147946197Y-61879684D01*
X147969858Y-61876174D01*
X147993750Y-61875000D01*
X148906250Y-61875000D01*
X148930142Y-61876174D01*
G37*
G04 #@! TD.AperFunction*
G04 #@! TA.AperFunction,SMDPad,CuDef*
G36*
X148930142Y-63751174D02*
G01*
X148953803Y-63754684D01*
X148977007Y-63760496D01*
X148999529Y-63768554D01*
X149021153Y-63778782D01*
X149041670Y-63791079D01*
X149060883Y-63805329D01*
X149078607Y-63821393D01*
X149094671Y-63839117D01*
X149108921Y-63858330D01*
X149121218Y-63878847D01*
X149131446Y-63900471D01*
X149139504Y-63922993D01*
X149145316Y-63946197D01*
X149148826Y-63969858D01*
X149150000Y-63993750D01*
X149150000Y-64481250D01*
X149148826Y-64505142D01*
X149145316Y-64528803D01*
X149139504Y-64552007D01*
X149131446Y-64574529D01*
X149121218Y-64596153D01*
X149108921Y-64616670D01*
X149094671Y-64635883D01*
X149078607Y-64653607D01*
X149060883Y-64669671D01*
X149041670Y-64683921D01*
X149021153Y-64696218D01*
X148999529Y-64706446D01*
X148977007Y-64714504D01*
X148953803Y-64720316D01*
X148930142Y-64723826D01*
X148906250Y-64725000D01*
X147993750Y-64725000D01*
X147969858Y-64723826D01*
X147946197Y-64720316D01*
X147922993Y-64714504D01*
X147900471Y-64706446D01*
X147878847Y-64696218D01*
X147858330Y-64683921D01*
X147839117Y-64669671D01*
X147821393Y-64653607D01*
X147805329Y-64635883D01*
X147791079Y-64616670D01*
X147778782Y-64596153D01*
X147768554Y-64574529D01*
X147760496Y-64552007D01*
X147754684Y-64528803D01*
X147751174Y-64505142D01*
X147750000Y-64481250D01*
X147750000Y-63993750D01*
X147751174Y-63969858D01*
X147754684Y-63946197D01*
X147760496Y-63922993D01*
X147768554Y-63900471D01*
X147778782Y-63878847D01*
X147791079Y-63858330D01*
X147805329Y-63839117D01*
X147821393Y-63821393D01*
X147839117Y-63805329D01*
X147858330Y-63791079D01*
X147878847Y-63778782D01*
X147900471Y-63768554D01*
X147922993Y-63760496D01*
X147946197Y-63754684D01*
X147969858Y-63751174D01*
X147993750Y-63750000D01*
X148906250Y-63750000D01*
X148930142Y-63751174D01*
G37*
G04 #@! TD.AperFunction*
D14*
X148000000Y-73500000D03*
X148000000Y-76040000D03*
D15*
X148000000Y-78580000D03*
G04 #@! TA.AperFunction,SMDPad,CuDef*
D13*
G36*
X140480142Y-59951174D02*
G01*
X140503803Y-59954684D01*
X140527007Y-59960496D01*
X140549529Y-59968554D01*
X140571153Y-59978782D01*
X140591670Y-59991079D01*
X140610883Y-60005329D01*
X140628607Y-60021393D01*
X140644671Y-60039117D01*
X140658921Y-60058330D01*
X140671218Y-60078847D01*
X140681446Y-60100471D01*
X140689504Y-60122993D01*
X140695316Y-60146197D01*
X140698826Y-60169858D01*
X140700000Y-60193750D01*
X140700000Y-60681250D01*
X140698826Y-60705142D01*
X140695316Y-60728803D01*
X140689504Y-60752007D01*
X140681446Y-60774529D01*
X140671218Y-60796153D01*
X140658921Y-60816670D01*
X140644671Y-60835883D01*
X140628607Y-60853607D01*
X140610883Y-60869671D01*
X140591670Y-60883921D01*
X140571153Y-60896218D01*
X140549529Y-60906446D01*
X140527007Y-60914504D01*
X140503803Y-60920316D01*
X140480142Y-60923826D01*
X140456250Y-60925000D01*
X139543750Y-60925000D01*
X139519858Y-60923826D01*
X139496197Y-60920316D01*
X139472993Y-60914504D01*
X139450471Y-60906446D01*
X139428847Y-60896218D01*
X139408330Y-60883921D01*
X139389117Y-60869671D01*
X139371393Y-60853607D01*
X139355329Y-60835883D01*
X139341079Y-60816670D01*
X139328782Y-60796153D01*
X139318554Y-60774529D01*
X139310496Y-60752007D01*
X139304684Y-60728803D01*
X139301174Y-60705142D01*
X139300000Y-60681250D01*
X139300000Y-60193750D01*
X139301174Y-60169858D01*
X139304684Y-60146197D01*
X139310496Y-60122993D01*
X139318554Y-60100471D01*
X139328782Y-60078847D01*
X139341079Y-60058330D01*
X139355329Y-60039117D01*
X139371393Y-60021393D01*
X139389117Y-60005329D01*
X139408330Y-59991079D01*
X139428847Y-59978782D01*
X139450471Y-59968554D01*
X139472993Y-59960496D01*
X139496197Y-59954684D01*
X139519858Y-59951174D01*
X139543750Y-59950000D01*
X140456250Y-59950000D01*
X140480142Y-59951174D01*
G37*
G04 #@! TD.AperFunction*
G04 #@! TA.AperFunction,SMDPad,CuDef*
G36*
X140480142Y-58076174D02*
G01*
X140503803Y-58079684D01*
X140527007Y-58085496D01*
X140549529Y-58093554D01*
X140571153Y-58103782D01*
X140591670Y-58116079D01*
X140610883Y-58130329D01*
X140628607Y-58146393D01*
X140644671Y-58164117D01*
X140658921Y-58183330D01*
X140671218Y-58203847D01*
X140681446Y-58225471D01*
X140689504Y-58247993D01*
X140695316Y-58271197D01*
X140698826Y-58294858D01*
X140700000Y-58318750D01*
X140700000Y-58806250D01*
X140698826Y-58830142D01*
X140695316Y-58853803D01*
X140689504Y-58877007D01*
X140681446Y-58899529D01*
X140671218Y-58921153D01*
X140658921Y-58941670D01*
X140644671Y-58960883D01*
X140628607Y-58978607D01*
X140610883Y-58994671D01*
X140591670Y-59008921D01*
X140571153Y-59021218D01*
X140549529Y-59031446D01*
X140527007Y-59039504D01*
X140503803Y-59045316D01*
X140480142Y-59048826D01*
X140456250Y-59050000D01*
X139543750Y-59050000D01*
X139519858Y-59048826D01*
X139496197Y-59045316D01*
X139472993Y-59039504D01*
X139450471Y-59031446D01*
X139428847Y-59021218D01*
X139408330Y-59008921D01*
X139389117Y-58994671D01*
X139371393Y-58978607D01*
X139355329Y-58960883D01*
X139341079Y-58941670D01*
X139328782Y-58921153D01*
X139318554Y-58899529D01*
X139310496Y-58877007D01*
X139304684Y-58853803D01*
X139301174Y-58830142D01*
X139300000Y-58806250D01*
X139300000Y-58318750D01*
X139301174Y-58294858D01*
X139304684Y-58271197D01*
X139310496Y-58247993D01*
X139318554Y-58225471D01*
X139328782Y-58203847D01*
X139341079Y-58183330D01*
X139355329Y-58164117D01*
X139371393Y-58146393D01*
X139389117Y-58130329D01*
X139408330Y-58116079D01*
X139428847Y-58103782D01*
X139450471Y-58093554D01*
X139472993Y-58085496D01*
X139496197Y-58079684D01*
X139519858Y-58076174D01*
X139543750Y-58075000D01*
X140456250Y-58075000D01*
X140480142Y-58076174D01*
G37*
G04 #@! TD.AperFunction*
G04 #@! TA.AperFunction,SMDPad,CuDef*
G36*
X140080142Y-63751174D02*
G01*
X140103803Y-63754684D01*
X140127007Y-63760496D01*
X140149529Y-63768554D01*
X140171153Y-63778782D01*
X140191670Y-63791079D01*
X140210883Y-63805329D01*
X140228607Y-63821393D01*
X140244671Y-63839117D01*
X140258921Y-63858330D01*
X140271218Y-63878847D01*
X140281446Y-63900471D01*
X140289504Y-63922993D01*
X140295316Y-63946197D01*
X140298826Y-63969858D01*
X140300000Y-63993750D01*
X140300000Y-64481250D01*
X140298826Y-64505142D01*
X140295316Y-64528803D01*
X140289504Y-64552007D01*
X140281446Y-64574529D01*
X140271218Y-64596153D01*
X140258921Y-64616670D01*
X140244671Y-64635883D01*
X140228607Y-64653607D01*
X140210883Y-64669671D01*
X140191670Y-64683921D01*
X140171153Y-64696218D01*
X140149529Y-64706446D01*
X140127007Y-64714504D01*
X140103803Y-64720316D01*
X140080142Y-64723826D01*
X140056250Y-64725000D01*
X139143750Y-64725000D01*
X139119858Y-64723826D01*
X139096197Y-64720316D01*
X139072993Y-64714504D01*
X139050471Y-64706446D01*
X139028847Y-64696218D01*
X139008330Y-64683921D01*
X138989117Y-64669671D01*
X138971393Y-64653607D01*
X138955329Y-64635883D01*
X138941079Y-64616670D01*
X138928782Y-64596153D01*
X138918554Y-64574529D01*
X138910496Y-64552007D01*
X138904684Y-64528803D01*
X138901174Y-64505142D01*
X138900000Y-64481250D01*
X138900000Y-63993750D01*
X138901174Y-63969858D01*
X138904684Y-63946197D01*
X138910496Y-63922993D01*
X138918554Y-63900471D01*
X138928782Y-63878847D01*
X138941079Y-63858330D01*
X138955329Y-63839117D01*
X138971393Y-63821393D01*
X138989117Y-63805329D01*
X139008330Y-63791079D01*
X139028847Y-63778782D01*
X139050471Y-63768554D01*
X139072993Y-63760496D01*
X139096197Y-63754684D01*
X139119858Y-63751174D01*
X139143750Y-63750000D01*
X140056250Y-63750000D01*
X140080142Y-63751174D01*
G37*
G04 #@! TD.AperFunction*
G04 #@! TA.AperFunction,SMDPad,CuDef*
G36*
X140080142Y-61876174D02*
G01*
X140103803Y-61879684D01*
X140127007Y-61885496D01*
X140149529Y-61893554D01*
X140171153Y-61903782D01*
X140191670Y-61916079D01*
X140210883Y-61930329D01*
X140228607Y-61946393D01*
X140244671Y-61964117D01*
X140258921Y-61983330D01*
X140271218Y-62003847D01*
X140281446Y-62025471D01*
X140289504Y-62047993D01*
X140295316Y-62071197D01*
X140298826Y-62094858D01*
X140300000Y-62118750D01*
X140300000Y-62606250D01*
X140298826Y-62630142D01*
X140295316Y-62653803D01*
X140289504Y-62677007D01*
X140281446Y-62699529D01*
X140271218Y-62721153D01*
X140258921Y-62741670D01*
X140244671Y-62760883D01*
X140228607Y-62778607D01*
X140210883Y-62794671D01*
X140191670Y-62808921D01*
X140171153Y-62821218D01*
X140149529Y-62831446D01*
X140127007Y-62839504D01*
X140103803Y-62845316D01*
X140080142Y-62848826D01*
X140056250Y-62850000D01*
X139143750Y-62850000D01*
X139119858Y-62848826D01*
X139096197Y-62845316D01*
X139072993Y-62839504D01*
X139050471Y-62831446D01*
X139028847Y-62821218D01*
X139008330Y-62808921D01*
X138989117Y-62794671D01*
X138971393Y-62778607D01*
X138955329Y-62760883D01*
X138941079Y-62741670D01*
X138928782Y-62721153D01*
X138918554Y-62699529D01*
X138910496Y-62677007D01*
X138904684Y-62653803D01*
X138901174Y-62630142D01*
X138900000Y-62606250D01*
X138900000Y-62118750D01*
X138901174Y-62094858D01*
X138904684Y-62071197D01*
X138910496Y-62047993D01*
X138918554Y-62025471D01*
X138928782Y-62003847D01*
X138941079Y-61983330D01*
X138955329Y-61964117D01*
X138971393Y-61946393D01*
X138989117Y-61930329D01*
X139008330Y-61916079D01*
X139028847Y-61903782D01*
X139050471Y-61893554D01*
X139072993Y-61885496D01*
X139096197Y-61879684D01*
X139119858Y-61876174D01*
X139143750Y-61875000D01*
X140056250Y-61875000D01*
X140080142Y-61876174D01*
G37*
G04 #@! TD.AperFunction*
G04 #@! TA.AperFunction,SMDPad,CuDef*
G36*
X144950642Y-63901174D02*
G01*
X144974303Y-63904684D01*
X144997507Y-63910496D01*
X145020029Y-63918554D01*
X145041653Y-63928782D01*
X145062170Y-63941079D01*
X145081383Y-63955329D01*
X145099107Y-63971393D01*
X145115171Y-63989117D01*
X145129421Y-64008330D01*
X145141718Y-64028847D01*
X145151946Y-64050471D01*
X145160004Y-64072993D01*
X145165816Y-64096197D01*
X145169326Y-64119858D01*
X145170500Y-64143750D01*
X145170500Y-65056250D01*
X145169326Y-65080142D01*
X145165816Y-65103803D01*
X145160004Y-65127007D01*
X145151946Y-65149529D01*
X145141718Y-65171153D01*
X145129421Y-65191670D01*
X145115171Y-65210883D01*
X145099107Y-65228607D01*
X145081383Y-65244671D01*
X145062170Y-65258921D01*
X145041653Y-65271218D01*
X145020029Y-65281446D01*
X144997507Y-65289504D01*
X144974303Y-65295316D01*
X144950642Y-65298826D01*
X144926750Y-65300000D01*
X144439250Y-65300000D01*
X144415358Y-65298826D01*
X144391697Y-65295316D01*
X144368493Y-65289504D01*
X144345971Y-65281446D01*
X144324347Y-65271218D01*
X144303830Y-65258921D01*
X144284617Y-65244671D01*
X144266893Y-65228607D01*
X144250829Y-65210883D01*
X144236579Y-65191670D01*
X144224282Y-65171153D01*
X144214054Y-65149529D01*
X144205996Y-65127007D01*
X144200184Y-65103803D01*
X144196674Y-65080142D01*
X144195500Y-65056250D01*
X144195500Y-64143750D01*
X144196674Y-64119858D01*
X144200184Y-64096197D01*
X144205996Y-64072993D01*
X144214054Y-64050471D01*
X144224282Y-64028847D01*
X144236579Y-64008330D01*
X144250829Y-63989117D01*
X144266893Y-63971393D01*
X144284617Y-63955329D01*
X144303830Y-63941079D01*
X144324347Y-63928782D01*
X144345971Y-63918554D01*
X144368493Y-63910496D01*
X144391697Y-63904684D01*
X144415358Y-63901174D01*
X144439250Y-63900000D01*
X144926750Y-63900000D01*
X144950642Y-63901174D01*
G37*
G04 #@! TD.AperFunction*
G04 #@! TA.AperFunction,SMDPad,CuDef*
G36*
X146825642Y-63901174D02*
G01*
X146849303Y-63904684D01*
X146872507Y-63910496D01*
X146895029Y-63918554D01*
X146916653Y-63928782D01*
X146937170Y-63941079D01*
X146956383Y-63955329D01*
X146974107Y-63971393D01*
X146990171Y-63989117D01*
X147004421Y-64008330D01*
X147016718Y-64028847D01*
X147026946Y-64050471D01*
X147035004Y-64072993D01*
X147040816Y-64096197D01*
X147044326Y-64119858D01*
X147045500Y-64143750D01*
X147045500Y-65056250D01*
X147044326Y-65080142D01*
X147040816Y-65103803D01*
X147035004Y-65127007D01*
X147026946Y-65149529D01*
X147016718Y-65171153D01*
X147004421Y-65191670D01*
X146990171Y-65210883D01*
X146974107Y-65228607D01*
X146956383Y-65244671D01*
X146937170Y-65258921D01*
X146916653Y-65271218D01*
X146895029Y-65281446D01*
X146872507Y-65289504D01*
X146849303Y-65295316D01*
X146825642Y-65298826D01*
X146801750Y-65300000D01*
X146314250Y-65300000D01*
X146290358Y-65298826D01*
X146266697Y-65295316D01*
X146243493Y-65289504D01*
X146220971Y-65281446D01*
X146199347Y-65271218D01*
X146178830Y-65258921D01*
X146159617Y-65244671D01*
X146141893Y-65228607D01*
X146125829Y-65210883D01*
X146111579Y-65191670D01*
X146099282Y-65171153D01*
X146089054Y-65149529D01*
X146080996Y-65127007D01*
X146075184Y-65103803D01*
X146071674Y-65080142D01*
X146070500Y-65056250D01*
X146070500Y-64143750D01*
X146071674Y-64119858D01*
X146075184Y-64096197D01*
X146080996Y-64072993D01*
X146089054Y-64050471D01*
X146099282Y-64028847D01*
X146111579Y-64008330D01*
X146125829Y-63989117D01*
X146141893Y-63971393D01*
X146159617Y-63955329D01*
X146178830Y-63941079D01*
X146199347Y-63928782D01*
X146220971Y-63918554D01*
X146243493Y-63910496D01*
X146266697Y-63904684D01*
X146290358Y-63901174D01*
X146314250Y-63900000D01*
X146801750Y-63900000D01*
X146825642Y-63901174D01*
G37*
G04 #@! TD.AperFunction*
D16*
X140600000Y-63300000D03*
X145150000Y-60550000D03*
X147700000Y-58050000D03*
X140900000Y-61400000D03*
X147700000Y-61150000D03*
D17*
X139554001Y-58946999D02*
X139954000Y-58547000D01*
D18*
X142272000Y-59560500D02*
X142272000Y-59560500D01*
X142282500Y-59550000D02*
X142272000Y-59560500D01*
X146400000Y-59550000D02*
X142282500Y-59550000D01*
D17*
X148450000Y-62725000D02*
X148463000Y-62738000D01*
X147988500Y-62738000D02*
X148463000Y-62738000D01*
X146453500Y-62824000D02*
X146558000Y-62928500D01*
X146748500Y-62738000D02*
X146558000Y-62928500D01*
X148463000Y-62450000D02*
X146748500Y-62450000D01*
X146558000Y-64960500D02*
X146558000Y-62928500D01*
X148600000Y-62212500D02*
X148450000Y-62362500D01*
X146400000Y-62392000D02*
X146558000Y-62550000D01*
X146400000Y-60500000D02*
X146400000Y-62392000D01*
D18*
X141650000Y-64237500D02*
X141662500Y-64237500D01*
X148250000Y-58600000D02*
X147700000Y-58050000D01*
X148600000Y-58600000D02*
X148250000Y-58600000D01*
X145110500Y-60510500D02*
X145150000Y-60550000D01*
X144272000Y-60510500D02*
X145110500Y-60510500D01*
X139662500Y-62362500D02*
X140600000Y-63300000D01*
X139600000Y-62362500D02*
X139662500Y-62362500D01*
X141537500Y-64237500D02*
X140600000Y-63300000D01*
X141650000Y-64237500D02*
X141537500Y-64237500D01*
D17*
X148463000Y-60637000D02*
X148600000Y-60500000D01*
X141650000Y-62150000D02*
X140900000Y-61400000D01*
X141650000Y-62362500D02*
X141650000Y-62150000D01*
X140000000Y-60500000D02*
X140900000Y-61400000D01*
X140000000Y-60437500D02*
X140000000Y-60500000D01*
X148600000Y-60500000D02*
X148600000Y-60500000D01*
X148350000Y-60500000D02*
X147700000Y-61150000D01*
X148600000Y-60500000D02*
X148350000Y-60500000D01*
X143077630Y-74000000D02*
X142000000Y-74000000D01*
X148463000Y-64613000D02*
X146794399Y-66281601D01*
X146794399Y-66281601D02*
X146794399Y-70283231D01*
X146794399Y-70283231D02*
X143077630Y-74000000D01*
X144500000Y-76500000D02*
X142000000Y-74000000D01*
X146451000Y-58610500D02*
X146453500Y-58608000D01*
X144322000Y-58610500D02*
X144272000Y-58610500D01*
X144282500Y-58600000D02*
X144272000Y-58610500D01*
X146400000Y-58600000D02*
X144282500Y-58600000D01*
D19*
G36*
X143467506Y-57679963D02*
G01*
X143370815Y-57759315D01*
X143291463Y-57856006D01*
X143232498Y-57966320D01*
X143196188Y-58086018D01*
X143183928Y-58210500D01*
X143183928Y-58722405D01*
X143173185Y-58709315D01*
X143076494Y-58629963D01*
X142966180Y-58570998D01*
X142846482Y-58534688D01*
X142722000Y-58522428D01*
X142557750Y-58525500D01*
X142399000Y-58684250D01*
X142399000Y-59433500D01*
X143198250Y-59433500D01*
X143282857Y-59348893D01*
X143291463Y-59364994D01*
X143370815Y-59461685D01*
X143467506Y-59541037D01*
X143503918Y-59560500D01*
X143467506Y-59579963D01*
X143370815Y-59659315D01*
X143291463Y-59756006D01*
X143282857Y-59772107D01*
X143198250Y-59687500D01*
X142399000Y-59687500D01*
X142399000Y-60436750D01*
X142557750Y-60595500D01*
X142722000Y-60598572D01*
X142846482Y-60586312D01*
X142966180Y-60550002D01*
X143076494Y-60491037D01*
X143173185Y-60411685D01*
X143183928Y-60398595D01*
X143183928Y-60910500D01*
X143196188Y-61034982D01*
X143232498Y-61154680D01*
X143291463Y-61264994D01*
X143370815Y-61361685D01*
X143467506Y-61441037D01*
X143577820Y-61500002D01*
X143650737Y-61522121D01*
X143605998Y-61605820D01*
X143569688Y-61725518D01*
X143557428Y-61850000D01*
X143560500Y-62264250D01*
X143719250Y-62423000D01*
X144556000Y-62423000D01*
X144556000Y-62403000D01*
X144810000Y-62403000D01*
X144810000Y-62423000D01*
X144830000Y-62423000D01*
X144830000Y-62677000D01*
X144810000Y-62677000D01*
X144810000Y-64473000D01*
X144830000Y-64473000D01*
X144830000Y-64727000D01*
X144810000Y-64727000D01*
X144810000Y-65776250D01*
X144968750Y-65935000D01*
X145170500Y-65938072D01*
X145294982Y-65925812D01*
X145414680Y-65889502D01*
X145524994Y-65830537D01*
X145621685Y-65751185D01*
X145685492Y-65673436D01*
X145690708Y-65679792D01*
X145824336Y-65789458D01*
X145976791Y-65870947D01*
X146100945Y-65908609D01*
X146063417Y-65978819D01*
X146018393Y-66127245D01*
X146006999Y-66242929D01*
X146006999Y-66242938D01*
X146003191Y-66281601D01*
X146006999Y-66320264D01*
X146006999Y-68004990D01*
X145980631Y-67941331D01*
X145736038Y-67575271D01*
X145424729Y-67263962D01*
X145058669Y-67019369D01*
X144651925Y-66850890D01*
X144220128Y-66765000D01*
X143779872Y-66765000D01*
X143348075Y-66850890D01*
X142941331Y-67019369D01*
X142575271Y-67263962D01*
X142263962Y-67575271D01*
X142019369Y-67941331D01*
X141850890Y-68348075D01*
X141765000Y-68779872D01*
X141765000Y-69220128D01*
X141850890Y-69651925D01*
X142019369Y-70058669D01*
X142263962Y-70424729D01*
X142575271Y-70736038D01*
X142941331Y-70980631D01*
X143348075Y-71149110D01*
X143779872Y-71235000D01*
X144220128Y-71235000D01*
X144651925Y-71149110D01*
X144930258Y-71033821D01*
X142969867Y-72994212D01*
X142890535Y-72914880D01*
X142661727Y-72761995D01*
X142407490Y-72656686D01*
X142137592Y-72603000D01*
X141862408Y-72603000D01*
X141592510Y-72656686D01*
X141338273Y-72761995D01*
X141109465Y-72914880D01*
X140914880Y-73109465D01*
X140761995Y-73338273D01*
X140656686Y-73592510D01*
X140603000Y-73862408D01*
X140603000Y-74137592D01*
X140656686Y-74407490D01*
X140761995Y-74661727D01*
X140914880Y-74890535D01*
X141109465Y-75085120D01*
X141338273Y-75238005D01*
X141592510Y-75343314D01*
X141862408Y-75397000D01*
X142137592Y-75397000D01*
X142259250Y-75372801D01*
X143127199Y-76240750D01*
X143103000Y-76362408D01*
X143103000Y-76637592D01*
X143156686Y-76907490D01*
X143261995Y-77161727D01*
X143414880Y-77390535D01*
X143609465Y-77585120D01*
X143838273Y-77738005D01*
X144092510Y-77843314D01*
X144362408Y-77897000D01*
X144637592Y-77897000D01*
X144907490Y-77843314D01*
X145161727Y-77738005D01*
X145390535Y-77585120D01*
X145585120Y-77390535D01*
X145738005Y-77161727D01*
X145843314Y-76907490D01*
X145897000Y-76637592D01*
X145897000Y-76362408D01*
X145843314Y-76092510D01*
X145738005Y-75838273D01*
X145585120Y-75609465D01*
X145390535Y-75414880D01*
X145161727Y-75261995D01*
X144907490Y-75156686D01*
X144637592Y-75103000D01*
X144362408Y-75103000D01*
X144240750Y-75127199D01*
X143653290Y-74539740D01*
X143661758Y-74529422D01*
X147323832Y-70867350D01*
X147353868Y-70842700D01*
X147452265Y-70722803D01*
X147525381Y-70586014D01*
X147570405Y-70437588D01*
X147581799Y-70321904D01*
X147581799Y-70321895D01*
X147585607Y-70283232D01*
X147581799Y-70244569D01*
X147581799Y-66607751D01*
X148826480Y-65363072D01*
X148906250Y-65363072D01*
X149078285Y-65346128D01*
X149243709Y-65295947D01*
X149340000Y-65244478D01*
X149340001Y-72854556D01*
X149315990Y-72796589D01*
X149153475Y-72553368D01*
X148946632Y-72346525D01*
X148703411Y-72184010D01*
X148433158Y-72072068D01*
X148146260Y-72015000D01*
X147853740Y-72015000D01*
X147566842Y-72072068D01*
X147296589Y-72184010D01*
X147053368Y-72346525D01*
X146846525Y-72553368D01*
X146684010Y-72796589D01*
X146572068Y-73066842D01*
X146515000Y-73353740D01*
X146515000Y-73646260D01*
X146572068Y-73933158D01*
X146684010Y-74203411D01*
X146846525Y-74446632D01*
X147053368Y-74653475D01*
X147235534Y-74775195D01*
X147118645Y-74844822D01*
X146902412Y-75039731D01*
X146728359Y-75273080D01*
X146603175Y-75535901D01*
X146558524Y-75683110D01*
X146679845Y-75913000D01*
X147873000Y-75913000D01*
X147873000Y-75893000D01*
X148127000Y-75893000D01*
X148127000Y-75913000D01*
X148147000Y-75913000D01*
X148147000Y-76167000D01*
X148127000Y-76167000D01*
X148127000Y-76187000D01*
X147873000Y-76187000D01*
X147873000Y-76167000D01*
X146679845Y-76167000D01*
X146558524Y-76396890D01*
X146603175Y-76544099D01*
X146728359Y-76806920D01*
X146902412Y-77040269D01*
X146986466Y-77116034D01*
X146905820Y-77140498D01*
X146795506Y-77199463D01*
X146698815Y-77278815D01*
X146619463Y-77375506D01*
X146560498Y-77485820D01*
X146524188Y-77605518D01*
X146511928Y-77730000D01*
X146511928Y-79430000D01*
X146524188Y-79554482D01*
X146560498Y-79674180D01*
X146619463Y-79784494D01*
X146665015Y-79840000D01*
X143118886Y-79840000D01*
X143238005Y-79661727D01*
X143343314Y-79407490D01*
X143397000Y-79137592D01*
X143397000Y-78862408D01*
X143343314Y-78592510D01*
X143238005Y-78338273D01*
X143085120Y-78109465D01*
X142890535Y-77914880D01*
X142661727Y-77761995D01*
X142407490Y-77656686D01*
X142137592Y-77603000D01*
X141862408Y-77603000D01*
X141592510Y-77656686D01*
X141338273Y-77761995D01*
X141109465Y-77914880D01*
X140914880Y-78109465D01*
X140761995Y-78338273D01*
X140656686Y-78592510D01*
X140603000Y-78862408D01*
X140603000Y-79137592D01*
X140656686Y-79407490D01*
X140761995Y-79661727D01*
X140881114Y-79840000D01*
X139032279Y-79840000D01*
X138934576Y-79830420D01*
X138871643Y-79811420D01*
X138813594Y-79780554D01*
X138762657Y-79739011D01*
X138720752Y-79688356D01*
X138689485Y-79630529D01*
X138670044Y-79567728D01*
X138660000Y-79472165D01*
X138660000Y-65315770D01*
X138775518Y-65350812D01*
X138900000Y-65363072D01*
X139314250Y-65360000D01*
X139473000Y-65201250D01*
X139473000Y-64364500D01*
X139453000Y-64364500D01*
X139453000Y-64110500D01*
X139473000Y-64110500D01*
X139473000Y-64090500D01*
X139727000Y-64090500D01*
X139727000Y-64110500D01*
X139747000Y-64110500D01*
X139747000Y-64364500D01*
X139727000Y-64364500D01*
X139727000Y-65201250D01*
X139885750Y-65360000D01*
X140300000Y-65363072D01*
X140424482Y-65350812D01*
X140544180Y-65314502D01*
X140654494Y-65255537D01*
X140704268Y-65214689D01*
X140856291Y-65295947D01*
X141021715Y-65346128D01*
X141193750Y-65363072D01*
X142106250Y-65363072D01*
X142278285Y-65346128D01*
X142430348Y-65300000D01*
X143557428Y-65300000D01*
X143569688Y-65424482D01*
X143605998Y-65544180D01*
X143664963Y-65654494D01*
X143744315Y-65751185D01*
X143841006Y-65830537D01*
X143951320Y-65889502D01*
X144071018Y-65925812D01*
X144195500Y-65938072D01*
X144397250Y-65935000D01*
X144556000Y-65776250D01*
X144556000Y-64727000D01*
X143719250Y-64727000D01*
X143560500Y-64885750D01*
X143557428Y-65300000D01*
X142430348Y-65300000D01*
X142443709Y-65295947D01*
X142596164Y-65214458D01*
X142729792Y-65104792D01*
X142839458Y-64971164D01*
X142920947Y-64818709D01*
X142971128Y-64653285D01*
X142988072Y-64481250D01*
X142988072Y-63993750D01*
X142971128Y-63821715D01*
X142920947Y-63656291D01*
X142839458Y-63503836D01*
X142729792Y-63370208D01*
X142644244Y-63300000D01*
X142705168Y-63250000D01*
X143557428Y-63250000D01*
X143569688Y-63374482D01*
X143605998Y-63494180D01*
X143649198Y-63575000D01*
X143605998Y-63655820D01*
X143569688Y-63775518D01*
X143557428Y-63900000D01*
X143560500Y-64314250D01*
X143719250Y-64473000D01*
X144556000Y-64473000D01*
X144556000Y-62677000D01*
X143719250Y-62677000D01*
X143560500Y-62835750D01*
X143557428Y-63250000D01*
X142705168Y-63250000D01*
X142729792Y-63229792D01*
X142839458Y-63096164D01*
X142920947Y-62943709D01*
X142971128Y-62778285D01*
X142988072Y-62606250D01*
X142988072Y-62118750D01*
X142971128Y-61946715D01*
X142920947Y-61781291D01*
X142839458Y-61628836D01*
X142729792Y-61495208D01*
X142596164Y-61385542D01*
X142443709Y-61304053D01*
X142278285Y-61253872D01*
X142106250Y-61236928D01*
X141922840Y-61236928D01*
X141895226Y-61098102D01*
X141817205Y-60909744D01*
X141703937Y-60740226D01*
X141559774Y-60596063D01*
X141390256Y-60482795D01*
X141338072Y-60461180D01*
X141338072Y-60371787D01*
X141370815Y-60411685D01*
X141467506Y-60491037D01*
X141577820Y-60550002D01*
X141697518Y-60586312D01*
X141822000Y-60598572D01*
X141986250Y-60595500D01*
X142145000Y-60436750D01*
X142145000Y-59687500D01*
X141345750Y-59687500D01*
X141238208Y-59795042D01*
X141189458Y-59703836D01*
X141079792Y-59570208D01*
X141073436Y-59564992D01*
X141151185Y-59501185D01*
X141230537Y-59404494D01*
X141260566Y-59348316D01*
X141345750Y-59433500D01*
X142145000Y-59433500D01*
X142145000Y-58684250D01*
X141986250Y-58525500D01*
X141822000Y-58522428D01*
X141697518Y-58534688D01*
X141577820Y-58570998D01*
X141467506Y-58629963D01*
X141370815Y-58709315D01*
X141292046Y-58805296D01*
X141176250Y-58689500D01*
X140127000Y-58689500D01*
X140127000Y-58709500D01*
X139873000Y-58709500D01*
X139873000Y-58689500D01*
X138823750Y-58689500D01*
X138665000Y-58848250D01*
X138661928Y-59050000D01*
X138674188Y-59174482D01*
X138710498Y-59294180D01*
X138769463Y-59404494D01*
X138848815Y-59501185D01*
X138926564Y-59564992D01*
X138920208Y-59570208D01*
X138810542Y-59703836D01*
X138729053Y-59856291D01*
X138678872Y-60021715D01*
X138661928Y-60193750D01*
X138661928Y-60681250D01*
X138678872Y-60853285D01*
X138729053Y-61018709D01*
X138810542Y-61171164D01*
X138897015Y-61276532D01*
X138806291Y-61304053D01*
X138660000Y-61382247D01*
X138660000Y-58032279D01*
X138669580Y-57934576D01*
X138688580Y-57871644D01*
X138719445Y-57813595D01*
X138720200Y-57812670D01*
X138710498Y-57830820D01*
X138674188Y-57950518D01*
X138661928Y-58075000D01*
X138665000Y-58276750D01*
X138823750Y-58435500D01*
X139873000Y-58435500D01*
X139873000Y-58415500D01*
X140127000Y-58415500D01*
X140127000Y-58435500D01*
X141176250Y-58435500D01*
X141335000Y-58276750D01*
X141338072Y-58075000D01*
X141325812Y-57950518D01*
X141289502Y-57830820D01*
X141230537Y-57720506D01*
X141180881Y-57660000D01*
X143504854Y-57660000D01*
X143467506Y-57679963D01*
G37*
X143467506Y-57679963D02*
X143370815Y-57759315D01*
X143291463Y-57856006D01*
X143232498Y-57966320D01*
X143196188Y-58086018D01*
X143183928Y-58210500D01*
X143183928Y-58722405D01*
X143173185Y-58709315D01*
X143076494Y-58629963D01*
X142966180Y-58570998D01*
X142846482Y-58534688D01*
X142722000Y-58522428D01*
X142557750Y-58525500D01*
X142399000Y-58684250D01*
X142399000Y-59433500D01*
X143198250Y-59433500D01*
X143282857Y-59348893D01*
X143291463Y-59364994D01*
X143370815Y-59461685D01*
X143467506Y-59541037D01*
X143503918Y-59560500D01*
X143467506Y-59579963D01*
X143370815Y-59659315D01*
X143291463Y-59756006D01*
X143282857Y-59772107D01*
X143198250Y-59687500D01*
X142399000Y-59687500D01*
X142399000Y-60436750D01*
X142557750Y-60595500D01*
X142722000Y-60598572D01*
X142846482Y-60586312D01*
X142966180Y-60550002D01*
X143076494Y-60491037D01*
X143173185Y-60411685D01*
X143183928Y-60398595D01*
X143183928Y-60910500D01*
X143196188Y-61034982D01*
X143232498Y-61154680D01*
X143291463Y-61264994D01*
X143370815Y-61361685D01*
X143467506Y-61441037D01*
X143577820Y-61500002D01*
X143650737Y-61522121D01*
X143605998Y-61605820D01*
X143569688Y-61725518D01*
X143557428Y-61850000D01*
X143560500Y-62264250D01*
X143719250Y-62423000D01*
X144556000Y-62423000D01*
X144556000Y-62403000D01*
X144810000Y-62403000D01*
X144810000Y-62423000D01*
X144830000Y-62423000D01*
X144830000Y-62677000D01*
X144810000Y-62677000D01*
X144810000Y-64473000D01*
X144830000Y-64473000D01*
X144830000Y-64727000D01*
X144810000Y-64727000D01*
X144810000Y-65776250D01*
X144968750Y-65935000D01*
X145170500Y-65938072D01*
X145294982Y-65925812D01*
X145414680Y-65889502D01*
X145524994Y-65830537D01*
X145621685Y-65751185D01*
X145685492Y-65673436D01*
X145690708Y-65679792D01*
X145824336Y-65789458D01*
X145976791Y-65870947D01*
X146100945Y-65908609D01*
X146063417Y-65978819D01*
X146018393Y-66127245D01*
X146006999Y-66242929D01*
X146006999Y-66242938D01*
X146003191Y-66281601D01*
X146006999Y-66320264D01*
X146006999Y-68004990D01*
X145980631Y-67941331D01*
X145736038Y-67575271D01*
X145424729Y-67263962D01*
X145058669Y-67019369D01*
X144651925Y-66850890D01*
X144220128Y-66765000D01*
X143779872Y-66765000D01*
X143348075Y-66850890D01*
X142941331Y-67019369D01*
X142575271Y-67263962D01*
X142263962Y-67575271D01*
X142019369Y-67941331D01*
X141850890Y-68348075D01*
X141765000Y-68779872D01*
X141765000Y-69220128D01*
X141850890Y-69651925D01*
X142019369Y-70058669D01*
X142263962Y-70424729D01*
X142575271Y-70736038D01*
X142941331Y-70980631D01*
X143348075Y-71149110D01*
X143779872Y-71235000D01*
X144220128Y-71235000D01*
X144651925Y-71149110D01*
X144930258Y-71033821D01*
X142969867Y-72994212D01*
X142890535Y-72914880D01*
X142661727Y-72761995D01*
X142407490Y-72656686D01*
X142137592Y-72603000D01*
X141862408Y-72603000D01*
X141592510Y-72656686D01*
X141338273Y-72761995D01*
X141109465Y-72914880D01*
X140914880Y-73109465D01*
X140761995Y-73338273D01*
X140656686Y-73592510D01*
X140603000Y-73862408D01*
X140603000Y-74137592D01*
X140656686Y-74407490D01*
X140761995Y-74661727D01*
X140914880Y-74890535D01*
X141109465Y-75085120D01*
X141338273Y-75238005D01*
X141592510Y-75343314D01*
X141862408Y-75397000D01*
X142137592Y-75397000D01*
X142259250Y-75372801D01*
X143127199Y-76240750D01*
X143103000Y-76362408D01*
X143103000Y-76637592D01*
X143156686Y-76907490D01*
X143261995Y-77161727D01*
X143414880Y-77390535D01*
X143609465Y-77585120D01*
X143838273Y-77738005D01*
X144092510Y-77843314D01*
X144362408Y-77897000D01*
X144637592Y-77897000D01*
X144907490Y-77843314D01*
X145161727Y-77738005D01*
X145390535Y-77585120D01*
X145585120Y-77390535D01*
X145738005Y-77161727D01*
X145843314Y-76907490D01*
X145897000Y-76637592D01*
X145897000Y-76362408D01*
X145843314Y-76092510D01*
X145738005Y-75838273D01*
X145585120Y-75609465D01*
X145390535Y-75414880D01*
X145161727Y-75261995D01*
X144907490Y-75156686D01*
X144637592Y-75103000D01*
X144362408Y-75103000D01*
X144240750Y-75127199D01*
X143653290Y-74539740D01*
X143661758Y-74529422D01*
X147323832Y-70867350D01*
X147353868Y-70842700D01*
X147452265Y-70722803D01*
X147525381Y-70586014D01*
X147570405Y-70437588D01*
X147581799Y-70321904D01*
X147581799Y-70321895D01*
X147585607Y-70283232D01*
X147581799Y-70244569D01*
X147581799Y-66607751D01*
X148826480Y-65363072D01*
X148906250Y-65363072D01*
X149078285Y-65346128D01*
X149243709Y-65295947D01*
X149340000Y-65244478D01*
X149340001Y-72854556D01*
X149315990Y-72796589D01*
X149153475Y-72553368D01*
X148946632Y-72346525D01*
X148703411Y-72184010D01*
X148433158Y-72072068D01*
X148146260Y-72015000D01*
X147853740Y-72015000D01*
X147566842Y-72072068D01*
X147296589Y-72184010D01*
X147053368Y-72346525D01*
X146846525Y-72553368D01*
X146684010Y-72796589D01*
X146572068Y-73066842D01*
X146515000Y-73353740D01*
X146515000Y-73646260D01*
X146572068Y-73933158D01*
X146684010Y-74203411D01*
X146846525Y-74446632D01*
X147053368Y-74653475D01*
X147235534Y-74775195D01*
X147118645Y-74844822D01*
X146902412Y-75039731D01*
X146728359Y-75273080D01*
X146603175Y-75535901D01*
X146558524Y-75683110D01*
X146679845Y-75913000D01*
X147873000Y-75913000D01*
X147873000Y-75893000D01*
X148127000Y-75893000D01*
X148127000Y-75913000D01*
X148147000Y-75913000D01*
X148147000Y-76167000D01*
X148127000Y-76167000D01*
X148127000Y-76187000D01*
X147873000Y-76187000D01*
X147873000Y-76167000D01*
X146679845Y-76167000D01*
X146558524Y-76396890D01*
X146603175Y-76544099D01*
X146728359Y-76806920D01*
X146902412Y-77040269D01*
X146986466Y-77116034D01*
X146905820Y-77140498D01*
X146795506Y-77199463D01*
X146698815Y-77278815D01*
X146619463Y-77375506D01*
X146560498Y-77485820D01*
X146524188Y-77605518D01*
X146511928Y-77730000D01*
X146511928Y-79430000D01*
X146524188Y-79554482D01*
X146560498Y-79674180D01*
X146619463Y-79784494D01*
X146665015Y-79840000D01*
X143118886Y-79840000D01*
X143238005Y-79661727D01*
X143343314Y-79407490D01*
X143397000Y-79137592D01*
X143397000Y-78862408D01*
X143343314Y-78592510D01*
X143238005Y-78338273D01*
X143085120Y-78109465D01*
X142890535Y-77914880D01*
X142661727Y-77761995D01*
X142407490Y-77656686D01*
X142137592Y-77603000D01*
X141862408Y-77603000D01*
X141592510Y-77656686D01*
X141338273Y-77761995D01*
X141109465Y-77914880D01*
X140914880Y-78109465D01*
X140761995Y-78338273D01*
X140656686Y-78592510D01*
X140603000Y-78862408D01*
X140603000Y-79137592D01*
X140656686Y-79407490D01*
X140761995Y-79661727D01*
X140881114Y-79840000D01*
X139032279Y-79840000D01*
X138934576Y-79830420D01*
X138871643Y-79811420D01*
X138813594Y-79780554D01*
X138762657Y-79739011D01*
X138720752Y-79688356D01*
X138689485Y-79630529D01*
X138670044Y-79567728D01*
X138660000Y-79472165D01*
X138660000Y-65315770D01*
X138775518Y-65350812D01*
X138900000Y-65363072D01*
X139314250Y-65360000D01*
X139473000Y-65201250D01*
X139473000Y-64364500D01*
X139453000Y-64364500D01*
X139453000Y-64110500D01*
X139473000Y-64110500D01*
X139473000Y-64090500D01*
X139727000Y-64090500D01*
X139727000Y-64110500D01*
X139747000Y-64110500D01*
X139747000Y-64364500D01*
X139727000Y-64364500D01*
X139727000Y-65201250D01*
X139885750Y-65360000D01*
X140300000Y-65363072D01*
X140424482Y-65350812D01*
X140544180Y-65314502D01*
X140654494Y-65255537D01*
X140704268Y-65214689D01*
X140856291Y-65295947D01*
X141021715Y-65346128D01*
X141193750Y-65363072D01*
X142106250Y-65363072D01*
X142278285Y-65346128D01*
X142430348Y-65300000D01*
X143557428Y-65300000D01*
X143569688Y-65424482D01*
X143605998Y-65544180D01*
X143664963Y-65654494D01*
X143744315Y-65751185D01*
X143841006Y-65830537D01*
X143951320Y-65889502D01*
X144071018Y-65925812D01*
X144195500Y-65938072D01*
X144397250Y-65935000D01*
X144556000Y-65776250D01*
X144556000Y-64727000D01*
X143719250Y-64727000D01*
X143560500Y-64885750D01*
X143557428Y-65300000D01*
X142430348Y-65300000D01*
X142443709Y-65295947D01*
X142596164Y-65214458D01*
X142729792Y-65104792D01*
X142839458Y-64971164D01*
X142920947Y-64818709D01*
X142971128Y-64653285D01*
X142988072Y-64481250D01*
X142988072Y-63993750D01*
X142971128Y-63821715D01*
X142920947Y-63656291D01*
X142839458Y-63503836D01*
X142729792Y-63370208D01*
X142644244Y-63300000D01*
X142705168Y-63250000D01*
X143557428Y-63250000D01*
X143569688Y-63374482D01*
X143605998Y-63494180D01*
X143649198Y-63575000D01*
X143605998Y-63655820D01*
X143569688Y-63775518D01*
X143557428Y-63900000D01*
X143560500Y-64314250D01*
X143719250Y-64473000D01*
X144556000Y-64473000D01*
X144556000Y-62677000D01*
X143719250Y-62677000D01*
X143560500Y-62835750D01*
X143557428Y-63250000D01*
X142705168Y-63250000D01*
X142729792Y-63229792D01*
X142839458Y-63096164D01*
X142920947Y-62943709D01*
X142971128Y-62778285D01*
X142988072Y-62606250D01*
X142988072Y-62118750D01*
X142971128Y-61946715D01*
X142920947Y-61781291D01*
X142839458Y-61628836D01*
X142729792Y-61495208D01*
X142596164Y-61385542D01*
X142443709Y-61304053D01*
X142278285Y-61253872D01*
X142106250Y-61236928D01*
X141922840Y-61236928D01*
X141895226Y-61098102D01*
X141817205Y-60909744D01*
X141703937Y-60740226D01*
X141559774Y-60596063D01*
X141390256Y-60482795D01*
X141338072Y-60461180D01*
X141338072Y-60371787D01*
X141370815Y-60411685D01*
X141467506Y-60491037D01*
X141577820Y-60550002D01*
X141697518Y-60586312D01*
X141822000Y-60598572D01*
X141986250Y-60595500D01*
X142145000Y-60436750D01*
X142145000Y-59687500D01*
X141345750Y-59687500D01*
X141238208Y-59795042D01*
X141189458Y-59703836D01*
X141079792Y-59570208D01*
X141073436Y-59564992D01*
X141151185Y-59501185D01*
X141230537Y-59404494D01*
X141260566Y-59348316D01*
X141345750Y-59433500D01*
X142145000Y-59433500D01*
X142145000Y-58684250D01*
X141986250Y-58525500D01*
X141822000Y-58522428D01*
X141697518Y-58534688D01*
X141577820Y-58570998D01*
X141467506Y-58629963D01*
X141370815Y-58709315D01*
X141292046Y-58805296D01*
X141176250Y-58689500D01*
X140127000Y-58689500D01*
X140127000Y-58709500D01*
X139873000Y-58709500D01*
X139873000Y-58689500D01*
X138823750Y-58689500D01*
X138665000Y-58848250D01*
X138661928Y-59050000D01*
X138674188Y-59174482D01*
X138710498Y-59294180D01*
X138769463Y-59404494D01*
X138848815Y-59501185D01*
X138926564Y-59564992D01*
X138920208Y-59570208D01*
X138810542Y-59703836D01*
X138729053Y-59856291D01*
X138678872Y-60021715D01*
X138661928Y-60193750D01*
X138661928Y-60681250D01*
X138678872Y-60853285D01*
X138729053Y-61018709D01*
X138810542Y-61171164D01*
X138897015Y-61276532D01*
X138806291Y-61304053D01*
X138660000Y-61382247D01*
X138660000Y-58032279D01*
X138669580Y-57934576D01*
X138688580Y-57871644D01*
X138719445Y-57813595D01*
X138720200Y-57812670D01*
X138710498Y-57830820D01*
X138674188Y-57950518D01*
X138661928Y-58075000D01*
X138665000Y-58276750D01*
X138823750Y-58435500D01*
X139873000Y-58435500D01*
X139873000Y-58415500D01*
X140127000Y-58415500D01*
X140127000Y-58435500D01*
X141176250Y-58435500D01*
X141335000Y-58276750D01*
X141338072Y-58075000D01*
X141325812Y-57950518D01*
X141289502Y-57830820D01*
X141230537Y-57720506D01*
X141180881Y-57660000D01*
X143504854Y-57660000D01*
X143467506Y-57679963D01*
M02*
