G04 #@! TF.GenerationSoftware,KiCad,Pcbnew,(5.1.9)-1*
G04 #@! TF.CreationDate,2021-01-31T14:06:30+01:00*
G04 #@! TF.ProjectId,HallSingle,48616c6c-5369-46e6-976c-652e6b696361,rev?*
G04 #@! TF.SameCoordinates,Original*
G04 #@! TF.FileFunction,Legend,Top*
G04 #@! TF.FilePolarity,Positive*
%FSLAX46Y46*%
G04 Gerber Fmt 4.6, Leading zero omitted, Abs format (unit mm)*
G04 Created by KiCad (PCBNEW (5.1.9)-1) date 2021-01-31 14:06:30*
%MOMM*%
%LPD*%
G01*
G04 APERTURE LIST*
%ADD10C,0.120000*%
%ADD11C,0.150000*%
%ADD12C,0.125000*%
%ADD13O,1.700000X1.950000*%
%ADD14R,1.600000X1.500000*%
%ADD15R,1.200000X1.200000*%
%ADD16C,3.200000*%
%ADD17R,1.060000X0.650000*%
%ADD18R,0.800000X0.900000*%
G04 APERTURE END LIST*
D10*
X138628000Y-73196000D02*
X138628000Y-74446000D01*
X139878000Y-73196000D02*
X138628000Y-73196000D01*
X148278000Y-78696000D02*
X143978000Y-78696000D01*
X148278000Y-75746000D02*
X148278000Y-78696000D01*
X149028000Y-75746000D02*
X148278000Y-75746000D01*
X139678000Y-78696000D02*
X143978000Y-78696000D01*
X139678000Y-75746000D02*
X139678000Y-78696000D01*
X138928000Y-75746000D02*
X139678000Y-75746000D01*
X149028000Y-73496000D02*
X147228000Y-73496000D01*
X149028000Y-74246000D02*
X149028000Y-73496000D01*
X147228000Y-74246000D02*
X149028000Y-74246000D01*
X147228000Y-73496000D02*
X147228000Y-74246000D01*
X140728000Y-73496000D02*
X138928000Y-73496000D01*
X140728000Y-74246000D02*
X140728000Y-73496000D01*
X138928000Y-74246000D02*
X140728000Y-74246000D01*
X138928000Y-73496000D02*
X138928000Y-74246000D01*
X145728000Y-73496000D02*
X142228000Y-73496000D01*
X145728000Y-74246000D02*
X145728000Y-73496000D01*
X142228000Y-74246000D02*
X145728000Y-74246000D01*
X142228000Y-73496000D02*
X142228000Y-74246000D01*
X149038000Y-73486000D02*
X138918000Y-73486000D01*
X149038000Y-79456000D02*
X149038000Y-73486000D01*
X138918000Y-79456000D02*
X149038000Y-79456000D01*
X138918000Y-73486000D02*
X138918000Y-79456000D01*
X138408000Y-62290000D02*
X139108000Y-62290000D01*
X138408000Y-61590000D02*
X138408000Y-62290000D01*
X141808000Y-57790000D02*
X141208000Y-57790000D01*
X141808000Y-60690000D02*
X141808000Y-57790000D01*
X138608000Y-57790000D02*
X139208000Y-57790000D01*
X138608000Y-60690000D02*
X138608000Y-57790000D01*
X140008000Y-61790000D02*
X140408000Y-61790000D01*
X141492500Y-63770742D02*
X141492500Y-64245258D01*
X140447500Y-63770742D02*
X140447500Y-64245258D01*
X147590742Y-64247500D02*
X148065258Y-64247500D01*
X147590742Y-65292500D02*
X148065258Y-65292500D01*
X139714500Y-63770742D02*
X139714500Y-64245258D01*
X138669500Y-63770742D02*
X138669500Y-64245258D01*
X145798000Y-62851420D02*
X145798000Y-63132580D01*
X144778000Y-62851420D02*
X144778000Y-63132580D01*
X147687420Y-62482000D02*
X147968580Y-62482000D01*
X147687420Y-63502000D02*
X147968580Y-63502000D01*
X146928000Y-61160000D02*
X148728000Y-61160000D01*
X148728000Y-57940000D02*
X146278000Y-57940000D01*
X145598000Y-58422000D02*
X145598000Y-59882000D01*
X142438000Y-58422000D02*
X142438000Y-60582000D01*
X142438000Y-58422000D02*
X143368000Y-58422000D01*
X145598000Y-58422000D02*
X144668000Y-58422000D01*
X142296000Y-61992000D02*
X142296000Y-64677000D01*
X142296000Y-64677000D02*
X144216000Y-64677000D01*
X144216000Y-64677000D02*
X144216000Y-61992000D01*
D11*
X143684666Y-77430380D02*
X143684666Y-78144666D01*
X143637047Y-78287523D01*
X143541809Y-78382761D01*
X143398952Y-78430380D01*
X143303714Y-78430380D01*
X144684666Y-78430380D02*
X144113238Y-78430380D01*
X144398952Y-78430380D02*
X144398952Y-77430380D01*
X144303714Y-77573238D01*
X144208476Y-77668476D01*
X144113238Y-77716095D01*
X139612761Y-60396380D02*
X139279428Y-59920190D01*
X139041333Y-60396380D02*
X139041333Y-59396380D01*
X139422285Y-59396380D01*
X139517523Y-59444000D01*
X139565142Y-59491619D01*
X139612761Y-59586857D01*
X139612761Y-59729714D01*
X139565142Y-59824952D01*
X139517523Y-59872571D01*
X139422285Y-59920190D01*
X139041333Y-59920190D01*
X139898476Y-59396380D02*
X140231809Y-60396380D01*
X140565142Y-59396380D01*
X141422285Y-60396380D02*
X140850857Y-60396380D01*
X141136571Y-60396380D02*
X141136571Y-59396380D01*
X141041333Y-59539238D01*
X140946095Y-59634476D01*
X140850857Y-59682095D01*
X140803333Y-66746380D02*
X140470000Y-66270190D01*
X140231904Y-66746380D02*
X140231904Y-65746380D01*
X140612857Y-65746380D01*
X140708095Y-65794000D01*
X140755714Y-65841619D01*
X140803333Y-65936857D01*
X140803333Y-66079714D01*
X140755714Y-66174952D01*
X140708095Y-66222571D01*
X140612857Y-66270190D01*
X140231904Y-66270190D01*
X141136666Y-65746380D02*
X141755714Y-65746380D01*
X141422380Y-66127333D01*
X141565238Y-66127333D01*
X141660476Y-66174952D01*
X141708095Y-66222571D01*
X141755714Y-66317809D01*
X141755714Y-66555904D01*
X141708095Y-66651142D01*
X141660476Y-66698761D01*
X141565238Y-66746380D01*
X141279523Y-66746380D01*
X141184285Y-66698761D01*
X141136666Y-66651142D01*
X147407333Y-66746380D02*
X147074000Y-66270190D01*
X146835904Y-66746380D02*
X146835904Y-65746380D01*
X147216857Y-65746380D01*
X147312095Y-65794000D01*
X147359714Y-65841619D01*
X147407333Y-65936857D01*
X147407333Y-66079714D01*
X147359714Y-66174952D01*
X147312095Y-66222571D01*
X147216857Y-66270190D01*
X146835904Y-66270190D01*
X147788285Y-65841619D02*
X147835904Y-65794000D01*
X147931142Y-65746380D01*
X148169238Y-65746380D01*
X148264476Y-65794000D01*
X148312095Y-65841619D01*
X148359714Y-65936857D01*
X148359714Y-66032095D01*
X148312095Y-66174952D01*
X147740666Y-66746380D01*
X148359714Y-66746380D01*
X139025333Y-66746380D02*
X138692000Y-66270190D01*
X138453904Y-66746380D02*
X138453904Y-65746380D01*
X138834857Y-65746380D01*
X138930095Y-65794000D01*
X138977714Y-65841619D01*
X139025333Y-65936857D01*
X139025333Y-66079714D01*
X138977714Y-66174952D01*
X138930095Y-66222571D01*
X138834857Y-66270190D01*
X138453904Y-66270190D01*
X139977714Y-66746380D02*
X139406285Y-66746380D01*
X139692000Y-66746380D02*
X139692000Y-65746380D01*
X139596761Y-65889238D01*
X139501523Y-65984476D01*
X139406285Y-66032095D01*
X145121333Y-66143142D02*
X145073714Y-66190761D01*
X144930857Y-66238380D01*
X144835619Y-66238380D01*
X144692761Y-66190761D01*
X144597523Y-66095523D01*
X144549904Y-66000285D01*
X144502285Y-65809809D01*
X144502285Y-65666952D01*
X144549904Y-65476476D01*
X144597523Y-65381238D01*
X144692761Y-65286000D01*
X144835619Y-65238380D01*
X144930857Y-65238380D01*
X145073714Y-65286000D01*
X145121333Y-65333619D01*
X145502285Y-65333619D02*
X145549904Y-65286000D01*
X145645142Y-65238380D01*
X145883238Y-65238380D01*
X145978476Y-65286000D01*
X146026095Y-65333619D01*
X146073714Y-65428857D01*
X146073714Y-65524095D01*
X146026095Y-65666952D01*
X145454666Y-66238380D01*
X146073714Y-66238380D01*
X147661333Y-62079142D02*
X147613714Y-62126761D01*
X147470857Y-62174380D01*
X147375619Y-62174380D01*
X147232761Y-62126761D01*
X147137523Y-62031523D01*
X147089904Y-61936285D01*
X147042285Y-61745809D01*
X147042285Y-61602952D01*
X147089904Y-61412476D01*
X147137523Y-61317238D01*
X147232761Y-61222000D01*
X147375619Y-61174380D01*
X147470857Y-61174380D01*
X147613714Y-61222000D01*
X147661333Y-61269619D01*
X148613714Y-62174380D02*
X148042285Y-62174380D01*
X148328000Y-62174380D02*
X148328000Y-61174380D01*
X148232761Y-61317238D01*
X148137523Y-61412476D01*
X148042285Y-61460095D01*
X147280380Y-60261904D02*
X148089904Y-60261904D01*
X148185142Y-60214285D01*
X148232761Y-60166666D01*
X148280380Y-60071428D01*
X148280380Y-59880952D01*
X148232761Y-59785714D01*
X148185142Y-59738095D01*
X148089904Y-59690476D01*
X147280380Y-59690476D01*
X147375619Y-59261904D02*
X147328000Y-59214285D01*
X147280380Y-59119047D01*
X147280380Y-58880952D01*
X147328000Y-58785714D01*
X147375619Y-58738095D01*
X147470857Y-58690476D01*
X147566095Y-58690476D01*
X147708952Y-58738095D01*
X148280380Y-59309523D01*
X148280380Y-58690476D01*
X143316595Y-58662380D02*
X143316595Y-59471904D01*
X143364214Y-59567142D01*
X143411833Y-59614761D01*
X143507071Y-59662380D01*
X143697547Y-59662380D01*
X143792785Y-59614761D01*
X143840404Y-59567142D01*
X143888023Y-59471904D01*
X143888023Y-58662380D01*
X144888023Y-59662380D02*
X144316595Y-59662380D01*
X144602309Y-59662380D02*
X144602309Y-58662380D01*
X144507071Y-58805238D01*
X144411833Y-58900476D01*
X144316595Y-58948095D01*
D12*
X142652428Y-63281285D02*
X142652428Y-62531285D01*
X142831000Y-62531285D01*
X142938142Y-62567000D01*
X143009571Y-62638428D01*
X143045285Y-62709857D01*
X143081000Y-62852714D01*
X143081000Y-62959857D01*
X143045285Y-63102714D01*
X143009571Y-63174142D01*
X142938142Y-63245571D01*
X142831000Y-63281285D01*
X142652428Y-63281285D01*
X143795285Y-63281285D02*
X143366714Y-63281285D01*
X143581000Y-63281285D02*
X143581000Y-62531285D01*
X143509571Y-62638428D01*
X143438142Y-62709857D01*
X143366714Y-62745571D01*
%LPC*%
G36*
G01*
X140628000Y-76671000D02*
X140628000Y-75221000D01*
G75*
G02*
X140878000Y-74971000I250000J0D01*
G01*
X142078000Y-74971000D01*
G75*
G02*
X142328000Y-75221000I0J-250000D01*
G01*
X142328000Y-76671000D01*
G75*
G02*
X142078000Y-76921000I-250000J0D01*
G01*
X140878000Y-76921000D01*
G75*
G02*
X140628000Y-76671000I0J250000D01*
G01*
G37*
D13*
X143978000Y-75946000D03*
X146478000Y-75946000D03*
D14*
X140208000Y-58240000D03*
D15*
X141208000Y-61490000D03*
X139208000Y-61490000D03*
G36*
G01*
X140695000Y-64433000D02*
X141245000Y-64433000D01*
G75*
G02*
X141445000Y-64633000I0J-200000D01*
G01*
X141445000Y-65033000D01*
G75*
G02*
X141245000Y-65233000I-200000J0D01*
G01*
X140695000Y-65233000D01*
G75*
G02*
X140495000Y-65033000I0J200000D01*
G01*
X140495000Y-64633000D01*
G75*
G02*
X140695000Y-64433000I200000J0D01*
G01*
G37*
G36*
G01*
X140695000Y-62783000D02*
X141245000Y-62783000D01*
G75*
G02*
X141445000Y-62983000I0J-200000D01*
G01*
X141445000Y-63383000D01*
G75*
G02*
X141245000Y-63583000I-200000J0D01*
G01*
X140695000Y-63583000D01*
G75*
G02*
X140495000Y-63383000I0J200000D01*
G01*
X140495000Y-62983000D01*
G75*
G02*
X140695000Y-62783000I200000J0D01*
G01*
G37*
G36*
G01*
X148253000Y-65045000D02*
X148253000Y-64495000D01*
G75*
G02*
X148453000Y-64295000I200000J0D01*
G01*
X148853000Y-64295000D01*
G75*
G02*
X149053000Y-64495000I0J-200000D01*
G01*
X149053000Y-65045000D01*
G75*
G02*
X148853000Y-65245000I-200000J0D01*
G01*
X148453000Y-65245000D01*
G75*
G02*
X148253000Y-65045000I0J200000D01*
G01*
G37*
G36*
G01*
X146603000Y-65045000D02*
X146603000Y-64495000D01*
G75*
G02*
X146803000Y-64295000I200000J0D01*
G01*
X147203000Y-64295000D01*
G75*
G02*
X147403000Y-64495000I0J-200000D01*
G01*
X147403000Y-65045000D01*
G75*
G02*
X147203000Y-65245000I-200000J0D01*
G01*
X146803000Y-65245000D01*
G75*
G02*
X146603000Y-65045000I0J200000D01*
G01*
G37*
G36*
G01*
X138917000Y-64433000D02*
X139467000Y-64433000D01*
G75*
G02*
X139667000Y-64633000I0J-200000D01*
G01*
X139667000Y-65033000D01*
G75*
G02*
X139467000Y-65233000I-200000J0D01*
G01*
X138917000Y-65233000D01*
G75*
G02*
X138717000Y-65033000I0J200000D01*
G01*
X138717000Y-64633000D01*
G75*
G02*
X138917000Y-64433000I200000J0D01*
G01*
G37*
G36*
G01*
X138917000Y-62783000D02*
X139467000Y-62783000D01*
G75*
G02*
X139667000Y-62983000I0J-200000D01*
G01*
X139667000Y-63383000D01*
G75*
G02*
X139467000Y-63583000I-200000J0D01*
G01*
X138917000Y-63583000D01*
G75*
G02*
X138717000Y-63383000I0J200000D01*
G01*
X138717000Y-62983000D01*
G75*
G02*
X138917000Y-62783000I200000J0D01*
G01*
G37*
G36*
G01*
X145038000Y-63317000D02*
X145538000Y-63317000D01*
G75*
G02*
X145763000Y-63542000I0J-225000D01*
G01*
X145763000Y-63992000D01*
G75*
G02*
X145538000Y-64217000I-225000J0D01*
G01*
X145038000Y-64217000D01*
G75*
G02*
X144813000Y-63992000I0J225000D01*
G01*
X144813000Y-63542000D01*
G75*
G02*
X145038000Y-63317000I225000J0D01*
G01*
G37*
G36*
G01*
X145038000Y-61767000D02*
X145538000Y-61767000D01*
G75*
G02*
X145763000Y-61992000I0J-225000D01*
G01*
X145763000Y-62442000D01*
G75*
G02*
X145538000Y-62667000I-225000J0D01*
G01*
X145038000Y-62667000D01*
G75*
G02*
X144813000Y-62442000I0J225000D01*
G01*
X144813000Y-61992000D01*
G75*
G02*
X145038000Y-61767000I225000J0D01*
G01*
G37*
G36*
G01*
X148153000Y-63242000D02*
X148153000Y-62742000D01*
G75*
G02*
X148378000Y-62517000I225000J0D01*
G01*
X148828000Y-62517000D01*
G75*
G02*
X149053000Y-62742000I0J-225000D01*
G01*
X149053000Y-63242000D01*
G75*
G02*
X148828000Y-63467000I-225000J0D01*
G01*
X148378000Y-63467000D01*
G75*
G02*
X148153000Y-63242000I0J225000D01*
G01*
G37*
G36*
G01*
X146603000Y-63242000D02*
X146603000Y-62742000D01*
G75*
G02*
X146828000Y-62517000I225000J0D01*
G01*
X147278000Y-62517000D01*
G75*
G02*
X147503000Y-62742000I0J-225000D01*
G01*
X147503000Y-63242000D01*
G75*
G02*
X147278000Y-63467000I-225000J0D01*
G01*
X146828000Y-63467000D01*
G75*
G02*
X146603000Y-63242000I0J225000D01*
G01*
G37*
D16*
X144000000Y-69000000D03*
D17*
X148928000Y-58600000D03*
X148928000Y-60500000D03*
X146728000Y-60500000D03*
X146728000Y-59550000D03*
X146728000Y-58600000D03*
D18*
X143068000Y-60182000D03*
X144968000Y-60182000D03*
X144018000Y-58182000D03*
G36*
G01*
X143712250Y-62542000D02*
X142799750Y-62542000D01*
G75*
G02*
X142556000Y-62298250I0J243750D01*
G01*
X142556000Y-61810750D01*
G75*
G02*
X142799750Y-61567000I243750J0D01*
G01*
X143712250Y-61567000D01*
G75*
G02*
X143956000Y-61810750I0J-243750D01*
G01*
X143956000Y-62298250D01*
G75*
G02*
X143712250Y-62542000I-243750J0D01*
G01*
G37*
G36*
G01*
X143712250Y-64417000D02*
X142799750Y-64417000D01*
G75*
G02*
X142556000Y-64173250I0J243750D01*
G01*
X142556000Y-63685750D01*
G75*
G02*
X142799750Y-63442000I243750J0D01*
G01*
X143712250Y-63442000D01*
G75*
G02*
X143956000Y-63685750I0J-243750D01*
G01*
X143956000Y-64173250D01*
G75*
G02*
X143712250Y-64417000I-243750J0D01*
G01*
G37*
M02*
