G04 #@! TF.GenerationSoftware,KiCad,Pcbnew,(5.1.5)-3*
G04 #@! TF.CreationDate,2021-01-22T16:54:37+10:30*
G04 #@! TF.ProjectId,HallSingle,48616c6c-5369-46e6-976c-652e6b696361,rev?*
G04 #@! TF.SameCoordinates,Original*
G04 #@! TF.FileFunction,Copper,L2,Bot*
G04 #@! TF.FilePolarity,Positive*
%FSLAX46Y46*%
G04 Gerber Fmt 4.6, Leading zero omitted, Abs format (unit mm)*
G04 Created by KiCad (PCBNEW (5.1.5)-3) date 2021-01-22 16:54:37*
%MOMM*%
%LPD*%
G04 APERTURE LIST*
%ADD10C,1.524000*%
%ADD11O,1.700000X1.700000*%
%ADD12R,1.700000X1.700000*%
%ADD13C,0.800000*%
%ADD14C,0.304800*%
%ADD15C,0.254000*%
G04 APERTURE END LIST*
D10*
X142000000Y-79000000D03*
X144500000Y-76500000D03*
X142000000Y-74000000D03*
D11*
X148000000Y-73500000D03*
X148000000Y-76040000D03*
D12*
X148000000Y-78580000D03*
D13*
X145150000Y-60550000D03*
X142150000Y-63500000D03*
X139050000Y-61450000D03*
X147700000Y-58050000D03*
X140900000Y-61400000D03*
X147700000Y-61150000D03*
D14*
X148000000Y-73500000D02*
X148000000Y-73600000D01*
X149400000Y-62850000D02*
X147700000Y-61150000D01*
X149399999Y-76424291D02*
X149400000Y-62850000D01*
X148000000Y-78580000D02*
X148000000Y-77824290D01*
X148000000Y-77824290D02*
X149399999Y-76424291D01*
X147300001Y-61549999D02*
X141049999Y-61549999D01*
X141049999Y-61549999D02*
X140900000Y-61400000D01*
X147700000Y-61150000D02*
X147300001Y-61549999D01*
D15*
G36*
X149065424Y-57669580D02*
G01*
X149128356Y-57688580D01*
X149186405Y-57719445D01*
X149237343Y-57760989D01*
X149279248Y-57811644D01*
X149310515Y-57869471D01*
X149329956Y-57932272D01*
X149340000Y-58027835D01*
X149340000Y-61676450D01*
X148735000Y-61071450D01*
X148735000Y-61048061D01*
X148695226Y-60848102D01*
X148617205Y-60659744D01*
X148503937Y-60490226D01*
X148359774Y-60346063D01*
X148190256Y-60232795D01*
X148001898Y-60154774D01*
X147801939Y-60115000D01*
X147598061Y-60115000D01*
X147398102Y-60154774D01*
X147209744Y-60232795D01*
X147040226Y-60346063D01*
X146896063Y-60490226D01*
X146782795Y-60659744D01*
X146740191Y-60762599D01*
X141718886Y-60762599D01*
X141703937Y-60740226D01*
X141559774Y-60596063D01*
X141390256Y-60482795D01*
X141201898Y-60404774D01*
X141001939Y-60365000D01*
X140798061Y-60365000D01*
X140598102Y-60404774D01*
X140409744Y-60482795D01*
X140240226Y-60596063D01*
X140096063Y-60740226D01*
X139982795Y-60909744D01*
X139904774Y-61098102D01*
X139865000Y-61298061D01*
X139865000Y-61501939D01*
X139904774Y-61701898D01*
X139982795Y-61890256D01*
X140096063Y-62059774D01*
X140240226Y-62203937D01*
X140409744Y-62317205D01*
X140598102Y-62395226D01*
X140798061Y-62435000D01*
X141001939Y-62435000D01*
X141201898Y-62395226D01*
X141341504Y-62337399D01*
X147261338Y-62337399D01*
X147300001Y-62341207D01*
X147338664Y-62337399D01*
X147338674Y-62337399D01*
X147454358Y-62326005D01*
X147602784Y-62280981D01*
X147677496Y-62241046D01*
X148612601Y-63176152D01*
X148612600Y-72149226D01*
X148356891Y-72058519D01*
X148127000Y-72179186D01*
X148127000Y-73373000D01*
X148147000Y-73373000D01*
X148147000Y-73627000D01*
X148127000Y-73627000D01*
X148127000Y-73647000D01*
X147873000Y-73647000D01*
X147873000Y-73627000D01*
X146679845Y-73627000D01*
X146558524Y-73856890D01*
X146603175Y-74004099D01*
X146728359Y-74266920D01*
X146902412Y-74500269D01*
X147118645Y-74695178D01*
X147235534Y-74764805D01*
X147053368Y-74886525D01*
X146846525Y-75093368D01*
X146684010Y-75336589D01*
X146572068Y-75606842D01*
X146515000Y-75893740D01*
X146515000Y-76186260D01*
X146572068Y-76473158D01*
X146684010Y-76743411D01*
X146846525Y-76986632D01*
X146978380Y-77118487D01*
X146905820Y-77140498D01*
X146795506Y-77199463D01*
X146698815Y-77278815D01*
X146619463Y-77375506D01*
X146560498Y-77485820D01*
X146524188Y-77605518D01*
X146511928Y-77730000D01*
X146511928Y-79430000D01*
X146524188Y-79554482D01*
X146560498Y-79674180D01*
X146619463Y-79784494D01*
X146665015Y-79840000D01*
X143019608Y-79840000D01*
X142965567Y-79785959D01*
X143205656Y-79718980D01*
X143322756Y-79469952D01*
X143389023Y-79202865D01*
X143401910Y-78927983D01*
X143360922Y-78655867D01*
X143267636Y-78396977D01*
X143205656Y-78281020D01*
X142965565Y-78214040D01*
X142179605Y-79000000D01*
X142193748Y-79014143D01*
X142014143Y-79193748D01*
X142000000Y-79179605D01*
X141985858Y-79193748D01*
X141806253Y-79014143D01*
X141820395Y-79000000D01*
X141034435Y-78214040D01*
X140794344Y-78281020D01*
X140677244Y-78530048D01*
X140610977Y-78797135D01*
X140598090Y-79072017D01*
X140639078Y-79344133D01*
X140732364Y-79603023D01*
X140794344Y-79718980D01*
X141034433Y-79785959D01*
X140980392Y-79840000D01*
X139032279Y-79840000D01*
X138934576Y-79830420D01*
X138871643Y-79811420D01*
X138813594Y-79780554D01*
X138762657Y-79739011D01*
X138720752Y-79688356D01*
X138689485Y-79630529D01*
X138670044Y-79567728D01*
X138660000Y-79472165D01*
X138660000Y-78034435D01*
X141214040Y-78034435D01*
X142000000Y-78820395D01*
X142785960Y-78034435D01*
X142718980Y-77794344D01*
X142469952Y-77677244D01*
X142202865Y-77610977D01*
X141927983Y-77598090D01*
X141655867Y-77639078D01*
X141396977Y-77732364D01*
X141281020Y-77794344D01*
X141214040Y-78034435D01*
X138660000Y-78034435D01*
X138660000Y-76362408D01*
X143103000Y-76362408D01*
X143103000Y-76637592D01*
X143156686Y-76907490D01*
X143261995Y-77161727D01*
X143414880Y-77390535D01*
X143609465Y-77585120D01*
X143838273Y-77738005D01*
X144092510Y-77843314D01*
X144362408Y-77897000D01*
X144637592Y-77897000D01*
X144907490Y-77843314D01*
X145161727Y-77738005D01*
X145390535Y-77585120D01*
X145585120Y-77390535D01*
X145738005Y-77161727D01*
X145843314Y-76907490D01*
X145897000Y-76637592D01*
X145897000Y-76362408D01*
X145843314Y-76092510D01*
X145738005Y-75838273D01*
X145585120Y-75609465D01*
X145390535Y-75414880D01*
X145161727Y-75261995D01*
X144907490Y-75156686D01*
X144637592Y-75103000D01*
X144362408Y-75103000D01*
X144092510Y-75156686D01*
X143838273Y-75261995D01*
X143609465Y-75414880D01*
X143414880Y-75609465D01*
X143261995Y-75838273D01*
X143156686Y-76092510D01*
X143103000Y-76362408D01*
X138660000Y-76362408D01*
X138660000Y-73862408D01*
X140603000Y-73862408D01*
X140603000Y-74137592D01*
X140656686Y-74407490D01*
X140761995Y-74661727D01*
X140914880Y-74890535D01*
X141109465Y-75085120D01*
X141338273Y-75238005D01*
X141592510Y-75343314D01*
X141862408Y-75397000D01*
X142137592Y-75397000D01*
X142407490Y-75343314D01*
X142661727Y-75238005D01*
X142890535Y-75085120D01*
X143085120Y-74890535D01*
X143238005Y-74661727D01*
X143343314Y-74407490D01*
X143397000Y-74137592D01*
X143397000Y-73862408D01*
X143343314Y-73592510D01*
X143238005Y-73338273D01*
X143107601Y-73143110D01*
X146558524Y-73143110D01*
X146679845Y-73373000D01*
X147873000Y-73373000D01*
X147873000Y-72179186D01*
X147643109Y-72058519D01*
X147368748Y-72155843D01*
X147118645Y-72304822D01*
X146902412Y-72499731D01*
X146728359Y-72733080D01*
X146603175Y-72995901D01*
X146558524Y-73143110D01*
X143107601Y-73143110D01*
X143085120Y-73109465D01*
X142890535Y-72914880D01*
X142661727Y-72761995D01*
X142407490Y-72656686D01*
X142137592Y-72603000D01*
X141862408Y-72603000D01*
X141592510Y-72656686D01*
X141338273Y-72761995D01*
X141109465Y-72914880D01*
X140914880Y-73109465D01*
X140761995Y-73338273D01*
X140656686Y-73592510D01*
X140603000Y-73862408D01*
X138660000Y-73862408D01*
X138660000Y-68779872D01*
X141765000Y-68779872D01*
X141765000Y-69220128D01*
X141850890Y-69651925D01*
X142019369Y-70058669D01*
X142263962Y-70424729D01*
X142575271Y-70736038D01*
X142941331Y-70980631D01*
X143348075Y-71149110D01*
X143779872Y-71235000D01*
X144220128Y-71235000D01*
X144651925Y-71149110D01*
X145058669Y-70980631D01*
X145424729Y-70736038D01*
X145736038Y-70424729D01*
X145980631Y-70058669D01*
X146149110Y-69651925D01*
X146235000Y-69220128D01*
X146235000Y-68779872D01*
X146149110Y-68348075D01*
X145980631Y-67941331D01*
X145736038Y-67575271D01*
X145424729Y-67263962D01*
X145058669Y-67019369D01*
X144651925Y-66850890D01*
X144220128Y-66765000D01*
X143779872Y-66765000D01*
X143348075Y-66850890D01*
X142941331Y-67019369D01*
X142575271Y-67263962D01*
X142263962Y-67575271D01*
X142019369Y-67941331D01*
X141850890Y-68348075D01*
X141765000Y-68779872D01*
X138660000Y-68779872D01*
X138660000Y-58032279D01*
X138669580Y-57934576D01*
X138688580Y-57871644D01*
X138719445Y-57813595D01*
X138760989Y-57762657D01*
X138811644Y-57720752D01*
X138869471Y-57689485D01*
X138932272Y-57670044D01*
X139027835Y-57660000D01*
X148967721Y-57660000D01*
X149065424Y-57669580D01*
G37*
X149065424Y-57669580D02*
X149128356Y-57688580D01*
X149186405Y-57719445D01*
X149237343Y-57760989D01*
X149279248Y-57811644D01*
X149310515Y-57869471D01*
X149329956Y-57932272D01*
X149340000Y-58027835D01*
X149340000Y-61676450D01*
X148735000Y-61071450D01*
X148735000Y-61048061D01*
X148695226Y-60848102D01*
X148617205Y-60659744D01*
X148503937Y-60490226D01*
X148359774Y-60346063D01*
X148190256Y-60232795D01*
X148001898Y-60154774D01*
X147801939Y-60115000D01*
X147598061Y-60115000D01*
X147398102Y-60154774D01*
X147209744Y-60232795D01*
X147040226Y-60346063D01*
X146896063Y-60490226D01*
X146782795Y-60659744D01*
X146740191Y-60762599D01*
X141718886Y-60762599D01*
X141703937Y-60740226D01*
X141559774Y-60596063D01*
X141390256Y-60482795D01*
X141201898Y-60404774D01*
X141001939Y-60365000D01*
X140798061Y-60365000D01*
X140598102Y-60404774D01*
X140409744Y-60482795D01*
X140240226Y-60596063D01*
X140096063Y-60740226D01*
X139982795Y-60909744D01*
X139904774Y-61098102D01*
X139865000Y-61298061D01*
X139865000Y-61501939D01*
X139904774Y-61701898D01*
X139982795Y-61890256D01*
X140096063Y-62059774D01*
X140240226Y-62203937D01*
X140409744Y-62317205D01*
X140598102Y-62395226D01*
X140798061Y-62435000D01*
X141001939Y-62435000D01*
X141201898Y-62395226D01*
X141341504Y-62337399D01*
X147261338Y-62337399D01*
X147300001Y-62341207D01*
X147338664Y-62337399D01*
X147338674Y-62337399D01*
X147454358Y-62326005D01*
X147602784Y-62280981D01*
X147677496Y-62241046D01*
X148612601Y-63176152D01*
X148612600Y-72149226D01*
X148356891Y-72058519D01*
X148127000Y-72179186D01*
X148127000Y-73373000D01*
X148147000Y-73373000D01*
X148147000Y-73627000D01*
X148127000Y-73627000D01*
X148127000Y-73647000D01*
X147873000Y-73647000D01*
X147873000Y-73627000D01*
X146679845Y-73627000D01*
X146558524Y-73856890D01*
X146603175Y-74004099D01*
X146728359Y-74266920D01*
X146902412Y-74500269D01*
X147118645Y-74695178D01*
X147235534Y-74764805D01*
X147053368Y-74886525D01*
X146846525Y-75093368D01*
X146684010Y-75336589D01*
X146572068Y-75606842D01*
X146515000Y-75893740D01*
X146515000Y-76186260D01*
X146572068Y-76473158D01*
X146684010Y-76743411D01*
X146846525Y-76986632D01*
X146978380Y-77118487D01*
X146905820Y-77140498D01*
X146795506Y-77199463D01*
X146698815Y-77278815D01*
X146619463Y-77375506D01*
X146560498Y-77485820D01*
X146524188Y-77605518D01*
X146511928Y-77730000D01*
X146511928Y-79430000D01*
X146524188Y-79554482D01*
X146560498Y-79674180D01*
X146619463Y-79784494D01*
X146665015Y-79840000D01*
X143019608Y-79840000D01*
X142965567Y-79785959D01*
X143205656Y-79718980D01*
X143322756Y-79469952D01*
X143389023Y-79202865D01*
X143401910Y-78927983D01*
X143360922Y-78655867D01*
X143267636Y-78396977D01*
X143205656Y-78281020D01*
X142965565Y-78214040D01*
X142179605Y-79000000D01*
X142193748Y-79014143D01*
X142014143Y-79193748D01*
X142000000Y-79179605D01*
X141985858Y-79193748D01*
X141806253Y-79014143D01*
X141820395Y-79000000D01*
X141034435Y-78214040D01*
X140794344Y-78281020D01*
X140677244Y-78530048D01*
X140610977Y-78797135D01*
X140598090Y-79072017D01*
X140639078Y-79344133D01*
X140732364Y-79603023D01*
X140794344Y-79718980D01*
X141034433Y-79785959D01*
X140980392Y-79840000D01*
X139032279Y-79840000D01*
X138934576Y-79830420D01*
X138871643Y-79811420D01*
X138813594Y-79780554D01*
X138762657Y-79739011D01*
X138720752Y-79688356D01*
X138689485Y-79630529D01*
X138670044Y-79567728D01*
X138660000Y-79472165D01*
X138660000Y-78034435D01*
X141214040Y-78034435D01*
X142000000Y-78820395D01*
X142785960Y-78034435D01*
X142718980Y-77794344D01*
X142469952Y-77677244D01*
X142202865Y-77610977D01*
X141927983Y-77598090D01*
X141655867Y-77639078D01*
X141396977Y-77732364D01*
X141281020Y-77794344D01*
X141214040Y-78034435D01*
X138660000Y-78034435D01*
X138660000Y-76362408D01*
X143103000Y-76362408D01*
X143103000Y-76637592D01*
X143156686Y-76907490D01*
X143261995Y-77161727D01*
X143414880Y-77390535D01*
X143609465Y-77585120D01*
X143838273Y-77738005D01*
X144092510Y-77843314D01*
X144362408Y-77897000D01*
X144637592Y-77897000D01*
X144907490Y-77843314D01*
X145161727Y-77738005D01*
X145390535Y-77585120D01*
X145585120Y-77390535D01*
X145738005Y-77161727D01*
X145843314Y-76907490D01*
X145897000Y-76637592D01*
X145897000Y-76362408D01*
X145843314Y-76092510D01*
X145738005Y-75838273D01*
X145585120Y-75609465D01*
X145390535Y-75414880D01*
X145161727Y-75261995D01*
X144907490Y-75156686D01*
X144637592Y-75103000D01*
X144362408Y-75103000D01*
X144092510Y-75156686D01*
X143838273Y-75261995D01*
X143609465Y-75414880D01*
X143414880Y-75609465D01*
X143261995Y-75838273D01*
X143156686Y-76092510D01*
X143103000Y-76362408D01*
X138660000Y-76362408D01*
X138660000Y-73862408D01*
X140603000Y-73862408D01*
X140603000Y-74137592D01*
X140656686Y-74407490D01*
X140761995Y-74661727D01*
X140914880Y-74890535D01*
X141109465Y-75085120D01*
X141338273Y-75238005D01*
X141592510Y-75343314D01*
X141862408Y-75397000D01*
X142137592Y-75397000D01*
X142407490Y-75343314D01*
X142661727Y-75238005D01*
X142890535Y-75085120D01*
X143085120Y-74890535D01*
X143238005Y-74661727D01*
X143343314Y-74407490D01*
X143397000Y-74137592D01*
X143397000Y-73862408D01*
X143343314Y-73592510D01*
X143238005Y-73338273D01*
X143107601Y-73143110D01*
X146558524Y-73143110D01*
X146679845Y-73373000D01*
X147873000Y-73373000D01*
X147873000Y-72179186D01*
X147643109Y-72058519D01*
X147368748Y-72155843D01*
X147118645Y-72304822D01*
X146902412Y-72499731D01*
X146728359Y-72733080D01*
X146603175Y-72995901D01*
X146558524Y-73143110D01*
X143107601Y-73143110D01*
X143085120Y-73109465D01*
X142890535Y-72914880D01*
X142661727Y-72761995D01*
X142407490Y-72656686D01*
X142137592Y-72603000D01*
X141862408Y-72603000D01*
X141592510Y-72656686D01*
X141338273Y-72761995D01*
X141109465Y-72914880D01*
X140914880Y-73109465D01*
X140761995Y-73338273D01*
X140656686Y-73592510D01*
X140603000Y-73862408D01*
X138660000Y-73862408D01*
X138660000Y-68779872D01*
X141765000Y-68779872D01*
X141765000Y-69220128D01*
X141850890Y-69651925D01*
X142019369Y-70058669D01*
X142263962Y-70424729D01*
X142575271Y-70736038D01*
X142941331Y-70980631D01*
X143348075Y-71149110D01*
X143779872Y-71235000D01*
X144220128Y-71235000D01*
X144651925Y-71149110D01*
X145058669Y-70980631D01*
X145424729Y-70736038D01*
X145736038Y-70424729D01*
X145980631Y-70058669D01*
X146149110Y-69651925D01*
X146235000Y-69220128D01*
X146235000Y-68779872D01*
X146149110Y-68348075D01*
X145980631Y-67941331D01*
X145736038Y-67575271D01*
X145424729Y-67263962D01*
X145058669Y-67019369D01*
X144651925Y-66850890D01*
X144220128Y-66765000D01*
X143779872Y-66765000D01*
X143348075Y-66850890D01*
X142941331Y-67019369D01*
X142575271Y-67263962D01*
X142263962Y-67575271D01*
X142019369Y-67941331D01*
X141850890Y-68348075D01*
X141765000Y-68779872D01*
X138660000Y-68779872D01*
X138660000Y-58032279D01*
X138669580Y-57934576D01*
X138688580Y-57871644D01*
X138719445Y-57813595D01*
X138760989Y-57762657D01*
X138811644Y-57720752D01*
X138869471Y-57689485D01*
X138932272Y-57670044D01*
X139027835Y-57660000D01*
X148967721Y-57660000D01*
X149065424Y-57669580D01*
M02*
