G04 #@! TF.GenerationSoftware,KiCad,Pcbnew,(5.1.9)-1*
G04 #@! TF.CreationDate,2021-01-31T14:06:30+01:00*
G04 #@! TF.ProjectId,HallSingle,48616c6c-5369-46e6-976c-652e6b696361,rev?*
G04 #@! TF.SameCoordinates,Original*
G04 #@! TF.FileFunction,Legend,Bot*
G04 #@! TF.FilePolarity,Positive*
%FSLAX46Y46*%
G04 Gerber Fmt 4.6, Leading zero omitted, Abs format (unit mm)*
G04 Created by KiCad (PCBNEW (5.1.9)-1) date 2021-01-31 14:06:30*
%MOMM*%
%LPD*%
G01*
G04 APERTURE LIST*
%ADD10C,0.150000*%
%ADD11O,1.700000X1.950000*%
%ADD12C,3.200000*%
G04 APERTURE END LIST*
D10*
X140089380Y-66314285D02*
X139089380Y-66314285D01*
X140089380Y-66885714D01*
X139089380Y-66885714D01*
X139994142Y-67933333D02*
X140041761Y-67885714D01*
X140089380Y-67742857D01*
X140089380Y-67647619D01*
X140041761Y-67504761D01*
X139946523Y-67409523D01*
X139851285Y-67361904D01*
X139660809Y-67314285D01*
X139517952Y-67314285D01*
X139327476Y-67361904D01*
X139232238Y-67409523D01*
X139137000Y-67504761D01*
X139089380Y-67647619D01*
X139089380Y-67742857D01*
X139137000Y-67885714D01*
X139184619Y-67933333D01*
X139089380Y-68980952D02*
X140089380Y-69314285D01*
X139089380Y-69647619D01*
X140089380Y-70504761D02*
X140089380Y-69933333D01*
X140089380Y-70219047D02*
X139089380Y-70219047D01*
X139232238Y-70123809D01*
X139327476Y-70028571D01*
X139375095Y-69933333D01*
X139994142Y-70933333D02*
X140041761Y-70980952D01*
X140089380Y-70933333D01*
X140041761Y-70885714D01*
X139994142Y-70933333D01*
X140089380Y-70933333D01*
X139184619Y-71361904D02*
X139137000Y-71409523D01*
X139089380Y-71504761D01*
X139089380Y-71742857D01*
X139137000Y-71838095D01*
X139184619Y-71885714D01*
X139279857Y-71933333D01*
X139375095Y-71933333D01*
X139517952Y-71885714D01*
X140089380Y-71314285D01*
X140089380Y-71933333D01*
X140739380Y-66980952D02*
X140739380Y-67552380D01*
X141739380Y-67266666D02*
X140739380Y-67266666D01*
X141739380Y-68361904D02*
X141739380Y-67885714D01*
X140739380Y-67885714D01*
X140739380Y-68600000D02*
X140739380Y-69219047D01*
X141120333Y-68885714D01*
X141120333Y-69028571D01*
X141167952Y-69123809D01*
X141215571Y-69171428D01*
X141310809Y-69219047D01*
X141548904Y-69219047D01*
X141644142Y-69171428D01*
X141691761Y-69123809D01*
X141739380Y-69028571D01*
X141739380Y-68742857D01*
X141691761Y-68647619D01*
X141644142Y-68600000D01*
X140739380Y-69552380D02*
X140739380Y-70171428D01*
X141120333Y-69838095D01*
X141120333Y-69980952D01*
X141167952Y-70076190D01*
X141215571Y-70123809D01*
X141310809Y-70171428D01*
X141548904Y-70171428D01*
X141644142Y-70123809D01*
X141691761Y-70076190D01*
X141739380Y-69980952D01*
X141739380Y-69695238D01*
X141691761Y-69600000D01*
X141644142Y-69552380D01*
X141739380Y-71123809D02*
X141739380Y-70552380D01*
X141739380Y-70838095D02*
X140739380Y-70838095D01*
X140882238Y-70742857D01*
X140977476Y-70647619D01*
X141025095Y-70552380D01*
X143756095Y-77478000D02*
X143851333Y-77430380D01*
X143994190Y-77430380D01*
X144137047Y-77478000D01*
X144232285Y-77573238D01*
X144279904Y-77668476D01*
X144327523Y-77858952D01*
X144327523Y-78001809D01*
X144279904Y-78192285D01*
X144232285Y-78287523D01*
X144137047Y-78382761D01*
X143994190Y-78430380D01*
X143898952Y-78430380D01*
X143756095Y-78382761D01*
X143708476Y-78335142D01*
X143708476Y-78001809D01*
X143898952Y-78001809D01*
X147796095Y-78049428D02*
X147034190Y-78049428D01*
X147415142Y-78430380D02*
X147415142Y-77668476D01*
X146081809Y-77430380D02*
X146558000Y-77430380D01*
X146605619Y-77906571D01*
X146558000Y-77858952D01*
X146462761Y-77811333D01*
X146224666Y-77811333D01*
X146129428Y-77858952D01*
X146081809Y-77906571D01*
X146034190Y-78001809D01*
X146034190Y-78239904D01*
X146081809Y-78335142D01*
X146129428Y-78382761D01*
X146224666Y-78430380D01*
X146462761Y-78430380D01*
X146558000Y-78382761D01*
X146605619Y-78335142D01*
X145700857Y-77763714D02*
X145462761Y-78430380D01*
X145224666Y-77763714D01*
X141763714Y-78382761D02*
X141620857Y-78430380D01*
X141382761Y-78430380D01*
X141287523Y-78382761D01*
X141239904Y-78335142D01*
X141192285Y-78239904D01*
X141192285Y-78144666D01*
X141239904Y-78049428D01*
X141287523Y-78001809D01*
X141382761Y-77954190D01*
X141573238Y-77906571D01*
X141668476Y-77858952D01*
X141716095Y-77811333D01*
X141763714Y-77716095D01*
X141763714Y-77620857D01*
X141716095Y-77525619D01*
X141668476Y-77478000D01*
X141573238Y-77430380D01*
X141335142Y-77430380D01*
X141192285Y-77478000D01*
%LPC*%
G36*
G01*
X140628000Y-76671000D02*
X140628000Y-75221000D01*
G75*
G02*
X140878000Y-74971000I250000J0D01*
G01*
X142078000Y-74971000D01*
G75*
G02*
X142328000Y-75221000I0J-250000D01*
G01*
X142328000Y-76671000D01*
G75*
G02*
X142078000Y-76921000I-250000J0D01*
G01*
X140878000Y-76921000D01*
G75*
G02*
X140628000Y-76671000I0J250000D01*
G01*
G37*
D11*
X143978000Y-75946000D03*
X146478000Y-75946000D03*
D12*
X144000000Y-69000000D03*
M02*
