G04 #@! TF.GenerationSoftware,KiCad,Pcbnew,(5.1.9)-1*
G04 #@! TF.CreationDate,2021-02-01T13:16:18+01:00*
G04 #@! TF.ProjectId,HallSingle,48616c6c-5369-46e6-976c-652e6b696361,rev?*
G04 #@! TF.SameCoordinates,Original*
G04 #@! TF.FileFunction,Copper,L2,Bot*
G04 #@! TF.FilePolarity,Positive*
%FSLAX46Y46*%
G04 Gerber Fmt 4.6, Leading zero omitted, Abs format (unit mm)*
G04 Created by KiCad (PCBNEW (5.1.9)-1) date 2021-02-01 13:16:18*
%MOMM*%
%LPD*%
G01*
G04 APERTURE LIST*
G04 #@! TA.AperFunction,ComponentPad*
%ADD10O,1.700000X1.950000*%
G04 #@! TD*
G04 #@! TA.AperFunction,ViaPad*
%ADD11C,0.800000*%
G04 #@! TD*
G04 #@! TA.AperFunction,Conductor*
%ADD12C,0.609600*%
G04 #@! TD*
G04 #@! TA.AperFunction,Conductor*
%ADD13C,0.304800*%
G04 #@! TD*
G04 #@! TA.AperFunction,Conductor*
%ADD14C,0.254000*%
G04 #@! TD*
G04 #@! TA.AperFunction,Conductor*
%ADD15C,0.100000*%
G04 #@! TD*
G04 APERTURE END LIST*
D10*
X146478000Y-75946000D03*
X143978000Y-75946000D03*
G04 #@! TA.AperFunction,ComponentPad*
G36*
G01*
X140628000Y-76671000D02*
X140628000Y-75221000D01*
G75*
G02*
X140878000Y-74971000I250000J0D01*
G01*
X142078000Y-74971000D01*
G75*
G02*
X142328000Y-75221000I0J-250000D01*
G01*
X142328000Y-76671000D01*
G75*
G02*
X142078000Y-76921000I-250000J0D01*
G01*
X140878000Y-76921000D01*
G75*
G02*
X140628000Y-76671000I0J250000D01*
G01*
G37*
G04 #@! TD.AperFunction*
D11*
X148844000Y-59571798D03*
X144780000Y-65278000D03*
X149352000Y-67310000D03*
X148844000Y-57658000D03*
X143002000Y-59182000D03*
X142392000Y-60858000D03*
X143764000Y-65024000D03*
X147861238Y-60960000D03*
X142527200Y-62849196D03*
X142494000Y-65124699D03*
D12*
X149352000Y-60079798D02*
X148844000Y-59571798D01*
X149352000Y-67310000D02*
X149352000Y-60079798D01*
X148740500Y-65278000D02*
X144780000Y-65278000D01*
X149352000Y-65889500D02*
X148740500Y-65278000D01*
X149352000Y-67310000D02*
X149352000Y-65889500D01*
D13*
X141478000Y-67310000D02*
X143764000Y-65024000D01*
X141478000Y-75946000D02*
X141478000Y-67310000D01*
X147828000Y-60960000D02*
X147861238Y-60960000D01*
X143764000Y-65024000D02*
X147828000Y-60960000D01*
X142527200Y-62849196D02*
X142527200Y-65091499D01*
X142527200Y-65091499D02*
X142494000Y-65124699D01*
D14*
X149065424Y-57669580D02*
X149128356Y-57688580D01*
X149186405Y-57719445D01*
X149237343Y-57760989D01*
X149279248Y-57811644D01*
X149310515Y-57869471D01*
X149329956Y-57932272D01*
X149340000Y-58027835D01*
X149340000Y-58658431D01*
X149334256Y-58654593D01*
X149145898Y-58576572D01*
X148945939Y-58536798D01*
X148742061Y-58536798D01*
X148542102Y-58576572D01*
X148353744Y-58654593D01*
X148184226Y-58767861D01*
X148040063Y-58912024D01*
X147926795Y-59081542D01*
X147848774Y-59269900D01*
X147809000Y-59469859D01*
X147809000Y-59673737D01*
X147848774Y-59873696D01*
X147870025Y-59925000D01*
X147759299Y-59925000D01*
X147559340Y-59964774D01*
X147370982Y-60042795D01*
X147201464Y-60156063D01*
X147057301Y-60300226D01*
X146944033Y-60469744D01*
X146866012Y-60658102D01*
X146828684Y-60845765D01*
X143685450Y-63989000D01*
X143662061Y-63989000D01*
X143462102Y-64028774D01*
X143314600Y-64089872D01*
X143314600Y-63525507D01*
X143331137Y-63508970D01*
X143444405Y-63339452D01*
X143522426Y-63151094D01*
X143562200Y-62951135D01*
X143562200Y-62747257D01*
X143522426Y-62547298D01*
X143444405Y-62358940D01*
X143331137Y-62189422D01*
X143186974Y-62045259D01*
X143017456Y-61931991D01*
X142829098Y-61853970D01*
X142629139Y-61814196D01*
X142425261Y-61814196D01*
X142225302Y-61853970D01*
X142036944Y-61931991D01*
X141867426Y-62045259D01*
X141723263Y-62189422D01*
X141609995Y-62358940D01*
X141531974Y-62547298D01*
X141492200Y-62747257D01*
X141492200Y-62951135D01*
X141531974Y-63151094D01*
X141609995Y-63339452D01*
X141723263Y-63508970D01*
X141739800Y-63525507D01*
X141739801Y-64415187D01*
X141690063Y-64464925D01*
X141576795Y-64634443D01*
X141498774Y-64822801D01*
X141459000Y-65022760D01*
X141459000Y-65226638D01*
X141498774Y-65426597D01*
X141576795Y-65614955D01*
X141690063Y-65784473D01*
X141790020Y-65884430D01*
X140948573Y-66725877D01*
X140918532Y-66750531D01*
X140893879Y-66780571D01*
X140820135Y-66870428D01*
X140747018Y-67007218D01*
X140701995Y-67155643D01*
X140686792Y-67310000D01*
X140690601Y-67348673D01*
X140690600Y-74354283D01*
X140538150Y-74400528D01*
X140384614Y-74482595D01*
X140250038Y-74593038D01*
X140139595Y-74727614D01*
X140057528Y-74881150D01*
X140006992Y-75047746D01*
X139989928Y-75221000D01*
X139989928Y-76671000D01*
X140006992Y-76844254D01*
X140057528Y-77010850D01*
X140139595Y-77164386D01*
X140250038Y-77298962D01*
X140384614Y-77409405D01*
X140538150Y-77491472D01*
X140704746Y-77542008D01*
X140878000Y-77559072D01*
X142078000Y-77559072D01*
X142251254Y-77542008D01*
X142417850Y-77491472D01*
X142571386Y-77409405D01*
X142705962Y-77298962D01*
X142816405Y-77164386D01*
X142870777Y-77062663D01*
X142922866Y-77126134D01*
X143148987Y-77311706D01*
X143406967Y-77449599D01*
X143686890Y-77534513D01*
X143978000Y-77563185D01*
X144269111Y-77534513D01*
X144549034Y-77449599D01*
X144807014Y-77311706D01*
X145033134Y-77126134D01*
X145218706Y-76900014D01*
X145232462Y-76874278D01*
X145388951Y-77080429D01*
X145606807Y-77273496D01*
X145858142Y-77420352D01*
X146121110Y-77512476D01*
X146351000Y-77391155D01*
X146351000Y-76073000D01*
X146605000Y-76073000D01*
X146605000Y-77391155D01*
X146834890Y-77512476D01*
X147097858Y-77420352D01*
X147349193Y-77273496D01*
X147567049Y-77080429D01*
X147743053Y-76848570D01*
X147870442Y-76586830D01*
X147944320Y-76305267D01*
X147804165Y-76073000D01*
X146605000Y-76073000D01*
X146351000Y-76073000D01*
X146331000Y-76073000D01*
X146331000Y-75819000D01*
X146351000Y-75819000D01*
X146351000Y-74500845D01*
X146605000Y-74500845D01*
X146605000Y-75819000D01*
X147804165Y-75819000D01*
X147944320Y-75586733D01*
X147870442Y-75305170D01*
X147743053Y-75043430D01*
X147567049Y-74811571D01*
X147349193Y-74618504D01*
X147097858Y-74471648D01*
X146834890Y-74379524D01*
X146605000Y-74500845D01*
X146351000Y-74500845D01*
X146121110Y-74379524D01*
X145858142Y-74471648D01*
X145606807Y-74618504D01*
X145388951Y-74811571D01*
X145232462Y-75017722D01*
X145218706Y-74991986D01*
X145033134Y-74765866D01*
X144807013Y-74580294D01*
X144549033Y-74442401D01*
X144269110Y-74357487D01*
X143978000Y-74328815D01*
X143686889Y-74357487D01*
X143406966Y-74442401D01*
X143148986Y-74580294D01*
X142922866Y-74765866D01*
X142870777Y-74829337D01*
X142816405Y-74727614D01*
X142705962Y-74593038D01*
X142571386Y-74482595D01*
X142417850Y-74400528D01*
X142265400Y-74354283D01*
X142265400Y-70426167D01*
X142575271Y-70736038D01*
X142941331Y-70980631D01*
X143348075Y-71149110D01*
X143779872Y-71235000D01*
X144220128Y-71235000D01*
X144651925Y-71149110D01*
X145058669Y-70980631D01*
X145424729Y-70736038D01*
X145736038Y-70424729D01*
X145980631Y-70058669D01*
X146149110Y-69651925D01*
X146235000Y-69220128D01*
X146235000Y-68779872D01*
X146149110Y-68348075D01*
X145980631Y-67941331D01*
X145736038Y-67575271D01*
X145424729Y-67263962D01*
X145058669Y-67019369D01*
X144651925Y-66850890D01*
X144220128Y-66765000D01*
X143779872Y-66765000D01*
X143348075Y-66850890D01*
X142941331Y-67019369D01*
X142763075Y-67138476D01*
X143842552Y-66059000D01*
X143865939Y-66059000D01*
X144058906Y-66020617D01*
X144120226Y-66081937D01*
X144289744Y-66195205D01*
X144478102Y-66273226D01*
X144678061Y-66313000D01*
X144881939Y-66313000D01*
X145081898Y-66273226D01*
X145215707Y-66217800D01*
X148351224Y-66217800D01*
X148412200Y-66278777D01*
X148412200Y-66874293D01*
X148356774Y-67008102D01*
X148317000Y-67208061D01*
X148317000Y-67411939D01*
X148356774Y-67611898D01*
X148434795Y-67800256D01*
X148548063Y-67969774D01*
X148692226Y-68113937D01*
X148861744Y-68227205D01*
X149050102Y-68305226D01*
X149250061Y-68345000D01*
X149340000Y-68345000D01*
X149340001Y-79467711D01*
X149330420Y-79565424D01*
X149311420Y-79628357D01*
X149280554Y-79686406D01*
X149239011Y-79737343D01*
X149188356Y-79779248D01*
X149130529Y-79810515D01*
X149067728Y-79829956D01*
X148972165Y-79840000D01*
X139032279Y-79840000D01*
X138934576Y-79830420D01*
X138871643Y-79811420D01*
X138813594Y-79780554D01*
X138762657Y-79739011D01*
X138720752Y-79688356D01*
X138689485Y-79630529D01*
X138670044Y-79567728D01*
X138660000Y-79472165D01*
X138660000Y-58032279D01*
X138669580Y-57934576D01*
X138688580Y-57871644D01*
X138719445Y-57813595D01*
X138760989Y-57762657D01*
X138811644Y-57720752D01*
X138869471Y-57689485D01*
X138932272Y-57670044D01*
X139027835Y-57660000D01*
X148967721Y-57660000D01*
X149065424Y-57669580D01*
G04 #@! TA.AperFunction,Conductor*
D15*
G36*
X149065424Y-57669580D02*
G01*
X149128356Y-57688580D01*
X149186405Y-57719445D01*
X149237343Y-57760989D01*
X149279248Y-57811644D01*
X149310515Y-57869471D01*
X149329956Y-57932272D01*
X149340000Y-58027835D01*
X149340000Y-58658431D01*
X149334256Y-58654593D01*
X149145898Y-58576572D01*
X148945939Y-58536798D01*
X148742061Y-58536798D01*
X148542102Y-58576572D01*
X148353744Y-58654593D01*
X148184226Y-58767861D01*
X148040063Y-58912024D01*
X147926795Y-59081542D01*
X147848774Y-59269900D01*
X147809000Y-59469859D01*
X147809000Y-59673737D01*
X147848774Y-59873696D01*
X147870025Y-59925000D01*
X147759299Y-59925000D01*
X147559340Y-59964774D01*
X147370982Y-60042795D01*
X147201464Y-60156063D01*
X147057301Y-60300226D01*
X146944033Y-60469744D01*
X146866012Y-60658102D01*
X146828684Y-60845765D01*
X143685450Y-63989000D01*
X143662061Y-63989000D01*
X143462102Y-64028774D01*
X143314600Y-64089872D01*
X143314600Y-63525507D01*
X143331137Y-63508970D01*
X143444405Y-63339452D01*
X143522426Y-63151094D01*
X143562200Y-62951135D01*
X143562200Y-62747257D01*
X143522426Y-62547298D01*
X143444405Y-62358940D01*
X143331137Y-62189422D01*
X143186974Y-62045259D01*
X143017456Y-61931991D01*
X142829098Y-61853970D01*
X142629139Y-61814196D01*
X142425261Y-61814196D01*
X142225302Y-61853970D01*
X142036944Y-61931991D01*
X141867426Y-62045259D01*
X141723263Y-62189422D01*
X141609995Y-62358940D01*
X141531974Y-62547298D01*
X141492200Y-62747257D01*
X141492200Y-62951135D01*
X141531974Y-63151094D01*
X141609995Y-63339452D01*
X141723263Y-63508970D01*
X141739800Y-63525507D01*
X141739801Y-64415187D01*
X141690063Y-64464925D01*
X141576795Y-64634443D01*
X141498774Y-64822801D01*
X141459000Y-65022760D01*
X141459000Y-65226638D01*
X141498774Y-65426597D01*
X141576795Y-65614955D01*
X141690063Y-65784473D01*
X141790020Y-65884430D01*
X140948573Y-66725877D01*
X140918532Y-66750531D01*
X140893879Y-66780571D01*
X140820135Y-66870428D01*
X140747018Y-67007218D01*
X140701995Y-67155643D01*
X140686792Y-67310000D01*
X140690601Y-67348673D01*
X140690600Y-74354283D01*
X140538150Y-74400528D01*
X140384614Y-74482595D01*
X140250038Y-74593038D01*
X140139595Y-74727614D01*
X140057528Y-74881150D01*
X140006992Y-75047746D01*
X139989928Y-75221000D01*
X139989928Y-76671000D01*
X140006992Y-76844254D01*
X140057528Y-77010850D01*
X140139595Y-77164386D01*
X140250038Y-77298962D01*
X140384614Y-77409405D01*
X140538150Y-77491472D01*
X140704746Y-77542008D01*
X140878000Y-77559072D01*
X142078000Y-77559072D01*
X142251254Y-77542008D01*
X142417850Y-77491472D01*
X142571386Y-77409405D01*
X142705962Y-77298962D01*
X142816405Y-77164386D01*
X142870777Y-77062663D01*
X142922866Y-77126134D01*
X143148987Y-77311706D01*
X143406967Y-77449599D01*
X143686890Y-77534513D01*
X143978000Y-77563185D01*
X144269111Y-77534513D01*
X144549034Y-77449599D01*
X144807014Y-77311706D01*
X145033134Y-77126134D01*
X145218706Y-76900014D01*
X145232462Y-76874278D01*
X145388951Y-77080429D01*
X145606807Y-77273496D01*
X145858142Y-77420352D01*
X146121110Y-77512476D01*
X146351000Y-77391155D01*
X146351000Y-76073000D01*
X146605000Y-76073000D01*
X146605000Y-77391155D01*
X146834890Y-77512476D01*
X147097858Y-77420352D01*
X147349193Y-77273496D01*
X147567049Y-77080429D01*
X147743053Y-76848570D01*
X147870442Y-76586830D01*
X147944320Y-76305267D01*
X147804165Y-76073000D01*
X146605000Y-76073000D01*
X146351000Y-76073000D01*
X146331000Y-76073000D01*
X146331000Y-75819000D01*
X146351000Y-75819000D01*
X146351000Y-74500845D01*
X146605000Y-74500845D01*
X146605000Y-75819000D01*
X147804165Y-75819000D01*
X147944320Y-75586733D01*
X147870442Y-75305170D01*
X147743053Y-75043430D01*
X147567049Y-74811571D01*
X147349193Y-74618504D01*
X147097858Y-74471648D01*
X146834890Y-74379524D01*
X146605000Y-74500845D01*
X146351000Y-74500845D01*
X146121110Y-74379524D01*
X145858142Y-74471648D01*
X145606807Y-74618504D01*
X145388951Y-74811571D01*
X145232462Y-75017722D01*
X145218706Y-74991986D01*
X145033134Y-74765866D01*
X144807013Y-74580294D01*
X144549033Y-74442401D01*
X144269110Y-74357487D01*
X143978000Y-74328815D01*
X143686889Y-74357487D01*
X143406966Y-74442401D01*
X143148986Y-74580294D01*
X142922866Y-74765866D01*
X142870777Y-74829337D01*
X142816405Y-74727614D01*
X142705962Y-74593038D01*
X142571386Y-74482595D01*
X142417850Y-74400528D01*
X142265400Y-74354283D01*
X142265400Y-70426167D01*
X142575271Y-70736038D01*
X142941331Y-70980631D01*
X143348075Y-71149110D01*
X143779872Y-71235000D01*
X144220128Y-71235000D01*
X144651925Y-71149110D01*
X145058669Y-70980631D01*
X145424729Y-70736038D01*
X145736038Y-70424729D01*
X145980631Y-70058669D01*
X146149110Y-69651925D01*
X146235000Y-69220128D01*
X146235000Y-68779872D01*
X146149110Y-68348075D01*
X145980631Y-67941331D01*
X145736038Y-67575271D01*
X145424729Y-67263962D01*
X145058669Y-67019369D01*
X144651925Y-66850890D01*
X144220128Y-66765000D01*
X143779872Y-66765000D01*
X143348075Y-66850890D01*
X142941331Y-67019369D01*
X142763075Y-67138476D01*
X143842552Y-66059000D01*
X143865939Y-66059000D01*
X144058906Y-66020617D01*
X144120226Y-66081937D01*
X144289744Y-66195205D01*
X144478102Y-66273226D01*
X144678061Y-66313000D01*
X144881939Y-66313000D01*
X145081898Y-66273226D01*
X145215707Y-66217800D01*
X148351224Y-66217800D01*
X148412200Y-66278777D01*
X148412200Y-66874293D01*
X148356774Y-67008102D01*
X148317000Y-67208061D01*
X148317000Y-67411939D01*
X148356774Y-67611898D01*
X148434795Y-67800256D01*
X148548063Y-67969774D01*
X148692226Y-68113937D01*
X148861744Y-68227205D01*
X149050102Y-68305226D01*
X149250061Y-68345000D01*
X149340000Y-68345000D01*
X149340001Y-79467711D01*
X149330420Y-79565424D01*
X149311420Y-79628357D01*
X149280554Y-79686406D01*
X149239011Y-79737343D01*
X149188356Y-79779248D01*
X149130529Y-79810515D01*
X149067728Y-79829956D01*
X148972165Y-79840000D01*
X139032279Y-79840000D01*
X138934576Y-79830420D01*
X138871643Y-79811420D01*
X138813594Y-79780554D01*
X138762657Y-79739011D01*
X138720752Y-79688356D01*
X138689485Y-79630529D01*
X138670044Y-79567728D01*
X138660000Y-79472165D01*
X138660000Y-58032279D01*
X138669580Y-57934576D01*
X138688580Y-57871644D01*
X138719445Y-57813595D01*
X138760989Y-57762657D01*
X138811644Y-57720752D01*
X138869471Y-57689485D01*
X138932272Y-57670044D01*
X139027835Y-57660000D01*
X148967721Y-57660000D01*
X149065424Y-57669580D01*
G37*
G04 #@! TD.AperFunction*
M02*
