G04 #@! TF.GenerationSoftware,KiCad,Pcbnew,(5.1.9)-1*
G04 #@! TF.CreationDate,2021-02-01T13:16:18+01:00*
G04 #@! TF.ProjectId,HallSingle,48616c6c-5369-46e6-976c-652e6b696361,rev?*
G04 #@! TF.SameCoordinates,Original*
G04 #@! TF.FileFunction,Legend,Top*
G04 #@! TF.FilePolarity,Positive*
%FSLAX46Y46*%
G04 Gerber Fmt 4.6, Leading zero omitted, Abs format (unit mm)*
G04 Created by KiCad (PCBNEW (5.1.9)-1) date 2021-02-01 13:16:18*
%MOMM*%
%LPD*%
G01*
G04 APERTURE LIST*
%ADD10C,0.120000*%
%ADD11C,0.150000*%
%ADD12C,0.125000*%
%ADD13O,1.700000X1.950000*%
%ADD14R,1.600000X1.500000*%
%ADD15R,1.200000X1.200000*%
%ADD16C,3.200000*%
%ADD17R,1.060000X0.650000*%
%ADD18R,0.800000X0.900000*%
G04 APERTURE END LIST*
D10*
X141959000Y-64034936D02*
X141959000Y-64489064D01*
X140489000Y-64034936D02*
X140489000Y-64489064D01*
X147854936Y-64797000D02*
X148309064Y-64797000D01*
X147854936Y-66267000D02*
X148309064Y-66267000D01*
X139927000Y-64034936D02*
X139927000Y-64489064D01*
X138457000Y-64034936D02*
X138457000Y-64489064D01*
X138918000Y-73486000D02*
X138918000Y-79456000D01*
X138918000Y-79456000D02*
X149038000Y-79456000D01*
X149038000Y-79456000D02*
X149038000Y-73486000D01*
X149038000Y-73486000D02*
X138918000Y-73486000D01*
X142228000Y-73496000D02*
X142228000Y-74246000D01*
X142228000Y-74246000D02*
X145728000Y-74246000D01*
X145728000Y-74246000D02*
X145728000Y-73496000D01*
X145728000Y-73496000D02*
X142228000Y-73496000D01*
X138928000Y-73496000D02*
X138928000Y-74246000D01*
X138928000Y-74246000D02*
X140728000Y-74246000D01*
X140728000Y-74246000D02*
X140728000Y-73496000D01*
X140728000Y-73496000D02*
X138928000Y-73496000D01*
X147228000Y-73496000D02*
X147228000Y-74246000D01*
X147228000Y-74246000D02*
X149028000Y-74246000D01*
X149028000Y-74246000D02*
X149028000Y-73496000D01*
X149028000Y-73496000D02*
X147228000Y-73496000D01*
X138928000Y-75746000D02*
X139678000Y-75746000D01*
X139678000Y-75746000D02*
X139678000Y-78696000D01*
X139678000Y-78696000D02*
X143978000Y-78696000D01*
X149028000Y-75746000D02*
X148278000Y-75746000D01*
X148278000Y-75746000D02*
X148278000Y-78696000D01*
X148278000Y-78696000D02*
X143978000Y-78696000D01*
X139878000Y-73196000D02*
X138628000Y-73196000D01*
X138628000Y-73196000D02*
X138628000Y-74446000D01*
X146023000Y-62984748D02*
X146023000Y-63507252D01*
X144553000Y-62984748D02*
X144553000Y-63507252D01*
X147820748Y-62765000D02*
X148343252Y-62765000D01*
X147820748Y-64235000D02*
X148343252Y-64235000D01*
X140008000Y-61790000D02*
X140408000Y-61790000D01*
X138608000Y-60690000D02*
X138608000Y-57790000D01*
X138608000Y-57790000D02*
X139208000Y-57790000D01*
X141808000Y-60690000D02*
X141808000Y-57790000D01*
X141808000Y-57790000D02*
X141208000Y-57790000D01*
X138408000Y-61590000D02*
X138408000Y-62290000D01*
X138408000Y-62290000D02*
X139108000Y-62290000D01*
X148728000Y-57940000D02*
X146278000Y-57940000D01*
X146928000Y-61160000D02*
X148728000Y-61160000D01*
X145598000Y-58422000D02*
X144668000Y-58422000D01*
X142438000Y-58422000D02*
X143368000Y-58422000D01*
X142438000Y-58422000D02*
X142438000Y-60582000D01*
X145598000Y-58422000D02*
X145598000Y-59882000D01*
X144216000Y-64677000D02*
X144216000Y-61992000D01*
X142296000Y-64677000D02*
X144216000Y-64677000D01*
X142296000Y-61992000D02*
X142296000Y-64677000D01*
D11*
X141057333Y-67254380D02*
X140724000Y-66778190D01*
X140485904Y-67254380D02*
X140485904Y-66254380D01*
X140866857Y-66254380D01*
X140962095Y-66302000D01*
X141009714Y-66349619D01*
X141057333Y-66444857D01*
X141057333Y-66587714D01*
X141009714Y-66682952D01*
X140962095Y-66730571D01*
X140866857Y-66778190D01*
X140485904Y-66778190D01*
X141390666Y-66254380D02*
X142009714Y-66254380D01*
X141676380Y-66635333D01*
X141819238Y-66635333D01*
X141914476Y-66682952D01*
X141962095Y-66730571D01*
X142009714Y-66825809D01*
X142009714Y-67063904D01*
X141962095Y-67159142D01*
X141914476Y-67206761D01*
X141819238Y-67254380D01*
X141533523Y-67254380D01*
X141438285Y-67206761D01*
X141390666Y-67159142D01*
X147915333Y-67508380D02*
X147582000Y-67032190D01*
X147343904Y-67508380D02*
X147343904Y-66508380D01*
X147724857Y-66508380D01*
X147820095Y-66556000D01*
X147867714Y-66603619D01*
X147915333Y-66698857D01*
X147915333Y-66841714D01*
X147867714Y-66936952D01*
X147820095Y-66984571D01*
X147724857Y-67032190D01*
X147343904Y-67032190D01*
X148296285Y-66603619D02*
X148343904Y-66556000D01*
X148439142Y-66508380D01*
X148677238Y-66508380D01*
X148772476Y-66556000D01*
X148820095Y-66603619D01*
X148867714Y-66698857D01*
X148867714Y-66794095D01*
X148820095Y-66936952D01*
X148248666Y-67508380D01*
X148867714Y-67508380D01*
X139025333Y-67254380D02*
X138692000Y-66778190D01*
X138453904Y-67254380D02*
X138453904Y-66254380D01*
X138834857Y-66254380D01*
X138930095Y-66302000D01*
X138977714Y-66349619D01*
X139025333Y-66444857D01*
X139025333Y-66587714D01*
X138977714Y-66682952D01*
X138930095Y-66730571D01*
X138834857Y-66778190D01*
X138453904Y-66778190D01*
X139977714Y-67254380D02*
X139406285Y-67254380D01*
X139692000Y-67254380D02*
X139692000Y-66254380D01*
X139596761Y-66397238D01*
X139501523Y-66492476D01*
X139406285Y-66540095D01*
X143644666Y-71848380D02*
X143644666Y-72562666D01*
X143597047Y-72705523D01*
X143501809Y-72800761D01*
X143358952Y-72848380D01*
X143263714Y-72848380D01*
X144644666Y-72848380D02*
X144073238Y-72848380D01*
X144358952Y-72848380D02*
X144358952Y-71848380D01*
X144263714Y-71991238D01*
X144168476Y-72086476D01*
X144073238Y-72134095D01*
X145121333Y-66651142D02*
X145073714Y-66698761D01*
X144930857Y-66746380D01*
X144835619Y-66746380D01*
X144692761Y-66698761D01*
X144597523Y-66603523D01*
X144549904Y-66508285D01*
X144502285Y-66317809D01*
X144502285Y-66174952D01*
X144549904Y-65984476D01*
X144597523Y-65889238D01*
X144692761Y-65794000D01*
X144835619Y-65746380D01*
X144930857Y-65746380D01*
X145073714Y-65794000D01*
X145121333Y-65841619D01*
X145502285Y-65841619D02*
X145549904Y-65794000D01*
X145645142Y-65746380D01*
X145883238Y-65746380D01*
X145978476Y-65794000D01*
X146026095Y-65841619D01*
X146073714Y-65936857D01*
X146073714Y-66032095D01*
X146026095Y-66174952D01*
X145454666Y-66746380D01*
X146073714Y-66746380D01*
X147915333Y-62333142D02*
X147867714Y-62380761D01*
X147724857Y-62428380D01*
X147629619Y-62428380D01*
X147486761Y-62380761D01*
X147391523Y-62285523D01*
X147343904Y-62190285D01*
X147296285Y-61999809D01*
X147296285Y-61856952D01*
X147343904Y-61666476D01*
X147391523Y-61571238D01*
X147486761Y-61476000D01*
X147629619Y-61428380D01*
X147724857Y-61428380D01*
X147867714Y-61476000D01*
X147915333Y-61523619D01*
X148867714Y-62428380D02*
X148296285Y-62428380D01*
X148582000Y-62428380D02*
X148582000Y-61428380D01*
X148486761Y-61571238D01*
X148391523Y-61666476D01*
X148296285Y-61714095D01*
X139612761Y-60396380D02*
X139279428Y-59920190D01*
X139041333Y-60396380D02*
X139041333Y-59396380D01*
X139422285Y-59396380D01*
X139517523Y-59444000D01*
X139565142Y-59491619D01*
X139612761Y-59586857D01*
X139612761Y-59729714D01*
X139565142Y-59824952D01*
X139517523Y-59872571D01*
X139422285Y-59920190D01*
X139041333Y-59920190D01*
X139898476Y-59396380D02*
X140231809Y-60396380D01*
X140565142Y-59396380D01*
X141422285Y-60396380D02*
X140850857Y-60396380D01*
X141136571Y-60396380D02*
X141136571Y-59396380D01*
X141041333Y-59539238D01*
X140946095Y-59634476D01*
X140850857Y-59682095D01*
X147280380Y-60261904D02*
X148089904Y-60261904D01*
X148185142Y-60214285D01*
X148232761Y-60166666D01*
X148280380Y-60071428D01*
X148280380Y-59880952D01*
X148232761Y-59785714D01*
X148185142Y-59738095D01*
X148089904Y-59690476D01*
X147280380Y-59690476D01*
X147375619Y-59261904D02*
X147328000Y-59214285D01*
X147280380Y-59119047D01*
X147280380Y-58880952D01*
X147328000Y-58785714D01*
X147375619Y-58738095D01*
X147470857Y-58690476D01*
X147566095Y-58690476D01*
X147708952Y-58738095D01*
X148280380Y-59309523D01*
X148280380Y-58690476D01*
X143316595Y-58662380D02*
X143316595Y-59471904D01*
X143364214Y-59567142D01*
X143411833Y-59614761D01*
X143507071Y-59662380D01*
X143697547Y-59662380D01*
X143792785Y-59614761D01*
X143840404Y-59567142D01*
X143888023Y-59471904D01*
X143888023Y-58662380D01*
X144888023Y-59662380D02*
X144316595Y-59662380D01*
X144602309Y-59662380D02*
X144602309Y-58662380D01*
X144507071Y-58805238D01*
X144411833Y-58900476D01*
X144316595Y-58948095D01*
D12*
X142652428Y-63281285D02*
X142652428Y-62531285D01*
X142831000Y-62531285D01*
X142938142Y-62567000D01*
X143009571Y-62638428D01*
X143045285Y-62709857D01*
X143081000Y-62852714D01*
X143081000Y-62959857D01*
X143045285Y-63102714D01*
X143009571Y-63174142D01*
X142938142Y-63245571D01*
X142831000Y-63281285D01*
X142652428Y-63281285D01*
X143795285Y-63281285D02*
X143366714Y-63281285D01*
X143581000Y-63281285D02*
X143581000Y-62531285D01*
X143509571Y-62638428D01*
X143438142Y-62709857D01*
X143366714Y-62745571D01*
%LPC*%
G36*
G01*
X140773999Y-64662000D02*
X141674001Y-64662000D01*
G75*
G02*
X141924000Y-64911999I0J-249999D01*
G01*
X141924000Y-65437001D01*
G75*
G02*
X141674001Y-65687000I-249999J0D01*
G01*
X140773999Y-65687000D01*
G75*
G02*
X140524000Y-65437001I0J249999D01*
G01*
X140524000Y-64911999D01*
G75*
G02*
X140773999Y-64662000I249999J0D01*
G01*
G37*
G36*
G01*
X140773999Y-62837000D02*
X141674001Y-62837000D01*
G75*
G02*
X141924000Y-63086999I0J-249999D01*
G01*
X141924000Y-63612001D01*
G75*
G02*
X141674001Y-63862000I-249999J0D01*
G01*
X140773999Y-63862000D01*
G75*
G02*
X140524000Y-63612001I0J249999D01*
G01*
X140524000Y-63086999D01*
G75*
G02*
X140773999Y-62837000I249999J0D01*
G01*
G37*
G36*
G01*
X148482000Y-65982001D02*
X148482000Y-65081999D01*
G75*
G02*
X148731999Y-64832000I249999J0D01*
G01*
X149257001Y-64832000D01*
G75*
G02*
X149507000Y-65081999I0J-249999D01*
G01*
X149507000Y-65982001D01*
G75*
G02*
X149257001Y-66232000I-249999J0D01*
G01*
X148731999Y-66232000D01*
G75*
G02*
X148482000Y-65982001I0J249999D01*
G01*
G37*
G36*
G01*
X146657000Y-65982001D02*
X146657000Y-65081999D01*
G75*
G02*
X146906999Y-64832000I249999J0D01*
G01*
X147432001Y-64832000D01*
G75*
G02*
X147682000Y-65081999I0J-249999D01*
G01*
X147682000Y-65982001D01*
G75*
G02*
X147432001Y-66232000I-249999J0D01*
G01*
X146906999Y-66232000D01*
G75*
G02*
X146657000Y-65982001I0J249999D01*
G01*
G37*
G36*
G01*
X138741999Y-64662000D02*
X139642001Y-64662000D01*
G75*
G02*
X139892000Y-64911999I0J-249999D01*
G01*
X139892000Y-65437001D01*
G75*
G02*
X139642001Y-65687000I-249999J0D01*
G01*
X138741999Y-65687000D01*
G75*
G02*
X138492000Y-65437001I0J249999D01*
G01*
X138492000Y-64911999D01*
G75*
G02*
X138741999Y-64662000I249999J0D01*
G01*
G37*
G36*
G01*
X138741999Y-62837000D02*
X139642001Y-62837000D01*
G75*
G02*
X139892000Y-63086999I0J-249999D01*
G01*
X139892000Y-63612001D01*
G75*
G02*
X139642001Y-63862000I-249999J0D01*
G01*
X138741999Y-63862000D01*
G75*
G02*
X138492000Y-63612001I0J249999D01*
G01*
X138492000Y-63086999D01*
G75*
G02*
X138741999Y-62837000I249999J0D01*
G01*
G37*
D13*
X146478000Y-75946000D03*
X143978000Y-75946000D03*
G36*
G01*
X140628000Y-76671000D02*
X140628000Y-75221000D01*
G75*
G02*
X140878000Y-74971000I250000J0D01*
G01*
X142078000Y-74971000D01*
G75*
G02*
X142328000Y-75221000I0J-250000D01*
G01*
X142328000Y-76671000D01*
G75*
G02*
X142078000Y-76921000I-250000J0D01*
G01*
X140878000Y-76921000D01*
G75*
G02*
X140628000Y-76671000I0J250000D01*
G01*
G37*
G36*
G01*
X144813000Y-63696000D02*
X145763000Y-63696000D01*
G75*
G02*
X146013000Y-63946000I0J-250000D01*
G01*
X146013000Y-64446000D01*
G75*
G02*
X145763000Y-64696000I-250000J0D01*
G01*
X144813000Y-64696000D01*
G75*
G02*
X144563000Y-64446000I0J250000D01*
G01*
X144563000Y-63946000D01*
G75*
G02*
X144813000Y-63696000I250000J0D01*
G01*
G37*
G36*
G01*
X144813000Y-61796000D02*
X145763000Y-61796000D01*
G75*
G02*
X146013000Y-62046000I0J-250000D01*
G01*
X146013000Y-62546000D01*
G75*
G02*
X145763000Y-62796000I-250000J0D01*
G01*
X144813000Y-62796000D01*
G75*
G02*
X144563000Y-62546000I0J250000D01*
G01*
X144563000Y-62046000D01*
G75*
G02*
X144813000Y-61796000I250000J0D01*
G01*
G37*
G36*
G01*
X148532000Y-63975000D02*
X148532000Y-63025000D01*
G75*
G02*
X148782000Y-62775000I250000J0D01*
G01*
X149282000Y-62775000D01*
G75*
G02*
X149532000Y-63025000I0J-250000D01*
G01*
X149532000Y-63975000D01*
G75*
G02*
X149282000Y-64225000I-250000J0D01*
G01*
X148782000Y-64225000D01*
G75*
G02*
X148532000Y-63975000I0J250000D01*
G01*
G37*
G36*
G01*
X146632000Y-63975000D02*
X146632000Y-63025000D01*
G75*
G02*
X146882000Y-62775000I250000J0D01*
G01*
X147382000Y-62775000D01*
G75*
G02*
X147632000Y-63025000I0J-250000D01*
G01*
X147632000Y-63975000D01*
G75*
G02*
X147382000Y-64225000I-250000J0D01*
G01*
X146882000Y-64225000D01*
G75*
G02*
X146632000Y-63975000I0J250000D01*
G01*
G37*
D14*
X140208000Y-58240000D03*
D15*
X141208000Y-61490000D03*
X139208000Y-61490000D03*
D16*
X144000000Y-69000000D03*
D17*
X148928000Y-58600000D03*
X148928000Y-60500000D03*
X146728000Y-60500000D03*
X146728000Y-59550000D03*
X146728000Y-58600000D03*
D18*
X143068000Y-60182000D03*
X144968000Y-60182000D03*
X144018000Y-58182000D03*
G36*
G01*
X143712250Y-62542000D02*
X142799750Y-62542000D01*
G75*
G02*
X142556000Y-62298250I0J243750D01*
G01*
X142556000Y-61810750D01*
G75*
G02*
X142799750Y-61567000I243750J0D01*
G01*
X143712250Y-61567000D01*
G75*
G02*
X143956000Y-61810750I0J-243750D01*
G01*
X143956000Y-62298250D01*
G75*
G02*
X143712250Y-62542000I-243750J0D01*
G01*
G37*
G36*
G01*
X143712250Y-64417000D02*
X142799750Y-64417000D01*
G75*
G02*
X142556000Y-64173250I0J243750D01*
G01*
X142556000Y-63685750D01*
G75*
G02*
X142799750Y-63442000I243750J0D01*
G01*
X143712250Y-63442000D01*
G75*
G02*
X143956000Y-63685750I0J-243750D01*
G01*
X143956000Y-64173250D01*
G75*
G02*
X143712250Y-64417000I-243750J0D01*
G01*
G37*
M02*
