G04 #@! TF.GenerationSoftware,KiCad,Pcbnew,(5.1.5)-3*
G04 #@! TF.CreationDate,2020-12-30T13:43:29+10:30*
G04 #@! TF.ProjectId,HallSingle,48616c6c-5369-46e6-976c-652e6b696361,rev?*
G04 #@! TF.SameCoordinates,Original*
G04 #@! TF.FileFunction,Copper,L2,Bot*
G04 #@! TF.FilePolarity,Positive*
%FSLAX46Y46*%
G04 Gerber Fmt 4.6, Leading zero omitted, Abs format (unit mm)*
G04 Created by KiCad (PCBNEW (5.1.5)-3) date 2020-12-30 13:43:29*
%MOMM*%
%LPD*%
G04 APERTURE LIST*
%ADD10C,1.524000*%
%ADD11O,1.700000X1.700000*%
%ADD12R,1.700000X1.700000*%
%ADD13C,0.800000*%
%ADD14C,0.304800*%
%ADD15C,0.254000*%
G04 APERTURE END LIST*
D10*
X142000000Y-81500000D03*
X144500000Y-79000000D03*
X142000000Y-76500000D03*
D11*
X148000000Y-75920000D03*
X148000000Y-78460000D03*
D12*
X148000000Y-81000000D03*
D13*
X148653500Y-58610500D03*
X139446000Y-62801500D03*
X148653500Y-60515500D03*
X139954000Y-58547000D03*
X144272000Y-60515500D03*
X141668500Y-64643000D03*
D14*
X144526000Y-64643000D02*
X148653500Y-60515500D01*
X141668500Y-64643000D02*
X144526000Y-64643000D01*
X147150001Y-67267001D02*
X144526000Y-64643000D01*
X147150001Y-75070001D02*
X147150001Y-67267001D01*
X148000000Y-75920000D02*
X147150001Y-75070001D01*
D15*
G36*
X149065424Y-57669580D02*
G01*
X149128356Y-57688580D01*
X149186405Y-57719445D01*
X149237343Y-57760989D01*
X149279248Y-57811644D01*
X149310515Y-57869471D01*
X149329956Y-57932272D01*
X149340000Y-58027835D01*
X149340000Y-59738289D01*
X149313274Y-59711563D01*
X149143756Y-59598295D01*
X148955398Y-59520274D01*
X148755439Y-59480500D01*
X148551561Y-59480500D01*
X148351602Y-59520274D01*
X148163244Y-59598295D01*
X147993726Y-59711563D01*
X147849563Y-59855726D01*
X147736295Y-60025244D01*
X147658274Y-60213602D01*
X147618500Y-60413561D01*
X147618500Y-60436948D01*
X144199850Y-63855600D01*
X142344811Y-63855600D01*
X142328274Y-63839063D01*
X142158756Y-63725795D01*
X141970398Y-63647774D01*
X141770439Y-63608000D01*
X141566561Y-63608000D01*
X141366602Y-63647774D01*
X141178244Y-63725795D01*
X141008726Y-63839063D01*
X140864563Y-63983226D01*
X140751295Y-64152744D01*
X140673274Y-64341102D01*
X140633500Y-64541061D01*
X140633500Y-64744939D01*
X140673274Y-64944898D01*
X140751295Y-65133256D01*
X140864563Y-65302774D01*
X141008726Y-65446937D01*
X141178244Y-65560205D01*
X141366602Y-65638226D01*
X141566561Y-65678000D01*
X141770439Y-65678000D01*
X141970398Y-65638226D01*
X142158756Y-65560205D01*
X142328274Y-65446937D01*
X142344811Y-65430400D01*
X144199850Y-65430400D01*
X146362602Y-67593153D01*
X146362602Y-68254479D01*
X146187165Y-67830936D01*
X145917066Y-67426705D01*
X145573295Y-67082934D01*
X145169064Y-66812835D01*
X144719906Y-66626788D01*
X144243083Y-66531942D01*
X143756917Y-66531942D01*
X143280094Y-66626788D01*
X142830936Y-66812835D01*
X142426705Y-67082934D01*
X142082934Y-67426705D01*
X141812835Y-67830936D01*
X141626788Y-68280094D01*
X141531942Y-68756917D01*
X141531942Y-69243083D01*
X141626788Y-69719906D01*
X141812835Y-70169064D01*
X142082934Y-70573295D01*
X142426705Y-70917066D01*
X142830936Y-71187165D01*
X143280094Y-71373212D01*
X143756917Y-71468058D01*
X144243083Y-71468058D01*
X144719906Y-71373212D01*
X145169064Y-71187165D01*
X145573295Y-70917066D01*
X145917066Y-70573295D01*
X146187165Y-70169064D01*
X146362602Y-69745522D01*
X146362601Y-75031338D01*
X146358793Y-75070001D01*
X146362601Y-75108664D01*
X146362601Y-75108673D01*
X146373995Y-75224357D01*
X146419019Y-75372783D01*
X146492135Y-75509572D01*
X146552834Y-75583535D01*
X146515000Y-75773740D01*
X146515000Y-76066260D01*
X146572068Y-76353158D01*
X146684010Y-76623411D01*
X146846525Y-76866632D01*
X147053368Y-77073475D01*
X147227760Y-77190000D01*
X147053368Y-77306525D01*
X146846525Y-77513368D01*
X146684010Y-77756589D01*
X146572068Y-78026842D01*
X146515000Y-78313740D01*
X146515000Y-78606260D01*
X146572068Y-78893158D01*
X146684010Y-79163411D01*
X146846525Y-79406632D01*
X146978380Y-79538487D01*
X146905820Y-79560498D01*
X146795506Y-79619463D01*
X146698815Y-79698815D01*
X146619463Y-79795506D01*
X146560498Y-79905820D01*
X146524188Y-80025518D01*
X146511928Y-80150000D01*
X146515000Y-80714250D01*
X146673750Y-80873000D01*
X147873000Y-80873000D01*
X147873000Y-80853000D01*
X148127000Y-80853000D01*
X148127000Y-80873000D01*
X148147000Y-80873000D01*
X148147000Y-81127000D01*
X148127000Y-81127000D01*
X148127000Y-81147000D01*
X147873000Y-81147000D01*
X147873000Y-81127000D01*
X146673750Y-81127000D01*
X146515000Y-81285750D01*
X146511928Y-81850000D01*
X146524188Y-81974482D01*
X146560498Y-82094180D01*
X146619463Y-82204494D01*
X146698815Y-82301185D01*
X146746111Y-82340000D01*
X143019608Y-82340000D01*
X142965567Y-82285959D01*
X143205656Y-82218980D01*
X143322756Y-81969952D01*
X143389023Y-81702865D01*
X143401910Y-81427983D01*
X143360922Y-81155867D01*
X143267636Y-80896977D01*
X143205656Y-80781020D01*
X142965565Y-80714040D01*
X142179605Y-81500000D01*
X142193748Y-81514143D01*
X142014143Y-81693748D01*
X142000000Y-81679605D01*
X141985858Y-81693748D01*
X141806253Y-81514143D01*
X141820395Y-81500000D01*
X141034435Y-80714040D01*
X140794344Y-80781020D01*
X140677244Y-81030048D01*
X140610977Y-81297135D01*
X140598090Y-81572017D01*
X140639078Y-81844133D01*
X140732364Y-82103023D01*
X140794344Y-82218980D01*
X141034433Y-82285959D01*
X140980392Y-82340000D01*
X139032279Y-82340000D01*
X138934576Y-82330420D01*
X138871643Y-82311420D01*
X138813594Y-82280554D01*
X138762657Y-82239011D01*
X138720752Y-82188356D01*
X138689485Y-82130529D01*
X138670044Y-82067728D01*
X138660000Y-81972165D01*
X138660000Y-80534435D01*
X141214040Y-80534435D01*
X142000000Y-81320395D01*
X142785960Y-80534435D01*
X142718980Y-80294344D01*
X142469952Y-80177244D01*
X142202865Y-80110977D01*
X141927983Y-80098090D01*
X141655867Y-80139078D01*
X141396977Y-80232364D01*
X141281020Y-80294344D01*
X141214040Y-80534435D01*
X138660000Y-80534435D01*
X138660000Y-78862408D01*
X143103000Y-78862408D01*
X143103000Y-79137592D01*
X143156686Y-79407490D01*
X143261995Y-79661727D01*
X143414880Y-79890535D01*
X143609465Y-80085120D01*
X143838273Y-80238005D01*
X144092510Y-80343314D01*
X144362408Y-80397000D01*
X144637592Y-80397000D01*
X144907490Y-80343314D01*
X145161727Y-80238005D01*
X145390535Y-80085120D01*
X145585120Y-79890535D01*
X145738005Y-79661727D01*
X145843314Y-79407490D01*
X145897000Y-79137592D01*
X145897000Y-78862408D01*
X145843314Y-78592510D01*
X145738005Y-78338273D01*
X145585120Y-78109465D01*
X145390535Y-77914880D01*
X145161727Y-77761995D01*
X144907490Y-77656686D01*
X144637592Y-77603000D01*
X144362408Y-77603000D01*
X144092510Y-77656686D01*
X143838273Y-77761995D01*
X143609465Y-77914880D01*
X143414880Y-78109465D01*
X143261995Y-78338273D01*
X143156686Y-78592510D01*
X143103000Y-78862408D01*
X138660000Y-78862408D01*
X138660000Y-76362408D01*
X140603000Y-76362408D01*
X140603000Y-76637592D01*
X140656686Y-76907490D01*
X140761995Y-77161727D01*
X140914880Y-77390535D01*
X141109465Y-77585120D01*
X141338273Y-77738005D01*
X141592510Y-77843314D01*
X141862408Y-77897000D01*
X142137592Y-77897000D01*
X142407490Y-77843314D01*
X142661727Y-77738005D01*
X142890535Y-77585120D01*
X143085120Y-77390535D01*
X143238005Y-77161727D01*
X143343314Y-76907490D01*
X143397000Y-76637592D01*
X143397000Y-76362408D01*
X143343314Y-76092510D01*
X143238005Y-75838273D01*
X143085120Y-75609465D01*
X142890535Y-75414880D01*
X142661727Y-75261995D01*
X142407490Y-75156686D01*
X142137592Y-75103000D01*
X141862408Y-75103000D01*
X141592510Y-75156686D01*
X141338273Y-75261995D01*
X141109465Y-75414880D01*
X140914880Y-75609465D01*
X140761995Y-75838273D01*
X140656686Y-76092510D01*
X140603000Y-76362408D01*
X138660000Y-76362408D01*
X138660000Y-58032279D01*
X138669580Y-57934576D01*
X138688580Y-57871644D01*
X138719445Y-57813595D01*
X138760989Y-57762657D01*
X138811644Y-57720752D01*
X138869471Y-57689485D01*
X138932272Y-57670044D01*
X139027835Y-57660000D01*
X148967721Y-57660000D01*
X149065424Y-57669580D01*
G37*
X149065424Y-57669580D02*
X149128356Y-57688580D01*
X149186405Y-57719445D01*
X149237343Y-57760989D01*
X149279248Y-57811644D01*
X149310515Y-57869471D01*
X149329956Y-57932272D01*
X149340000Y-58027835D01*
X149340000Y-59738289D01*
X149313274Y-59711563D01*
X149143756Y-59598295D01*
X148955398Y-59520274D01*
X148755439Y-59480500D01*
X148551561Y-59480500D01*
X148351602Y-59520274D01*
X148163244Y-59598295D01*
X147993726Y-59711563D01*
X147849563Y-59855726D01*
X147736295Y-60025244D01*
X147658274Y-60213602D01*
X147618500Y-60413561D01*
X147618500Y-60436948D01*
X144199850Y-63855600D01*
X142344811Y-63855600D01*
X142328274Y-63839063D01*
X142158756Y-63725795D01*
X141970398Y-63647774D01*
X141770439Y-63608000D01*
X141566561Y-63608000D01*
X141366602Y-63647774D01*
X141178244Y-63725795D01*
X141008726Y-63839063D01*
X140864563Y-63983226D01*
X140751295Y-64152744D01*
X140673274Y-64341102D01*
X140633500Y-64541061D01*
X140633500Y-64744939D01*
X140673274Y-64944898D01*
X140751295Y-65133256D01*
X140864563Y-65302774D01*
X141008726Y-65446937D01*
X141178244Y-65560205D01*
X141366602Y-65638226D01*
X141566561Y-65678000D01*
X141770439Y-65678000D01*
X141970398Y-65638226D01*
X142158756Y-65560205D01*
X142328274Y-65446937D01*
X142344811Y-65430400D01*
X144199850Y-65430400D01*
X146362602Y-67593153D01*
X146362602Y-68254479D01*
X146187165Y-67830936D01*
X145917066Y-67426705D01*
X145573295Y-67082934D01*
X145169064Y-66812835D01*
X144719906Y-66626788D01*
X144243083Y-66531942D01*
X143756917Y-66531942D01*
X143280094Y-66626788D01*
X142830936Y-66812835D01*
X142426705Y-67082934D01*
X142082934Y-67426705D01*
X141812835Y-67830936D01*
X141626788Y-68280094D01*
X141531942Y-68756917D01*
X141531942Y-69243083D01*
X141626788Y-69719906D01*
X141812835Y-70169064D01*
X142082934Y-70573295D01*
X142426705Y-70917066D01*
X142830936Y-71187165D01*
X143280094Y-71373212D01*
X143756917Y-71468058D01*
X144243083Y-71468058D01*
X144719906Y-71373212D01*
X145169064Y-71187165D01*
X145573295Y-70917066D01*
X145917066Y-70573295D01*
X146187165Y-70169064D01*
X146362602Y-69745522D01*
X146362601Y-75031338D01*
X146358793Y-75070001D01*
X146362601Y-75108664D01*
X146362601Y-75108673D01*
X146373995Y-75224357D01*
X146419019Y-75372783D01*
X146492135Y-75509572D01*
X146552834Y-75583535D01*
X146515000Y-75773740D01*
X146515000Y-76066260D01*
X146572068Y-76353158D01*
X146684010Y-76623411D01*
X146846525Y-76866632D01*
X147053368Y-77073475D01*
X147227760Y-77190000D01*
X147053368Y-77306525D01*
X146846525Y-77513368D01*
X146684010Y-77756589D01*
X146572068Y-78026842D01*
X146515000Y-78313740D01*
X146515000Y-78606260D01*
X146572068Y-78893158D01*
X146684010Y-79163411D01*
X146846525Y-79406632D01*
X146978380Y-79538487D01*
X146905820Y-79560498D01*
X146795506Y-79619463D01*
X146698815Y-79698815D01*
X146619463Y-79795506D01*
X146560498Y-79905820D01*
X146524188Y-80025518D01*
X146511928Y-80150000D01*
X146515000Y-80714250D01*
X146673750Y-80873000D01*
X147873000Y-80873000D01*
X147873000Y-80853000D01*
X148127000Y-80853000D01*
X148127000Y-80873000D01*
X148147000Y-80873000D01*
X148147000Y-81127000D01*
X148127000Y-81127000D01*
X148127000Y-81147000D01*
X147873000Y-81147000D01*
X147873000Y-81127000D01*
X146673750Y-81127000D01*
X146515000Y-81285750D01*
X146511928Y-81850000D01*
X146524188Y-81974482D01*
X146560498Y-82094180D01*
X146619463Y-82204494D01*
X146698815Y-82301185D01*
X146746111Y-82340000D01*
X143019608Y-82340000D01*
X142965567Y-82285959D01*
X143205656Y-82218980D01*
X143322756Y-81969952D01*
X143389023Y-81702865D01*
X143401910Y-81427983D01*
X143360922Y-81155867D01*
X143267636Y-80896977D01*
X143205656Y-80781020D01*
X142965565Y-80714040D01*
X142179605Y-81500000D01*
X142193748Y-81514143D01*
X142014143Y-81693748D01*
X142000000Y-81679605D01*
X141985858Y-81693748D01*
X141806253Y-81514143D01*
X141820395Y-81500000D01*
X141034435Y-80714040D01*
X140794344Y-80781020D01*
X140677244Y-81030048D01*
X140610977Y-81297135D01*
X140598090Y-81572017D01*
X140639078Y-81844133D01*
X140732364Y-82103023D01*
X140794344Y-82218980D01*
X141034433Y-82285959D01*
X140980392Y-82340000D01*
X139032279Y-82340000D01*
X138934576Y-82330420D01*
X138871643Y-82311420D01*
X138813594Y-82280554D01*
X138762657Y-82239011D01*
X138720752Y-82188356D01*
X138689485Y-82130529D01*
X138670044Y-82067728D01*
X138660000Y-81972165D01*
X138660000Y-80534435D01*
X141214040Y-80534435D01*
X142000000Y-81320395D01*
X142785960Y-80534435D01*
X142718980Y-80294344D01*
X142469952Y-80177244D01*
X142202865Y-80110977D01*
X141927983Y-80098090D01*
X141655867Y-80139078D01*
X141396977Y-80232364D01*
X141281020Y-80294344D01*
X141214040Y-80534435D01*
X138660000Y-80534435D01*
X138660000Y-78862408D01*
X143103000Y-78862408D01*
X143103000Y-79137592D01*
X143156686Y-79407490D01*
X143261995Y-79661727D01*
X143414880Y-79890535D01*
X143609465Y-80085120D01*
X143838273Y-80238005D01*
X144092510Y-80343314D01*
X144362408Y-80397000D01*
X144637592Y-80397000D01*
X144907490Y-80343314D01*
X145161727Y-80238005D01*
X145390535Y-80085120D01*
X145585120Y-79890535D01*
X145738005Y-79661727D01*
X145843314Y-79407490D01*
X145897000Y-79137592D01*
X145897000Y-78862408D01*
X145843314Y-78592510D01*
X145738005Y-78338273D01*
X145585120Y-78109465D01*
X145390535Y-77914880D01*
X145161727Y-77761995D01*
X144907490Y-77656686D01*
X144637592Y-77603000D01*
X144362408Y-77603000D01*
X144092510Y-77656686D01*
X143838273Y-77761995D01*
X143609465Y-77914880D01*
X143414880Y-78109465D01*
X143261995Y-78338273D01*
X143156686Y-78592510D01*
X143103000Y-78862408D01*
X138660000Y-78862408D01*
X138660000Y-76362408D01*
X140603000Y-76362408D01*
X140603000Y-76637592D01*
X140656686Y-76907490D01*
X140761995Y-77161727D01*
X140914880Y-77390535D01*
X141109465Y-77585120D01*
X141338273Y-77738005D01*
X141592510Y-77843314D01*
X141862408Y-77897000D01*
X142137592Y-77897000D01*
X142407490Y-77843314D01*
X142661727Y-77738005D01*
X142890535Y-77585120D01*
X143085120Y-77390535D01*
X143238005Y-77161727D01*
X143343314Y-76907490D01*
X143397000Y-76637592D01*
X143397000Y-76362408D01*
X143343314Y-76092510D01*
X143238005Y-75838273D01*
X143085120Y-75609465D01*
X142890535Y-75414880D01*
X142661727Y-75261995D01*
X142407490Y-75156686D01*
X142137592Y-75103000D01*
X141862408Y-75103000D01*
X141592510Y-75156686D01*
X141338273Y-75261995D01*
X141109465Y-75414880D01*
X140914880Y-75609465D01*
X140761995Y-75838273D01*
X140656686Y-76092510D01*
X140603000Y-76362408D01*
X138660000Y-76362408D01*
X138660000Y-58032279D01*
X138669580Y-57934576D01*
X138688580Y-57871644D01*
X138719445Y-57813595D01*
X138760989Y-57762657D01*
X138811644Y-57720752D01*
X138869471Y-57689485D01*
X138932272Y-57670044D01*
X139027835Y-57660000D01*
X148967721Y-57660000D01*
X149065424Y-57669580D01*
M02*
