G04 #@! TF.GenerationSoftware,KiCad,Pcbnew,(5.1.5)-3*
G04 #@! TF.CreationDate,2021-01-21T12:34:06+10:30*
G04 #@! TF.ProjectId,HallSingle,48616c6c-5369-46e6-976c-652e6b696361,rev?*
G04 #@! TF.SameCoordinates,Original*
G04 #@! TF.FileFunction,Copper,L1,Top*
G04 #@! TF.FilePolarity,Positive*
%FSLAX46Y46*%
G04 Gerber Fmt 4.6, Leading zero omitted, Abs format (unit mm)*
G04 Created by KiCad (PCBNEW (5.1.5)-3) date 2021-01-21 12:34:06*
%MOMM*%
%LPD*%
G04 APERTURE LIST*
%ADD10R,1.060000X0.650000*%
%ADD11R,0.900000X0.800000*%
%ADD12C,1.524000*%
%ADD13C,0.100000*%
%ADD14O,1.700000X1.700000*%
%ADD15R,1.700000X1.700000*%
%ADD16C,0.800000*%
%ADD17C,0.609600*%
%ADD18C,0.304800*%
%ADD19C,0.254000*%
G04 APERTURE END LIST*
D10*
X148653500Y-58613000D03*
X148653500Y-60513000D03*
X146453500Y-60513000D03*
X146453500Y-59563000D03*
X146453500Y-58613000D03*
D11*
X142272000Y-59560500D03*
X144272000Y-58610500D03*
X144272000Y-60510500D03*
D12*
X142000000Y-79000000D03*
X144500000Y-76500000D03*
X142000000Y-74000000D03*
G04 #@! TA.AperFunction,SMDPad,CuDef*
D13*
G36*
X142148642Y-63701174D02*
G01*
X142172303Y-63704684D01*
X142195507Y-63710496D01*
X142218029Y-63718554D01*
X142239653Y-63728782D01*
X142260170Y-63741079D01*
X142279383Y-63755329D01*
X142297107Y-63771393D01*
X142313171Y-63789117D01*
X142327421Y-63808330D01*
X142339718Y-63828847D01*
X142349946Y-63850471D01*
X142358004Y-63872993D01*
X142363816Y-63896197D01*
X142367326Y-63919858D01*
X142368500Y-63943750D01*
X142368500Y-64431250D01*
X142367326Y-64455142D01*
X142363816Y-64478803D01*
X142358004Y-64502007D01*
X142349946Y-64524529D01*
X142339718Y-64546153D01*
X142327421Y-64566670D01*
X142313171Y-64585883D01*
X142297107Y-64603607D01*
X142279383Y-64619671D01*
X142260170Y-64633921D01*
X142239653Y-64646218D01*
X142218029Y-64656446D01*
X142195507Y-64664504D01*
X142172303Y-64670316D01*
X142148642Y-64673826D01*
X142124750Y-64675000D01*
X141212250Y-64675000D01*
X141188358Y-64673826D01*
X141164697Y-64670316D01*
X141141493Y-64664504D01*
X141118971Y-64656446D01*
X141097347Y-64646218D01*
X141076830Y-64633921D01*
X141057617Y-64619671D01*
X141039893Y-64603607D01*
X141023829Y-64585883D01*
X141009579Y-64566670D01*
X140997282Y-64546153D01*
X140987054Y-64524529D01*
X140978996Y-64502007D01*
X140973184Y-64478803D01*
X140969674Y-64455142D01*
X140968500Y-64431250D01*
X140968500Y-63943750D01*
X140969674Y-63919858D01*
X140973184Y-63896197D01*
X140978996Y-63872993D01*
X140987054Y-63850471D01*
X140997282Y-63828847D01*
X141009579Y-63808330D01*
X141023829Y-63789117D01*
X141039893Y-63771393D01*
X141057617Y-63755329D01*
X141076830Y-63741079D01*
X141097347Y-63728782D01*
X141118971Y-63718554D01*
X141141493Y-63710496D01*
X141164697Y-63704684D01*
X141188358Y-63701174D01*
X141212250Y-63700000D01*
X142124750Y-63700000D01*
X142148642Y-63701174D01*
G37*
G04 #@! TD.AperFunction*
G04 #@! TA.AperFunction,SMDPad,CuDef*
G36*
X142148642Y-61826174D02*
G01*
X142172303Y-61829684D01*
X142195507Y-61835496D01*
X142218029Y-61843554D01*
X142239653Y-61853782D01*
X142260170Y-61866079D01*
X142279383Y-61880329D01*
X142297107Y-61896393D01*
X142313171Y-61914117D01*
X142327421Y-61933330D01*
X142339718Y-61953847D01*
X142349946Y-61975471D01*
X142358004Y-61997993D01*
X142363816Y-62021197D01*
X142367326Y-62044858D01*
X142368500Y-62068750D01*
X142368500Y-62556250D01*
X142367326Y-62580142D01*
X142363816Y-62603803D01*
X142358004Y-62627007D01*
X142349946Y-62649529D01*
X142339718Y-62671153D01*
X142327421Y-62691670D01*
X142313171Y-62710883D01*
X142297107Y-62728607D01*
X142279383Y-62744671D01*
X142260170Y-62758921D01*
X142239653Y-62771218D01*
X142218029Y-62781446D01*
X142195507Y-62789504D01*
X142172303Y-62795316D01*
X142148642Y-62798826D01*
X142124750Y-62800000D01*
X141212250Y-62800000D01*
X141188358Y-62798826D01*
X141164697Y-62795316D01*
X141141493Y-62789504D01*
X141118971Y-62781446D01*
X141097347Y-62771218D01*
X141076830Y-62758921D01*
X141057617Y-62744671D01*
X141039893Y-62728607D01*
X141023829Y-62710883D01*
X141009579Y-62691670D01*
X140997282Y-62671153D01*
X140987054Y-62649529D01*
X140978996Y-62627007D01*
X140973184Y-62603803D01*
X140969674Y-62580142D01*
X140968500Y-62556250D01*
X140968500Y-62068750D01*
X140969674Y-62044858D01*
X140973184Y-62021197D01*
X140978996Y-61997993D01*
X140987054Y-61975471D01*
X140997282Y-61953847D01*
X141009579Y-61933330D01*
X141023829Y-61914117D01*
X141039893Y-61896393D01*
X141057617Y-61880329D01*
X141076830Y-61866079D01*
X141097347Y-61853782D01*
X141118971Y-61843554D01*
X141141493Y-61835496D01*
X141164697Y-61829684D01*
X141188358Y-61826174D01*
X141212250Y-61825000D01*
X142124750Y-61825000D01*
X142148642Y-61826174D01*
G37*
G04 #@! TD.AperFunction*
G04 #@! TA.AperFunction,SMDPad,CuDef*
G36*
X144950642Y-61851174D02*
G01*
X144974303Y-61854684D01*
X144997507Y-61860496D01*
X145020029Y-61868554D01*
X145041653Y-61878782D01*
X145062170Y-61891079D01*
X145081383Y-61905329D01*
X145099107Y-61921393D01*
X145115171Y-61939117D01*
X145129421Y-61958330D01*
X145141718Y-61978847D01*
X145151946Y-62000471D01*
X145160004Y-62022993D01*
X145165816Y-62046197D01*
X145169326Y-62069858D01*
X145170500Y-62093750D01*
X145170500Y-63006250D01*
X145169326Y-63030142D01*
X145165816Y-63053803D01*
X145160004Y-63077007D01*
X145151946Y-63099529D01*
X145141718Y-63121153D01*
X145129421Y-63141670D01*
X145115171Y-63160883D01*
X145099107Y-63178607D01*
X145081383Y-63194671D01*
X145062170Y-63208921D01*
X145041653Y-63221218D01*
X145020029Y-63231446D01*
X144997507Y-63239504D01*
X144974303Y-63245316D01*
X144950642Y-63248826D01*
X144926750Y-63250000D01*
X144439250Y-63250000D01*
X144415358Y-63248826D01*
X144391697Y-63245316D01*
X144368493Y-63239504D01*
X144345971Y-63231446D01*
X144324347Y-63221218D01*
X144303830Y-63208921D01*
X144284617Y-63194671D01*
X144266893Y-63178607D01*
X144250829Y-63160883D01*
X144236579Y-63141670D01*
X144224282Y-63121153D01*
X144214054Y-63099529D01*
X144205996Y-63077007D01*
X144200184Y-63053803D01*
X144196674Y-63030142D01*
X144195500Y-63006250D01*
X144195500Y-62093750D01*
X144196674Y-62069858D01*
X144200184Y-62046197D01*
X144205996Y-62022993D01*
X144214054Y-62000471D01*
X144224282Y-61978847D01*
X144236579Y-61958330D01*
X144250829Y-61939117D01*
X144266893Y-61921393D01*
X144284617Y-61905329D01*
X144303830Y-61891079D01*
X144324347Y-61878782D01*
X144345971Y-61868554D01*
X144368493Y-61860496D01*
X144391697Y-61854684D01*
X144415358Y-61851174D01*
X144439250Y-61850000D01*
X144926750Y-61850000D01*
X144950642Y-61851174D01*
G37*
G04 #@! TD.AperFunction*
G04 #@! TA.AperFunction,SMDPad,CuDef*
G36*
X146825642Y-61851174D02*
G01*
X146849303Y-61854684D01*
X146872507Y-61860496D01*
X146895029Y-61868554D01*
X146916653Y-61878782D01*
X146937170Y-61891079D01*
X146956383Y-61905329D01*
X146974107Y-61921393D01*
X146990171Y-61939117D01*
X147004421Y-61958330D01*
X147016718Y-61978847D01*
X147026946Y-62000471D01*
X147035004Y-62022993D01*
X147040816Y-62046197D01*
X147044326Y-62069858D01*
X147045500Y-62093750D01*
X147045500Y-63006250D01*
X147044326Y-63030142D01*
X147040816Y-63053803D01*
X147035004Y-63077007D01*
X147026946Y-63099529D01*
X147016718Y-63121153D01*
X147004421Y-63141670D01*
X146990171Y-63160883D01*
X146974107Y-63178607D01*
X146956383Y-63194671D01*
X146937170Y-63208921D01*
X146916653Y-63221218D01*
X146895029Y-63231446D01*
X146872507Y-63239504D01*
X146849303Y-63245316D01*
X146825642Y-63248826D01*
X146801750Y-63250000D01*
X146314250Y-63250000D01*
X146290358Y-63248826D01*
X146266697Y-63245316D01*
X146243493Y-63239504D01*
X146220971Y-63231446D01*
X146199347Y-63221218D01*
X146178830Y-63208921D01*
X146159617Y-63194671D01*
X146141893Y-63178607D01*
X146125829Y-63160883D01*
X146111579Y-63141670D01*
X146099282Y-63121153D01*
X146089054Y-63099529D01*
X146080996Y-63077007D01*
X146075184Y-63053803D01*
X146071674Y-63030142D01*
X146070500Y-63006250D01*
X146070500Y-62093750D01*
X146071674Y-62069858D01*
X146075184Y-62046197D01*
X146080996Y-62022993D01*
X146089054Y-62000471D01*
X146099282Y-61978847D01*
X146111579Y-61958330D01*
X146125829Y-61939117D01*
X146141893Y-61921393D01*
X146159617Y-61905329D01*
X146178830Y-61891079D01*
X146199347Y-61878782D01*
X146220971Y-61868554D01*
X146243493Y-61860496D01*
X146266697Y-61854684D01*
X146290358Y-61851174D01*
X146314250Y-61850000D01*
X146801750Y-61850000D01*
X146825642Y-61851174D01*
G37*
G04 #@! TD.AperFunction*
G04 #@! TA.AperFunction,SMDPad,CuDef*
G36*
X148930142Y-61876174D02*
G01*
X148953803Y-61879684D01*
X148977007Y-61885496D01*
X148999529Y-61893554D01*
X149021153Y-61903782D01*
X149041670Y-61916079D01*
X149060883Y-61930329D01*
X149078607Y-61946393D01*
X149094671Y-61964117D01*
X149108921Y-61983330D01*
X149121218Y-62003847D01*
X149131446Y-62025471D01*
X149139504Y-62047993D01*
X149145316Y-62071197D01*
X149148826Y-62094858D01*
X149150000Y-62118750D01*
X149150000Y-62606250D01*
X149148826Y-62630142D01*
X149145316Y-62653803D01*
X149139504Y-62677007D01*
X149131446Y-62699529D01*
X149121218Y-62721153D01*
X149108921Y-62741670D01*
X149094671Y-62760883D01*
X149078607Y-62778607D01*
X149060883Y-62794671D01*
X149041670Y-62808921D01*
X149021153Y-62821218D01*
X148999529Y-62831446D01*
X148977007Y-62839504D01*
X148953803Y-62845316D01*
X148930142Y-62848826D01*
X148906250Y-62850000D01*
X147993750Y-62850000D01*
X147969858Y-62848826D01*
X147946197Y-62845316D01*
X147922993Y-62839504D01*
X147900471Y-62831446D01*
X147878847Y-62821218D01*
X147858330Y-62808921D01*
X147839117Y-62794671D01*
X147821393Y-62778607D01*
X147805329Y-62760883D01*
X147791079Y-62741670D01*
X147778782Y-62721153D01*
X147768554Y-62699529D01*
X147760496Y-62677007D01*
X147754684Y-62653803D01*
X147751174Y-62630142D01*
X147750000Y-62606250D01*
X147750000Y-62118750D01*
X147751174Y-62094858D01*
X147754684Y-62071197D01*
X147760496Y-62047993D01*
X147768554Y-62025471D01*
X147778782Y-62003847D01*
X147791079Y-61983330D01*
X147805329Y-61964117D01*
X147821393Y-61946393D01*
X147839117Y-61930329D01*
X147858330Y-61916079D01*
X147878847Y-61903782D01*
X147900471Y-61893554D01*
X147922993Y-61885496D01*
X147946197Y-61879684D01*
X147969858Y-61876174D01*
X147993750Y-61875000D01*
X148906250Y-61875000D01*
X148930142Y-61876174D01*
G37*
G04 #@! TD.AperFunction*
G04 #@! TA.AperFunction,SMDPad,CuDef*
G36*
X148930142Y-63751174D02*
G01*
X148953803Y-63754684D01*
X148977007Y-63760496D01*
X148999529Y-63768554D01*
X149021153Y-63778782D01*
X149041670Y-63791079D01*
X149060883Y-63805329D01*
X149078607Y-63821393D01*
X149094671Y-63839117D01*
X149108921Y-63858330D01*
X149121218Y-63878847D01*
X149131446Y-63900471D01*
X149139504Y-63922993D01*
X149145316Y-63946197D01*
X149148826Y-63969858D01*
X149150000Y-63993750D01*
X149150000Y-64481250D01*
X149148826Y-64505142D01*
X149145316Y-64528803D01*
X149139504Y-64552007D01*
X149131446Y-64574529D01*
X149121218Y-64596153D01*
X149108921Y-64616670D01*
X149094671Y-64635883D01*
X149078607Y-64653607D01*
X149060883Y-64669671D01*
X149041670Y-64683921D01*
X149021153Y-64696218D01*
X148999529Y-64706446D01*
X148977007Y-64714504D01*
X148953803Y-64720316D01*
X148930142Y-64723826D01*
X148906250Y-64725000D01*
X147993750Y-64725000D01*
X147969858Y-64723826D01*
X147946197Y-64720316D01*
X147922993Y-64714504D01*
X147900471Y-64706446D01*
X147878847Y-64696218D01*
X147858330Y-64683921D01*
X147839117Y-64669671D01*
X147821393Y-64653607D01*
X147805329Y-64635883D01*
X147791079Y-64616670D01*
X147778782Y-64596153D01*
X147768554Y-64574529D01*
X147760496Y-64552007D01*
X147754684Y-64528803D01*
X147751174Y-64505142D01*
X147750000Y-64481250D01*
X147750000Y-63993750D01*
X147751174Y-63969858D01*
X147754684Y-63946197D01*
X147760496Y-63922993D01*
X147768554Y-63900471D01*
X147778782Y-63878847D01*
X147791079Y-63858330D01*
X147805329Y-63839117D01*
X147821393Y-63821393D01*
X147839117Y-63805329D01*
X147858330Y-63791079D01*
X147878847Y-63778782D01*
X147900471Y-63768554D01*
X147922993Y-63760496D01*
X147946197Y-63754684D01*
X147969858Y-63751174D01*
X147993750Y-63750000D01*
X148906250Y-63750000D01*
X148930142Y-63751174D01*
G37*
G04 #@! TD.AperFunction*
D14*
X148000000Y-73500000D03*
X148000000Y-76040000D03*
D15*
X148000000Y-78580000D03*
G04 #@! TA.AperFunction,SMDPad,CuDef*
D13*
G36*
X140480142Y-58076174D02*
G01*
X140503803Y-58079684D01*
X140527007Y-58085496D01*
X140549529Y-58093554D01*
X140571153Y-58103782D01*
X140591670Y-58116079D01*
X140610883Y-58130329D01*
X140628607Y-58146393D01*
X140644671Y-58164117D01*
X140658921Y-58183330D01*
X140671218Y-58203847D01*
X140681446Y-58225471D01*
X140689504Y-58247993D01*
X140695316Y-58271197D01*
X140698826Y-58294858D01*
X140700000Y-58318750D01*
X140700000Y-58806250D01*
X140698826Y-58830142D01*
X140695316Y-58853803D01*
X140689504Y-58877007D01*
X140681446Y-58899529D01*
X140671218Y-58921153D01*
X140658921Y-58941670D01*
X140644671Y-58960883D01*
X140628607Y-58978607D01*
X140610883Y-58994671D01*
X140591670Y-59008921D01*
X140571153Y-59021218D01*
X140549529Y-59031446D01*
X140527007Y-59039504D01*
X140503803Y-59045316D01*
X140480142Y-59048826D01*
X140456250Y-59050000D01*
X139543750Y-59050000D01*
X139519858Y-59048826D01*
X139496197Y-59045316D01*
X139472993Y-59039504D01*
X139450471Y-59031446D01*
X139428847Y-59021218D01*
X139408330Y-59008921D01*
X139389117Y-58994671D01*
X139371393Y-58978607D01*
X139355329Y-58960883D01*
X139341079Y-58941670D01*
X139328782Y-58921153D01*
X139318554Y-58899529D01*
X139310496Y-58877007D01*
X139304684Y-58853803D01*
X139301174Y-58830142D01*
X139300000Y-58806250D01*
X139300000Y-58318750D01*
X139301174Y-58294858D01*
X139304684Y-58271197D01*
X139310496Y-58247993D01*
X139318554Y-58225471D01*
X139328782Y-58203847D01*
X139341079Y-58183330D01*
X139355329Y-58164117D01*
X139371393Y-58146393D01*
X139389117Y-58130329D01*
X139408330Y-58116079D01*
X139428847Y-58103782D01*
X139450471Y-58093554D01*
X139472993Y-58085496D01*
X139496197Y-58079684D01*
X139519858Y-58076174D01*
X139543750Y-58075000D01*
X140456250Y-58075000D01*
X140480142Y-58076174D01*
G37*
G04 #@! TD.AperFunction*
G04 #@! TA.AperFunction,SMDPad,CuDef*
G36*
X140480142Y-59951174D02*
G01*
X140503803Y-59954684D01*
X140527007Y-59960496D01*
X140549529Y-59968554D01*
X140571153Y-59978782D01*
X140591670Y-59991079D01*
X140610883Y-60005329D01*
X140628607Y-60021393D01*
X140644671Y-60039117D01*
X140658921Y-60058330D01*
X140671218Y-60078847D01*
X140681446Y-60100471D01*
X140689504Y-60122993D01*
X140695316Y-60146197D01*
X140698826Y-60169858D01*
X140700000Y-60193750D01*
X140700000Y-60681250D01*
X140698826Y-60705142D01*
X140695316Y-60728803D01*
X140689504Y-60752007D01*
X140681446Y-60774529D01*
X140671218Y-60796153D01*
X140658921Y-60816670D01*
X140644671Y-60835883D01*
X140628607Y-60853607D01*
X140610883Y-60869671D01*
X140591670Y-60883921D01*
X140571153Y-60896218D01*
X140549529Y-60906446D01*
X140527007Y-60914504D01*
X140503803Y-60920316D01*
X140480142Y-60923826D01*
X140456250Y-60925000D01*
X139543750Y-60925000D01*
X139519858Y-60923826D01*
X139496197Y-60920316D01*
X139472993Y-60914504D01*
X139450471Y-60906446D01*
X139428847Y-60896218D01*
X139408330Y-60883921D01*
X139389117Y-60869671D01*
X139371393Y-60853607D01*
X139355329Y-60835883D01*
X139341079Y-60816670D01*
X139328782Y-60796153D01*
X139318554Y-60774529D01*
X139310496Y-60752007D01*
X139304684Y-60728803D01*
X139301174Y-60705142D01*
X139300000Y-60681250D01*
X139300000Y-60193750D01*
X139301174Y-60169858D01*
X139304684Y-60146197D01*
X139310496Y-60122993D01*
X139318554Y-60100471D01*
X139328782Y-60078847D01*
X139341079Y-60058330D01*
X139355329Y-60039117D01*
X139371393Y-60021393D01*
X139389117Y-60005329D01*
X139408330Y-59991079D01*
X139428847Y-59978782D01*
X139450471Y-59968554D01*
X139472993Y-59960496D01*
X139496197Y-59954684D01*
X139519858Y-59951174D01*
X139543750Y-59950000D01*
X140456250Y-59950000D01*
X140480142Y-59951174D01*
G37*
G04 #@! TD.AperFunction*
G04 #@! TA.AperFunction,SMDPad,CuDef*
G36*
X139926142Y-63701174D02*
G01*
X139949803Y-63704684D01*
X139973007Y-63710496D01*
X139995529Y-63718554D01*
X140017153Y-63728782D01*
X140037670Y-63741079D01*
X140056883Y-63755329D01*
X140074607Y-63771393D01*
X140090671Y-63789117D01*
X140104921Y-63808330D01*
X140117218Y-63828847D01*
X140127446Y-63850471D01*
X140135504Y-63872993D01*
X140141316Y-63896197D01*
X140144826Y-63919858D01*
X140146000Y-63943750D01*
X140146000Y-64431250D01*
X140144826Y-64455142D01*
X140141316Y-64478803D01*
X140135504Y-64502007D01*
X140127446Y-64524529D01*
X140117218Y-64546153D01*
X140104921Y-64566670D01*
X140090671Y-64585883D01*
X140074607Y-64603607D01*
X140056883Y-64619671D01*
X140037670Y-64633921D01*
X140017153Y-64646218D01*
X139995529Y-64656446D01*
X139973007Y-64664504D01*
X139949803Y-64670316D01*
X139926142Y-64673826D01*
X139902250Y-64675000D01*
X138989750Y-64675000D01*
X138965858Y-64673826D01*
X138942197Y-64670316D01*
X138918993Y-64664504D01*
X138896471Y-64656446D01*
X138874847Y-64646218D01*
X138854330Y-64633921D01*
X138835117Y-64619671D01*
X138817393Y-64603607D01*
X138801329Y-64585883D01*
X138787079Y-64566670D01*
X138774782Y-64546153D01*
X138764554Y-64524529D01*
X138756496Y-64502007D01*
X138750684Y-64478803D01*
X138747174Y-64455142D01*
X138746000Y-64431250D01*
X138746000Y-63943750D01*
X138747174Y-63919858D01*
X138750684Y-63896197D01*
X138756496Y-63872993D01*
X138764554Y-63850471D01*
X138774782Y-63828847D01*
X138787079Y-63808330D01*
X138801329Y-63789117D01*
X138817393Y-63771393D01*
X138835117Y-63755329D01*
X138854330Y-63741079D01*
X138874847Y-63728782D01*
X138896471Y-63718554D01*
X138918993Y-63710496D01*
X138942197Y-63704684D01*
X138965858Y-63701174D01*
X138989750Y-63700000D01*
X139902250Y-63700000D01*
X139926142Y-63701174D01*
G37*
G04 #@! TD.AperFunction*
G04 #@! TA.AperFunction,SMDPad,CuDef*
G36*
X139926142Y-61826174D02*
G01*
X139949803Y-61829684D01*
X139973007Y-61835496D01*
X139995529Y-61843554D01*
X140017153Y-61853782D01*
X140037670Y-61866079D01*
X140056883Y-61880329D01*
X140074607Y-61896393D01*
X140090671Y-61914117D01*
X140104921Y-61933330D01*
X140117218Y-61953847D01*
X140127446Y-61975471D01*
X140135504Y-61997993D01*
X140141316Y-62021197D01*
X140144826Y-62044858D01*
X140146000Y-62068750D01*
X140146000Y-62556250D01*
X140144826Y-62580142D01*
X140141316Y-62603803D01*
X140135504Y-62627007D01*
X140127446Y-62649529D01*
X140117218Y-62671153D01*
X140104921Y-62691670D01*
X140090671Y-62710883D01*
X140074607Y-62728607D01*
X140056883Y-62744671D01*
X140037670Y-62758921D01*
X140017153Y-62771218D01*
X139995529Y-62781446D01*
X139973007Y-62789504D01*
X139949803Y-62795316D01*
X139926142Y-62798826D01*
X139902250Y-62800000D01*
X138989750Y-62800000D01*
X138965858Y-62798826D01*
X138942197Y-62795316D01*
X138918993Y-62789504D01*
X138896471Y-62781446D01*
X138874847Y-62771218D01*
X138854330Y-62758921D01*
X138835117Y-62744671D01*
X138817393Y-62728607D01*
X138801329Y-62710883D01*
X138787079Y-62691670D01*
X138774782Y-62671153D01*
X138764554Y-62649529D01*
X138756496Y-62627007D01*
X138750684Y-62603803D01*
X138747174Y-62580142D01*
X138746000Y-62556250D01*
X138746000Y-62068750D01*
X138747174Y-62044858D01*
X138750684Y-62021197D01*
X138756496Y-61997993D01*
X138764554Y-61975471D01*
X138774782Y-61953847D01*
X138787079Y-61933330D01*
X138801329Y-61914117D01*
X138817393Y-61896393D01*
X138835117Y-61880329D01*
X138854330Y-61866079D01*
X138874847Y-61853782D01*
X138896471Y-61843554D01*
X138918993Y-61835496D01*
X138942197Y-61829684D01*
X138965858Y-61826174D01*
X138989750Y-61825000D01*
X139902250Y-61825000D01*
X139926142Y-61826174D01*
G37*
G04 #@! TD.AperFunction*
G04 #@! TA.AperFunction,SMDPad,CuDef*
G36*
X144950642Y-63851174D02*
G01*
X144974303Y-63854684D01*
X144997507Y-63860496D01*
X145020029Y-63868554D01*
X145041653Y-63878782D01*
X145062170Y-63891079D01*
X145081383Y-63905329D01*
X145099107Y-63921393D01*
X145115171Y-63939117D01*
X145129421Y-63958330D01*
X145141718Y-63978847D01*
X145151946Y-64000471D01*
X145160004Y-64022993D01*
X145165816Y-64046197D01*
X145169326Y-64069858D01*
X145170500Y-64093750D01*
X145170500Y-65006250D01*
X145169326Y-65030142D01*
X145165816Y-65053803D01*
X145160004Y-65077007D01*
X145151946Y-65099529D01*
X145141718Y-65121153D01*
X145129421Y-65141670D01*
X145115171Y-65160883D01*
X145099107Y-65178607D01*
X145081383Y-65194671D01*
X145062170Y-65208921D01*
X145041653Y-65221218D01*
X145020029Y-65231446D01*
X144997507Y-65239504D01*
X144974303Y-65245316D01*
X144950642Y-65248826D01*
X144926750Y-65250000D01*
X144439250Y-65250000D01*
X144415358Y-65248826D01*
X144391697Y-65245316D01*
X144368493Y-65239504D01*
X144345971Y-65231446D01*
X144324347Y-65221218D01*
X144303830Y-65208921D01*
X144284617Y-65194671D01*
X144266893Y-65178607D01*
X144250829Y-65160883D01*
X144236579Y-65141670D01*
X144224282Y-65121153D01*
X144214054Y-65099529D01*
X144205996Y-65077007D01*
X144200184Y-65053803D01*
X144196674Y-65030142D01*
X144195500Y-65006250D01*
X144195500Y-64093750D01*
X144196674Y-64069858D01*
X144200184Y-64046197D01*
X144205996Y-64022993D01*
X144214054Y-64000471D01*
X144224282Y-63978847D01*
X144236579Y-63958330D01*
X144250829Y-63939117D01*
X144266893Y-63921393D01*
X144284617Y-63905329D01*
X144303830Y-63891079D01*
X144324347Y-63878782D01*
X144345971Y-63868554D01*
X144368493Y-63860496D01*
X144391697Y-63854684D01*
X144415358Y-63851174D01*
X144439250Y-63850000D01*
X144926750Y-63850000D01*
X144950642Y-63851174D01*
G37*
G04 #@! TD.AperFunction*
G04 #@! TA.AperFunction,SMDPad,CuDef*
G36*
X146825642Y-63851174D02*
G01*
X146849303Y-63854684D01*
X146872507Y-63860496D01*
X146895029Y-63868554D01*
X146916653Y-63878782D01*
X146937170Y-63891079D01*
X146956383Y-63905329D01*
X146974107Y-63921393D01*
X146990171Y-63939117D01*
X147004421Y-63958330D01*
X147016718Y-63978847D01*
X147026946Y-64000471D01*
X147035004Y-64022993D01*
X147040816Y-64046197D01*
X147044326Y-64069858D01*
X147045500Y-64093750D01*
X147045500Y-65006250D01*
X147044326Y-65030142D01*
X147040816Y-65053803D01*
X147035004Y-65077007D01*
X147026946Y-65099529D01*
X147016718Y-65121153D01*
X147004421Y-65141670D01*
X146990171Y-65160883D01*
X146974107Y-65178607D01*
X146956383Y-65194671D01*
X146937170Y-65208921D01*
X146916653Y-65221218D01*
X146895029Y-65231446D01*
X146872507Y-65239504D01*
X146849303Y-65245316D01*
X146825642Y-65248826D01*
X146801750Y-65250000D01*
X146314250Y-65250000D01*
X146290358Y-65248826D01*
X146266697Y-65245316D01*
X146243493Y-65239504D01*
X146220971Y-65231446D01*
X146199347Y-65221218D01*
X146178830Y-65208921D01*
X146159617Y-65194671D01*
X146141893Y-65178607D01*
X146125829Y-65160883D01*
X146111579Y-65141670D01*
X146099282Y-65121153D01*
X146089054Y-65099529D01*
X146080996Y-65077007D01*
X146075184Y-65053803D01*
X146071674Y-65030142D01*
X146070500Y-65006250D01*
X146070500Y-64093750D01*
X146071674Y-64069858D01*
X146075184Y-64046197D01*
X146080996Y-64022993D01*
X146089054Y-64000471D01*
X146099282Y-63978847D01*
X146111579Y-63958330D01*
X146125829Y-63939117D01*
X146141893Y-63921393D01*
X146159617Y-63905329D01*
X146178830Y-63891079D01*
X146199347Y-63878782D01*
X146220971Y-63868554D01*
X146243493Y-63860496D01*
X146266697Y-63854684D01*
X146290358Y-63851174D01*
X146314250Y-63850000D01*
X146801750Y-63850000D01*
X146825642Y-63851174D01*
G37*
G04 #@! TD.AperFunction*
D16*
X147750000Y-58610500D03*
X140400000Y-63200000D03*
X141150000Y-58050000D03*
X145150000Y-60550000D03*
X148850000Y-61250000D03*
X143250000Y-64800000D03*
D17*
X146284000Y-59500000D02*
X146347000Y-59563000D01*
X146451000Y-59560500D02*
X146453500Y-59563000D01*
X142272000Y-59560500D02*
X146451000Y-59560500D01*
D18*
X148450000Y-62725000D02*
X148463000Y-62738000D01*
X147988500Y-62738000D02*
X148463000Y-62738000D01*
X146453500Y-62824000D02*
X146558000Y-62928500D01*
X146453500Y-60513000D02*
X146453500Y-62824000D01*
X146748500Y-62738000D02*
X146558000Y-62928500D01*
X148463000Y-62738000D02*
X146748500Y-62738000D01*
X146558000Y-64960500D02*
X146558000Y-62928500D01*
D17*
X139612500Y-62412500D02*
X140400000Y-63200000D01*
X139446000Y-62412500D02*
X139612500Y-62412500D01*
X145110500Y-60510500D02*
X145150000Y-60550000D01*
X144272000Y-60510500D02*
X145110500Y-60510500D01*
X140637500Y-58562500D02*
X141150000Y-58050000D01*
X140000000Y-58562500D02*
X140637500Y-58562500D01*
X147752500Y-58613000D02*
X147750000Y-58610500D01*
X148653500Y-58613000D02*
X147752500Y-58613000D01*
D18*
X141668500Y-62106000D02*
X140000000Y-60437500D01*
X141668500Y-62738000D02*
X141668500Y-62106000D01*
X142737500Y-64287500D02*
X143250000Y-64800000D01*
X141668500Y-64287500D02*
X142737500Y-64287500D01*
X148850000Y-60709500D02*
X148653500Y-60513000D01*
X148850000Y-61250000D02*
X148850000Y-60709500D01*
X143077630Y-74000000D02*
X142000000Y-74000000D01*
X148463000Y-64613000D02*
X146794399Y-66281601D01*
X146794399Y-66281601D02*
X146794399Y-70283231D01*
X146794399Y-70283231D02*
X143077630Y-74000000D01*
X144500000Y-76500000D02*
X142000000Y-74000000D01*
X146451000Y-58610500D02*
X146453500Y-58613000D01*
X144272000Y-58610500D02*
X146451000Y-58610500D01*
D19*
G36*
X143467506Y-57679963D02*
G01*
X143370815Y-57759315D01*
X143291463Y-57856006D01*
X143232498Y-57966320D01*
X143196188Y-58086018D01*
X143183928Y-58210500D01*
X143183928Y-58722405D01*
X143173185Y-58709315D01*
X143076494Y-58629963D01*
X142966180Y-58570998D01*
X142846482Y-58534688D01*
X142722000Y-58522428D01*
X142557750Y-58525500D01*
X142399000Y-58684250D01*
X142399000Y-59433500D01*
X143198250Y-59433500D01*
X143282857Y-59348893D01*
X143291463Y-59364994D01*
X143370815Y-59461685D01*
X143467506Y-59541037D01*
X143503918Y-59560500D01*
X143467506Y-59579963D01*
X143370815Y-59659315D01*
X143291463Y-59756006D01*
X143282857Y-59772107D01*
X143198250Y-59687500D01*
X142399000Y-59687500D01*
X142399000Y-60436750D01*
X142557750Y-60595500D01*
X142722000Y-60598572D01*
X142846482Y-60586312D01*
X142966180Y-60550002D01*
X143076494Y-60491037D01*
X143173185Y-60411685D01*
X143183928Y-60398595D01*
X143183928Y-60910500D01*
X143196188Y-61034982D01*
X143232498Y-61154680D01*
X143291463Y-61264994D01*
X143370815Y-61361685D01*
X143467506Y-61441037D01*
X143577820Y-61500002D01*
X143650737Y-61522121D01*
X143605998Y-61605820D01*
X143569688Y-61725518D01*
X143557428Y-61850000D01*
X143560500Y-62264250D01*
X143719250Y-62423000D01*
X144556000Y-62423000D01*
X144556000Y-62403000D01*
X144810000Y-62403000D01*
X144810000Y-62423000D01*
X144830000Y-62423000D01*
X144830000Y-62677000D01*
X144810000Y-62677000D01*
X144810000Y-64423000D01*
X144830000Y-64423000D01*
X144830000Y-64677000D01*
X144810000Y-64677000D01*
X144810000Y-65726250D01*
X144968750Y-65885000D01*
X145170500Y-65888072D01*
X145294982Y-65875812D01*
X145414680Y-65839502D01*
X145524994Y-65780537D01*
X145621685Y-65701185D01*
X145685492Y-65623436D01*
X145690708Y-65629792D01*
X145824336Y-65739458D01*
X145976791Y-65820947D01*
X146123942Y-65865585D01*
X146063417Y-65978819D01*
X146018393Y-66127245D01*
X146006999Y-66242929D01*
X146006999Y-66242938D01*
X146003191Y-66281601D01*
X146006999Y-66320264D01*
X146006999Y-68004990D01*
X145980631Y-67941331D01*
X145736038Y-67575271D01*
X145424729Y-67263962D01*
X145058669Y-67019369D01*
X144651925Y-66850890D01*
X144220128Y-66765000D01*
X143779872Y-66765000D01*
X143348075Y-66850890D01*
X142941331Y-67019369D01*
X142575271Y-67263962D01*
X142263962Y-67575271D01*
X142019369Y-67941331D01*
X141850890Y-68348075D01*
X141765000Y-68779872D01*
X141765000Y-69220128D01*
X141850890Y-69651925D01*
X142019369Y-70058669D01*
X142263962Y-70424729D01*
X142575271Y-70736038D01*
X142941331Y-70980631D01*
X143348075Y-71149110D01*
X143779872Y-71235000D01*
X144220128Y-71235000D01*
X144651925Y-71149110D01*
X144930258Y-71033821D01*
X142969867Y-72994212D01*
X142890535Y-72914880D01*
X142661727Y-72761995D01*
X142407490Y-72656686D01*
X142137592Y-72603000D01*
X141862408Y-72603000D01*
X141592510Y-72656686D01*
X141338273Y-72761995D01*
X141109465Y-72914880D01*
X140914880Y-73109465D01*
X140761995Y-73338273D01*
X140656686Y-73592510D01*
X140603000Y-73862408D01*
X140603000Y-74137592D01*
X140656686Y-74407490D01*
X140761995Y-74661727D01*
X140914880Y-74890535D01*
X141109465Y-75085120D01*
X141338273Y-75238005D01*
X141592510Y-75343314D01*
X141862408Y-75397000D01*
X142137592Y-75397000D01*
X142259250Y-75372801D01*
X143127199Y-76240750D01*
X143103000Y-76362408D01*
X143103000Y-76637592D01*
X143156686Y-76907490D01*
X143261995Y-77161727D01*
X143414880Y-77390535D01*
X143609465Y-77585120D01*
X143838273Y-77738005D01*
X144092510Y-77843314D01*
X144362408Y-77897000D01*
X144637592Y-77897000D01*
X144907490Y-77843314D01*
X145161727Y-77738005D01*
X145390535Y-77585120D01*
X145585120Y-77390535D01*
X145738005Y-77161727D01*
X145843314Y-76907490D01*
X145897000Y-76637592D01*
X145897000Y-76362408D01*
X145843314Y-76092510D01*
X145738005Y-75838273D01*
X145585120Y-75609465D01*
X145390535Y-75414880D01*
X145161727Y-75261995D01*
X144907490Y-75156686D01*
X144637592Y-75103000D01*
X144362408Y-75103000D01*
X144240750Y-75127199D01*
X143653290Y-74539740D01*
X143661758Y-74529422D01*
X147323832Y-70867350D01*
X147353868Y-70842700D01*
X147452265Y-70722803D01*
X147525381Y-70586014D01*
X147570405Y-70437588D01*
X147581799Y-70321904D01*
X147581799Y-70321895D01*
X147585607Y-70283232D01*
X147581799Y-70244569D01*
X147581799Y-66607751D01*
X148826480Y-65363072D01*
X148906250Y-65363072D01*
X149078285Y-65346128D01*
X149243709Y-65295947D01*
X149340000Y-65244478D01*
X149340001Y-72854556D01*
X149315990Y-72796589D01*
X149153475Y-72553368D01*
X148946632Y-72346525D01*
X148703411Y-72184010D01*
X148433158Y-72072068D01*
X148146260Y-72015000D01*
X147853740Y-72015000D01*
X147566842Y-72072068D01*
X147296589Y-72184010D01*
X147053368Y-72346525D01*
X146846525Y-72553368D01*
X146684010Y-72796589D01*
X146572068Y-73066842D01*
X146515000Y-73353740D01*
X146515000Y-73646260D01*
X146572068Y-73933158D01*
X146684010Y-74203411D01*
X146846525Y-74446632D01*
X147053368Y-74653475D01*
X147235534Y-74775195D01*
X147118645Y-74844822D01*
X146902412Y-75039731D01*
X146728359Y-75273080D01*
X146603175Y-75535901D01*
X146558524Y-75683110D01*
X146679845Y-75913000D01*
X147873000Y-75913000D01*
X147873000Y-75893000D01*
X148127000Y-75893000D01*
X148127000Y-75913000D01*
X148147000Y-75913000D01*
X148147000Y-76167000D01*
X148127000Y-76167000D01*
X148127000Y-76187000D01*
X147873000Y-76187000D01*
X147873000Y-76167000D01*
X146679845Y-76167000D01*
X146558524Y-76396890D01*
X146603175Y-76544099D01*
X146728359Y-76806920D01*
X146902412Y-77040269D01*
X146986466Y-77116034D01*
X146905820Y-77140498D01*
X146795506Y-77199463D01*
X146698815Y-77278815D01*
X146619463Y-77375506D01*
X146560498Y-77485820D01*
X146524188Y-77605518D01*
X146511928Y-77730000D01*
X146511928Y-79430000D01*
X146524188Y-79554482D01*
X146560498Y-79674180D01*
X146619463Y-79784494D01*
X146665015Y-79840000D01*
X143118886Y-79840000D01*
X143238005Y-79661727D01*
X143343314Y-79407490D01*
X143397000Y-79137592D01*
X143397000Y-78862408D01*
X143343314Y-78592510D01*
X143238005Y-78338273D01*
X143085120Y-78109465D01*
X142890535Y-77914880D01*
X142661727Y-77761995D01*
X142407490Y-77656686D01*
X142137592Y-77603000D01*
X141862408Y-77603000D01*
X141592510Y-77656686D01*
X141338273Y-77761995D01*
X141109465Y-77914880D01*
X140914880Y-78109465D01*
X140761995Y-78338273D01*
X140656686Y-78592510D01*
X140603000Y-78862408D01*
X140603000Y-79137592D01*
X140656686Y-79407490D01*
X140761995Y-79661727D01*
X140881114Y-79840000D01*
X139032279Y-79840000D01*
X138934576Y-79830420D01*
X138871643Y-79811420D01*
X138813594Y-79780554D01*
X138762657Y-79739011D01*
X138720752Y-79688356D01*
X138689485Y-79630529D01*
X138670044Y-79567728D01*
X138660000Y-79472165D01*
X138660000Y-65304602D01*
X138746000Y-65313072D01*
X139160250Y-65310000D01*
X139319000Y-65151250D01*
X139319000Y-64314500D01*
X139299000Y-64314500D01*
X139299000Y-64060500D01*
X139319000Y-64060500D01*
X139319000Y-64040500D01*
X139573000Y-64040500D01*
X139573000Y-64060500D01*
X139593000Y-64060500D01*
X139593000Y-64314500D01*
X139573000Y-64314500D01*
X139573000Y-65151250D01*
X139731750Y-65310000D01*
X140146000Y-65313072D01*
X140270482Y-65300812D01*
X140390180Y-65264502D01*
X140500494Y-65205537D01*
X140597185Y-65126185D01*
X140628784Y-65087682D01*
X140722336Y-65164458D01*
X140874791Y-65245947D01*
X141040215Y-65296128D01*
X141212250Y-65313072D01*
X142124750Y-65313072D01*
X142296785Y-65296128D01*
X142330936Y-65285768D01*
X142332795Y-65290256D01*
X142446063Y-65459774D01*
X142590226Y-65603937D01*
X142759744Y-65717205D01*
X142948102Y-65795226D01*
X143148061Y-65835000D01*
X143351939Y-65835000D01*
X143551898Y-65795226D01*
X143740256Y-65717205D01*
X143753253Y-65708520D01*
X143841006Y-65780537D01*
X143951320Y-65839502D01*
X144071018Y-65875812D01*
X144195500Y-65888072D01*
X144397250Y-65885000D01*
X144556000Y-65726250D01*
X144556000Y-64677000D01*
X144536000Y-64677000D01*
X144536000Y-64423000D01*
X144556000Y-64423000D01*
X144556000Y-62677000D01*
X143719250Y-62677000D01*
X143560500Y-62835750D01*
X143557428Y-63250000D01*
X143569688Y-63374482D01*
X143605998Y-63494180D01*
X143635835Y-63550000D01*
X143605998Y-63605820D01*
X143569688Y-63725518D01*
X143561491Y-63808748D01*
X143551898Y-63804774D01*
X143351939Y-63765000D01*
X143328550Y-63765000D01*
X143321627Y-63758077D01*
X143296969Y-63728031D01*
X143177072Y-63629634D01*
X143040283Y-63556518D01*
X142891857Y-63511494D01*
X142888606Y-63511174D01*
X142857958Y-63453836D01*
X142748292Y-63320208D01*
X142662744Y-63250000D01*
X142748292Y-63179792D01*
X142857958Y-63046164D01*
X142939447Y-62893709D01*
X142989628Y-62728285D01*
X143006572Y-62556250D01*
X143006572Y-62068750D01*
X142989628Y-61896715D01*
X142939447Y-61731291D01*
X142857958Y-61578836D01*
X142748292Y-61445208D01*
X142614664Y-61335542D01*
X142462209Y-61254053D01*
X142296785Y-61203872D01*
X142124750Y-61186928D01*
X141862980Y-61186928D01*
X141338072Y-60662021D01*
X141338072Y-60371787D01*
X141370815Y-60411685D01*
X141467506Y-60491037D01*
X141577820Y-60550002D01*
X141697518Y-60586312D01*
X141822000Y-60598572D01*
X141986250Y-60595500D01*
X142145000Y-60436750D01*
X142145000Y-59687500D01*
X141345750Y-59687500D01*
X141238208Y-59795042D01*
X141189458Y-59703836D01*
X141079792Y-59570208D01*
X140994244Y-59500000D01*
X141079792Y-59429792D01*
X141135457Y-59361964D01*
X141162151Y-59347696D01*
X141215864Y-59303614D01*
X141345750Y-59433500D01*
X142145000Y-59433500D01*
X142145000Y-58684250D01*
X142040689Y-58579939D01*
X142067205Y-58540256D01*
X142145226Y-58351898D01*
X142185000Y-58151939D01*
X142185000Y-57948061D01*
X142145226Y-57748102D01*
X142108733Y-57660000D01*
X143504854Y-57660000D01*
X143467506Y-57679963D01*
G37*
X143467506Y-57679963D02*
X143370815Y-57759315D01*
X143291463Y-57856006D01*
X143232498Y-57966320D01*
X143196188Y-58086018D01*
X143183928Y-58210500D01*
X143183928Y-58722405D01*
X143173185Y-58709315D01*
X143076494Y-58629963D01*
X142966180Y-58570998D01*
X142846482Y-58534688D01*
X142722000Y-58522428D01*
X142557750Y-58525500D01*
X142399000Y-58684250D01*
X142399000Y-59433500D01*
X143198250Y-59433500D01*
X143282857Y-59348893D01*
X143291463Y-59364994D01*
X143370815Y-59461685D01*
X143467506Y-59541037D01*
X143503918Y-59560500D01*
X143467506Y-59579963D01*
X143370815Y-59659315D01*
X143291463Y-59756006D01*
X143282857Y-59772107D01*
X143198250Y-59687500D01*
X142399000Y-59687500D01*
X142399000Y-60436750D01*
X142557750Y-60595500D01*
X142722000Y-60598572D01*
X142846482Y-60586312D01*
X142966180Y-60550002D01*
X143076494Y-60491037D01*
X143173185Y-60411685D01*
X143183928Y-60398595D01*
X143183928Y-60910500D01*
X143196188Y-61034982D01*
X143232498Y-61154680D01*
X143291463Y-61264994D01*
X143370815Y-61361685D01*
X143467506Y-61441037D01*
X143577820Y-61500002D01*
X143650737Y-61522121D01*
X143605998Y-61605820D01*
X143569688Y-61725518D01*
X143557428Y-61850000D01*
X143560500Y-62264250D01*
X143719250Y-62423000D01*
X144556000Y-62423000D01*
X144556000Y-62403000D01*
X144810000Y-62403000D01*
X144810000Y-62423000D01*
X144830000Y-62423000D01*
X144830000Y-62677000D01*
X144810000Y-62677000D01*
X144810000Y-64423000D01*
X144830000Y-64423000D01*
X144830000Y-64677000D01*
X144810000Y-64677000D01*
X144810000Y-65726250D01*
X144968750Y-65885000D01*
X145170500Y-65888072D01*
X145294982Y-65875812D01*
X145414680Y-65839502D01*
X145524994Y-65780537D01*
X145621685Y-65701185D01*
X145685492Y-65623436D01*
X145690708Y-65629792D01*
X145824336Y-65739458D01*
X145976791Y-65820947D01*
X146123942Y-65865585D01*
X146063417Y-65978819D01*
X146018393Y-66127245D01*
X146006999Y-66242929D01*
X146006999Y-66242938D01*
X146003191Y-66281601D01*
X146006999Y-66320264D01*
X146006999Y-68004990D01*
X145980631Y-67941331D01*
X145736038Y-67575271D01*
X145424729Y-67263962D01*
X145058669Y-67019369D01*
X144651925Y-66850890D01*
X144220128Y-66765000D01*
X143779872Y-66765000D01*
X143348075Y-66850890D01*
X142941331Y-67019369D01*
X142575271Y-67263962D01*
X142263962Y-67575271D01*
X142019369Y-67941331D01*
X141850890Y-68348075D01*
X141765000Y-68779872D01*
X141765000Y-69220128D01*
X141850890Y-69651925D01*
X142019369Y-70058669D01*
X142263962Y-70424729D01*
X142575271Y-70736038D01*
X142941331Y-70980631D01*
X143348075Y-71149110D01*
X143779872Y-71235000D01*
X144220128Y-71235000D01*
X144651925Y-71149110D01*
X144930258Y-71033821D01*
X142969867Y-72994212D01*
X142890535Y-72914880D01*
X142661727Y-72761995D01*
X142407490Y-72656686D01*
X142137592Y-72603000D01*
X141862408Y-72603000D01*
X141592510Y-72656686D01*
X141338273Y-72761995D01*
X141109465Y-72914880D01*
X140914880Y-73109465D01*
X140761995Y-73338273D01*
X140656686Y-73592510D01*
X140603000Y-73862408D01*
X140603000Y-74137592D01*
X140656686Y-74407490D01*
X140761995Y-74661727D01*
X140914880Y-74890535D01*
X141109465Y-75085120D01*
X141338273Y-75238005D01*
X141592510Y-75343314D01*
X141862408Y-75397000D01*
X142137592Y-75397000D01*
X142259250Y-75372801D01*
X143127199Y-76240750D01*
X143103000Y-76362408D01*
X143103000Y-76637592D01*
X143156686Y-76907490D01*
X143261995Y-77161727D01*
X143414880Y-77390535D01*
X143609465Y-77585120D01*
X143838273Y-77738005D01*
X144092510Y-77843314D01*
X144362408Y-77897000D01*
X144637592Y-77897000D01*
X144907490Y-77843314D01*
X145161727Y-77738005D01*
X145390535Y-77585120D01*
X145585120Y-77390535D01*
X145738005Y-77161727D01*
X145843314Y-76907490D01*
X145897000Y-76637592D01*
X145897000Y-76362408D01*
X145843314Y-76092510D01*
X145738005Y-75838273D01*
X145585120Y-75609465D01*
X145390535Y-75414880D01*
X145161727Y-75261995D01*
X144907490Y-75156686D01*
X144637592Y-75103000D01*
X144362408Y-75103000D01*
X144240750Y-75127199D01*
X143653290Y-74539740D01*
X143661758Y-74529422D01*
X147323832Y-70867350D01*
X147353868Y-70842700D01*
X147452265Y-70722803D01*
X147525381Y-70586014D01*
X147570405Y-70437588D01*
X147581799Y-70321904D01*
X147581799Y-70321895D01*
X147585607Y-70283232D01*
X147581799Y-70244569D01*
X147581799Y-66607751D01*
X148826480Y-65363072D01*
X148906250Y-65363072D01*
X149078285Y-65346128D01*
X149243709Y-65295947D01*
X149340000Y-65244478D01*
X149340001Y-72854556D01*
X149315990Y-72796589D01*
X149153475Y-72553368D01*
X148946632Y-72346525D01*
X148703411Y-72184010D01*
X148433158Y-72072068D01*
X148146260Y-72015000D01*
X147853740Y-72015000D01*
X147566842Y-72072068D01*
X147296589Y-72184010D01*
X147053368Y-72346525D01*
X146846525Y-72553368D01*
X146684010Y-72796589D01*
X146572068Y-73066842D01*
X146515000Y-73353740D01*
X146515000Y-73646260D01*
X146572068Y-73933158D01*
X146684010Y-74203411D01*
X146846525Y-74446632D01*
X147053368Y-74653475D01*
X147235534Y-74775195D01*
X147118645Y-74844822D01*
X146902412Y-75039731D01*
X146728359Y-75273080D01*
X146603175Y-75535901D01*
X146558524Y-75683110D01*
X146679845Y-75913000D01*
X147873000Y-75913000D01*
X147873000Y-75893000D01*
X148127000Y-75893000D01*
X148127000Y-75913000D01*
X148147000Y-75913000D01*
X148147000Y-76167000D01*
X148127000Y-76167000D01*
X148127000Y-76187000D01*
X147873000Y-76187000D01*
X147873000Y-76167000D01*
X146679845Y-76167000D01*
X146558524Y-76396890D01*
X146603175Y-76544099D01*
X146728359Y-76806920D01*
X146902412Y-77040269D01*
X146986466Y-77116034D01*
X146905820Y-77140498D01*
X146795506Y-77199463D01*
X146698815Y-77278815D01*
X146619463Y-77375506D01*
X146560498Y-77485820D01*
X146524188Y-77605518D01*
X146511928Y-77730000D01*
X146511928Y-79430000D01*
X146524188Y-79554482D01*
X146560498Y-79674180D01*
X146619463Y-79784494D01*
X146665015Y-79840000D01*
X143118886Y-79840000D01*
X143238005Y-79661727D01*
X143343314Y-79407490D01*
X143397000Y-79137592D01*
X143397000Y-78862408D01*
X143343314Y-78592510D01*
X143238005Y-78338273D01*
X143085120Y-78109465D01*
X142890535Y-77914880D01*
X142661727Y-77761995D01*
X142407490Y-77656686D01*
X142137592Y-77603000D01*
X141862408Y-77603000D01*
X141592510Y-77656686D01*
X141338273Y-77761995D01*
X141109465Y-77914880D01*
X140914880Y-78109465D01*
X140761995Y-78338273D01*
X140656686Y-78592510D01*
X140603000Y-78862408D01*
X140603000Y-79137592D01*
X140656686Y-79407490D01*
X140761995Y-79661727D01*
X140881114Y-79840000D01*
X139032279Y-79840000D01*
X138934576Y-79830420D01*
X138871643Y-79811420D01*
X138813594Y-79780554D01*
X138762657Y-79739011D01*
X138720752Y-79688356D01*
X138689485Y-79630529D01*
X138670044Y-79567728D01*
X138660000Y-79472165D01*
X138660000Y-65304602D01*
X138746000Y-65313072D01*
X139160250Y-65310000D01*
X139319000Y-65151250D01*
X139319000Y-64314500D01*
X139299000Y-64314500D01*
X139299000Y-64060500D01*
X139319000Y-64060500D01*
X139319000Y-64040500D01*
X139573000Y-64040500D01*
X139573000Y-64060500D01*
X139593000Y-64060500D01*
X139593000Y-64314500D01*
X139573000Y-64314500D01*
X139573000Y-65151250D01*
X139731750Y-65310000D01*
X140146000Y-65313072D01*
X140270482Y-65300812D01*
X140390180Y-65264502D01*
X140500494Y-65205537D01*
X140597185Y-65126185D01*
X140628784Y-65087682D01*
X140722336Y-65164458D01*
X140874791Y-65245947D01*
X141040215Y-65296128D01*
X141212250Y-65313072D01*
X142124750Y-65313072D01*
X142296785Y-65296128D01*
X142330936Y-65285768D01*
X142332795Y-65290256D01*
X142446063Y-65459774D01*
X142590226Y-65603937D01*
X142759744Y-65717205D01*
X142948102Y-65795226D01*
X143148061Y-65835000D01*
X143351939Y-65835000D01*
X143551898Y-65795226D01*
X143740256Y-65717205D01*
X143753253Y-65708520D01*
X143841006Y-65780537D01*
X143951320Y-65839502D01*
X144071018Y-65875812D01*
X144195500Y-65888072D01*
X144397250Y-65885000D01*
X144556000Y-65726250D01*
X144556000Y-64677000D01*
X144536000Y-64677000D01*
X144536000Y-64423000D01*
X144556000Y-64423000D01*
X144556000Y-62677000D01*
X143719250Y-62677000D01*
X143560500Y-62835750D01*
X143557428Y-63250000D01*
X143569688Y-63374482D01*
X143605998Y-63494180D01*
X143635835Y-63550000D01*
X143605998Y-63605820D01*
X143569688Y-63725518D01*
X143561491Y-63808748D01*
X143551898Y-63804774D01*
X143351939Y-63765000D01*
X143328550Y-63765000D01*
X143321627Y-63758077D01*
X143296969Y-63728031D01*
X143177072Y-63629634D01*
X143040283Y-63556518D01*
X142891857Y-63511494D01*
X142888606Y-63511174D01*
X142857958Y-63453836D01*
X142748292Y-63320208D01*
X142662744Y-63250000D01*
X142748292Y-63179792D01*
X142857958Y-63046164D01*
X142939447Y-62893709D01*
X142989628Y-62728285D01*
X143006572Y-62556250D01*
X143006572Y-62068750D01*
X142989628Y-61896715D01*
X142939447Y-61731291D01*
X142857958Y-61578836D01*
X142748292Y-61445208D01*
X142614664Y-61335542D01*
X142462209Y-61254053D01*
X142296785Y-61203872D01*
X142124750Y-61186928D01*
X141862980Y-61186928D01*
X141338072Y-60662021D01*
X141338072Y-60371787D01*
X141370815Y-60411685D01*
X141467506Y-60491037D01*
X141577820Y-60550002D01*
X141697518Y-60586312D01*
X141822000Y-60598572D01*
X141986250Y-60595500D01*
X142145000Y-60436750D01*
X142145000Y-59687500D01*
X141345750Y-59687500D01*
X141238208Y-59795042D01*
X141189458Y-59703836D01*
X141079792Y-59570208D01*
X140994244Y-59500000D01*
X141079792Y-59429792D01*
X141135457Y-59361964D01*
X141162151Y-59347696D01*
X141215864Y-59303614D01*
X141345750Y-59433500D01*
X142145000Y-59433500D01*
X142145000Y-58684250D01*
X142040689Y-58579939D01*
X142067205Y-58540256D01*
X142145226Y-58351898D01*
X142185000Y-58151939D01*
X142185000Y-57948061D01*
X142145226Y-57748102D01*
X142108733Y-57660000D01*
X143504854Y-57660000D01*
X143467506Y-57679963D01*
M02*
