G04 #@! TF.GenerationSoftware,KiCad,Pcbnew,(5.1.5)-3*
G04 #@! TF.CreationDate,2020-12-30T13:43:29+10:30*
G04 #@! TF.ProjectId,HallSingle,48616c6c-5369-46e6-976c-652e6b696361,rev?*
G04 #@! TF.SameCoordinates,Original*
G04 #@! TF.FileFunction,Soldermask,Bot*
G04 #@! TF.FilePolarity,Negative*
%FSLAX46Y46*%
G04 Gerber Fmt 4.6, Leading zero omitted, Abs format (unit mm)*
G04 Created by KiCad (PCBNEW (5.1.5)-3) date 2020-12-30 13:43:29*
%MOMM*%
%LPD*%
G04 APERTURE LIST*
%ADD10C,0.100000*%
G04 APERTURE END LIST*
D10*
G36*
X142237142Y-80718242D02*
G01*
X142385101Y-80779529D01*
X142518255Y-80868499D01*
X142631501Y-80981745D01*
X142720471Y-81114899D01*
X142781758Y-81262858D01*
X142813000Y-81419925D01*
X142813000Y-81580075D01*
X142781758Y-81737142D01*
X142720471Y-81885101D01*
X142631501Y-82018255D01*
X142518255Y-82131501D01*
X142385101Y-82220471D01*
X142237142Y-82281758D01*
X142080075Y-82313000D01*
X141919925Y-82313000D01*
X141762858Y-82281758D01*
X141614899Y-82220471D01*
X141481745Y-82131501D01*
X141368499Y-82018255D01*
X141279529Y-81885101D01*
X141218242Y-81737142D01*
X141187000Y-81580075D01*
X141187000Y-81419925D01*
X141218242Y-81262858D01*
X141279529Y-81114899D01*
X141368499Y-80981745D01*
X141481745Y-80868499D01*
X141614899Y-80779529D01*
X141762858Y-80718242D01*
X141919925Y-80687000D01*
X142080075Y-80687000D01*
X142237142Y-80718242D01*
G37*
G36*
X148901000Y-81901000D02*
G01*
X147099000Y-81901000D01*
X147099000Y-80099000D01*
X148901000Y-80099000D01*
X148901000Y-81901000D01*
G37*
G36*
X144737142Y-78218242D02*
G01*
X144885101Y-78279529D01*
X145018255Y-78368499D01*
X145131501Y-78481745D01*
X145220471Y-78614899D01*
X145281758Y-78762858D01*
X145313000Y-78919925D01*
X145313000Y-79080075D01*
X145281758Y-79237142D01*
X145220471Y-79385101D01*
X145131501Y-79518255D01*
X145018255Y-79631501D01*
X144885101Y-79720471D01*
X144737142Y-79781758D01*
X144580075Y-79813000D01*
X144419925Y-79813000D01*
X144262858Y-79781758D01*
X144114899Y-79720471D01*
X143981745Y-79631501D01*
X143868499Y-79518255D01*
X143779529Y-79385101D01*
X143718242Y-79237142D01*
X143687000Y-79080075D01*
X143687000Y-78919925D01*
X143718242Y-78762858D01*
X143779529Y-78614899D01*
X143868499Y-78481745D01*
X143981745Y-78368499D01*
X144114899Y-78279529D01*
X144262858Y-78218242D01*
X144419925Y-78187000D01*
X144580075Y-78187000D01*
X144737142Y-78218242D01*
G37*
G36*
X148113512Y-77563927D02*
G01*
X148262812Y-77593624D01*
X148426784Y-77661544D01*
X148574354Y-77760147D01*
X148699853Y-77885646D01*
X148798456Y-78033216D01*
X148866376Y-78197188D01*
X148882754Y-78279529D01*
X148900452Y-78368501D01*
X148901000Y-78371259D01*
X148901000Y-78548741D01*
X148866376Y-78722812D01*
X148798456Y-78886784D01*
X148699853Y-79034354D01*
X148574354Y-79159853D01*
X148426784Y-79258456D01*
X148262812Y-79326376D01*
X148113512Y-79356073D01*
X148088742Y-79361000D01*
X147911258Y-79361000D01*
X147886488Y-79356073D01*
X147737188Y-79326376D01*
X147573216Y-79258456D01*
X147425646Y-79159853D01*
X147300147Y-79034354D01*
X147201544Y-78886784D01*
X147133624Y-78722812D01*
X147099000Y-78548741D01*
X147099000Y-78371259D01*
X147099549Y-78368501D01*
X147117246Y-78279529D01*
X147133624Y-78197188D01*
X147201544Y-78033216D01*
X147300147Y-77885646D01*
X147425646Y-77760147D01*
X147573216Y-77661544D01*
X147737188Y-77593624D01*
X147886488Y-77563927D01*
X147911258Y-77559000D01*
X148088742Y-77559000D01*
X148113512Y-77563927D01*
G37*
G36*
X142237142Y-75718242D02*
G01*
X142385101Y-75779529D01*
X142518255Y-75868499D01*
X142631501Y-75981745D01*
X142720471Y-76114899D01*
X142781758Y-76262858D01*
X142813000Y-76419925D01*
X142813000Y-76580075D01*
X142781758Y-76737142D01*
X142720471Y-76885101D01*
X142631501Y-77018255D01*
X142518255Y-77131501D01*
X142385101Y-77220471D01*
X142237142Y-77281758D01*
X142080075Y-77313000D01*
X141919925Y-77313000D01*
X141762858Y-77281758D01*
X141614899Y-77220471D01*
X141481745Y-77131501D01*
X141368499Y-77018255D01*
X141279529Y-76885101D01*
X141218242Y-76737142D01*
X141187000Y-76580075D01*
X141187000Y-76419925D01*
X141218242Y-76262858D01*
X141279529Y-76114899D01*
X141368499Y-75981745D01*
X141481745Y-75868499D01*
X141614899Y-75779529D01*
X141762858Y-75718242D01*
X141919925Y-75687000D01*
X142080075Y-75687000D01*
X142237142Y-75718242D01*
G37*
G36*
X148113512Y-75023927D02*
G01*
X148262812Y-75053624D01*
X148426784Y-75121544D01*
X148574354Y-75220147D01*
X148699853Y-75345646D01*
X148798456Y-75493216D01*
X148866376Y-75657188D01*
X148901000Y-75831259D01*
X148901000Y-76008741D01*
X148866376Y-76182812D01*
X148798456Y-76346784D01*
X148699853Y-76494354D01*
X148574354Y-76619853D01*
X148426784Y-76718456D01*
X148262812Y-76786376D01*
X148113512Y-76816073D01*
X148088742Y-76821000D01*
X147911258Y-76821000D01*
X147886488Y-76816073D01*
X147737188Y-76786376D01*
X147573216Y-76718456D01*
X147425646Y-76619853D01*
X147300147Y-76494354D01*
X147201544Y-76346784D01*
X147133624Y-76182812D01*
X147099000Y-76008741D01*
X147099000Y-75831259D01*
X147133624Y-75657188D01*
X147201544Y-75493216D01*
X147300147Y-75345646D01*
X147425646Y-75220147D01*
X147573216Y-75121544D01*
X147737188Y-75053624D01*
X147886488Y-75023927D01*
X147911258Y-75019000D01*
X148088742Y-75019000D01*
X148113512Y-75023927D01*
G37*
M02*
