G04 #@! TF.GenerationSoftware,KiCad,Pcbnew,(5.1.5)-3*
G04 #@! TF.CreationDate,2021-01-20T16:10:12+10:30*
G04 #@! TF.ProjectId,HallSingle,48616c6c-5369-46e6-976c-652e6b696361,rev?*
G04 #@! TF.SameCoordinates,Original*
G04 #@! TF.FileFunction,Copper,L2,Bot*
G04 #@! TF.FilePolarity,Positive*
%FSLAX46Y46*%
G04 Gerber Fmt 4.6, Leading zero omitted, Abs format (unit mm)*
G04 Created by KiCad (PCBNEW (5.1.5)-3) date 2021-01-20 16:10:12*
%MOMM*%
%LPD*%
G04 APERTURE LIST*
%ADD10C,1.524000*%
%ADD11O,1.700000X1.700000*%
%ADD12R,1.700000X1.700000*%
%ADD13C,0.800000*%
%ADD14C,0.304800*%
%ADD15C,0.254000*%
G04 APERTURE END LIST*
D10*
X142000000Y-79000000D03*
X144500000Y-76500000D03*
X142000000Y-74000000D03*
D11*
X148000000Y-73500000D03*
X148000000Y-76040000D03*
D12*
X148000000Y-78580000D03*
D13*
X141650000Y-64200000D03*
X146350000Y-60500000D03*
X144272000Y-60515500D03*
X139600000Y-62350000D03*
X146400000Y-58600000D03*
X141650000Y-62350000D03*
D14*
X148000000Y-73500000D02*
X148000000Y-73600000D01*
X148000000Y-72297919D02*
X148000000Y-73500000D01*
X147234800Y-58600000D02*
X148000000Y-59365200D01*
X148000000Y-59365200D02*
X148000000Y-72297919D01*
X146400000Y-58600000D02*
X147234800Y-58600000D01*
X141650000Y-61150000D02*
X141650000Y-62700000D01*
X146400000Y-58600000D02*
X144200000Y-58600000D01*
X144200000Y-58600000D02*
X141650000Y-61150000D01*
D15*
G36*
X145909744Y-57682795D02*
G01*
X145740226Y-57796063D01*
X145723689Y-57812600D01*
X144238665Y-57812600D01*
X144200000Y-57808792D01*
X144161335Y-57812600D01*
X144161327Y-57812600D01*
X144046303Y-57823929D01*
X144045643Y-57823994D01*
X143897217Y-57869018D01*
X143760428Y-57942134D01*
X143670570Y-58015878D01*
X143670567Y-58015881D01*
X143640531Y-58040531D01*
X143615881Y-58070567D01*
X141120578Y-60565872D01*
X141090531Y-60590531D01*
X140992134Y-60710429D01*
X140919018Y-60847218D01*
X140873994Y-60995644D01*
X140862600Y-61111328D01*
X140862600Y-61111337D01*
X140858792Y-61150000D01*
X140862600Y-61188663D01*
X140862600Y-61673689D01*
X140846063Y-61690226D01*
X140732795Y-61859744D01*
X140654774Y-62048102D01*
X140615000Y-62248061D01*
X140615000Y-62451939D01*
X140654774Y-62651898D01*
X140732795Y-62840256D01*
X140846063Y-63009774D01*
X140990226Y-63153937D01*
X141020556Y-63174202D01*
X141090532Y-63259469D01*
X141210429Y-63357866D01*
X141347218Y-63430982D01*
X141495644Y-63476006D01*
X141650000Y-63491209D01*
X141804357Y-63476006D01*
X141952783Y-63430982D01*
X142089572Y-63357866D01*
X142209469Y-63259469D01*
X142279447Y-63174201D01*
X142309774Y-63153937D01*
X142453937Y-63009774D01*
X142567205Y-62840256D01*
X142645226Y-62651898D01*
X142685000Y-62451939D01*
X142685000Y-62248061D01*
X142645226Y-62048102D01*
X142567205Y-61859744D01*
X142453937Y-61690226D01*
X142437400Y-61673689D01*
X142437400Y-61476150D01*
X144526152Y-59387400D01*
X145723689Y-59387400D01*
X145740226Y-59403937D01*
X145909744Y-59517205D01*
X146098102Y-59595226D01*
X146298061Y-59635000D01*
X146501939Y-59635000D01*
X146701898Y-59595226D01*
X146890256Y-59517205D01*
X146979094Y-59457845D01*
X147212600Y-59691351D01*
X147212601Y-72240129D01*
X147053368Y-72346525D01*
X146846525Y-72553368D01*
X146684010Y-72796589D01*
X146572068Y-73066842D01*
X146515000Y-73353740D01*
X146515000Y-73646260D01*
X146572068Y-73933158D01*
X146684010Y-74203411D01*
X146846525Y-74446632D01*
X147053368Y-74653475D01*
X147227760Y-74770000D01*
X147053368Y-74886525D01*
X146846525Y-75093368D01*
X146684010Y-75336589D01*
X146572068Y-75606842D01*
X146515000Y-75893740D01*
X146515000Y-76186260D01*
X146572068Y-76473158D01*
X146684010Y-76743411D01*
X146846525Y-76986632D01*
X146978380Y-77118487D01*
X146905820Y-77140498D01*
X146795506Y-77199463D01*
X146698815Y-77278815D01*
X146619463Y-77375506D01*
X146560498Y-77485820D01*
X146524188Y-77605518D01*
X146511928Y-77730000D01*
X146515000Y-78294250D01*
X146673750Y-78453000D01*
X147873000Y-78453000D01*
X147873000Y-78433000D01*
X148127000Y-78433000D01*
X148127000Y-78453000D01*
X148147000Y-78453000D01*
X148147000Y-78707000D01*
X148127000Y-78707000D01*
X148127000Y-78727000D01*
X147873000Y-78727000D01*
X147873000Y-78707000D01*
X146673750Y-78707000D01*
X146515000Y-78865750D01*
X146511928Y-79430000D01*
X146524188Y-79554482D01*
X146560498Y-79674180D01*
X146619463Y-79784494D01*
X146665015Y-79840000D01*
X143019608Y-79840000D01*
X142965567Y-79785959D01*
X143205656Y-79718980D01*
X143322756Y-79469952D01*
X143389023Y-79202865D01*
X143401910Y-78927983D01*
X143360922Y-78655867D01*
X143267636Y-78396977D01*
X143205656Y-78281020D01*
X142965565Y-78214040D01*
X142179605Y-79000000D01*
X142193748Y-79014143D01*
X142014143Y-79193748D01*
X142000000Y-79179605D01*
X141985858Y-79193748D01*
X141806253Y-79014143D01*
X141820395Y-79000000D01*
X141034435Y-78214040D01*
X140794344Y-78281020D01*
X140677244Y-78530048D01*
X140610977Y-78797135D01*
X140598090Y-79072017D01*
X140639078Y-79344133D01*
X140732364Y-79603023D01*
X140794344Y-79718980D01*
X141034433Y-79785959D01*
X140980392Y-79840000D01*
X139032279Y-79840000D01*
X138934576Y-79830420D01*
X138871643Y-79811420D01*
X138813594Y-79780554D01*
X138762657Y-79739011D01*
X138720752Y-79688356D01*
X138689485Y-79630529D01*
X138670044Y-79567728D01*
X138660000Y-79472165D01*
X138660000Y-78034435D01*
X141214040Y-78034435D01*
X142000000Y-78820395D01*
X142785960Y-78034435D01*
X142718980Y-77794344D01*
X142469952Y-77677244D01*
X142202865Y-77610977D01*
X141927983Y-77598090D01*
X141655867Y-77639078D01*
X141396977Y-77732364D01*
X141281020Y-77794344D01*
X141214040Y-78034435D01*
X138660000Y-78034435D01*
X138660000Y-76362408D01*
X143103000Y-76362408D01*
X143103000Y-76637592D01*
X143156686Y-76907490D01*
X143261995Y-77161727D01*
X143414880Y-77390535D01*
X143609465Y-77585120D01*
X143838273Y-77738005D01*
X144092510Y-77843314D01*
X144362408Y-77897000D01*
X144637592Y-77897000D01*
X144907490Y-77843314D01*
X145161727Y-77738005D01*
X145390535Y-77585120D01*
X145585120Y-77390535D01*
X145738005Y-77161727D01*
X145843314Y-76907490D01*
X145897000Y-76637592D01*
X145897000Y-76362408D01*
X145843314Y-76092510D01*
X145738005Y-75838273D01*
X145585120Y-75609465D01*
X145390535Y-75414880D01*
X145161727Y-75261995D01*
X144907490Y-75156686D01*
X144637592Y-75103000D01*
X144362408Y-75103000D01*
X144092510Y-75156686D01*
X143838273Y-75261995D01*
X143609465Y-75414880D01*
X143414880Y-75609465D01*
X143261995Y-75838273D01*
X143156686Y-76092510D01*
X143103000Y-76362408D01*
X138660000Y-76362408D01*
X138660000Y-73862408D01*
X140603000Y-73862408D01*
X140603000Y-74137592D01*
X140656686Y-74407490D01*
X140761995Y-74661727D01*
X140914880Y-74890535D01*
X141109465Y-75085120D01*
X141338273Y-75238005D01*
X141592510Y-75343314D01*
X141862408Y-75397000D01*
X142137592Y-75397000D01*
X142407490Y-75343314D01*
X142661727Y-75238005D01*
X142890535Y-75085120D01*
X143085120Y-74890535D01*
X143238005Y-74661727D01*
X143343314Y-74407490D01*
X143397000Y-74137592D01*
X143397000Y-73862408D01*
X143343314Y-73592510D01*
X143238005Y-73338273D01*
X143085120Y-73109465D01*
X142890535Y-72914880D01*
X142661727Y-72761995D01*
X142407490Y-72656686D01*
X142137592Y-72603000D01*
X141862408Y-72603000D01*
X141592510Y-72656686D01*
X141338273Y-72761995D01*
X141109465Y-72914880D01*
X140914880Y-73109465D01*
X140761995Y-73338273D01*
X140656686Y-73592510D01*
X140603000Y-73862408D01*
X138660000Y-73862408D01*
X138660000Y-68779872D01*
X141765000Y-68779872D01*
X141765000Y-69220128D01*
X141850890Y-69651925D01*
X142019369Y-70058669D01*
X142263962Y-70424729D01*
X142575271Y-70736038D01*
X142941331Y-70980631D01*
X143348075Y-71149110D01*
X143779872Y-71235000D01*
X144220128Y-71235000D01*
X144651925Y-71149110D01*
X145058669Y-70980631D01*
X145424729Y-70736038D01*
X145736038Y-70424729D01*
X145980631Y-70058669D01*
X146149110Y-69651925D01*
X146235000Y-69220128D01*
X146235000Y-68779872D01*
X146149110Y-68348075D01*
X145980631Y-67941331D01*
X145736038Y-67575271D01*
X145424729Y-67263962D01*
X145058669Y-67019369D01*
X144651925Y-66850890D01*
X144220128Y-66765000D01*
X143779872Y-66765000D01*
X143348075Y-66850890D01*
X142941331Y-67019369D01*
X142575271Y-67263962D01*
X142263962Y-67575271D01*
X142019369Y-67941331D01*
X141850890Y-68348075D01*
X141765000Y-68779872D01*
X138660000Y-68779872D01*
X138660000Y-58032279D01*
X138669580Y-57934576D01*
X138688580Y-57871644D01*
X138719445Y-57813595D01*
X138760989Y-57762657D01*
X138811644Y-57720752D01*
X138869471Y-57689485D01*
X138932272Y-57670044D01*
X139027835Y-57660000D01*
X145964776Y-57660000D01*
X145909744Y-57682795D01*
G37*
X145909744Y-57682795D02*
X145740226Y-57796063D01*
X145723689Y-57812600D01*
X144238665Y-57812600D01*
X144200000Y-57808792D01*
X144161335Y-57812600D01*
X144161327Y-57812600D01*
X144046303Y-57823929D01*
X144045643Y-57823994D01*
X143897217Y-57869018D01*
X143760428Y-57942134D01*
X143670570Y-58015878D01*
X143670567Y-58015881D01*
X143640531Y-58040531D01*
X143615881Y-58070567D01*
X141120578Y-60565872D01*
X141090531Y-60590531D01*
X140992134Y-60710429D01*
X140919018Y-60847218D01*
X140873994Y-60995644D01*
X140862600Y-61111328D01*
X140862600Y-61111337D01*
X140858792Y-61150000D01*
X140862600Y-61188663D01*
X140862600Y-61673689D01*
X140846063Y-61690226D01*
X140732795Y-61859744D01*
X140654774Y-62048102D01*
X140615000Y-62248061D01*
X140615000Y-62451939D01*
X140654774Y-62651898D01*
X140732795Y-62840256D01*
X140846063Y-63009774D01*
X140990226Y-63153937D01*
X141020556Y-63174202D01*
X141090532Y-63259469D01*
X141210429Y-63357866D01*
X141347218Y-63430982D01*
X141495644Y-63476006D01*
X141650000Y-63491209D01*
X141804357Y-63476006D01*
X141952783Y-63430982D01*
X142089572Y-63357866D01*
X142209469Y-63259469D01*
X142279447Y-63174201D01*
X142309774Y-63153937D01*
X142453937Y-63009774D01*
X142567205Y-62840256D01*
X142645226Y-62651898D01*
X142685000Y-62451939D01*
X142685000Y-62248061D01*
X142645226Y-62048102D01*
X142567205Y-61859744D01*
X142453937Y-61690226D01*
X142437400Y-61673689D01*
X142437400Y-61476150D01*
X144526152Y-59387400D01*
X145723689Y-59387400D01*
X145740226Y-59403937D01*
X145909744Y-59517205D01*
X146098102Y-59595226D01*
X146298061Y-59635000D01*
X146501939Y-59635000D01*
X146701898Y-59595226D01*
X146890256Y-59517205D01*
X146979094Y-59457845D01*
X147212600Y-59691351D01*
X147212601Y-72240129D01*
X147053368Y-72346525D01*
X146846525Y-72553368D01*
X146684010Y-72796589D01*
X146572068Y-73066842D01*
X146515000Y-73353740D01*
X146515000Y-73646260D01*
X146572068Y-73933158D01*
X146684010Y-74203411D01*
X146846525Y-74446632D01*
X147053368Y-74653475D01*
X147227760Y-74770000D01*
X147053368Y-74886525D01*
X146846525Y-75093368D01*
X146684010Y-75336589D01*
X146572068Y-75606842D01*
X146515000Y-75893740D01*
X146515000Y-76186260D01*
X146572068Y-76473158D01*
X146684010Y-76743411D01*
X146846525Y-76986632D01*
X146978380Y-77118487D01*
X146905820Y-77140498D01*
X146795506Y-77199463D01*
X146698815Y-77278815D01*
X146619463Y-77375506D01*
X146560498Y-77485820D01*
X146524188Y-77605518D01*
X146511928Y-77730000D01*
X146515000Y-78294250D01*
X146673750Y-78453000D01*
X147873000Y-78453000D01*
X147873000Y-78433000D01*
X148127000Y-78433000D01*
X148127000Y-78453000D01*
X148147000Y-78453000D01*
X148147000Y-78707000D01*
X148127000Y-78707000D01*
X148127000Y-78727000D01*
X147873000Y-78727000D01*
X147873000Y-78707000D01*
X146673750Y-78707000D01*
X146515000Y-78865750D01*
X146511928Y-79430000D01*
X146524188Y-79554482D01*
X146560498Y-79674180D01*
X146619463Y-79784494D01*
X146665015Y-79840000D01*
X143019608Y-79840000D01*
X142965567Y-79785959D01*
X143205656Y-79718980D01*
X143322756Y-79469952D01*
X143389023Y-79202865D01*
X143401910Y-78927983D01*
X143360922Y-78655867D01*
X143267636Y-78396977D01*
X143205656Y-78281020D01*
X142965565Y-78214040D01*
X142179605Y-79000000D01*
X142193748Y-79014143D01*
X142014143Y-79193748D01*
X142000000Y-79179605D01*
X141985858Y-79193748D01*
X141806253Y-79014143D01*
X141820395Y-79000000D01*
X141034435Y-78214040D01*
X140794344Y-78281020D01*
X140677244Y-78530048D01*
X140610977Y-78797135D01*
X140598090Y-79072017D01*
X140639078Y-79344133D01*
X140732364Y-79603023D01*
X140794344Y-79718980D01*
X141034433Y-79785959D01*
X140980392Y-79840000D01*
X139032279Y-79840000D01*
X138934576Y-79830420D01*
X138871643Y-79811420D01*
X138813594Y-79780554D01*
X138762657Y-79739011D01*
X138720752Y-79688356D01*
X138689485Y-79630529D01*
X138670044Y-79567728D01*
X138660000Y-79472165D01*
X138660000Y-78034435D01*
X141214040Y-78034435D01*
X142000000Y-78820395D01*
X142785960Y-78034435D01*
X142718980Y-77794344D01*
X142469952Y-77677244D01*
X142202865Y-77610977D01*
X141927983Y-77598090D01*
X141655867Y-77639078D01*
X141396977Y-77732364D01*
X141281020Y-77794344D01*
X141214040Y-78034435D01*
X138660000Y-78034435D01*
X138660000Y-76362408D01*
X143103000Y-76362408D01*
X143103000Y-76637592D01*
X143156686Y-76907490D01*
X143261995Y-77161727D01*
X143414880Y-77390535D01*
X143609465Y-77585120D01*
X143838273Y-77738005D01*
X144092510Y-77843314D01*
X144362408Y-77897000D01*
X144637592Y-77897000D01*
X144907490Y-77843314D01*
X145161727Y-77738005D01*
X145390535Y-77585120D01*
X145585120Y-77390535D01*
X145738005Y-77161727D01*
X145843314Y-76907490D01*
X145897000Y-76637592D01*
X145897000Y-76362408D01*
X145843314Y-76092510D01*
X145738005Y-75838273D01*
X145585120Y-75609465D01*
X145390535Y-75414880D01*
X145161727Y-75261995D01*
X144907490Y-75156686D01*
X144637592Y-75103000D01*
X144362408Y-75103000D01*
X144092510Y-75156686D01*
X143838273Y-75261995D01*
X143609465Y-75414880D01*
X143414880Y-75609465D01*
X143261995Y-75838273D01*
X143156686Y-76092510D01*
X143103000Y-76362408D01*
X138660000Y-76362408D01*
X138660000Y-73862408D01*
X140603000Y-73862408D01*
X140603000Y-74137592D01*
X140656686Y-74407490D01*
X140761995Y-74661727D01*
X140914880Y-74890535D01*
X141109465Y-75085120D01*
X141338273Y-75238005D01*
X141592510Y-75343314D01*
X141862408Y-75397000D01*
X142137592Y-75397000D01*
X142407490Y-75343314D01*
X142661727Y-75238005D01*
X142890535Y-75085120D01*
X143085120Y-74890535D01*
X143238005Y-74661727D01*
X143343314Y-74407490D01*
X143397000Y-74137592D01*
X143397000Y-73862408D01*
X143343314Y-73592510D01*
X143238005Y-73338273D01*
X143085120Y-73109465D01*
X142890535Y-72914880D01*
X142661727Y-72761995D01*
X142407490Y-72656686D01*
X142137592Y-72603000D01*
X141862408Y-72603000D01*
X141592510Y-72656686D01*
X141338273Y-72761995D01*
X141109465Y-72914880D01*
X140914880Y-73109465D01*
X140761995Y-73338273D01*
X140656686Y-73592510D01*
X140603000Y-73862408D01*
X138660000Y-73862408D01*
X138660000Y-68779872D01*
X141765000Y-68779872D01*
X141765000Y-69220128D01*
X141850890Y-69651925D01*
X142019369Y-70058669D01*
X142263962Y-70424729D01*
X142575271Y-70736038D01*
X142941331Y-70980631D01*
X143348075Y-71149110D01*
X143779872Y-71235000D01*
X144220128Y-71235000D01*
X144651925Y-71149110D01*
X145058669Y-70980631D01*
X145424729Y-70736038D01*
X145736038Y-70424729D01*
X145980631Y-70058669D01*
X146149110Y-69651925D01*
X146235000Y-69220128D01*
X146235000Y-68779872D01*
X146149110Y-68348075D01*
X145980631Y-67941331D01*
X145736038Y-67575271D01*
X145424729Y-67263962D01*
X145058669Y-67019369D01*
X144651925Y-66850890D01*
X144220128Y-66765000D01*
X143779872Y-66765000D01*
X143348075Y-66850890D01*
X142941331Y-67019369D01*
X142575271Y-67263962D01*
X142263962Y-67575271D01*
X142019369Y-67941331D01*
X141850890Y-68348075D01*
X141765000Y-68779872D01*
X138660000Y-68779872D01*
X138660000Y-58032279D01*
X138669580Y-57934576D01*
X138688580Y-57871644D01*
X138719445Y-57813595D01*
X138760989Y-57762657D01*
X138811644Y-57720752D01*
X138869471Y-57689485D01*
X138932272Y-57670044D01*
X139027835Y-57660000D01*
X145964776Y-57660000D01*
X145909744Y-57682795D01*
M02*
