G04 #@! TF.GenerationSoftware,KiCad,Pcbnew,(5.1.5)-3*
G04 #@! TF.CreationDate,2021-01-20T16:10:13+10:30*
G04 #@! TF.ProjectId,HallSingle,48616c6c-5369-46e6-976c-652e6b696361,rev?*
G04 #@! TF.SameCoordinates,Original*
G04 #@! TF.FileFunction,Legend,Bot*
G04 #@! TF.FilePolarity,Positive*
%FSLAX46Y46*%
G04 Gerber Fmt 4.6, Leading zero omitted, Abs format (unit mm)*
G04 Created by KiCad (PCBNEW (5.1.5)-3) date 2021-01-20 16:10:13*
%MOMM*%
%LPD*%
G04 APERTURE LIST*
%ADD10C,0.150000*%
%ADD11C,3.302000*%
%ADD12C,1.626000*%
%ADD13O,1.802000X1.802000*%
%ADD14R,1.802000X1.802000*%
G04 APERTURE END LIST*
D10*
X139602380Y-66264285D02*
X138602380Y-66264285D01*
X139602380Y-66835714D01*
X138602380Y-66835714D01*
X139507142Y-67883333D02*
X139554761Y-67835714D01*
X139602380Y-67692857D01*
X139602380Y-67597619D01*
X139554761Y-67454761D01*
X139459523Y-67359523D01*
X139364285Y-67311904D01*
X139173809Y-67264285D01*
X139030952Y-67264285D01*
X138840476Y-67311904D01*
X138745238Y-67359523D01*
X138650000Y-67454761D01*
X138602380Y-67597619D01*
X138602380Y-67692857D01*
X138650000Y-67835714D01*
X138697619Y-67883333D01*
X138602380Y-68930952D02*
X139602380Y-69264285D01*
X138602380Y-69597619D01*
X139602380Y-70454761D02*
X139602380Y-69883333D01*
X139602380Y-70169047D02*
X138602380Y-70169047D01*
X138745238Y-70073809D01*
X138840476Y-69978571D01*
X138888095Y-69883333D01*
X139507142Y-70883333D02*
X139554761Y-70930952D01*
X139602380Y-70883333D01*
X139554761Y-70835714D01*
X139507142Y-70883333D01*
X139602380Y-70883333D01*
X138602380Y-71550000D02*
X138602380Y-71645238D01*
X138650000Y-71740476D01*
X138697619Y-71788095D01*
X138792857Y-71835714D01*
X138983333Y-71883333D01*
X139221428Y-71883333D01*
X139411904Y-71835714D01*
X139507142Y-71788095D01*
X139554761Y-71740476D01*
X139602380Y-71645238D01*
X139602380Y-71550000D01*
X139554761Y-71454761D01*
X139507142Y-71407142D01*
X139411904Y-71359523D01*
X139221428Y-71311904D01*
X138983333Y-71311904D01*
X138792857Y-71359523D01*
X138697619Y-71407142D01*
X138650000Y-71454761D01*
X138602380Y-71550000D01*
X146042095Y-75700000D02*
X146137333Y-75652380D01*
X146280190Y-75652380D01*
X146423047Y-75700000D01*
X146518285Y-75795238D01*
X146565904Y-75890476D01*
X146613523Y-76080952D01*
X146613523Y-76223809D01*
X146565904Y-76414285D01*
X146518285Y-76509523D01*
X146423047Y-76604761D01*
X146280190Y-76652380D01*
X146184952Y-76652380D01*
X146042095Y-76604761D01*
X145994476Y-76557142D01*
X145994476Y-76223809D01*
X146184952Y-76223809D01*
X146780095Y-78557428D02*
X146018190Y-78557428D01*
X146399142Y-78938380D02*
X146399142Y-78176476D01*
X145065809Y-77938380D02*
X145542000Y-77938380D01*
X145589619Y-78414571D01*
X145542000Y-78366952D01*
X145446761Y-78319333D01*
X145208666Y-78319333D01*
X145113428Y-78366952D01*
X145065809Y-78414571D01*
X145018190Y-78509809D01*
X145018190Y-78747904D01*
X145065809Y-78843142D01*
X145113428Y-78890761D01*
X145208666Y-78938380D01*
X145446761Y-78938380D01*
X145542000Y-78890761D01*
X145589619Y-78843142D01*
X144684857Y-78271714D02*
X144446761Y-78938380D01*
X144208666Y-78271714D01*
X146589714Y-73904761D02*
X146446857Y-73952380D01*
X146208761Y-73952380D01*
X146113523Y-73904761D01*
X146065904Y-73857142D01*
X146018285Y-73761904D01*
X146018285Y-73666666D01*
X146065904Y-73571428D01*
X146113523Y-73523809D01*
X146208761Y-73476190D01*
X146399238Y-73428571D01*
X146494476Y-73380952D01*
X146542095Y-73333333D01*
X146589714Y-73238095D01*
X146589714Y-73142857D01*
X146542095Y-73047619D01*
X146494476Y-73000000D01*
X146399238Y-72952380D01*
X146161142Y-72952380D01*
X146018285Y-73000000D01*
%LPC*%
D11*
X144000000Y-69000000D03*
D12*
X142000000Y-79000000D03*
X144500000Y-76500000D03*
X142000000Y-74000000D03*
D13*
X148000000Y-73500000D03*
X148000000Y-76040000D03*
D14*
X148000000Y-78580000D03*
M02*
