G04 #@! TF.GenerationSoftware,KiCad,Pcbnew,(5.1.5)-3*
G04 #@! TF.CreationDate,2021-01-21T12:34:06+10:30*
G04 #@! TF.ProjectId,HallSingle,48616c6c-5369-46e6-976c-652e6b696361,rev?*
G04 #@! TF.SameCoordinates,Original*
G04 #@! TF.FileFunction,Legend,Top*
G04 #@! TF.FilePolarity,Positive*
%FSLAX46Y46*%
G04 Gerber Fmt 4.6, Leading zero omitted, Abs format (unit mm)*
G04 Created by KiCad (PCBNEW (5.1.5)-3) date 2021-01-21 12:34:06*
%MOMM*%
%LPD*%
G04 APERTURE LIST*
%ADD10C,0.120000*%
%ADD11C,0.150000*%
%ADD12C,0.100000*%
%ADD13C,0.125000*%
%ADD14C,3.302000*%
%ADD15R,1.162000X0.752000*%
%ADD16R,1.002000X0.902000*%
%ADD17C,1.626000*%
%ADD18O,1.802000X1.802000*%
%ADD19R,1.802000X1.802000*%
G04 APERTURE END LIST*
D10*
X148453500Y-57953000D02*
X146003500Y-57953000D01*
X146653500Y-61173000D02*
X148453500Y-61173000D01*
X142512000Y-57980500D02*
X143972000Y-57980500D01*
X142512000Y-61140500D02*
X144672000Y-61140500D01*
X142512000Y-61140500D02*
X142512000Y-60210500D01*
X142512000Y-57980500D02*
X142512000Y-58910500D01*
D11*
X145500000Y-80000000D02*
X145500000Y-76500000D01*
X138500000Y-80000000D02*
X145500000Y-80000000D01*
X138500000Y-73000000D02*
X138500000Y-80000000D01*
X145500000Y-73000000D02*
X138500000Y-73000000D01*
X145500000Y-76500000D02*
X145500000Y-73000000D01*
D10*
X140958500Y-62991422D02*
X140958500Y-63508578D01*
X142378500Y-62991422D02*
X142378500Y-63508578D01*
X145879078Y-61840000D02*
X145361922Y-61840000D01*
X145879078Y-63260000D02*
X145361922Y-63260000D01*
X149160000Y-63558578D02*
X149160000Y-63041422D01*
X147740000Y-63558578D02*
X147740000Y-63041422D01*
X149330000Y-79910000D02*
X148000000Y-79910000D01*
X149330000Y-78580000D02*
X149330000Y-79910000D01*
X149330000Y-77310000D02*
X146670000Y-77310000D01*
X146670000Y-77310000D02*
X146670000Y-72170000D01*
X149330000Y-77310000D02*
X149330000Y-72170000D01*
X149330000Y-72170000D02*
X146670000Y-72170000D01*
X140960000Y-61185000D02*
X140960000Y-58500000D01*
X139040000Y-61185000D02*
X140960000Y-61185000D01*
X139040000Y-58500000D02*
X139040000Y-61185000D01*
X138736000Y-62991422D02*
X138736000Y-63508578D01*
X140156000Y-62991422D02*
X140156000Y-63508578D01*
X145879078Y-63840000D02*
X145361922Y-63840000D01*
X145879078Y-65260000D02*
X145361922Y-65260000D01*
D11*
X143238095Y-68702380D02*
X143238095Y-67702380D01*
X143238095Y-68178571D02*
X143809523Y-68178571D01*
X143809523Y-68702380D02*
X143809523Y-67702380D01*
X144809523Y-68702380D02*
X144238095Y-68702380D01*
X144523809Y-68702380D02*
X144523809Y-67702380D01*
X144428571Y-67845238D01*
X144333333Y-67940476D01*
X144238095Y-67988095D01*
D12*
X148125071Y-59162785D02*
X148125071Y-59769928D01*
X148160785Y-59841357D01*
X148196500Y-59877071D01*
X148267928Y-59912785D01*
X148410785Y-59912785D01*
X148482214Y-59877071D01*
X148517928Y-59841357D01*
X148553642Y-59769928D01*
X148553642Y-59162785D01*
X148875071Y-59234214D02*
X148910785Y-59198500D01*
X148982214Y-59162785D01*
X149160785Y-59162785D01*
X149232214Y-59198500D01*
X149267928Y-59234214D01*
X149303642Y-59305642D01*
X149303642Y-59377071D01*
X149267928Y-59484214D01*
X148839357Y-59912785D01*
X149303642Y-59912785D01*
X141517785Y-61529428D02*
X142124928Y-61529428D01*
X142196357Y-61493714D01*
X142232071Y-61458000D01*
X142267785Y-61386571D01*
X142267785Y-61243714D01*
X142232071Y-61172285D01*
X142196357Y-61136571D01*
X142124928Y-61100857D01*
X141517785Y-61100857D01*
X142267785Y-60350857D02*
X142267785Y-60779428D01*
X142267785Y-60565142D02*
X141517785Y-60565142D01*
X141624928Y-60636571D01*
X141696357Y-60708000D01*
X141732071Y-60779428D01*
D11*
X139295261Y-72628380D02*
X138961928Y-72152190D01*
X138723833Y-72628380D02*
X138723833Y-71628380D01*
X139104785Y-71628380D01*
X139200023Y-71676000D01*
X139247642Y-71723619D01*
X139295261Y-71818857D01*
X139295261Y-71961714D01*
X139247642Y-72056952D01*
X139200023Y-72104571D01*
X139104785Y-72152190D01*
X138723833Y-72152190D01*
X139580976Y-71628380D02*
X139914309Y-72628380D01*
X140247642Y-71628380D01*
X141104785Y-72628380D02*
X140533357Y-72628380D01*
X140819071Y-72628380D02*
X140819071Y-71628380D01*
X140723833Y-71771238D01*
X140628595Y-71866476D01*
X140533357Y-71914095D01*
X141455833Y-66116380D02*
X141122500Y-65640190D01*
X140884404Y-66116380D02*
X140884404Y-65116380D01*
X141265357Y-65116380D01*
X141360595Y-65164000D01*
X141408214Y-65211619D01*
X141455833Y-65306857D01*
X141455833Y-65449714D01*
X141408214Y-65544952D01*
X141360595Y-65592571D01*
X141265357Y-65640190D01*
X140884404Y-65640190D01*
X141789166Y-65116380D02*
X142408214Y-65116380D01*
X142074880Y-65497333D01*
X142217738Y-65497333D01*
X142312976Y-65544952D01*
X142360595Y-65592571D01*
X142408214Y-65687809D01*
X142408214Y-65925904D01*
X142360595Y-66021142D01*
X142312976Y-66068761D01*
X142217738Y-66116380D01*
X141932023Y-66116380D01*
X141836785Y-66068761D01*
X141789166Y-66021142D01*
X143771880Y-62716666D02*
X143295690Y-63050000D01*
X143771880Y-63288095D02*
X142771880Y-63288095D01*
X142771880Y-62907142D01*
X142819500Y-62811904D01*
X142867119Y-62764285D01*
X142962357Y-62716666D01*
X143105214Y-62716666D01*
X143200452Y-62764285D01*
X143248071Y-62811904D01*
X143295690Y-62907142D01*
X143295690Y-63288095D01*
X142867119Y-62335714D02*
X142819500Y-62288095D01*
X142771880Y-62192857D01*
X142771880Y-61954761D01*
X142819500Y-61859523D01*
X142867119Y-61811904D01*
X142962357Y-61764285D01*
X143057595Y-61764285D01*
X143200452Y-61811904D01*
X143771880Y-62383333D01*
X143771880Y-61764285D01*
X148346833Y-66180380D02*
X148013500Y-65704190D01*
X147775404Y-66180380D02*
X147775404Y-65180380D01*
X148156357Y-65180380D01*
X148251595Y-65228000D01*
X148299214Y-65275619D01*
X148346833Y-65370857D01*
X148346833Y-65513714D01*
X148299214Y-65608952D01*
X148251595Y-65656571D01*
X148156357Y-65704190D01*
X147775404Y-65704190D01*
X149299214Y-66180380D02*
X148727785Y-66180380D01*
X149013500Y-66180380D02*
X149013500Y-65180380D01*
X148918261Y-65323238D01*
X148823023Y-65418476D01*
X148727785Y-65466095D01*
X147666666Y-70819380D02*
X147666666Y-71533666D01*
X147619047Y-71676523D01*
X147523809Y-71771761D01*
X147380952Y-71819380D01*
X147285714Y-71819380D01*
X148666666Y-71819380D02*
X148095238Y-71819380D01*
X148380952Y-71819380D02*
X148380952Y-70819380D01*
X148285714Y-70962238D01*
X148190476Y-71057476D01*
X148095238Y-71105095D01*
D13*
X138896285Y-60116571D02*
X138146285Y-60116571D01*
X138146285Y-59938000D01*
X138182000Y-59830857D01*
X138253428Y-59759428D01*
X138324857Y-59723714D01*
X138467714Y-59688000D01*
X138574857Y-59688000D01*
X138717714Y-59723714D01*
X138789142Y-59759428D01*
X138860571Y-59830857D01*
X138896285Y-59938000D01*
X138896285Y-60116571D01*
X138896285Y-58973714D02*
X138896285Y-59402285D01*
X138896285Y-59188000D02*
X138146285Y-59188000D01*
X138253428Y-59259428D01*
X138324857Y-59330857D01*
X138360571Y-59402285D01*
D11*
X139215833Y-66035142D02*
X139168214Y-66082761D01*
X139025357Y-66130380D01*
X138930119Y-66130380D01*
X138787261Y-66082761D01*
X138692023Y-65987523D01*
X138644404Y-65892285D01*
X138596785Y-65701809D01*
X138596785Y-65558952D01*
X138644404Y-65368476D01*
X138692023Y-65273238D01*
X138787261Y-65178000D01*
X138930119Y-65130380D01*
X139025357Y-65130380D01*
X139168214Y-65178000D01*
X139215833Y-65225619D01*
X139596785Y-65225619D02*
X139644404Y-65178000D01*
X139739642Y-65130380D01*
X139977738Y-65130380D01*
X140072976Y-65178000D01*
X140120595Y-65225619D01*
X140168214Y-65320857D01*
X140168214Y-65416095D01*
X140120595Y-65558952D01*
X139549166Y-66130380D01*
X140168214Y-66130380D01*
X143676642Y-64716666D02*
X143724261Y-64764285D01*
X143771880Y-64907142D01*
X143771880Y-65002380D01*
X143724261Y-65145238D01*
X143629023Y-65240476D01*
X143533785Y-65288095D01*
X143343309Y-65335714D01*
X143200452Y-65335714D01*
X143009976Y-65288095D01*
X142914738Y-65240476D01*
X142819500Y-65145238D01*
X142771880Y-65002380D01*
X142771880Y-64907142D01*
X142819500Y-64764285D01*
X142867119Y-64716666D01*
X143771880Y-63764285D02*
X143771880Y-64335714D01*
X143771880Y-64050000D02*
X142771880Y-64050000D01*
X142914738Y-64145238D01*
X143009976Y-64240476D01*
X143057595Y-64335714D01*
%LPC*%
D14*
X144000000Y-69000000D03*
D15*
X148653500Y-58613000D03*
X148653500Y-60513000D03*
X146453500Y-60513000D03*
X146453500Y-59563000D03*
X146453500Y-58613000D03*
D16*
X142272000Y-59560500D03*
X144272000Y-58610500D03*
X144272000Y-60510500D03*
D17*
X142000000Y-79000000D03*
X144500000Y-76500000D03*
X142000000Y-74000000D03*
D12*
G36*
X142176641Y-63650297D02*
G01*
X142202778Y-63654174D01*
X142228409Y-63660594D01*
X142253288Y-63669495D01*
X142277174Y-63680793D01*
X142299837Y-63694377D01*
X142321060Y-63710117D01*
X142340639Y-63727861D01*
X142358383Y-63747440D01*
X142374123Y-63768663D01*
X142387707Y-63791326D01*
X142399005Y-63815212D01*
X142407906Y-63840091D01*
X142414326Y-63865722D01*
X142418203Y-63891859D01*
X142419500Y-63918250D01*
X142419500Y-64456750D01*
X142418203Y-64483141D01*
X142414326Y-64509278D01*
X142407906Y-64534909D01*
X142399005Y-64559788D01*
X142387707Y-64583674D01*
X142374123Y-64606337D01*
X142358383Y-64627560D01*
X142340639Y-64647139D01*
X142321060Y-64664883D01*
X142299837Y-64680623D01*
X142277174Y-64694207D01*
X142253288Y-64705505D01*
X142228409Y-64714406D01*
X142202778Y-64720826D01*
X142176641Y-64724703D01*
X142150250Y-64726000D01*
X141186750Y-64726000D01*
X141160359Y-64724703D01*
X141134222Y-64720826D01*
X141108591Y-64714406D01*
X141083712Y-64705505D01*
X141059826Y-64694207D01*
X141037163Y-64680623D01*
X141015940Y-64664883D01*
X140996361Y-64647139D01*
X140978617Y-64627560D01*
X140962877Y-64606337D01*
X140949293Y-64583674D01*
X140937995Y-64559788D01*
X140929094Y-64534909D01*
X140922674Y-64509278D01*
X140918797Y-64483141D01*
X140917500Y-64456750D01*
X140917500Y-63918250D01*
X140918797Y-63891859D01*
X140922674Y-63865722D01*
X140929094Y-63840091D01*
X140937995Y-63815212D01*
X140949293Y-63791326D01*
X140962877Y-63768663D01*
X140978617Y-63747440D01*
X140996361Y-63727861D01*
X141015940Y-63710117D01*
X141037163Y-63694377D01*
X141059826Y-63680793D01*
X141083712Y-63669495D01*
X141108591Y-63660594D01*
X141134222Y-63654174D01*
X141160359Y-63650297D01*
X141186750Y-63649000D01*
X142150250Y-63649000D01*
X142176641Y-63650297D01*
G37*
G36*
X142176641Y-61775297D02*
G01*
X142202778Y-61779174D01*
X142228409Y-61785594D01*
X142253288Y-61794495D01*
X142277174Y-61805793D01*
X142299837Y-61819377D01*
X142321060Y-61835117D01*
X142340639Y-61852861D01*
X142358383Y-61872440D01*
X142374123Y-61893663D01*
X142387707Y-61916326D01*
X142399005Y-61940212D01*
X142407906Y-61965091D01*
X142414326Y-61990722D01*
X142418203Y-62016859D01*
X142419500Y-62043250D01*
X142419500Y-62581750D01*
X142418203Y-62608141D01*
X142414326Y-62634278D01*
X142407906Y-62659909D01*
X142399005Y-62684788D01*
X142387707Y-62708674D01*
X142374123Y-62731337D01*
X142358383Y-62752560D01*
X142340639Y-62772139D01*
X142321060Y-62789883D01*
X142299837Y-62805623D01*
X142277174Y-62819207D01*
X142253288Y-62830505D01*
X142228409Y-62839406D01*
X142202778Y-62845826D01*
X142176641Y-62849703D01*
X142150250Y-62851000D01*
X141186750Y-62851000D01*
X141160359Y-62849703D01*
X141134222Y-62845826D01*
X141108591Y-62839406D01*
X141083712Y-62830505D01*
X141059826Y-62819207D01*
X141037163Y-62805623D01*
X141015940Y-62789883D01*
X140996361Y-62772139D01*
X140978617Y-62752560D01*
X140962877Y-62731337D01*
X140949293Y-62708674D01*
X140937995Y-62684788D01*
X140929094Y-62659909D01*
X140922674Y-62634278D01*
X140918797Y-62608141D01*
X140917500Y-62581750D01*
X140917500Y-62043250D01*
X140918797Y-62016859D01*
X140922674Y-61990722D01*
X140929094Y-61965091D01*
X140937995Y-61940212D01*
X140949293Y-61916326D01*
X140962877Y-61893663D01*
X140978617Y-61872440D01*
X140996361Y-61852861D01*
X141015940Y-61835117D01*
X141037163Y-61819377D01*
X141059826Y-61805793D01*
X141083712Y-61794495D01*
X141108591Y-61785594D01*
X141134222Y-61779174D01*
X141160359Y-61775297D01*
X141186750Y-61774000D01*
X142150250Y-61774000D01*
X142176641Y-61775297D01*
G37*
G36*
X144978641Y-61800297D02*
G01*
X145004778Y-61804174D01*
X145030409Y-61810594D01*
X145055288Y-61819495D01*
X145079174Y-61830793D01*
X145101837Y-61844377D01*
X145123060Y-61860117D01*
X145142639Y-61877861D01*
X145160383Y-61897440D01*
X145176123Y-61918663D01*
X145189707Y-61941326D01*
X145201005Y-61965212D01*
X145209906Y-61990091D01*
X145216326Y-62015722D01*
X145220203Y-62041859D01*
X145221500Y-62068250D01*
X145221500Y-63031750D01*
X145220203Y-63058141D01*
X145216326Y-63084278D01*
X145209906Y-63109909D01*
X145201005Y-63134788D01*
X145189707Y-63158674D01*
X145176123Y-63181337D01*
X145160383Y-63202560D01*
X145142639Y-63222139D01*
X145123060Y-63239883D01*
X145101837Y-63255623D01*
X145079174Y-63269207D01*
X145055288Y-63280505D01*
X145030409Y-63289406D01*
X145004778Y-63295826D01*
X144978641Y-63299703D01*
X144952250Y-63301000D01*
X144413750Y-63301000D01*
X144387359Y-63299703D01*
X144361222Y-63295826D01*
X144335591Y-63289406D01*
X144310712Y-63280505D01*
X144286826Y-63269207D01*
X144264163Y-63255623D01*
X144242940Y-63239883D01*
X144223361Y-63222139D01*
X144205617Y-63202560D01*
X144189877Y-63181337D01*
X144176293Y-63158674D01*
X144164995Y-63134788D01*
X144156094Y-63109909D01*
X144149674Y-63084278D01*
X144145797Y-63058141D01*
X144144500Y-63031750D01*
X144144500Y-62068250D01*
X144145797Y-62041859D01*
X144149674Y-62015722D01*
X144156094Y-61990091D01*
X144164995Y-61965212D01*
X144176293Y-61941326D01*
X144189877Y-61918663D01*
X144205617Y-61897440D01*
X144223361Y-61877861D01*
X144242940Y-61860117D01*
X144264163Y-61844377D01*
X144286826Y-61830793D01*
X144310712Y-61819495D01*
X144335591Y-61810594D01*
X144361222Y-61804174D01*
X144387359Y-61800297D01*
X144413750Y-61799000D01*
X144952250Y-61799000D01*
X144978641Y-61800297D01*
G37*
G36*
X146853641Y-61800297D02*
G01*
X146879778Y-61804174D01*
X146905409Y-61810594D01*
X146930288Y-61819495D01*
X146954174Y-61830793D01*
X146976837Y-61844377D01*
X146998060Y-61860117D01*
X147017639Y-61877861D01*
X147035383Y-61897440D01*
X147051123Y-61918663D01*
X147064707Y-61941326D01*
X147076005Y-61965212D01*
X147084906Y-61990091D01*
X147091326Y-62015722D01*
X147095203Y-62041859D01*
X147096500Y-62068250D01*
X147096500Y-63031750D01*
X147095203Y-63058141D01*
X147091326Y-63084278D01*
X147084906Y-63109909D01*
X147076005Y-63134788D01*
X147064707Y-63158674D01*
X147051123Y-63181337D01*
X147035383Y-63202560D01*
X147017639Y-63222139D01*
X146998060Y-63239883D01*
X146976837Y-63255623D01*
X146954174Y-63269207D01*
X146930288Y-63280505D01*
X146905409Y-63289406D01*
X146879778Y-63295826D01*
X146853641Y-63299703D01*
X146827250Y-63301000D01*
X146288750Y-63301000D01*
X146262359Y-63299703D01*
X146236222Y-63295826D01*
X146210591Y-63289406D01*
X146185712Y-63280505D01*
X146161826Y-63269207D01*
X146139163Y-63255623D01*
X146117940Y-63239883D01*
X146098361Y-63222139D01*
X146080617Y-63202560D01*
X146064877Y-63181337D01*
X146051293Y-63158674D01*
X146039995Y-63134788D01*
X146031094Y-63109909D01*
X146024674Y-63084278D01*
X146020797Y-63058141D01*
X146019500Y-63031750D01*
X146019500Y-62068250D01*
X146020797Y-62041859D01*
X146024674Y-62015722D01*
X146031094Y-61990091D01*
X146039995Y-61965212D01*
X146051293Y-61941326D01*
X146064877Y-61918663D01*
X146080617Y-61897440D01*
X146098361Y-61877861D01*
X146117940Y-61860117D01*
X146139163Y-61844377D01*
X146161826Y-61830793D01*
X146185712Y-61819495D01*
X146210591Y-61810594D01*
X146236222Y-61804174D01*
X146262359Y-61800297D01*
X146288750Y-61799000D01*
X146827250Y-61799000D01*
X146853641Y-61800297D01*
G37*
G36*
X148958141Y-61825297D02*
G01*
X148984278Y-61829174D01*
X149009909Y-61835594D01*
X149034788Y-61844495D01*
X149058674Y-61855793D01*
X149081337Y-61869377D01*
X149102560Y-61885117D01*
X149122139Y-61902861D01*
X149139883Y-61922440D01*
X149155623Y-61943663D01*
X149169207Y-61966326D01*
X149180505Y-61990212D01*
X149189406Y-62015091D01*
X149195826Y-62040722D01*
X149199703Y-62066859D01*
X149201000Y-62093250D01*
X149201000Y-62631750D01*
X149199703Y-62658141D01*
X149195826Y-62684278D01*
X149189406Y-62709909D01*
X149180505Y-62734788D01*
X149169207Y-62758674D01*
X149155623Y-62781337D01*
X149139883Y-62802560D01*
X149122139Y-62822139D01*
X149102560Y-62839883D01*
X149081337Y-62855623D01*
X149058674Y-62869207D01*
X149034788Y-62880505D01*
X149009909Y-62889406D01*
X148984278Y-62895826D01*
X148958141Y-62899703D01*
X148931750Y-62901000D01*
X147968250Y-62901000D01*
X147941859Y-62899703D01*
X147915722Y-62895826D01*
X147890091Y-62889406D01*
X147865212Y-62880505D01*
X147841326Y-62869207D01*
X147818663Y-62855623D01*
X147797440Y-62839883D01*
X147777861Y-62822139D01*
X147760117Y-62802560D01*
X147744377Y-62781337D01*
X147730793Y-62758674D01*
X147719495Y-62734788D01*
X147710594Y-62709909D01*
X147704174Y-62684278D01*
X147700297Y-62658141D01*
X147699000Y-62631750D01*
X147699000Y-62093250D01*
X147700297Y-62066859D01*
X147704174Y-62040722D01*
X147710594Y-62015091D01*
X147719495Y-61990212D01*
X147730793Y-61966326D01*
X147744377Y-61943663D01*
X147760117Y-61922440D01*
X147777861Y-61902861D01*
X147797440Y-61885117D01*
X147818663Y-61869377D01*
X147841326Y-61855793D01*
X147865212Y-61844495D01*
X147890091Y-61835594D01*
X147915722Y-61829174D01*
X147941859Y-61825297D01*
X147968250Y-61824000D01*
X148931750Y-61824000D01*
X148958141Y-61825297D01*
G37*
G36*
X148958141Y-63700297D02*
G01*
X148984278Y-63704174D01*
X149009909Y-63710594D01*
X149034788Y-63719495D01*
X149058674Y-63730793D01*
X149081337Y-63744377D01*
X149102560Y-63760117D01*
X149122139Y-63777861D01*
X149139883Y-63797440D01*
X149155623Y-63818663D01*
X149169207Y-63841326D01*
X149180505Y-63865212D01*
X149189406Y-63890091D01*
X149195826Y-63915722D01*
X149199703Y-63941859D01*
X149201000Y-63968250D01*
X149201000Y-64506750D01*
X149199703Y-64533141D01*
X149195826Y-64559278D01*
X149189406Y-64584909D01*
X149180505Y-64609788D01*
X149169207Y-64633674D01*
X149155623Y-64656337D01*
X149139883Y-64677560D01*
X149122139Y-64697139D01*
X149102560Y-64714883D01*
X149081337Y-64730623D01*
X149058674Y-64744207D01*
X149034788Y-64755505D01*
X149009909Y-64764406D01*
X148984278Y-64770826D01*
X148958141Y-64774703D01*
X148931750Y-64776000D01*
X147968250Y-64776000D01*
X147941859Y-64774703D01*
X147915722Y-64770826D01*
X147890091Y-64764406D01*
X147865212Y-64755505D01*
X147841326Y-64744207D01*
X147818663Y-64730623D01*
X147797440Y-64714883D01*
X147777861Y-64697139D01*
X147760117Y-64677560D01*
X147744377Y-64656337D01*
X147730793Y-64633674D01*
X147719495Y-64609788D01*
X147710594Y-64584909D01*
X147704174Y-64559278D01*
X147700297Y-64533141D01*
X147699000Y-64506750D01*
X147699000Y-63968250D01*
X147700297Y-63941859D01*
X147704174Y-63915722D01*
X147710594Y-63890091D01*
X147719495Y-63865212D01*
X147730793Y-63841326D01*
X147744377Y-63818663D01*
X147760117Y-63797440D01*
X147777861Y-63777861D01*
X147797440Y-63760117D01*
X147818663Y-63744377D01*
X147841326Y-63730793D01*
X147865212Y-63719495D01*
X147890091Y-63710594D01*
X147915722Y-63704174D01*
X147941859Y-63700297D01*
X147968250Y-63699000D01*
X148931750Y-63699000D01*
X148958141Y-63700297D01*
G37*
D18*
X148000000Y-73500000D03*
X148000000Y-76040000D03*
D19*
X148000000Y-78580000D03*
D12*
G36*
X140508141Y-58025297D02*
G01*
X140534278Y-58029174D01*
X140559909Y-58035594D01*
X140584788Y-58044495D01*
X140608674Y-58055793D01*
X140631337Y-58069377D01*
X140652560Y-58085117D01*
X140672139Y-58102861D01*
X140689883Y-58122440D01*
X140705623Y-58143663D01*
X140719207Y-58166326D01*
X140730505Y-58190212D01*
X140739406Y-58215091D01*
X140745826Y-58240722D01*
X140749703Y-58266859D01*
X140751000Y-58293250D01*
X140751000Y-58831750D01*
X140749703Y-58858141D01*
X140745826Y-58884278D01*
X140739406Y-58909909D01*
X140730505Y-58934788D01*
X140719207Y-58958674D01*
X140705623Y-58981337D01*
X140689883Y-59002560D01*
X140672139Y-59022139D01*
X140652560Y-59039883D01*
X140631337Y-59055623D01*
X140608674Y-59069207D01*
X140584788Y-59080505D01*
X140559909Y-59089406D01*
X140534278Y-59095826D01*
X140508141Y-59099703D01*
X140481750Y-59101000D01*
X139518250Y-59101000D01*
X139491859Y-59099703D01*
X139465722Y-59095826D01*
X139440091Y-59089406D01*
X139415212Y-59080505D01*
X139391326Y-59069207D01*
X139368663Y-59055623D01*
X139347440Y-59039883D01*
X139327861Y-59022139D01*
X139310117Y-59002560D01*
X139294377Y-58981337D01*
X139280793Y-58958674D01*
X139269495Y-58934788D01*
X139260594Y-58909909D01*
X139254174Y-58884278D01*
X139250297Y-58858141D01*
X139249000Y-58831750D01*
X139249000Y-58293250D01*
X139250297Y-58266859D01*
X139254174Y-58240722D01*
X139260594Y-58215091D01*
X139269495Y-58190212D01*
X139280793Y-58166326D01*
X139294377Y-58143663D01*
X139310117Y-58122440D01*
X139327861Y-58102861D01*
X139347440Y-58085117D01*
X139368663Y-58069377D01*
X139391326Y-58055793D01*
X139415212Y-58044495D01*
X139440091Y-58035594D01*
X139465722Y-58029174D01*
X139491859Y-58025297D01*
X139518250Y-58024000D01*
X140481750Y-58024000D01*
X140508141Y-58025297D01*
G37*
G36*
X140508141Y-59900297D02*
G01*
X140534278Y-59904174D01*
X140559909Y-59910594D01*
X140584788Y-59919495D01*
X140608674Y-59930793D01*
X140631337Y-59944377D01*
X140652560Y-59960117D01*
X140672139Y-59977861D01*
X140689883Y-59997440D01*
X140705623Y-60018663D01*
X140719207Y-60041326D01*
X140730505Y-60065212D01*
X140739406Y-60090091D01*
X140745826Y-60115722D01*
X140749703Y-60141859D01*
X140751000Y-60168250D01*
X140751000Y-60706750D01*
X140749703Y-60733141D01*
X140745826Y-60759278D01*
X140739406Y-60784909D01*
X140730505Y-60809788D01*
X140719207Y-60833674D01*
X140705623Y-60856337D01*
X140689883Y-60877560D01*
X140672139Y-60897139D01*
X140652560Y-60914883D01*
X140631337Y-60930623D01*
X140608674Y-60944207D01*
X140584788Y-60955505D01*
X140559909Y-60964406D01*
X140534278Y-60970826D01*
X140508141Y-60974703D01*
X140481750Y-60976000D01*
X139518250Y-60976000D01*
X139491859Y-60974703D01*
X139465722Y-60970826D01*
X139440091Y-60964406D01*
X139415212Y-60955505D01*
X139391326Y-60944207D01*
X139368663Y-60930623D01*
X139347440Y-60914883D01*
X139327861Y-60897139D01*
X139310117Y-60877560D01*
X139294377Y-60856337D01*
X139280793Y-60833674D01*
X139269495Y-60809788D01*
X139260594Y-60784909D01*
X139254174Y-60759278D01*
X139250297Y-60733141D01*
X139249000Y-60706750D01*
X139249000Y-60168250D01*
X139250297Y-60141859D01*
X139254174Y-60115722D01*
X139260594Y-60090091D01*
X139269495Y-60065212D01*
X139280793Y-60041326D01*
X139294377Y-60018663D01*
X139310117Y-59997440D01*
X139327861Y-59977861D01*
X139347440Y-59960117D01*
X139368663Y-59944377D01*
X139391326Y-59930793D01*
X139415212Y-59919495D01*
X139440091Y-59910594D01*
X139465722Y-59904174D01*
X139491859Y-59900297D01*
X139518250Y-59899000D01*
X140481750Y-59899000D01*
X140508141Y-59900297D01*
G37*
G36*
X139954141Y-63650297D02*
G01*
X139980278Y-63654174D01*
X140005909Y-63660594D01*
X140030788Y-63669495D01*
X140054674Y-63680793D01*
X140077337Y-63694377D01*
X140098560Y-63710117D01*
X140118139Y-63727861D01*
X140135883Y-63747440D01*
X140151623Y-63768663D01*
X140165207Y-63791326D01*
X140176505Y-63815212D01*
X140185406Y-63840091D01*
X140191826Y-63865722D01*
X140195703Y-63891859D01*
X140197000Y-63918250D01*
X140197000Y-64456750D01*
X140195703Y-64483141D01*
X140191826Y-64509278D01*
X140185406Y-64534909D01*
X140176505Y-64559788D01*
X140165207Y-64583674D01*
X140151623Y-64606337D01*
X140135883Y-64627560D01*
X140118139Y-64647139D01*
X140098560Y-64664883D01*
X140077337Y-64680623D01*
X140054674Y-64694207D01*
X140030788Y-64705505D01*
X140005909Y-64714406D01*
X139980278Y-64720826D01*
X139954141Y-64724703D01*
X139927750Y-64726000D01*
X138964250Y-64726000D01*
X138937859Y-64724703D01*
X138911722Y-64720826D01*
X138886091Y-64714406D01*
X138861212Y-64705505D01*
X138837326Y-64694207D01*
X138814663Y-64680623D01*
X138793440Y-64664883D01*
X138773861Y-64647139D01*
X138756117Y-64627560D01*
X138740377Y-64606337D01*
X138726793Y-64583674D01*
X138715495Y-64559788D01*
X138706594Y-64534909D01*
X138700174Y-64509278D01*
X138696297Y-64483141D01*
X138695000Y-64456750D01*
X138695000Y-63918250D01*
X138696297Y-63891859D01*
X138700174Y-63865722D01*
X138706594Y-63840091D01*
X138715495Y-63815212D01*
X138726793Y-63791326D01*
X138740377Y-63768663D01*
X138756117Y-63747440D01*
X138773861Y-63727861D01*
X138793440Y-63710117D01*
X138814663Y-63694377D01*
X138837326Y-63680793D01*
X138861212Y-63669495D01*
X138886091Y-63660594D01*
X138911722Y-63654174D01*
X138937859Y-63650297D01*
X138964250Y-63649000D01*
X139927750Y-63649000D01*
X139954141Y-63650297D01*
G37*
G36*
X139954141Y-61775297D02*
G01*
X139980278Y-61779174D01*
X140005909Y-61785594D01*
X140030788Y-61794495D01*
X140054674Y-61805793D01*
X140077337Y-61819377D01*
X140098560Y-61835117D01*
X140118139Y-61852861D01*
X140135883Y-61872440D01*
X140151623Y-61893663D01*
X140165207Y-61916326D01*
X140176505Y-61940212D01*
X140185406Y-61965091D01*
X140191826Y-61990722D01*
X140195703Y-62016859D01*
X140197000Y-62043250D01*
X140197000Y-62581750D01*
X140195703Y-62608141D01*
X140191826Y-62634278D01*
X140185406Y-62659909D01*
X140176505Y-62684788D01*
X140165207Y-62708674D01*
X140151623Y-62731337D01*
X140135883Y-62752560D01*
X140118139Y-62772139D01*
X140098560Y-62789883D01*
X140077337Y-62805623D01*
X140054674Y-62819207D01*
X140030788Y-62830505D01*
X140005909Y-62839406D01*
X139980278Y-62845826D01*
X139954141Y-62849703D01*
X139927750Y-62851000D01*
X138964250Y-62851000D01*
X138937859Y-62849703D01*
X138911722Y-62845826D01*
X138886091Y-62839406D01*
X138861212Y-62830505D01*
X138837326Y-62819207D01*
X138814663Y-62805623D01*
X138793440Y-62789883D01*
X138773861Y-62772139D01*
X138756117Y-62752560D01*
X138740377Y-62731337D01*
X138726793Y-62708674D01*
X138715495Y-62684788D01*
X138706594Y-62659909D01*
X138700174Y-62634278D01*
X138696297Y-62608141D01*
X138695000Y-62581750D01*
X138695000Y-62043250D01*
X138696297Y-62016859D01*
X138700174Y-61990722D01*
X138706594Y-61965091D01*
X138715495Y-61940212D01*
X138726793Y-61916326D01*
X138740377Y-61893663D01*
X138756117Y-61872440D01*
X138773861Y-61852861D01*
X138793440Y-61835117D01*
X138814663Y-61819377D01*
X138837326Y-61805793D01*
X138861212Y-61794495D01*
X138886091Y-61785594D01*
X138911722Y-61779174D01*
X138937859Y-61775297D01*
X138964250Y-61774000D01*
X139927750Y-61774000D01*
X139954141Y-61775297D01*
G37*
G36*
X144978641Y-63800297D02*
G01*
X145004778Y-63804174D01*
X145030409Y-63810594D01*
X145055288Y-63819495D01*
X145079174Y-63830793D01*
X145101837Y-63844377D01*
X145123060Y-63860117D01*
X145142639Y-63877861D01*
X145160383Y-63897440D01*
X145176123Y-63918663D01*
X145189707Y-63941326D01*
X145201005Y-63965212D01*
X145209906Y-63990091D01*
X145216326Y-64015722D01*
X145220203Y-64041859D01*
X145221500Y-64068250D01*
X145221500Y-65031750D01*
X145220203Y-65058141D01*
X145216326Y-65084278D01*
X145209906Y-65109909D01*
X145201005Y-65134788D01*
X145189707Y-65158674D01*
X145176123Y-65181337D01*
X145160383Y-65202560D01*
X145142639Y-65222139D01*
X145123060Y-65239883D01*
X145101837Y-65255623D01*
X145079174Y-65269207D01*
X145055288Y-65280505D01*
X145030409Y-65289406D01*
X145004778Y-65295826D01*
X144978641Y-65299703D01*
X144952250Y-65301000D01*
X144413750Y-65301000D01*
X144387359Y-65299703D01*
X144361222Y-65295826D01*
X144335591Y-65289406D01*
X144310712Y-65280505D01*
X144286826Y-65269207D01*
X144264163Y-65255623D01*
X144242940Y-65239883D01*
X144223361Y-65222139D01*
X144205617Y-65202560D01*
X144189877Y-65181337D01*
X144176293Y-65158674D01*
X144164995Y-65134788D01*
X144156094Y-65109909D01*
X144149674Y-65084278D01*
X144145797Y-65058141D01*
X144144500Y-65031750D01*
X144144500Y-64068250D01*
X144145797Y-64041859D01*
X144149674Y-64015722D01*
X144156094Y-63990091D01*
X144164995Y-63965212D01*
X144176293Y-63941326D01*
X144189877Y-63918663D01*
X144205617Y-63897440D01*
X144223361Y-63877861D01*
X144242940Y-63860117D01*
X144264163Y-63844377D01*
X144286826Y-63830793D01*
X144310712Y-63819495D01*
X144335591Y-63810594D01*
X144361222Y-63804174D01*
X144387359Y-63800297D01*
X144413750Y-63799000D01*
X144952250Y-63799000D01*
X144978641Y-63800297D01*
G37*
G36*
X146853641Y-63800297D02*
G01*
X146879778Y-63804174D01*
X146905409Y-63810594D01*
X146930288Y-63819495D01*
X146954174Y-63830793D01*
X146976837Y-63844377D01*
X146998060Y-63860117D01*
X147017639Y-63877861D01*
X147035383Y-63897440D01*
X147051123Y-63918663D01*
X147064707Y-63941326D01*
X147076005Y-63965212D01*
X147084906Y-63990091D01*
X147091326Y-64015722D01*
X147095203Y-64041859D01*
X147096500Y-64068250D01*
X147096500Y-65031750D01*
X147095203Y-65058141D01*
X147091326Y-65084278D01*
X147084906Y-65109909D01*
X147076005Y-65134788D01*
X147064707Y-65158674D01*
X147051123Y-65181337D01*
X147035383Y-65202560D01*
X147017639Y-65222139D01*
X146998060Y-65239883D01*
X146976837Y-65255623D01*
X146954174Y-65269207D01*
X146930288Y-65280505D01*
X146905409Y-65289406D01*
X146879778Y-65295826D01*
X146853641Y-65299703D01*
X146827250Y-65301000D01*
X146288750Y-65301000D01*
X146262359Y-65299703D01*
X146236222Y-65295826D01*
X146210591Y-65289406D01*
X146185712Y-65280505D01*
X146161826Y-65269207D01*
X146139163Y-65255623D01*
X146117940Y-65239883D01*
X146098361Y-65222139D01*
X146080617Y-65202560D01*
X146064877Y-65181337D01*
X146051293Y-65158674D01*
X146039995Y-65134788D01*
X146031094Y-65109909D01*
X146024674Y-65084278D01*
X146020797Y-65058141D01*
X146019500Y-65031750D01*
X146019500Y-64068250D01*
X146020797Y-64041859D01*
X146024674Y-64015722D01*
X146031094Y-63990091D01*
X146039995Y-63965212D01*
X146051293Y-63941326D01*
X146064877Y-63918663D01*
X146080617Y-63897440D01*
X146098361Y-63877861D01*
X146117940Y-63860117D01*
X146139163Y-63844377D01*
X146161826Y-63830793D01*
X146185712Y-63819495D01*
X146210591Y-63810594D01*
X146236222Y-63804174D01*
X146262359Y-63800297D01*
X146288750Y-63799000D01*
X146827250Y-63799000D01*
X146853641Y-63800297D01*
G37*
M02*
