G04 #@! TF.GenerationSoftware,KiCad,Pcbnew,(5.1.5)-3*
G04 #@! TF.CreationDate,2021-01-01T22:04:59+10:30*
G04 #@! TF.ProjectId,HallSingle,48616c6c-5369-46e6-976c-652e6b696361,rev?*
G04 #@! TF.SameCoordinates,Original*
G04 #@! TF.FileFunction,Legend,Bot*
G04 #@! TF.FilePolarity,Positive*
%FSLAX46Y46*%
G04 Gerber Fmt 4.6, Leading zero omitted, Abs format (unit mm)*
G04 Created by KiCad (PCBNEW (5.1.5)-3) date 2021-01-01 22:04:59*
%MOMM*%
%LPD*%
G04 APERTURE LIST*
%ADD10C,0.150000*%
%ADD11C,0.010000*%
%ADD12C,3.302000*%
%ADD13C,1.626000*%
%ADD14O,1.802000X1.802000*%
%ADD15R,1.802000X1.802000*%
G04 APERTURE END LIST*
D10*
X146042095Y-75700000D02*
X146137333Y-75652380D01*
X146280190Y-75652380D01*
X146423047Y-75700000D01*
X146518285Y-75795238D01*
X146565904Y-75890476D01*
X146613523Y-76080952D01*
X146613523Y-76223809D01*
X146565904Y-76414285D01*
X146518285Y-76509523D01*
X146423047Y-76604761D01*
X146280190Y-76652380D01*
X146184952Y-76652380D01*
X146042095Y-76604761D01*
X145994476Y-76557142D01*
X145994476Y-76223809D01*
X146184952Y-76223809D01*
X146780095Y-78557428D02*
X146018190Y-78557428D01*
X146399142Y-78938380D02*
X146399142Y-78176476D01*
X145065809Y-77938380D02*
X145542000Y-77938380D01*
X145589619Y-78414571D01*
X145542000Y-78366952D01*
X145446761Y-78319333D01*
X145208666Y-78319333D01*
X145113428Y-78366952D01*
X145065809Y-78414571D01*
X145018190Y-78509809D01*
X145018190Y-78747904D01*
X145065809Y-78843142D01*
X145113428Y-78890761D01*
X145208666Y-78938380D01*
X145446761Y-78938380D01*
X145542000Y-78890761D01*
X145589619Y-78843142D01*
X144684857Y-78271714D02*
X144446761Y-78938380D01*
X144208666Y-78271714D01*
X146589714Y-73904761D02*
X146446857Y-73952380D01*
X146208761Y-73952380D01*
X146113523Y-73904761D01*
X146065904Y-73857142D01*
X146018285Y-73761904D01*
X146018285Y-73666666D01*
X146065904Y-73571428D01*
X146113523Y-73523809D01*
X146208761Y-73476190D01*
X146399238Y-73428571D01*
X146494476Y-73380952D01*
X146542095Y-73333333D01*
X146589714Y-73238095D01*
X146589714Y-73142857D01*
X146542095Y-73047619D01*
X146494476Y-73000000D01*
X146399238Y-72952380D01*
X146161142Y-72952380D01*
X146018285Y-73000000D01*
D11*
G36*
X142350150Y-63768600D02*
G01*
X145649849Y-63768600D01*
X146450524Y-62379308D01*
X146646185Y-62039339D01*
X146824267Y-61729012D01*
X146978754Y-61458882D01*
X147103630Y-61239505D01*
X147192877Y-61081439D01*
X147240478Y-60995239D01*
X147246770Y-60982308D01*
X147221166Y-60938181D01*
X147150713Y-60816791D01*
X147041566Y-60628745D01*
X146899881Y-60384649D01*
X146731815Y-60095109D01*
X146543525Y-59770731D01*
X146446162Y-59603000D01*
X145734876Y-58377648D01*
X145734876Y-59433666D01*
X145754402Y-59472441D01*
X145769187Y-59590479D01*
X145776891Y-59765467D01*
X145777479Y-59840066D01*
X145776959Y-60263400D01*
X145755076Y-60277821D01*
X145755076Y-61000000D01*
X145765563Y-61046850D01*
X145773500Y-61171616D01*
X145777596Y-61350623D01*
X145777886Y-61419100D01*
X145777772Y-61838200D01*
X145034043Y-62320800D01*
X144779678Y-62485838D01*
X144545166Y-62637963D01*
X144347951Y-62765863D01*
X144205476Y-62858223D01*
X144145156Y-62897288D01*
X144000000Y-62991177D01*
X144000000Y-62129093D01*
X144866076Y-61564546D01*
X145128735Y-61394034D01*
X145361619Y-61244186D01*
X145551683Y-61123286D01*
X145685882Y-61039618D01*
X145751172Y-61001465D01*
X145755076Y-61000000D01*
X145755076Y-60277821D01*
X144042603Y-61406400D01*
X143666432Y-61654036D01*
X143316255Y-61884037D01*
X143001238Y-62090420D01*
X142730551Y-62267202D01*
X142513361Y-62408399D01*
X142358837Y-62508029D01*
X142276148Y-62560108D01*
X142265123Y-62566333D01*
X142245597Y-62527558D01*
X142230812Y-62409520D01*
X142223108Y-62234532D01*
X142222520Y-62159933D01*
X142223040Y-61736600D01*
X143957396Y-60593600D01*
X144333567Y-60345963D01*
X144683744Y-60115962D01*
X144998761Y-59909579D01*
X145269448Y-59732797D01*
X145486638Y-59591600D01*
X145641162Y-59491970D01*
X145723851Y-59439891D01*
X145734876Y-59433666D01*
X145734876Y-58377648D01*
X145649983Y-58231400D01*
X144000000Y-58231400D01*
X144000000Y-59008822D01*
X144000000Y-59870906D01*
X143133923Y-60435453D01*
X142871264Y-60605965D01*
X142638380Y-60755813D01*
X142448316Y-60876713D01*
X142314117Y-60960381D01*
X142248827Y-60998534D01*
X142244923Y-61000000D01*
X142234436Y-60953149D01*
X142226499Y-60828383D01*
X142222403Y-60649376D01*
X142222113Y-60580900D01*
X142222227Y-60161800D01*
X142965956Y-59679200D01*
X143220321Y-59514161D01*
X143454833Y-59362036D01*
X143652048Y-59234136D01*
X143794523Y-59141776D01*
X143854843Y-59102711D01*
X144000000Y-59008822D01*
X144000000Y-58231400D01*
X142350150Y-58231400D01*
X140754552Y-61000000D01*
X142350150Y-63768600D01*
G37*
X142350150Y-63768600D02*
X145649849Y-63768600D01*
X146450524Y-62379308D01*
X146646185Y-62039339D01*
X146824267Y-61729012D01*
X146978754Y-61458882D01*
X147103630Y-61239505D01*
X147192877Y-61081439D01*
X147240478Y-60995239D01*
X147246770Y-60982308D01*
X147221166Y-60938181D01*
X147150713Y-60816791D01*
X147041566Y-60628745D01*
X146899881Y-60384649D01*
X146731815Y-60095109D01*
X146543525Y-59770731D01*
X146446162Y-59603000D01*
X145734876Y-58377648D01*
X145734876Y-59433666D01*
X145754402Y-59472441D01*
X145769187Y-59590479D01*
X145776891Y-59765467D01*
X145777479Y-59840066D01*
X145776959Y-60263400D01*
X145755076Y-60277821D01*
X145755076Y-61000000D01*
X145765563Y-61046850D01*
X145773500Y-61171616D01*
X145777596Y-61350623D01*
X145777886Y-61419100D01*
X145777772Y-61838200D01*
X145034043Y-62320800D01*
X144779678Y-62485838D01*
X144545166Y-62637963D01*
X144347951Y-62765863D01*
X144205476Y-62858223D01*
X144145156Y-62897288D01*
X144000000Y-62991177D01*
X144000000Y-62129093D01*
X144866076Y-61564546D01*
X145128735Y-61394034D01*
X145361619Y-61244186D01*
X145551683Y-61123286D01*
X145685882Y-61039618D01*
X145751172Y-61001465D01*
X145755076Y-61000000D01*
X145755076Y-60277821D01*
X144042603Y-61406400D01*
X143666432Y-61654036D01*
X143316255Y-61884037D01*
X143001238Y-62090420D01*
X142730551Y-62267202D01*
X142513361Y-62408399D01*
X142358837Y-62508029D01*
X142276148Y-62560108D01*
X142265123Y-62566333D01*
X142245597Y-62527558D01*
X142230812Y-62409520D01*
X142223108Y-62234532D01*
X142222520Y-62159933D01*
X142223040Y-61736600D01*
X143957396Y-60593600D01*
X144333567Y-60345963D01*
X144683744Y-60115962D01*
X144998761Y-59909579D01*
X145269448Y-59732797D01*
X145486638Y-59591600D01*
X145641162Y-59491970D01*
X145723851Y-59439891D01*
X145734876Y-59433666D01*
X145734876Y-58377648D01*
X145649983Y-58231400D01*
X144000000Y-58231400D01*
X144000000Y-59008822D01*
X144000000Y-59870906D01*
X143133923Y-60435453D01*
X142871264Y-60605965D01*
X142638380Y-60755813D01*
X142448316Y-60876713D01*
X142314117Y-60960381D01*
X142248827Y-60998534D01*
X142244923Y-61000000D01*
X142234436Y-60953149D01*
X142226499Y-60828383D01*
X142222403Y-60649376D01*
X142222113Y-60580900D01*
X142222227Y-60161800D01*
X142965956Y-59679200D01*
X143220321Y-59514161D01*
X143454833Y-59362036D01*
X143652048Y-59234136D01*
X143794523Y-59141776D01*
X143854843Y-59102711D01*
X144000000Y-59008822D01*
X144000000Y-58231400D01*
X142350150Y-58231400D01*
X140754552Y-61000000D01*
X142350150Y-63768600D01*
%LPC*%
D12*
X144000000Y-69000000D03*
D13*
X142000000Y-79000000D03*
X144500000Y-76500000D03*
X142000000Y-74000000D03*
D14*
X148000000Y-73500000D03*
X148000000Y-76040000D03*
D15*
X148000000Y-78580000D03*
M02*
