G04 #@! TF.GenerationSoftware,KiCad,Pcbnew,(5.1.5)-3*
G04 #@! TF.CreationDate,2021-01-01T22:04:59+10:30*
G04 #@! TF.ProjectId,HallSingle,48616c6c-5369-46e6-976c-652e6b696361,rev?*
G04 #@! TF.SameCoordinates,Original*
G04 #@! TF.FileFunction,Paste,Top*
G04 #@! TF.FilePolarity,Positive*
%FSLAX46Y46*%
G04 Gerber Fmt 4.6, Leading zero omitted, Abs format (unit mm)*
G04 Created by KiCad (PCBNEW (5.1.5)-3) date 2021-01-01 22:04:59*
%MOMM*%
%LPD*%
G04 APERTURE LIST*
%ADD10R,1.060000X0.650000*%
%ADD11R,0.900000X0.800000*%
%ADD12C,0.100000*%
G04 APERTURE END LIST*
D10*
X148653500Y-58613000D03*
X148653500Y-60513000D03*
X146453500Y-60513000D03*
X146453500Y-59563000D03*
X146453500Y-58613000D03*
D11*
X142272000Y-59560500D03*
X144272000Y-58610500D03*
X144272000Y-60510500D03*
D12*
G36*
X142148642Y-64126674D02*
G01*
X142172303Y-64130184D01*
X142195507Y-64135996D01*
X142218029Y-64144054D01*
X142239653Y-64154282D01*
X142260170Y-64166579D01*
X142279383Y-64180829D01*
X142297107Y-64196893D01*
X142313171Y-64214617D01*
X142327421Y-64233830D01*
X142339718Y-64254347D01*
X142349946Y-64275971D01*
X142358004Y-64298493D01*
X142363816Y-64321697D01*
X142367326Y-64345358D01*
X142368500Y-64369250D01*
X142368500Y-64856750D01*
X142367326Y-64880642D01*
X142363816Y-64904303D01*
X142358004Y-64927507D01*
X142349946Y-64950029D01*
X142339718Y-64971653D01*
X142327421Y-64992170D01*
X142313171Y-65011383D01*
X142297107Y-65029107D01*
X142279383Y-65045171D01*
X142260170Y-65059421D01*
X142239653Y-65071718D01*
X142218029Y-65081946D01*
X142195507Y-65090004D01*
X142172303Y-65095816D01*
X142148642Y-65099326D01*
X142124750Y-65100500D01*
X141212250Y-65100500D01*
X141188358Y-65099326D01*
X141164697Y-65095816D01*
X141141493Y-65090004D01*
X141118971Y-65081946D01*
X141097347Y-65071718D01*
X141076830Y-65059421D01*
X141057617Y-65045171D01*
X141039893Y-65029107D01*
X141023829Y-65011383D01*
X141009579Y-64992170D01*
X140997282Y-64971653D01*
X140987054Y-64950029D01*
X140978996Y-64927507D01*
X140973184Y-64904303D01*
X140969674Y-64880642D01*
X140968500Y-64856750D01*
X140968500Y-64369250D01*
X140969674Y-64345358D01*
X140973184Y-64321697D01*
X140978996Y-64298493D01*
X140987054Y-64275971D01*
X140997282Y-64254347D01*
X141009579Y-64233830D01*
X141023829Y-64214617D01*
X141039893Y-64196893D01*
X141057617Y-64180829D01*
X141076830Y-64166579D01*
X141097347Y-64154282D01*
X141118971Y-64144054D01*
X141141493Y-64135996D01*
X141164697Y-64130184D01*
X141188358Y-64126674D01*
X141212250Y-64125500D01*
X142124750Y-64125500D01*
X142148642Y-64126674D01*
G37*
G36*
X142148642Y-62251674D02*
G01*
X142172303Y-62255184D01*
X142195507Y-62260996D01*
X142218029Y-62269054D01*
X142239653Y-62279282D01*
X142260170Y-62291579D01*
X142279383Y-62305829D01*
X142297107Y-62321893D01*
X142313171Y-62339617D01*
X142327421Y-62358830D01*
X142339718Y-62379347D01*
X142349946Y-62400971D01*
X142358004Y-62423493D01*
X142363816Y-62446697D01*
X142367326Y-62470358D01*
X142368500Y-62494250D01*
X142368500Y-62981750D01*
X142367326Y-63005642D01*
X142363816Y-63029303D01*
X142358004Y-63052507D01*
X142349946Y-63075029D01*
X142339718Y-63096653D01*
X142327421Y-63117170D01*
X142313171Y-63136383D01*
X142297107Y-63154107D01*
X142279383Y-63170171D01*
X142260170Y-63184421D01*
X142239653Y-63196718D01*
X142218029Y-63206946D01*
X142195507Y-63215004D01*
X142172303Y-63220816D01*
X142148642Y-63224326D01*
X142124750Y-63225500D01*
X141212250Y-63225500D01*
X141188358Y-63224326D01*
X141164697Y-63220816D01*
X141141493Y-63215004D01*
X141118971Y-63206946D01*
X141097347Y-63196718D01*
X141076830Y-63184421D01*
X141057617Y-63170171D01*
X141039893Y-63154107D01*
X141023829Y-63136383D01*
X141009579Y-63117170D01*
X140997282Y-63096653D01*
X140987054Y-63075029D01*
X140978996Y-63052507D01*
X140973184Y-63029303D01*
X140969674Y-63005642D01*
X140968500Y-62981750D01*
X140968500Y-62494250D01*
X140969674Y-62470358D01*
X140973184Y-62446697D01*
X140978996Y-62423493D01*
X140987054Y-62400971D01*
X140997282Y-62379347D01*
X141009579Y-62358830D01*
X141023829Y-62339617D01*
X141039893Y-62321893D01*
X141057617Y-62305829D01*
X141076830Y-62291579D01*
X141097347Y-62279282D01*
X141118971Y-62269054D01*
X141141493Y-62260996D01*
X141164697Y-62255184D01*
X141188358Y-62251674D01*
X141212250Y-62250500D01*
X142124750Y-62250500D01*
X142148642Y-62251674D01*
G37*
G36*
X144950642Y-62229674D02*
G01*
X144974303Y-62233184D01*
X144997507Y-62238996D01*
X145020029Y-62247054D01*
X145041653Y-62257282D01*
X145062170Y-62269579D01*
X145081383Y-62283829D01*
X145099107Y-62299893D01*
X145115171Y-62317617D01*
X145129421Y-62336830D01*
X145141718Y-62357347D01*
X145151946Y-62378971D01*
X145160004Y-62401493D01*
X145165816Y-62424697D01*
X145169326Y-62448358D01*
X145170500Y-62472250D01*
X145170500Y-63384750D01*
X145169326Y-63408642D01*
X145165816Y-63432303D01*
X145160004Y-63455507D01*
X145151946Y-63478029D01*
X145141718Y-63499653D01*
X145129421Y-63520170D01*
X145115171Y-63539383D01*
X145099107Y-63557107D01*
X145081383Y-63573171D01*
X145062170Y-63587421D01*
X145041653Y-63599718D01*
X145020029Y-63609946D01*
X144997507Y-63618004D01*
X144974303Y-63623816D01*
X144950642Y-63627326D01*
X144926750Y-63628500D01*
X144439250Y-63628500D01*
X144415358Y-63627326D01*
X144391697Y-63623816D01*
X144368493Y-63618004D01*
X144345971Y-63609946D01*
X144324347Y-63599718D01*
X144303830Y-63587421D01*
X144284617Y-63573171D01*
X144266893Y-63557107D01*
X144250829Y-63539383D01*
X144236579Y-63520170D01*
X144224282Y-63499653D01*
X144214054Y-63478029D01*
X144205996Y-63455507D01*
X144200184Y-63432303D01*
X144196674Y-63408642D01*
X144195500Y-63384750D01*
X144195500Y-62472250D01*
X144196674Y-62448358D01*
X144200184Y-62424697D01*
X144205996Y-62401493D01*
X144214054Y-62378971D01*
X144224282Y-62357347D01*
X144236579Y-62336830D01*
X144250829Y-62317617D01*
X144266893Y-62299893D01*
X144284617Y-62283829D01*
X144303830Y-62269579D01*
X144324347Y-62257282D01*
X144345971Y-62247054D01*
X144368493Y-62238996D01*
X144391697Y-62233184D01*
X144415358Y-62229674D01*
X144439250Y-62228500D01*
X144926750Y-62228500D01*
X144950642Y-62229674D01*
G37*
G36*
X146825642Y-62229674D02*
G01*
X146849303Y-62233184D01*
X146872507Y-62238996D01*
X146895029Y-62247054D01*
X146916653Y-62257282D01*
X146937170Y-62269579D01*
X146956383Y-62283829D01*
X146974107Y-62299893D01*
X146990171Y-62317617D01*
X147004421Y-62336830D01*
X147016718Y-62357347D01*
X147026946Y-62378971D01*
X147035004Y-62401493D01*
X147040816Y-62424697D01*
X147044326Y-62448358D01*
X147045500Y-62472250D01*
X147045500Y-63384750D01*
X147044326Y-63408642D01*
X147040816Y-63432303D01*
X147035004Y-63455507D01*
X147026946Y-63478029D01*
X147016718Y-63499653D01*
X147004421Y-63520170D01*
X146990171Y-63539383D01*
X146974107Y-63557107D01*
X146956383Y-63573171D01*
X146937170Y-63587421D01*
X146916653Y-63599718D01*
X146895029Y-63609946D01*
X146872507Y-63618004D01*
X146849303Y-63623816D01*
X146825642Y-63627326D01*
X146801750Y-63628500D01*
X146314250Y-63628500D01*
X146290358Y-63627326D01*
X146266697Y-63623816D01*
X146243493Y-63618004D01*
X146220971Y-63609946D01*
X146199347Y-63599718D01*
X146178830Y-63587421D01*
X146159617Y-63573171D01*
X146141893Y-63557107D01*
X146125829Y-63539383D01*
X146111579Y-63520170D01*
X146099282Y-63499653D01*
X146089054Y-63478029D01*
X146080996Y-63455507D01*
X146075184Y-63432303D01*
X146071674Y-63408642D01*
X146070500Y-63384750D01*
X146070500Y-62472250D01*
X146071674Y-62448358D01*
X146075184Y-62424697D01*
X146080996Y-62401493D01*
X146089054Y-62378971D01*
X146099282Y-62357347D01*
X146111579Y-62336830D01*
X146125829Y-62317617D01*
X146141893Y-62299893D01*
X146159617Y-62283829D01*
X146178830Y-62269579D01*
X146199347Y-62257282D01*
X146220971Y-62247054D01*
X146243493Y-62238996D01*
X146266697Y-62233184D01*
X146290358Y-62229674D01*
X146314250Y-62228500D01*
X146801750Y-62228500D01*
X146825642Y-62229674D01*
G37*
G36*
X148943142Y-62251674D02*
G01*
X148966803Y-62255184D01*
X148990007Y-62260996D01*
X149012529Y-62269054D01*
X149034153Y-62279282D01*
X149054670Y-62291579D01*
X149073883Y-62305829D01*
X149091607Y-62321893D01*
X149107671Y-62339617D01*
X149121921Y-62358830D01*
X149134218Y-62379347D01*
X149144446Y-62400971D01*
X149152504Y-62423493D01*
X149158316Y-62446697D01*
X149161826Y-62470358D01*
X149163000Y-62494250D01*
X149163000Y-62981750D01*
X149161826Y-63005642D01*
X149158316Y-63029303D01*
X149152504Y-63052507D01*
X149144446Y-63075029D01*
X149134218Y-63096653D01*
X149121921Y-63117170D01*
X149107671Y-63136383D01*
X149091607Y-63154107D01*
X149073883Y-63170171D01*
X149054670Y-63184421D01*
X149034153Y-63196718D01*
X149012529Y-63206946D01*
X148990007Y-63215004D01*
X148966803Y-63220816D01*
X148943142Y-63224326D01*
X148919250Y-63225500D01*
X148006750Y-63225500D01*
X147982858Y-63224326D01*
X147959197Y-63220816D01*
X147935993Y-63215004D01*
X147913471Y-63206946D01*
X147891847Y-63196718D01*
X147871330Y-63184421D01*
X147852117Y-63170171D01*
X147834393Y-63154107D01*
X147818329Y-63136383D01*
X147804079Y-63117170D01*
X147791782Y-63096653D01*
X147781554Y-63075029D01*
X147773496Y-63052507D01*
X147767684Y-63029303D01*
X147764174Y-63005642D01*
X147763000Y-62981750D01*
X147763000Y-62494250D01*
X147764174Y-62470358D01*
X147767684Y-62446697D01*
X147773496Y-62423493D01*
X147781554Y-62400971D01*
X147791782Y-62379347D01*
X147804079Y-62358830D01*
X147818329Y-62339617D01*
X147834393Y-62321893D01*
X147852117Y-62305829D01*
X147871330Y-62291579D01*
X147891847Y-62279282D01*
X147913471Y-62269054D01*
X147935993Y-62260996D01*
X147959197Y-62255184D01*
X147982858Y-62251674D01*
X148006750Y-62250500D01*
X148919250Y-62250500D01*
X148943142Y-62251674D01*
G37*
G36*
X148943142Y-64126674D02*
G01*
X148966803Y-64130184D01*
X148990007Y-64135996D01*
X149012529Y-64144054D01*
X149034153Y-64154282D01*
X149054670Y-64166579D01*
X149073883Y-64180829D01*
X149091607Y-64196893D01*
X149107671Y-64214617D01*
X149121921Y-64233830D01*
X149134218Y-64254347D01*
X149144446Y-64275971D01*
X149152504Y-64298493D01*
X149158316Y-64321697D01*
X149161826Y-64345358D01*
X149163000Y-64369250D01*
X149163000Y-64856750D01*
X149161826Y-64880642D01*
X149158316Y-64904303D01*
X149152504Y-64927507D01*
X149144446Y-64950029D01*
X149134218Y-64971653D01*
X149121921Y-64992170D01*
X149107671Y-65011383D01*
X149091607Y-65029107D01*
X149073883Y-65045171D01*
X149054670Y-65059421D01*
X149034153Y-65071718D01*
X149012529Y-65081946D01*
X148990007Y-65090004D01*
X148966803Y-65095816D01*
X148943142Y-65099326D01*
X148919250Y-65100500D01*
X148006750Y-65100500D01*
X147982858Y-65099326D01*
X147959197Y-65095816D01*
X147935993Y-65090004D01*
X147913471Y-65081946D01*
X147891847Y-65071718D01*
X147871330Y-65059421D01*
X147852117Y-65045171D01*
X147834393Y-65029107D01*
X147818329Y-65011383D01*
X147804079Y-64992170D01*
X147791782Y-64971653D01*
X147781554Y-64950029D01*
X147773496Y-64927507D01*
X147767684Y-64904303D01*
X147764174Y-64880642D01*
X147763000Y-64856750D01*
X147763000Y-64369250D01*
X147764174Y-64345358D01*
X147767684Y-64321697D01*
X147773496Y-64298493D01*
X147781554Y-64275971D01*
X147791782Y-64254347D01*
X147804079Y-64233830D01*
X147818329Y-64214617D01*
X147834393Y-64196893D01*
X147852117Y-64180829D01*
X147871330Y-64166579D01*
X147891847Y-64154282D01*
X147913471Y-64144054D01*
X147935993Y-64135996D01*
X147959197Y-64130184D01*
X147982858Y-64126674D01*
X148006750Y-64125500D01*
X148919250Y-64125500D01*
X148943142Y-64126674D01*
G37*
G36*
X140480142Y-58076174D02*
G01*
X140503803Y-58079684D01*
X140527007Y-58085496D01*
X140549529Y-58093554D01*
X140571153Y-58103782D01*
X140591670Y-58116079D01*
X140610883Y-58130329D01*
X140628607Y-58146393D01*
X140644671Y-58164117D01*
X140658921Y-58183330D01*
X140671218Y-58203847D01*
X140681446Y-58225471D01*
X140689504Y-58247993D01*
X140695316Y-58271197D01*
X140698826Y-58294858D01*
X140700000Y-58318750D01*
X140700000Y-58806250D01*
X140698826Y-58830142D01*
X140695316Y-58853803D01*
X140689504Y-58877007D01*
X140681446Y-58899529D01*
X140671218Y-58921153D01*
X140658921Y-58941670D01*
X140644671Y-58960883D01*
X140628607Y-58978607D01*
X140610883Y-58994671D01*
X140591670Y-59008921D01*
X140571153Y-59021218D01*
X140549529Y-59031446D01*
X140527007Y-59039504D01*
X140503803Y-59045316D01*
X140480142Y-59048826D01*
X140456250Y-59050000D01*
X139543750Y-59050000D01*
X139519858Y-59048826D01*
X139496197Y-59045316D01*
X139472993Y-59039504D01*
X139450471Y-59031446D01*
X139428847Y-59021218D01*
X139408330Y-59008921D01*
X139389117Y-58994671D01*
X139371393Y-58978607D01*
X139355329Y-58960883D01*
X139341079Y-58941670D01*
X139328782Y-58921153D01*
X139318554Y-58899529D01*
X139310496Y-58877007D01*
X139304684Y-58853803D01*
X139301174Y-58830142D01*
X139300000Y-58806250D01*
X139300000Y-58318750D01*
X139301174Y-58294858D01*
X139304684Y-58271197D01*
X139310496Y-58247993D01*
X139318554Y-58225471D01*
X139328782Y-58203847D01*
X139341079Y-58183330D01*
X139355329Y-58164117D01*
X139371393Y-58146393D01*
X139389117Y-58130329D01*
X139408330Y-58116079D01*
X139428847Y-58103782D01*
X139450471Y-58093554D01*
X139472993Y-58085496D01*
X139496197Y-58079684D01*
X139519858Y-58076174D01*
X139543750Y-58075000D01*
X140456250Y-58075000D01*
X140480142Y-58076174D01*
G37*
G36*
X140480142Y-59951174D02*
G01*
X140503803Y-59954684D01*
X140527007Y-59960496D01*
X140549529Y-59968554D01*
X140571153Y-59978782D01*
X140591670Y-59991079D01*
X140610883Y-60005329D01*
X140628607Y-60021393D01*
X140644671Y-60039117D01*
X140658921Y-60058330D01*
X140671218Y-60078847D01*
X140681446Y-60100471D01*
X140689504Y-60122993D01*
X140695316Y-60146197D01*
X140698826Y-60169858D01*
X140700000Y-60193750D01*
X140700000Y-60681250D01*
X140698826Y-60705142D01*
X140695316Y-60728803D01*
X140689504Y-60752007D01*
X140681446Y-60774529D01*
X140671218Y-60796153D01*
X140658921Y-60816670D01*
X140644671Y-60835883D01*
X140628607Y-60853607D01*
X140610883Y-60869671D01*
X140591670Y-60883921D01*
X140571153Y-60896218D01*
X140549529Y-60906446D01*
X140527007Y-60914504D01*
X140503803Y-60920316D01*
X140480142Y-60923826D01*
X140456250Y-60925000D01*
X139543750Y-60925000D01*
X139519858Y-60923826D01*
X139496197Y-60920316D01*
X139472993Y-60914504D01*
X139450471Y-60906446D01*
X139428847Y-60896218D01*
X139408330Y-60883921D01*
X139389117Y-60869671D01*
X139371393Y-60853607D01*
X139355329Y-60835883D01*
X139341079Y-60816670D01*
X139328782Y-60796153D01*
X139318554Y-60774529D01*
X139310496Y-60752007D01*
X139304684Y-60728803D01*
X139301174Y-60705142D01*
X139300000Y-60681250D01*
X139300000Y-60193750D01*
X139301174Y-60169858D01*
X139304684Y-60146197D01*
X139310496Y-60122993D01*
X139318554Y-60100471D01*
X139328782Y-60078847D01*
X139341079Y-60058330D01*
X139355329Y-60039117D01*
X139371393Y-60021393D01*
X139389117Y-60005329D01*
X139408330Y-59991079D01*
X139428847Y-59978782D01*
X139450471Y-59968554D01*
X139472993Y-59960496D01*
X139496197Y-59954684D01*
X139519858Y-59951174D01*
X139543750Y-59950000D01*
X140456250Y-59950000D01*
X140480142Y-59951174D01*
G37*
G36*
X139926142Y-64126674D02*
G01*
X139949803Y-64130184D01*
X139973007Y-64135996D01*
X139995529Y-64144054D01*
X140017153Y-64154282D01*
X140037670Y-64166579D01*
X140056883Y-64180829D01*
X140074607Y-64196893D01*
X140090671Y-64214617D01*
X140104921Y-64233830D01*
X140117218Y-64254347D01*
X140127446Y-64275971D01*
X140135504Y-64298493D01*
X140141316Y-64321697D01*
X140144826Y-64345358D01*
X140146000Y-64369250D01*
X140146000Y-64856750D01*
X140144826Y-64880642D01*
X140141316Y-64904303D01*
X140135504Y-64927507D01*
X140127446Y-64950029D01*
X140117218Y-64971653D01*
X140104921Y-64992170D01*
X140090671Y-65011383D01*
X140074607Y-65029107D01*
X140056883Y-65045171D01*
X140037670Y-65059421D01*
X140017153Y-65071718D01*
X139995529Y-65081946D01*
X139973007Y-65090004D01*
X139949803Y-65095816D01*
X139926142Y-65099326D01*
X139902250Y-65100500D01*
X138989750Y-65100500D01*
X138965858Y-65099326D01*
X138942197Y-65095816D01*
X138918993Y-65090004D01*
X138896471Y-65081946D01*
X138874847Y-65071718D01*
X138854330Y-65059421D01*
X138835117Y-65045171D01*
X138817393Y-65029107D01*
X138801329Y-65011383D01*
X138787079Y-64992170D01*
X138774782Y-64971653D01*
X138764554Y-64950029D01*
X138756496Y-64927507D01*
X138750684Y-64904303D01*
X138747174Y-64880642D01*
X138746000Y-64856750D01*
X138746000Y-64369250D01*
X138747174Y-64345358D01*
X138750684Y-64321697D01*
X138756496Y-64298493D01*
X138764554Y-64275971D01*
X138774782Y-64254347D01*
X138787079Y-64233830D01*
X138801329Y-64214617D01*
X138817393Y-64196893D01*
X138835117Y-64180829D01*
X138854330Y-64166579D01*
X138874847Y-64154282D01*
X138896471Y-64144054D01*
X138918993Y-64135996D01*
X138942197Y-64130184D01*
X138965858Y-64126674D01*
X138989750Y-64125500D01*
X139902250Y-64125500D01*
X139926142Y-64126674D01*
G37*
G36*
X139926142Y-62251674D02*
G01*
X139949803Y-62255184D01*
X139973007Y-62260996D01*
X139995529Y-62269054D01*
X140017153Y-62279282D01*
X140037670Y-62291579D01*
X140056883Y-62305829D01*
X140074607Y-62321893D01*
X140090671Y-62339617D01*
X140104921Y-62358830D01*
X140117218Y-62379347D01*
X140127446Y-62400971D01*
X140135504Y-62423493D01*
X140141316Y-62446697D01*
X140144826Y-62470358D01*
X140146000Y-62494250D01*
X140146000Y-62981750D01*
X140144826Y-63005642D01*
X140141316Y-63029303D01*
X140135504Y-63052507D01*
X140127446Y-63075029D01*
X140117218Y-63096653D01*
X140104921Y-63117170D01*
X140090671Y-63136383D01*
X140074607Y-63154107D01*
X140056883Y-63170171D01*
X140037670Y-63184421D01*
X140017153Y-63196718D01*
X139995529Y-63206946D01*
X139973007Y-63215004D01*
X139949803Y-63220816D01*
X139926142Y-63224326D01*
X139902250Y-63225500D01*
X138989750Y-63225500D01*
X138965858Y-63224326D01*
X138942197Y-63220816D01*
X138918993Y-63215004D01*
X138896471Y-63206946D01*
X138874847Y-63196718D01*
X138854330Y-63184421D01*
X138835117Y-63170171D01*
X138817393Y-63154107D01*
X138801329Y-63136383D01*
X138787079Y-63117170D01*
X138774782Y-63096653D01*
X138764554Y-63075029D01*
X138756496Y-63052507D01*
X138750684Y-63029303D01*
X138747174Y-63005642D01*
X138746000Y-62981750D01*
X138746000Y-62494250D01*
X138747174Y-62470358D01*
X138750684Y-62446697D01*
X138756496Y-62423493D01*
X138764554Y-62400971D01*
X138774782Y-62379347D01*
X138787079Y-62358830D01*
X138801329Y-62339617D01*
X138817393Y-62321893D01*
X138835117Y-62305829D01*
X138854330Y-62291579D01*
X138874847Y-62279282D01*
X138896471Y-62269054D01*
X138918993Y-62260996D01*
X138942197Y-62255184D01*
X138965858Y-62251674D01*
X138989750Y-62250500D01*
X139902250Y-62250500D01*
X139926142Y-62251674D01*
G37*
G36*
X144950642Y-64261674D02*
G01*
X144974303Y-64265184D01*
X144997507Y-64270996D01*
X145020029Y-64279054D01*
X145041653Y-64289282D01*
X145062170Y-64301579D01*
X145081383Y-64315829D01*
X145099107Y-64331893D01*
X145115171Y-64349617D01*
X145129421Y-64368830D01*
X145141718Y-64389347D01*
X145151946Y-64410971D01*
X145160004Y-64433493D01*
X145165816Y-64456697D01*
X145169326Y-64480358D01*
X145170500Y-64504250D01*
X145170500Y-65416750D01*
X145169326Y-65440642D01*
X145165816Y-65464303D01*
X145160004Y-65487507D01*
X145151946Y-65510029D01*
X145141718Y-65531653D01*
X145129421Y-65552170D01*
X145115171Y-65571383D01*
X145099107Y-65589107D01*
X145081383Y-65605171D01*
X145062170Y-65619421D01*
X145041653Y-65631718D01*
X145020029Y-65641946D01*
X144997507Y-65650004D01*
X144974303Y-65655816D01*
X144950642Y-65659326D01*
X144926750Y-65660500D01*
X144439250Y-65660500D01*
X144415358Y-65659326D01*
X144391697Y-65655816D01*
X144368493Y-65650004D01*
X144345971Y-65641946D01*
X144324347Y-65631718D01*
X144303830Y-65619421D01*
X144284617Y-65605171D01*
X144266893Y-65589107D01*
X144250829Y-65571383D01*
X144236579Y-65552170D01*
X144224282Y-65531653D01*
X144214054Y-65510029D01*
X144205996Y-65487507D01*
X144200184Y-65464303D01*
X144196674Y-65440642D01*
X144195500Y-65416750D01*
X144195500Y-64504250D01*
X144196674Y-64480358D01*
X144200184Y-64456697D01*
X144205996Y-64433493D01*
X144214054Y-64410971D01*
X144224282Y-64389347D01*
X144236579Y-64368830D01*
X144250829Y-64349617D01*
X144266893Y-64331893D01*
X144284617Y-64315829D01*
X144303830Y-64301579D01*
X144324347Y-64289282D01*
X144345971Y-64279054D01*
X144368493Y-64270996D01*
X144391697Y-64265184D01*
X144415358Y-64261674D01*
X144439250Y-64260500D01*
X144926750Y-64260500D01*
X144950642Y-64261674D01*
G37*
G36*
X146825642Y-64261674D02*
G01*
X146849303Y-64265184D01*
X146872507Y-64270996D01*
X146895029Y-64279054D01*
X146916653Y-64289282D01*
X146937170Y-64301579D01*
X146956383Y-64315829D01*
X146974107Y-64331893D01*
X146990171Y-64349617D01*
X147004421Y-64368830D01*
X147016718Y-64389347D01*
X147026946Y-64410971D01*
X147035004Y-64433493D01*
X147040816Y-64456697D01*
X147044326Y-64480358D01*
X147045500Y-64504250D01*
X147045500Y-65416750D01*
X147044326Y-65440642D01*
X147040816Y-65464303D01*
X147035004Y-65487507D01*
X147026946Y-65510029D01*
X147016718Y-65531653D01*
X147004421Y-65552170D01*
X146990171Y-65571383D01*
X146974107Y-65589107D01*
X146956383Y-65605171D01*
X146937170Y-65619421D01*
X146916653Y-65631718D01*
X146895029Y-65641946D01*
X146872507Y-65650004D01*
X146849303Y-65655816D01*
X146825642Y-65659326D01*
X146801750Y-65660500D01*
X146314250Y-65660500D01*
X146290358Y-65659326D01*
X146266697Y-65655816D01*
X146243493Y-65650004D01*
X146220971Y-65641946D01*
X146199347Y-65631718D01*
X146178830Y-65619421D01*
X146159617Y-65605171D01*
X146141893Y-65589107D01*
X146125829Y-65571383D01*
X146111579Y-65552170D01*
X146099282Y-65531653D01*
X146089054Y-65510029D01*
X146080996Y-65487507D01*
X146075184Y-65464303D01*
X146071674Y-65440642D01*
X146070500Y-65416750D01*
X146070500Y-64504250D01*
X146071674Y-64480358D01*
X146075184Y-64456697D01*
X146080996Y-64433493D01*
X146089054Y-64410971D01*
X146099282Y-64389347D01*
X146111579Y-64368830D01*
X146125829Y-64349617D01*
X146141893Y-64331893D01*
X146159617Y-64315829D01*
X146178830Y-64301579D01*
X146199347Y-64289282D01*
X146220971Y-64279054D01*
X146243493Y-64270996D01*
X146266697Y-64265184D01*
X146290358Y-64261674D01*
X146314250Y-64260500D01*
X146801750Y-64260500D01*
X146825642Y-64261674D01*
G37*
M02*
