G04 #@! TF.GenerationSoftware,KiCad,Pcbnew,(5.1.5)-3*
G04 #@! TF.CreationDate,2021-01-20T15:53:11+10:30*
G04 #@! TF.ProjectId,HallSingle,48616c6c-5369-46e6-976c-652e6b696361,rev?*
G04 #@! TF.SameCoordinates,Original*
G04 #@! TF.FileFunction,Soldermask,Top*
G04 #@! TF.FilePolarity,Negative*
%FSLAX46Y46*%
G04 Gerber Fmt 4.6, Leading zero omitted, Abs format (unit mm)*
G04 Created by KiCad (PCBNEW (5.1.5)-3) date 2021-01-20 15:53:11*
%MOMM*%
%LPD*%
G04 APERTURE LIST*
%ADD10C,0.100000*%
G04 APERTURE END LIST*
D10*
G36*
X142237142Y-78218242D02*
G01*
X142385101Y-78279529D01*
X142518255Y-78368499D01*
X142631501Y-78481745D01*
X142720471Y-78614899D01*
X142781758Y-78762858D01*
X142813000Y-78919925D01*
X142813000Y-79080075D01*
X142781758Y-79237142D01*
X142720471Y-79385101D01*
X142631501Y-79518255D01*
X142518255Y-79631501D01*
X142385101Y-79720471D01*
X142237142Y-79781758D01*
X142080075Y-79813000D01*
X141919925Y-79813000D01*
X141762858Y-79781758D01*
X141614899Y-79720471D01*
X141481745Y-79631501D01*
X141368499Y-79518255D01*
X141279529Y-79385101D01*
X141218242Y-79237142D01*
X141187000Y-79080075D01*
X141187000Y-78919925D01*
X141218242Y-78762858D01*
X141279529Y-78614899D01*
X141368499Y-78481745D01*
X141481745Y-78368499D01*
X141614899Y-78279529D01*
X141762858Y-78218242D01*
X141919925Y-78187000D01*
X142080075Y-78187000D01*
X142237142Y-78218242D01*
G37*
G36*
X148901000Y-79481000D02*
G01*
X147099000Y-79481000D01*
X147099000Y-77679000D01*
X148901000Y-77679000D01*
X148901000Y-79481000D01*
G37*
G36*
X144737142Y-75718242D02*
G01*
X144885101Y-75779529D01*
X145018255Y-75868499D01*
X145131501Y-75981745D01*
X145220471Y-76114899D01*
X145281758Y-76262858D01*
X145313000Y-76419925D01*
X145313000Y-76580075D01*
X145281758Y-76737142D01*
X145220471Y-76885101D01*
X145131501Y-77018255D01*
X145018255Y-77131501D01*
X144885101Y-77220471D01*
X144737142Y-77281758D01*
X144580075Y-77313000D01*
X144419925Y-77313000D01*
X144262858Y-77281758D01*
X144114899Y-77220471D01*
X143981745Y-77131501D01*
X143868499Y-77018255D01*
X143779529Y-76885101D01*
X143718242Y-76737142D01*
X143687000Y-76580075D01*
X143687000Y-76419925D01*
X143718242Y-76262858D01*
X143779529Y-76114899D01*
X143868499Y-75981745D01*
X143981745Y-75868499D01*
X144114899Y-75779529D01*
X144262858Y-75718242D01*
X144419925Y-75687000D01*
X144580075Y-75687000D01*
X144737142Y-75718242D01*
G37*
G36*
X148113512Y-75143927D02*
G01*
X148262812Y-75173624D01*
X148426784Y-75241544D01*
X148574354Y-75340147D01*
X148699853Y-75465646D01*
X148798456Y-75613216D01*
X148866376Y-75777188D01*
X148901000Y-75951259D01*
X148901000Y-76128741D01*
X148866376Y-76302812D01*
X148798456Y-76466784D01*
X148699853Y-76614354D01*
X148574354Y-76739853D01*
X148426784Y-76838456D01*
X148262812Y-76906376D01*
X148113512Y-76936073D01*
X148088742Y-76941000D01*
X147911258Y-76941000D01*
X147886488Y-76936073D01*
X147737188Y-76906376D01*
X147573216Y-76838456D01*
X147425646Y-76739853D01*
X147300147Y-76614354D01*
X147201544Y-76466784D01*
X147133624Y-76302812D01*
X147099000Y-76128741D01*
X147099000Y-75951259D01*
X147133624Y-75777188D01*
X147201544Y-75613216D01*
X147300147Y-75465646D01*
X147425646Y-75340147D01*
X147573216Y-75241544D01*
X147737188Y-75173624D01*
X147886488Y-75143927D01*
X147911258Y-75139000D01*
X148088742Y-75139000D01*
X148113512Y-75143927D01*
G37*
G36*
X142237142Y-73218242D02*
G01*
X142385101Y-73279529D01*
X142518255Y-73368499D01*
X142631501Y-73481745D01*
X142720471Y-73614899D01*
X142781758Y-73762858D01*
X142813000Y-73919925D01*
X142813000Y-74080075D01*
X142781758Y-74237142D01*
X142720471Y-74385101D01*
X142631501Y-74518255D01*
X142518255Y-74631501D01*
X142385101Y-74720471D01*
X142237142Y-74781758D01*
X142080075Y-74813000D01*
X141919925Y-74813000D01*
X141762858Y-74781758D01*
X141614899Y-74720471D01*
X141481745Y-74631501D01*
X141368499Y-74518255D01*
X141279529Y-74385101D01*
X141218242Y-74237142D01*
X141187000Y-74080075D01*
X141187000Y-73919925D01*
X141218242Y-73762858D01*
X141279529Y-73614899D01*
X141368499Y-73481745D01*
X141481745Y-73368499D01*
X141614899Y-73279529D01*
X141762858Y-73218242D01*
X141919925Y-73187000D01*
X142080075Y-73187000D01*
X142237142Y-73218242D01*
G37*
G36*
X148113512Y-72603927D02*
G01*
X148262812Y-72633624D01*
X148426784Y-72701544D01*
X148574354Y-72800147D01*
X148699853Y-72925646D01*
X148798456Y-73073216D01*
X148866376Y-73237188D01*
X148901000Y-73411259D01*
X148901000Y-73588741D01*
X148866376Y-73762812D01*
X148798456Y-73926784D01*
X148699853Y-74074354D01*
X148574354Y-74199853D01*
X148426784Y-74298456D01*
X148262812Y-74366376D01*
X148113512Y-74396073D01*
X148088742Y-74401000D01*
X147911258Y-74401000D01*
X147886488Y-74396073D01*
X147737188Y-74366376D01*
X147573216Y-74298456D01*
X147425646Y-74199853D01*
X147300147Y-74074354D01*
X147201544Y-73926784D01*
X147133624Y-73762812D01*
X147099000Y-73588741D01*
X147099000Y-73411259D01*
X147133624Y-73237188D01*
X147201544Y-73073216D01*
X147300147Y-72925646D01*
X147425646Y-72800147D01*
X147573216Y-72701544D01*
X147737188Y-72633624D01*
X147886488Y-72603927D01*
X147911258Y-72599000D01*
X148088742Y-72599000D01*
X148113512Y-72603927D01*
G37*
G36*
X144375256Y-67391298D02*
G01*
X144481579Y-67412447D01*
X144782042Y-67536903D01*
X145052451Y-67717585D01*
X145282415Y-67947549D01*
X145463097Y-68217958D01*
X145587553Y-68518421D01*
X145651000Y-68837391D01*
X145651000Y-69162609D01*
X145587553Y-69481579D01*
X145463097Y-69782042D01*
X145282415Y-70052451D01*
X145052451Y-70282415D01*
X144782042Y-70463097D01*
X144481579Y-70587553D01*
X144375256Y-70608702D01*
X144162611Y-70651000D01*
X143837389Y-70651000D01*
X143624744Y-70608702D01*
X143518421Y-70587553D01*
X143217958Y-70463097D01*
X142947549Y-70282415D01*
X142717585Y-70052451D01*
X142536903Y-69782042D01*
X142412447Y-69481579D01*
X142349000Y-69162609D01*
X142349000Y-68837391D01*
X142412447Y-68518421D01*
X142536903Y-68217958D01*
X142717585Y-67947549D01*
X142947549Y-67717585D01*
X143217958Y-67536903D01*
X143518421Y-67412447D01*
X143624744Y-67391298D01*
X143837389Y-67349000D01*
X144162611Y-67349000D01*
X144375256Y-67391298D01*
G37*
G36*
X146929968Y-64214065D02*
G01*
X146968638Y-64225796D01*
X147004277Y-64244846D01*
X147035517Y-64270483D01*
X147061154Y-64301723D01*
X147080204Y-64337362D01*
X147091935Y-64376032D01*
X147096500Y-64422388D01*
X147096500Y-65498612D01*
X147091935Y-65544968D01*
X147080204Y-65583638D01*
X147061154Y-65619277D01*
X147035517Y-65650517D01*
X147004277Y-65676154D01*
X146968638Y-65695204D01*
X146929968Y-65706935D01*
X146883612Y-65711500D01*
X146232388Y-65711500D01*
X146186032Y-65706935D01*
X146147362Y-65695204D01*
X146111723Y-65676154D01*
X146080483Y-65650517D01*
X146054846Y-65619277D01*
X146035796Y-65583638D01*
X146024065Y-65544968D01*
X146019500Y-65498612D01*
X146019500Y-64422388D01*
X146024065Y-64376032D01*
X146035796Y-64337362D01*
X146054846Y-64301723D01*
X146080483Y-64270483D01*
X146111723Y-64244846D01*
X146147362Y-64225796D01*
X146186032Y-64214065D01*
X146232388Y-64209500D01*
X146883612Y-64209500D01*
X146929968Y-64214065D01*
G37*
G36*
X145054968Y-64214065D02*
G01*
X145093638Y-64225796D01*
X145129277Y-64244846D01*
X145160517Y-64270483D01*
X145186154Y-64301723D01*
X145205204Y-64337362D01*
X145216935Y-64376032D01*
X145221500Y-64422388D01*
X145221500Y-65498612D01*
X145216935Y-65544968D01*
X145205204Y-65583638D01*
X145186154Y-65619277D01*
X145160517Y-65650517D01*
X145129277Y-65676154D01*
X145093638Y-65695204D01*
X145054968Y-65706935D01*
X145008612Y-65711500D01*
X144357388Y-65711500D01*
X144311032Y-65706935D01*
X144272362Y-65695204D01*
X144236723Y-65676154D01*
X144205483Y-65650517D01*
X144179846Y-65619277D01*
X144160796Y-65583638D01*
X144149065Y-65544968D01*
X144144500Y-65498612D01*
X144144500Y-64422388D01*
X144149065Y-64376032D01*
X144160796Y-64337362D01*
X144179846Y-64301723D01*
X144205483Y-64270483D01*
X144236723Y-64244846D01*
X144272362Y-64225796D01*
X144311032Y-64214065D01*
X144357388Y-64209500D01*
X145008612Y-64209500D01*
X145054968Y-64214065D01*
G37*
G36*
X149047468Y-64079065D02*
G01*
X149086138Y-64090796D01*
X149121777Y-64109846D01*
X149153017Y-64135483D01*
X149178654Y-64166723D01*
X149197704Y-64202362D01*
X149209435Y-64241032D01*
X149214000Y-64287388D01*
X149214000Y-64938612D01*
X149209435Y-64984968D01*
X149197704Y-65023638D01*
X149178654Y-65059277D01*
X149153017Y-65090517D01*
X149121777Y-65116154D01*
X149086138Y-65135204D01*
X149047468Y-65146935D01*
X149001112Y-65151500D01*
X147924888Y-65151500D01*
X147878532Y-65146935D01*
X147839862Y-65135204D01*
X147804223Y-65116154D01*
X147772983Y-65090517D01*
X147747346Y-65059277D01*
X147728296Y-65023638D01*
X147716565Y-64984968D01*
X147712000Y-64938612D01*
X147712000Y-64287388D01*
X147716565Y-64241032D01*
X147728296Y-64202362D01*
X147747346Y-64166723D01*
X147772983Y-64135483D01*
X147804223Y-64109846D01*
X147839862Y-64090796D01*
X147878532Y-64079065D01*
X147924888Y-64074500D01*
X149001112Y-64074500D01*
X149047468Y-64079065D01*
G37*
G36*
X142252968Y-64079065D02*
G01*
X142291638Y-64090796D01*
X142327277Y-64109846D01*
X142358517Y-64135483D01*
X142384154Y-64166723D01*
X142403204Y-64202362D01*
X142414935Y-64241032D01*
X142419500Y-64287388D01*
X142419500Y-64938612D01*
X142414935Y-64984968D01*
X142403204Y-65023638D01*
X142384154Y-65059277D01*
X142358517Y-65090517D01*
X142327277Y-65116154D01*
X142291638Y-65135204D01*
X142252968Y-65146935D01*
X142206612Y-65151500D01*
X141130388Y-65151500D01*
X141084032Y-65146935D01*
X141045362Y-65135204D01*
X141009723Y-65116154D01*
X140978483Y-65090517D01*
X140952846Y-65059277D01*
X140933796Y-65023638D01*
X140922065Y-64984968D01*
X140917500Y-64938612D01*
X140917500Y-64287388D01*
X140922065Y-64241032D01*
X140933796Y-64202362D01*
X140952846Y-64166723D01*
X140978483Y-64135483D01*
X141009723Y-64109846D01*
X141045362Y-64090796D01*
X141084032Y-64079065D01*
X141130388Y-64074500D01*
X142206612Y-64074500D01*
X142252968Y-64079065D01*
G37*
G36*
X140030468Y-64079065D02*
G01*
X140069138Y-64090796D01*
X140104777Y-64109846D01*
X140136017Y-64135483D01*
X140161654Y-64166723D01*
X140180704Y-64202362D01*
X140192435Y-64241032D01*
X140197000Y-64287388D01*
X140197000Y-64938612D01*
X140192435Y-64984968D01*
X140180704Y-65023638D01*
X140161654Y-65059277D01*
X140136017Y-65090517D01*
X140104777Y-65116154D01*
X140069138Y-65135204D01*
X140030468Y-65146935D01*
X139984112Y-65151500D01*
X138907888Y-65151500D01*
X138861532Y-65146935D01*
X138822862Y-65135204D01*
X138787223Y-65116154D01*
X138755983Y-65090517D01*
X138730346Y-65059277D01*
X138711296Y-65023638D01*
X138699565Y-64984968D01*
X138695000Y-64938612D01*
X138695000Y-64287388D01*
X138699565Y-64241032D01*
X138711296Y-64202362D01*
X138730346Y-64166723D01*
X138755983Y-64135483D01*
X138787223Y-64109846D01*
X138822862Y-64090796D01*
X138861532Y-64079065D01*
X138907888Y-64074500D01*
X139984112Y-64074500D01*
X140030468Y-64079065D01*
G37*
G36*
X146929968Y-62182065D02*
G01*
X146968638Y-62193796D01*
X147004277Y-62212846D01*
X147035517Y-62238483D01*
X147061154Y-62269723D01*
X147080204Y-62305362D01*
X147091935Y-62344032D01*
X147096500Y-62390388D01*
X147096500Y-63466612D01*
X147091935Y-63512968D01*
X147080204Y-63551638D01*
X147061154Y-63587277D01*
X147035517Y-63618517D01*
X147004277Y-63644154D01*
X146968638Y-63663204D01*
X146929968Y-63674935D01*
X146883612Y-63679500D01*
X146232388Y-63679500D01*
X146186032Y-63674935D01*
X146147362Y-63663204D01*
X146111723Y-63644154D01*
X146080483Y-63618517D01*
X146054846Y-63587277D01*
X146035796Y-63551638D01*
X146024065Y-63512968D01*
X146019500Y-63466612D01*
X146019500Y-62390388D01*
X146024065Y-62344032D01*
X146035796Y-62305362D01*
X146054846Y-62269723D01*
X146080483Y-62238483D01*
X146111723Y-62212846D01*
X146147362Y-62193796D01*
X146186032Y-62182065D01*
X146232388Y-62177500D01*
X146883612Y-62177500D01*
X146929968Y-62182065D01*
G37*
G36*
X145054968Y-62182065D02*
G01*
X145093638Y-62193796D01*
X145129277Y-62212846D01*
X145160517Y-62238483D01*
X145186154Y-62269723D01*
X145205204Y-62305362D01*
X145216935Y-62344032D01*
X145221500Y-62390388D01*
X145221500Y-63466612D01*
X145216935Y-63512968D01*
X145205204Y-63551638D01*
X145186154Y-63587277D01*
X145160517Y-63618517D01*
X145129277Y-63644154D01*
X145093638Y-63663204D01*
X145054968Y-63674935D01*
X145008612Y-63679500D01*
X144357388Y-63679500D01*
X144311032Y-63674935D01*
X144272362Y-63663204D01*
X144236723Y-63644154D01*
X144205483Y-63618517D01*
X144179846Y-63587277D01*
X144160796Y-63551638D01*
X144149065Y-63512968D01*
X144144500Y-63466612D01*
X144144500Y-62390388D01*
X144149065Y-62344032D01*
X144160796Y-62305362D01*
X144179846Y-62269723D01*
X144205483Y-62238483D01*
X144236723Y-62212846D01*
X144272362Y-62193796D01*
X144311032Y-62182065D01*
X144357388Y-62177500D01*
X145008612Y-62177500D01*
X145054968Y-62182065D01*
G37*
G36*
X149047468Y-62204065D02*
G01*
X149086138Y-62215796D01*
X149121777Y-62234846D01*
X149153017Y-62260483D01*
X149178654Y-62291723D01*
X149197704Y-62327362D01*
X149209435Y-62366032D01*
X149214000Y-62412388D01*
X149214000Y-63063612D01*
X149209435Y-63109968D01*
X149197704Y-63148638D01*
X149178654Y-63184277D01*
X149153017Y-63215517D01*
X149121777Y-63241154D01*
X149086138Y-63260204D01*
X149047468Y-63271935D01*
X149001112Y-63276500D01*
X147924888Y-63276500D01*
X147878532Y-63271935D01*
X147839862Y-63260204D01*
X147804223Y-63241154D01*
X147772983Y-63215517D01*
X147747346Y-63184277D01*
X147728296Y-63148638D01*
X147716565Y-63109968D01*
X147712000Y-63063612D01*
X147712000Y-62412388D01*
X147716565Y-62366032D01*
X147728296Y-62327362D01*
X147747346Y-62291723D01*
X147772983Y-62260483D01*
X147804223Y-62234846D01*
X147839862Y-62215796D01*
X147878532Y-62204065D01*
X147924888Y-62199500D01*
X149001112Y-62199500D01*
X149047468Y-62204065D01*
G37*
G36*
X140030468Y-62204065D02*
G01*
X140069138Y-62215796D01*
X140104777Y-62234846D01*
X140136017Y-62260483D01*
X140161654Y-62291723D01*
X140180704Y-62327362D01*
X140192435Y-62366032D01*
X140197000Y-62412388D01*
X140197000Y-63063612D01*
X140192435Y-63109968D01*
X140180704Y-63148638D01*
X140161654Y-63184277D01*
X140136017Y-63215517D01*
X140104777Y-63241154D01*
X140069138Y-63260204D01*
X140030468Y-63271935D01*
X139984112Y-63276500D01*
X138907888Y-63276500D01*
X138861532Y-63271935D01*
X138822862Y-63260204D01*
X138787223Y-63241154D01*
X138755983Y-63215517D01*
X138730346Y-63184277D01*
X138711296Y-63148638D01*
X138699565Y-63109968D01*
X138695000Y-63063612D01*
X138695000Y-62412388D01*
X138699565Y-62366032D01*
X138711296Y-62327362D01*
X138730346Y-62291723D01*
X138755983Y-62260483D01*
X138787223Y-62234846D01*
X138822862Y-62215796D01*
X138861532Y-62204065D01*
X138907888Y-62199500D01*
X139984112Y-62199500D01*
X140030468Y-62204065D01*
G37*
G36*
X142252968Y-62204065D02*
G01*
X142291638Y-62215796D01*
X142327277Y-62234846D01*
X142358517Y-62260483D01*
X142384154Y-62291723D01*
X142403204Y-62327362D01*
X142414935Y-62366032D01*
X142419500Y-62412388D01*
X142419500Y-63063612D01*
X142414935Y-63109968D01*
X142403204Y-63148638D01*
X142384154Y-63184277D01*
X142358517Y-63215517D01*
X142327277Y-63241154D01*
X142291638Y-63260204D01*
X142252968Y-63271935D01*
X142206612Y-63276500D01*
X141130388Y-63276500D01*
X141084032Y-63271935D01*
X141045362Y-63260204D01*
X141009723Y-63241154D01*
X140978483Y-63215517D01*
X140952846Y-63184277D01*
X140933796Y-63148638D01*
X140922065Y-63109968D01*
X140917500Y-63063612D01*
X140917500Y-62412388D01*
X140922065Y-62366032D01*
X140933796Y-62327362D01*
X140952846Y-62291723D01*
X140978483Y-62260483D01*
X141009723Y-62234846D01*
X141045362Y-62215796D01*
X141084032Y-62204065D01*
X141130388Y-62199500D01*
X142206612Y-62199500D01*
X142252968Y-62204065D01*
G37*
G36*
X140584468Y-59903565D02*
G01*
X140623138Y-59915296D01*
X140658777Y-59934346D01*
X140690017Y-59959983D01*
X140715654Y-59991223D01*
X140734704Y-60026862D01*
X140746435Y-60065532D01*
X140751000Y-60111888D01*
X140751000Y-60763112D01*
X140746435Y-60809468D01*
X140734704Y-60848138D01*
X140715654Y-60883777D01*
X140690017Y-60915017D01*
X140658777Y-60940654D01*
X140623138Y-60959704D01*
X140584468Y-60971435D01*
X140538112Y-60976000D01*
X139461888Y-60976000D01*
X139415532Y-60971435D01*
X139376862Y-60959704D01*
X139341223Y-60940654D01*
X139309983Y-60915017D01*
X139284346Y-60883777D01*
X139265296Y-60848138D01*
X139253565Y-60809468D01*
X139249000Y-60763112D01*
X139249000Y-60111888D01*
X139253565Y-60065532D01*
X139265296Y-60026862D01*
X139284346Y-59991223D01*
X139309983Y-59959983D01*
X139341223Y-59934346D01*
X139376862Y-59915296D01*
X139415532Y-59903565D01*
X139461888Y-59899000D01*
X140538112Y-59899000D01*
X140584468Y-59903565D01*
G37*
G36*
X144773000Y-60961500D02*
G01*
X143771000Y-60961500D01*
X143771000Y-60059500D01*
X144773000Y-60059500D01*
X144773000Y-60961500D01*
G37*
G36*
X149181000Y-60876000D02*
G01*
X148019000Y-60876000D01*
X148019000Y-58224000D01*
X149181000Y-58224000D01*
X149181000Y-60876000D01*
G37*
G36*
X146981000Y-60876000D02*
G01*
X145819000Y-60876000D01*
X145819000Y-60124000D01*
X146981000Y-60124000D01*
X146981000Y-60876000D01*
G37*
G36*
X142773000Y-60011500D02*
G01*
X141771000Y-60011500D01*
X141771000Y-59109500D01*
X142773000Y-59109500D01*
X142773000Y-60011500D01*
G37*
G36*
X140584468Y-58028565D02*
G01*
X140623138Y-58040296D01*
X140658777Y-58059346D01*
X140690017Y-58084983D01*
X140715654Y-58116223D01*
X140734704Y-58151862D01*
X140746435Y-58190532D01*
X140751000Y-58236888D01*
X140751000Y-58888112D01*
X140746435Y-58934468D01*
X140734704Y-58973138D01*
X140715654Y-59008777D01*
X140690017Y-59040017D01*
X140658777Y-59065654D01*
X140623138Y-59084704D01*
X140584468Y-59096435D01*
X140538112Y-59101000D01*
X139461888Y-59101000D01*
X139415532Y-59096435D01*
X139376862Y-59084704D01*
X139341223Y-59065654D01*
X139309983Y-59040017D01*
X139284346Y-59008777D01*
X139265296Y-58973138D01*
X139253565Y-58934468D01*
X139249000Y-58888112D01*
X139249000Y-58236888D01*
X139253565Y-58190532D01*
X139265296Y-58151862D01*
X139284346Y-58116223D01*
X139309983Y-58084983D01*
X139341223Y-58059346D01*
X139376862Y-58040296D01*
X139415532Y-58028565D01*
X139461888Y-58024000D01*
X140538112Y-58024000D01*
X140584468Y-58028565D01*
G37*
G36*
X144773000Y-59061500D02*
G01*
X143771000Y-59061500D01*
X143771000Y-58159500D01*
X144773000Y-58159500D01*
X144773000Y-59061500D01*
G37*
G36*
X146981000Y-58976000D02*
G01*
X145819000Y-58976000D01*
X145819000Y-58224000D01*
X146981000Y-58224000D01*
X146981000Y-58976000D01*
G37*
M02*
