G04 #@! TF.GenerationSoftware,KiCad,Pcbnew,(5.1.5)-3*
G04 #@! TF.CreationDate,2020-12-30T13:43:28+10:30*
G04 #@! TF.ProjectId,HallSingle,48616c6c-5369-46e6-976c-652e6b696361,rev?*
G04 #@! TF.SameCoordinates,Original*
G04 #@! TF.FileFunction,Copper,L1,Top*
G04 #@! TF.FilePolarity,Positive*
%FSLAX46Y46*%
G04 Gerber Fmt 4.6, Leading zero omitted, Abs format (unit mm)*
G04 Created by KiCad (PCBNEW (5.1.5)-3) date 2020-12-30 13:43:28*
%MOMM*%
%LPD*%
G04 APERTURE LIST*
%ADD10R,1.060000X0.650000*%
%ADD11R,0.900000X0.800000*%
%ADD12C,1.524000*%
%ADD13C,0.100000*%
%ADD14O,1.700000X1.700000*%
%ADD15R,1.700000X1.700000*%
%ADD16C,0.800000*%
%ADD17C,0.609600*%
%ADD18C,0.304800*%
%ADD19C,0.254000*%
G04 APERTURE END LIST*
D10*
X148653500Y-58613000D03*
X148653500Y-60513000D03*
X146453500Y-60513000D03*
X146453500Y-59563000D03*
X146453500Y-58613000D03*
D11*
X142272000Y-59560500D03*
X144272000Y-58610500D03*
X144272000Y-60510500D03*
D12*
X142000000Y-81500000D03*
X144500000Y-79000000D03*
X142000000Y-76500000D03*
G04 #@! TA.AperFunction,SMDPad,CuDef*
D13*
G36*
X142148642Y-64126674D02*
G01*
X142172303Y-64130184D01*
X142195507Y-64135996D01*
X142218029Y-64144054D01*
X142239653Y-64154282D01*
X142260170Y-64166579D01*
X142279383Y-64180829D01*
X142297107Y-64196893D01*
X142313171Y-64214617D01*
X142327421Y-64233830D01*
X142339718Y-64254347D01*
X142349946Y-64275971D01*
X142358004Y-64298493D01*
X142363816Y-64321697D01*
X142367326Y-64345358D01*
X142368500Y-64369250D01*
X142368500Y-64856750D01*
X142367326Y-64880642D01*
X142363816Y-64904303D01*
X142358004Y-64927507D01*
X142349946Y-64950029D01*
X142339718Y-64971653D01*
X142327421Y-64992170D01*
X142313171Y-65011383D01*
X142297107Y-65029107D01*
X142279383Y-65045171D01*
X142260170Y-65059421D01*
X142239653Y-65071718D01*
X142218029Y-65081946D01*
X142195507Y-65090004D01*
X142172303Y-65095816D01*
X142148642Y-65099326D01*
X142124750Y-65100500D01*
X141212250Y-65100500D01*
X141188358Y-65099326D01*
X141164697Y-65095816D01*
X141141493Y-65090004D01*
X141118971Y-65081946D01*
X141097347Y-65071718D01*
X141076830Y-65059421D01*
X141057617Y-65045171D01*
X141039893Y-65029107D01*
X141023829Y-65011383D01*
X141009579Y-64992170D01*
X140997282Y-64971653D01*
X140987054Y-64950029D01*
X140978996Y-64927507D01*
X140973184Y-64904303D01*
X140969674Y-64880642D01*
X140968500Y-64856750D01*
X140968500Y-64369250D01*
X140969674Y-64345358D01*
X140973184Y-64321697D01*
X140978996Y-64298493D01*
X140987054Y-64275971D01*
X140997282Y-64254347D01*
X141009579Y-64233830D01*
X141023829Y-64214617D01*
X141039893Y-64196893D01*
X141057617Y-64180829D01*
X141076830Y-64166579D01*
X141097347Y-64154282D01*
X141118971Y-64144054D01*
X141141493Y-64135996D01*
X141164697Y-64130184D01*
X141188358Y-64126674D01*
X141212250Y-64125500D01*
X142124750Y-64125500D01*
X142148642Y-64126674D01*
G37*
G04 #@! TD.AperFunction*
G04 #@! TA.AperFunction,SMDPad,CuDef*
G36*
X142148642Y-62251674D02*
G01*
X142172303Y-62255184D01*
X142195507Y-62260996D01*
X142218029Y-62269054D01*
X142239653Y-62279282D01*
X142260170Y-62291579D01*
X142279383Y-62305829D01*
X142297107Y-62321893D01*
X142313171Y-62339617D01*
X142327421Y-62358830D01*
X142339718Y-62379347D01*
X142349946Y-62400971D01*
X142358004Y-62423493D01*
X142363816Y-62446697D01*
X142367326Y-62470358D01*
X142368500Y-62494250D01*
X142368500Y-62981750D01*
X142367326Y-63005642D01*
X142363816Y-63029303D01*
X142358004Y-63052507D01*
X142349946Y-63075029D01*
X142339718Y-63096653D01*
X142327421Y-63117170D01*
X142313171Y-63136383D01*
X142297107Y-63154107D01*
X142279383Y-63170171D01*
X142260170Y-63184421D01*
X142239653Y-63196718D01*
X142218029Y-63206946D01*
X142195507Y-63215004D01*
X142172303Y-63220816D01*
X142148642Y-63224326D01*
X142124750Y-63225500D01*
X141212250Y-63225500D01*
X141188358Y-63224326D01*
X141164697Y-63220816D01*
X141141493Y-63215004D01*
X141118971Y-63206946D01*
X141097347Y-63196718D01*
X141076830Y-63184421D01*
X141057617Y-63170171D01*
X141039893Y-63154107D01*
X141023829Y-63136383D01*
X141009579Y-63117170D01*
X140997282Y-63096653D01*
X140987054Y-63075029D01*
X140978996Y-63052507D01*
X140973184Y-63029303D01*
X140969674Y-63005642D01*
X140968500Y-62981750D01*
X140968500Y-62494250D01*
X140969674Y-62470358D01*
X140973184Y-62446697D01*
X140978996Y-62423493D01*
X140987054Y-62400971D01*
X140997282Y-62379347D01*
X141009579Y-62358830D01*
X141023829Y-62339617D01*
X141039893Y-62321893D01*
X141057617Y-62305829D01*
X141076830Y-62291579D01*
X141097347Y-62279282D01*
X141118971Y-62269054D01*
X141141493Y-62260996D01*
X141164697Y-62255184D01*
X141188358Y-62251674D01*
X141212250Y-62250500D01*
X142124750Y-62250500D01*
X142148642Y-62251674D01*
G37*
G04 #@! TD.AperFunction*
G04 #@! TA.AperFunction,SMDPad,CuDef*
G36*
X144950642Y-62229674D02*
G01*
X144974303Y-62233184D01*
X144997507Y-62238996D01*
X145020029Y-62247054D01*
X145041653Y-62257282D01*
X145062170Y-62269579D01*
X145081383Y-62283829D01*
X145099107Y-62299893D01*
X145115171Y-62317617D01*
X145129421Y-62336830D01*
X145141718Y-62357347D01*
X145151946Y-62378971D01*
X145160004Y-62401493D01*
X145165816Y-62424697D01*
X145169326Y-62448358D01*
X145170500Y-62472250D01*
X145170500Y-63384750D01*
X145169326Y-63408642D01*
X145165816Y-63432303D01*
X145160004Y-63455507D01*
X145151946Y-63478029D01*
X145141718Y-63499653D01*
X145129421Y-63520170D01*
X145115171Y-63539383D01*
X145099107Y-63557107D01*
X145081383Y-63573171D01*
X145062170Y-63587421D01*
X145041653Y-63599718D01*
X145020029Y-63609946D01*
X144997507Y-63618004D01*
X144974303Y-63623816D01*
X144950642Y-63627326D01*
X144926750Y-63628500D01*
X144439250Y-63628500D01*
X144415358Y-63627326D01*
X144391697Y-63623816D01*
X144368493Y-63618004D01*
X144345971Y-63609946D01*
X144324347Y-63599718D01*
X144303830Y-63587421D01*
X144284617Y-63573171D01*
X144266893Y-63557107D01*
X144250829Y-63539383D01*
X144236579Y-63520170D01*
X144224282Y-63499653D01*
X144214054Y-63478029D01*
X144205996Y-63455507D01*
X144200184Y-63432303D01*
X144196674Y-63408642D01*
X144195500Y-63384750D01*
X144195500Y-62472250D01*
X144196674Y-62448358D01*
X144200184Y-62424697D01*
X144205996Y-62401493D01*
X144214054Y-62378971D01*
X144224282Y-62357347D01*
X144236579Y-62336830D01*
X144250829Y-62317617D01*
X144266893Y-62299893D01*
X144284617Y-62283829D01*
X144303830Y-62269579D01*
X144324347Y-62257282D01*
X144345971Y-62247054D01*
X144368493Y-62238996D01*
X144391697Y-62233184D01*
X144415358Y-62229674D01*
X144439250Y-62228500D01*
X144926750Y-62228500D01*
X144950642Y-62229674D01*
G37*
G04 #@! TD.AperFunction*
G04 #@! TA.AperFunction,SMDPad,CuDef*
G36*
X146825642Y-62229674D02*
G01*
X146849303Y-62233184D01*
X146872507Y-62238996D01*
X146895029Y-62247054D01*
X146916653Y-62257282D01*
X146937170Y-62269579D01*
X146956383Y-62283829D01*
X146974107Y-62299893D01*
X146990171Y-62317617D01*
X147004421Y-62336830D01*
X147016718Y-62357347D01*
X147026946Y-62378971D01*
X147035004Y-62401493D01*
X147040816Y-62424697D01*
X147044326Y-62448358D01*
X147045500Y-62472250D01*
X147045500Y-63384750D01*
X147044326Y-63408642D01*
X147040816Y-63432303D01*
X147035004Y-63455507D01*
X147026946Y-63478029D01*
X147016718Y-63499653D01*
X147004421Y-63520170D01*
X146990171Y-63539383D01*
X146974107Y-63557107D01*
X146956383Y-63573171D01*
X146937170Y-63587421D01*
X146916653Y-63599718D01*
X146895029Y-63609946D01*
X146872507Y-63618004D01*
X146849303Y-63623816D01*
X146825642Y-63627326D01*
X146801750Y-63628500D01*
X146314250Y-63628500D01*
X146290358Y-63627326D01*
X146266697Y-63623816D01*
X146243493Y-63618004D01*
X146220971Y-63609946D01*
X146199347Y-63599718D01*
X146178830Y-63587421D01*
X146159617Y-63573171D01*
X146141893Y-63557107D01*
X146125829Y-63539383D01*
X146111579Y-63520170D01*
X146099282Y-63499653D01*
X146089054Y-63478029D01*
X146080996Y-63455507D01*
X146075184Y-63432303D01*
X146071674Y-63408642D01*
X146070500Y-63384750D01*
X146070500Y-62472250D01*
X146071674Y-62448358D01*
X146075184Y-62424697D01*
X146080996Y-62401493D01*
X146089054Y-62378971D01*
X146099282Y-62357347D01*
X146111579Y-62336830D01*
X146125829Y-62317617D01*
X146141893Y-62299893D01*
X146159617Y-62283829D01*
X146178830Y-62269579D01*
X146199347Y-62257282D01*
X146220971Y-62247054D01*
X146243493Y-62238996D01*
X146266697Y-62233184D01*
X146290358Y-62229674D01*
X146314250Y-62228500D01*
X146801750Y-62228500D01*
X146825642Y-62229674D01*
G37*
G04 #@! TD.AperFunction*
G04 #@! TA.AperFunction,SMDPad,CuDef*
G36*
X148943142Y-62251674D02*
G01*
X148966803Y-62255184D01*
X148990007Y-62260996D01*
X149012529Y-62269054D01*
X149034153Y-62279282D01*
X149054670Y-62291579D01*
X149073883Y-62305829D01*
X149091607Y-62321893D01*
X149107671Y-62339617D01*
X149121921Y-62358830D01*
X149134218Y-62379347D01*
X149144446Y-62400971D01*
X149152504Y-62423493D01*
X149158316Y-62446697D01*
X149161826Y-62470358D01*
X149163000Y-62494250D01*
X149163000Y-62981750D01*
X149161826Y-63005642D01*
X149158316Y-63029303D01*
X149152504Y-63052507D01*
X149144446Y-63075029D01*
X149134218Y-63096653D01*
X149121921Y-63117170D01*
X149107671Y-63136383D01*
X149091607Y-63154107D01*
X149073883Y-63170171D01*
X149054670Y-63184421D01*
X149034153Y-63196718D01*
X149012529Y-63206946D01*
X148990007Y-63215004D01*
X148966803Y-63220816D01*
X148943142Y-63224326D01*
X148919250Y-63225500D01*
X148006750Y-63225500D01*
X147982858Y-63224326D01*
X147959197Y-63220816D01*
X147935993Y-63215004D01*
X147913471Y-63206946D01*
X147891847Y-63196718D01*
X147871330Y-63184421D01*
X147852117Y-63170171D01*
X147834393Y-63154107D01*
X147818329Y-63136383D01*
X147804079Y-63117170D01*
X147791782Y-63096653D01*
X147781554Y-63075029D01*
X147773496Y-63052507D01*
X147767684Y-63029303D01*
X147764174Y-63005642D01*
X147763000Y-62981750D01*
X147763000Y-62494250D01*
X147764174Y-62470358D01*
X147767684Y-62446697D01*
X147773496Y-62423493D01*
X147781554Y-62400971D01*
X147791782Y-62379347D01*
X147804079Y-62358830D01*
X147818329Y-62339617D01*
X147834393Y-62321893D01*
X147852117Y-62305829D01*
X147871330Y-62291579D01*
X147891847Y-62279282D01*
X147913471Y-62269054D01*
X147935993Y-62260996D01*
X147959197Y-62255184D01*
X147982858Y-62251674D01*
X148006750Y-62250500D01*
X148919250Y-62250500D01*
X148943142Y-62251674D01*
G37*
G04 #@! TD.AperFunction*
G04 #@! TA.AperFunction,SMDPad,CuDef*
G36*
X148943142Y-64126674D02*
G01*
X148966803Y-64130184D01*
X148990007Y-64135996D01*
X149012529Y-64144054D01*
X149034153Y-64154282D01*
X149054670Y-64166579D01*
X149073883Y-64180829D01*
X149091607Y-64196893D01*
X149107671Y-64214617D01*
X149121921Y-64233830D01*
X149134218Y-64254347D01*
X149144446Y-64275971D01*
X149152504Y-64298493D01*
X149158316Y-64321697D01*
X149161826Y-64345358D01*
X149163000Y-64369250D01*
X149163000Y-64856750D01*
X149161826Y-64880642D01*
X149158316Y-64904303D01*
X149152504Y-64927507D01*
X149144446Y-64950029D01*
X149134218Y-64971653D01*
X149121921Y-64992170D01*
X149107671Y-65011383D01*
X149091607Y-65029107D01*
X149073883Y-65045171D01*
X149054670Y-65059421D01*
X149034153Y-65071718D01*
X149012529Y-65081946D01*
X148990007Y-65090004D01*
X148966803Y-65095816D01*
X148943142Y-65099326D01*
X148919250Y-65100500D01*
X148006750Y-65100500D01*
X147982858Y-65099326D01*
X147959197Y-65095816D01*
X147935993Y-65090004D01*
X147913471Y-65081946D01*
X147891847Y-65071718D01*
X147871330Y-65059421D01*
X147852117Y-65045171D01*
X147834393Y-65029107D01*
X147818329Y-65011383D01*
X147804079Y-64992170D01*
X147791782Y-64971653D01*
X147781554Y-64950029D01*
X147773496Y-64927507D01*
X147767684Y-64904303D01*
X147764174Y-64880642D01*
X147763000Y-64856750D01*
X147763000Y-64369250D01*
X147764174Y-64345358D01*
X147767684Y-64321697D01*
X147773496Y-64298493D01*
X147781554Y-64275971D01*
X147791782Y-64254347D01*
X147804079Y-64233830D01*
X147818329Y-64214617D01*
X147834393Y-64196893D01*
X147852117Y-64180829D01*
X147871330Y-64166579D01*
X147891847Y-64154282D01*
X147913471Y-64144054D01*
X147935993Y-64135996D01*
X147959197Y-64130184D01*
X147982858Y-64126674D01*
X148006750Y-64125500D01*
X148919250Y-64125500D01*
X148943142Y-64126674D01*
G37*
G04 #@! TD.AperFunction*
D14*
X148000000Y-75920000D03*
X148000000Y-78460000D03*
D15*
X148000000Y-81000000D03*
G04 #@! TA.AperFunction,SMDPad,CuDef*
D13*
G36*
X140480142Y-58076174D02*
G01*
X140503803Y-58079684D01*
X140527007Y-58085496D01*
X140549529Y-58093554D01*
X140571153Y-58103782D01*
X140591670Y-58116079D01*
X140610883Y-58130329D01*
X140628607Y-58146393D01*
X140644671Y-58164117D01*
X140658921Y-58183330D01*
X140671218Y-58203847D01*
X140681446Y-58225471D01*
X140689504Y-58247993D01*
X140695316Y-58271197D01*
X140698826Y-58294858D01*
X140700000Y-58318750D01*
X140700000Y-58806250D01*
X140698826Y-58830142D01*
X140695316Y-58853803D01*
X140689504Y-58877007D01*
X140681446Y-58899529D01*
X140671218Y-58921153D01*
X140658921Y-58941670D01*
X140644671Y-58960883D01*
X140628607Y-58978607D01*
X140610883Y-58994671D01*
X140591670Y-59008921D01*
X140571153Y-59021218D01*
X140549529Y-59031446D01*
X140527007Y-59039504D01*
X140503803Y-59045316D01*
X140480142Y-59048826D01*
X140456250Y-59050000D01*
X139543750Y-59050000D01*
X139519858Y-59048826D01*
X139496197Y-59045316D01*
X139472993Y-59039504D01*
X139450471Y-59031446D01*
X139428847Y-59021218D01*
X139408330Y-59008921D01*
X139389117Y-58994671D01*
X139371393Y-58978607D01*
X139355329Y-58960883D01*
X139341079Y-58941670D01*
X139328782Y-58921153D01*
X139318554Y-58899529D01*
X139310496Y-58877007D01*
X139304684Y-58853803D01*
X139301174Y-58830142D01*
X139300000Y-58806250D01*
X139300000Y-58318750D01*
X139301174Y-58294858D01*
X139304684Y-58271197D01*
X139310496Y-58247993D01*
X139318554Y-58225471D01*
X139328782Y-58203847D01*
X139341079Y-58183330D01*
X139355329Y-58164117D01*
X139371393Y-58146393D01*
X139389117Y-58130329D01*
X139408330Y-58116079D01*
X139428847Y-58103782D01*
X139450471Y-58093554D01*
X139472993Y-58085496D01*
X139496197Y-58079684D01*
X139519858Y-58076174D01*
X139543750Y-58075000D01*
X140456250Y-58075000D01*
X140480142Y-58076174D01*
G37*
G04 #@! TD.AperFunction*
G04 #@! TA.AperFunction,SMDPad,CuDef*
G36*
X140480142Y-59951174D02*
G01*
X140503803Y-59954684D01*
X140527007Y-59960496D01*
X140549529Y-59968554D01*
X140571153Y-59978782D01*
X140591670Y-59991079D01*
X140610883Y-60005329D01*
X140628607Y-60021393D01*
X140644671Y-60039117D01*
X140658921Y-60058330D01*
X140671218Y-60078847D01*
X140681446Y-60100471D01*
X140689504Y-60122993D01*
X140695316Y-60146197D01*
X140698826Y-60169858D01*
X140700000Y-60193750D01*
X140700000Y-60681250D01*
X140698826Y-60705142D01*
X140695316Y-60728803D01*
X140689504Y-60752007D01*
X140681446Y-60774529D01*
X140671218Y-60796153D01*
X140658921Y-60816670D01*
X140644671Y-60835883D01*
X140628607Y-60853607D01*
X140610883Y-60869671D01*
X140591670Y-60883921D01*
X140571153Y-60896218D01*
X140549529Y-60906446D01*
X140527007Y-60914504D01*
X140503803Y-60920316D01*
X140480142Y-60923826D01*
X140456250Y-60925000D01*
X139543750Y-60925000D01*
X139519858Y-60923826D01*
X139496197Y-60920316D01*
X139472993Y-60914504D01*
X139450471Y-60906446D01*
X139428847Y-60896218D01*
X139408330Y-60883921D01*
X139389117Y-60869671D01*
X139371393Y-60853607D01*
X139355329Y-60835883D01*
X139341079Y-60816670D01*
X139328782Y-60796153D01*
X139318554Y-60774529D01*
X139310496Y-60752007D01*
X139304684Y-60728803D01*
X139301174Y-60705142D01*
X139300000Y-60681250D01*
X139300000Y-60193750D01*
X139301174Y-60169858D01*
X139304684Y-60146197D01*
X139310496Y-60122993D01*
X139318554Y-60100471D01*
X139328782Y-60078847D01*
X139341079Y-60058330D01*
X139355329Y-60039117D01*
X139371393Y-60021393D01*
X139389117Y-60005329D01*
X139408330Y-59991079D01*
X139428847Y-59978782D01*
X139450471Y-59968554D01*
X139472993Y-59960496D01*
X139496197Y-59954684D01*
X139519858Y-59951174D01*
X139543750Y-59950000D01*
X140456250Y-59950000D01*
X140480142Y-59951174D01*
G37*
G04 #@! TD.AperFunction*
G04 #@! TA.AperFunction,SMDPad,CuDef*
G36*
X139926142Y-64126674D02*
G01*
X139949803Y-64130184D01*
X139973007Y-64135996D01*
X139995529Y-64144054D01*
X140017153Y-64154282D01*
X140037670Y-64166579D01*
X140056883Y-64180829D01*
X140074607Y-64196893D01*
X140090671Y-64214617D01*
X140104921Y-64233830D01*
X140117218Y-64254347D01*
X140127446Y-64275971D01*
X140135504Y-64298493D01*
X140141316Y-64321697D01*
X140144826Y-64345358D01*
X140146000Y-64369250D01*
X140146000Y-64856750D01*
X140144826Y-64880642D01*
X140141316Y-64904303D01*
X140135504Y-64927507D01*
X140127446Y-64950029D01*
X140117218Y-64971653D01*
X140104921Y-64992170D01*
X140090671Y-65011383D01*
X140074607Y-65029107D01*
X140056883Y-65045171D01*
X140037670Y-65059421D01*
X140017153Y-65071718D01*
X139995529Y-65081946D01*
X139973007Y-65090004D01*
X139949803Y-65095816D01*
X139926142Y-65099326D01*
X139902250Y-65100500D01*
X138989750Y-65100500D01*
X138965858Y-65099326D01*
X138942197Y-65095816D01*
X138918993Y-65090004D01*
X138896471Y-65081946D01*
X138874847Y-65071718D01*
X138854330Y-65059421D01*
X138835117Y-65045171D01*
X138817393Y-65029107D01*
X138801329Y-65011383D01*
X138787079Y-64992170D01*
X138774782Y-64971653D01*
X138764554Y-64950029D01*
X138756496Y-64927507D01*
X138750684Y-64904303D01*
X138747174Y-64880642D01*
X138746000Y-64856750D01*
X138746000Y-64369250D01*
X138747174Y-64345358D01*
X138750684Y-64321697D01*
X138756496Y-64298493D01*
X138764554Y-64275971D01*
X138774782Y-64254347D01*
X138787079Y-64233830D01*
X138801329Y-64214617D01*
X138817393Y-64196893D01*
X138835117Y-64180829D01*
X138854330Y-64166579D01*
X138874847Y-64154282D01*
X138896471Y-64144054D01*
X138918993Y-64135996D01*
X138942197Y-64130184D01*
X138965858Y-64126674D01*
X138989750Y-64125500D01*
X139902250Y-64125500D01*
X139926142Y-64126674D01*
G37*
G04 #@! TD.AperFunction*
G04 #@! TA.AperFunction,SMDPad,CuDef*
G36*
X139926142Y-62251674D02*
G01*
X139949803Y-62255184D01*
X139973007Y-62260996D01*
X139995529Y-62269054D01*
X140017153Y-62279282D01*
X140037670Y-62291579D01*
X140056883Y-62305829D01*
X140074607Y-62321893D01*
X140090671Y-62339617D01*
X140104921Y-62358830D01*
X140117218Y-62379347D01*
X140127446Y-62400971D01*
X140135504Y-62423493D01*
X140141316Y-62446697D01*
X140144826Y-62470358D01*
X140146000Y-62494250D01*
X140146000Y-62981750D01*
X140144826Y-63005642D01*
X140141316Y-63029303D01*
X140135504Y-63052507D01*
X140127446Y-63075029D01*
X140117218Y-63096653D01*
X140104921Y-63117170D01*
X140090671Y-63136383D01*
X140074607Y-63154107D01*
X140056883Y-63170171D01*
X140037670Y-63184421D01*
X140017153Y-63196718D01*
X139995529Y-63206946D01*
X139973007Y-63215004D01*
X139949803Y-63220816D01*
X139926142Y-63224326D01*
X139902250Y-63225500D01*
X138989750Y-63225500D01*
X138965858Y-63224326D01*
X138942197Y-63220816D01*
X138918993Y-63215004D01*
X138896471Y-63206946D01*
X138874847Y-63196718D01*
X138854330Y-63184421D01*
X138835117Y-63170171D01*
X138817393Y-63154107D01*
X138801329Y-63136383D01*
X138787079Y-63117170D01*
X138774782Y-63096653D01*
X138764554Y-63075029D01*
X138756496Y-63052507D01*
X138750684Y-63029303D01*
X138747174Y-63005642D01*
X138746000Y-62981750D01*
X138746000Y-62494250D01*
X138747174Y-62470358D01*
X138750684Y-62446697D01*
X138756496Y-62423493D01*
X138764554Y-62400971D01*
X138774782Y-62379347D01*
X138787079Y-62358830D01*
X138801329Y-62339617D01*
X138817393Y-62321893D01*
X138835117Y-62305829D01*
X138854330Y-62291579D01*
X138874847Y-62279282D01*
X138896471Y-62269054D01*
X138918993Y-62260996D01*
X138942197Y-62255184D01*
X138965858Y-62251674D01*
X138989750Y-62250500D01*
X139902250Y-62250500D01*
X139926142Y-62251674D01*
G37*
G04 #@! TD.AperFunction*
G04 #@! TA.AperFunction,SMDPad,CuDef*
G36*
X144950642Y-64261674D02*
G01*
X144974303Y-64265184D01*
X144997507Y-64270996D01*
X145020029Y-64279054D01*
X145041653Y-64289282D01*
X145062170Y-64301579D01*
X145081383Y-64315829D01*
X145099107Y-64331893D01*
X145115171Y-64349617D01*
X145129421Y-64368830D01*
X145141718Y-64389347D01*
X145151946Y-64410971D01*
X145160004Y-64433493D01*
X145165816Y-64456697D01*
X145169326Y-64480358D01*
X145170500Y-64504250D01*
X145170500Y-65416750D01*
X145169326Y-65440642D01*
X145165816Y-65464303D01*
X145160004Y-65487507D01*
X145151946Y-65510029D01*
X145141718Y-65531653D01*
X145129421Y-65552170D01*
X145115171Y-65571383D01*
X145099107Y-65589107D01*
X145081383Y-65605171D01*
X145062170Y-65619421D01*
X145041653Y-65631718D01*
X145020029Y-65641946D01*
X144997507Y-65650004D01*
X144974303Y-65655816D01*
X144950642Y-65659326D01*
X144926750Y-65660500D01*
X144439250Y-65660500D01*
X144415358Y-65659326D01*
X144391697Y-65655816D01*
X144368493Y-65650004D01*
X144345971Y-65641946D01*
X144324347Y-65631718D01*
X144303830Y-65619421D01*
X144284617Y-65605171D01*
X144266893Y-65589107D01*
X144250829Y-65571383D01*
X144236579Y-65552170D01*
X144224282Y-65531653D01*
X144214054Y-65510029D01*
X144205996Y-65487507D01*
X144200184Y-65464303D01*
X144196674Y-65440642D01*
X144195500Y-65416750D01*
X144195500Y-64504250D01*
X144196674Y-64480358D01*
X144200184Y-64456697D01*
X144205996Y-64433493D01*
X144214054Y-64410971D01*
X144224282Y-64389347D01*
X144236579Y-64368830D01*
X144250829Y-64349617D01*
X144266893Y-64331893D01*
X144284617Y-64315829D01*
X144303830Y-64301579D01*
X144324347Y-64289282D01*
X144345971Y-64279054D01*
X144368493Y-64270996D01*
X144391697Y-64265184D01*
X144415358Y-64261674D01*
X144439250Y-64260500D01*
X144926750Y-64260500D01*
X144950642Y-64261674D01*
G37*
G04 #@! TD.AperFunction*
G04 #@! TA.AperFunction,SMDPad,CuDef*
G36*
X146825642Y-64261674D02*
G01*
X146849303Y-64265184D01*
X146872507Y-64270996D01*
X146895029Y-64279054D01*
X146916653Y-64289282D01*
X146937170Y-64301579D01*
X146956383Y-64315829D01*
X146974107Y-64331893D01*
X146990171Y-64349617D01*
X147004421Y-64368830D01*
X147016718Y-64389347D01*
X147026946Y-64410971D01*
X147035004Y-64433493D01*
X147040816Y-64456697D01*
X147044326Y-64480358D01*
X147045500Y-64504250D01*
X147045500Y-65416750D01*
X147044326Y-65440642D01*
X147040816Y-65464303D01*
X147035004Y-65487507D01*
X147026946Y-65510029D01*
X147016718Y-65531653D01*
X147004421Y-65552170D01*
X146990171Y-65571383D01*
X146974107Y-65589107D01*
X146956383Y-65605171D01*
X146937170Y-65619421D01*
X146916653Y-65631718D01*
X146895029Y-65641946D01*
X146872507Y-65650004D01*
X146849303Y-65655816D01*
X146825642Y-65659326D01*
X146801750Y-65660500D01*
X146314250Y-65660500D01*
X146290358Y-65659326D01*
X146266697Y-65655816D01*
X146243493Y-65650004D01*
X146220971Y-65641946D01*
X146199347Y-65631718D01*
X146178830Y-65619421D01*
X146159617Y-65605171D01*
X146141893Y-65589107D01*
X146125829Y-65571383D01*
X146111579Y-65552170D01*
X146099282Y-65531653D01*
X146089054Y-65510029D01*
X146080996Y-65487507D01*
X146075184Y-65464303D01*
X146071674Y-65440642D01*
X146070500Y-65416750D01*
X146070500Y-64504250D01*
X146071674Y-64480358D01*
X146075184Y-64456697D01*
X146080996Y-64433493D01*
X146089054Y-64410971D01*
X146099282Y-64389347D01*
X146111579Y-64368830D01*
X146125829Y-64349617D01*
X146141893Y-64331893D01*
X146159617Y-64315829D01*
X146178830Y-64301579D01*
X146199347Y-64289282D01*
X146220971Y-64279054D01*
X146243493Y-64270996D01*
X146266697Y-64265184D01*
X146290358Y-64261674D01*
X146314250Y-64260500D01*
X146801750Y-64260500D01*
X146825642Y-64261674D01*
G37*
G04 #@! TD.AperFunction*
D16*
X148653500Y-58610500D03*
X139446000Y-62801500D03*
X148653500Y-60515500D03*
X139954000Y-58547000D03*
X144272000Y-60515500D03*
X141668500Y-64643000D03*
D17*
X146284000Y-59500000D02*
X146347000Y-59563000D01*
X146451000Y-59560500D02*
X146453500Y-59563000D01*
X142272000Y-59560500D02*
X146451000Y-59560500D01*
D18*
X148450000Y-62725000D02*
X148463000Y-62738000D01*
X147988500Y-62738000D02*
X148463000Y-62738000D01*
X141668500Y-62106000D02*
X140000000Y-60437500D01*
X141668500Y-62738000D02*
X141668500Y-62106000D01*
X142761999Y-77261999D02*
X144500000Y-79000000D01*
X142000000Y-76500000D02*
X142761999Y-77261999D01*
X148463000Y-70037000D02*
X148463000Y-64613000D01*
X142000000Y-76500000D02*
X148463000Y-70037000D01*
X146453500Y-62824000D02*
X146558000Y-62928500D01*
X146453500Y-60513000D02*
X146453500Y-62824000D01*
X146748500Y-62738000D02*
X146558000Y-62928500D01*
X148463000Y-62738000D02*
X146748500Y-62738000D01*
X146558000Y-64960500D02*
X146558000Y-62928500D01*
X146451000Y-58610500D02*
X146453500Y-58613000D01*
X144272000Y-58610500D02*
X146451000Y-58610500D01*
D19*
G36*
X143467506Y-57679963D02*
G01*
X143370815Y-57759315D01*
X143291463Y-57856006D01*
X143232498Y-57966320D01*
X143196188Y-58086018D01*
X143183928Y-58210500D01*
X143183928Y-58722405D01*
X143173185Y-58709315D01*
X143076494Y-58629963D01*
X142966180Y-58570998D01*
X142846482Y-58534688D01*
X142722000Y-58522428D01*
X142557750Y-58525500D01*
X142399000Y-58684250D01*
X142399000Y-59433500D01*
X143198250Y-59433500D01*
X143282857Y-59348893D01*
X143291463Y-59364994D01*
X143370815Y-59461685D01*
X143467506Y-59541037D01*
X143503918Y-59560500D01*
X143467506Y-59579963D01*
X143370815Y-59659315D01*
X143291463Y-59756006D01*
X143282857Y-59772107D01*
X143198250Y-59687500D01*
X142399000Y-59687500D01*
X142399000Y-60436750D01*
X142557750Y-60595500D01*
X142722000Y-60598572D01*
X142846482Y-60586312D01*
X142966180Y-60550002D01*
X143076494Y-60491037D01*
X143173185Y-60411685D01*
X143183928Y-60398595D01*
X143183928Y-60910500D01*
X143196188Y-61034982D01*
X143232498Y-61154680D01*
X143291463Y-61264994D01*
X143370815Y-61361685D01*
X143467506Y-61441037D01*
X143577820Y-61500002D01*
X143697518Y-61536312D01*
X143822000Y-61548572D01*
X144160368Y-61548572D01*
X144170061Y-61550500D01*
X144373939Y-61550500D01*
X144383632Y-61548572D01*
X144722000Y-61548572D01*
X144846482Y-61536312D01*
X144966180Y-61500002D01*
X145076494Y-61441037D01*
X145173185Y-61361685D01*
X145252537Y-61264994D01*
X145311502Y-61154680D01*
X145333746Y-61081350D01*
X145333998Y-61082180D01*
X145392963Y-61192494D01*
X145472315Y-61289185D01*
X145569006Y-61368537D01*
X145666100Y-61420436D01*
X145666101Y-61831436D01*
X145621685Y-61777315D01*
X145524994Y-61697963D01*
X145414680Y-61638998D01*
X145294982Y-61602688D01*
X145170500Y-61590428D01*
X144968750Y-61593500D01*
X144810000Y-61752250D01*
X144810000Y-62801500D01*
X144830000Y-62801500D01*
X144830000Y-63055500D01*
X144810000Y-63055500D01*
X144810000Y-64833500D01*
X144830000Y-64833500D01*
X144830000Y-65087500D01*
X144810000Y-65087500D01*
X144810000Y-66136750D01*
X144968750Y-66295500D01*
X145170500Y-66298572D01*
X145294982Y-66286312D01*
X145414680Y-66250002D01*
X145524994Y-66191037D01*
X145621685Y-66111685D01*
X145685492Y-66033936D01*
X145690708Y-66040292D01*
X145824336Y-66149958D01*
X145976791Y-66231447D01*
X146142215Y-66281628D01*
X146314250Y-66298572D01*
X146801750Y-66298572D01*
X146973785Y-66281628D01*
X147139209Y-66231447D01*
X147291664Y-66149958D01*
X147425292Y-66040292D01*
X147534958Y-65906664D01*
X147616447Y-65754209D01*
X147645423Y-65658689D01*
X147669291Y-65671447D01*
X147675601Y-65673361D01*
X147675600Y-69710848D01*
X142259250Y-75127199D01*
X142137592Y-75103000D01*
X141862408Y-75103000D01*
X141592510Y-75156686D01*
X141338273Y-75261995D01*
X141109465Y-75414880D01*
X140914880Y-75609465D01*
X140761995Y-75838273D01*
X140656686Y-76092510D01*
X140603000Y-76362408D01*
X140603000Y-76637592D01*
X140656686Y-76907490D01*
X140761995Y-77161727D01*
X140914880Y-77390535D01*
X141109465Y-77585120D01*
X141338273Y-77738005D01*
X141592510Y-77843314D01*
X141862408Y-77897000D01*
X142137592Y-77897000D01*
X142259251Y-77872801D01*
X143127199Y-78740750D01*
X143103000Y-78862408D01*
X143103000Y-79137592D01*
X143156686Y-79407490D01*
X143261995Y-79661727D01*
X143414880Y-79890535D01*
X143609465Y-80085120D01*
X143838273Y-80238005D01*
X144092510Y-80343314D01*
X144362408Y-80397000D01*
X144637592Y-80397000D01*
X144907490Y-80343314D01*
X145161727Y-80238005D01*
X145390535Y-80085120D01*
X145585120Y-79890535D01*
X145738005Y-79661727D01*
X145843314Y-79407490D01*
X145897000Y-79137592D01*
X145897000Y-78862408D01*
X145843314Y-78592510D01*
X145738005Y-78338273D01*
X145585120Y-78109465D01*
X145390535Y-77914880D01*
X145161727Y-77761995D01*
X144907490Y-77656686D01*
X144637592Y-77603000D01*
X144362408Y-77603000D01*
X144240750Y-77627199D01*
X143372801Y-76759251D01*
X143397000Y-76637592D01*
X143397000Y-76362408D01*
X143372801Y-76240750D01*
X148992434Y-70621118D01*
X149022469Y-70596469D01*
X149120866Y-70476572D01*
X149193982Y-70339783D01*
X149239006Y-70191357D01*
X149250400Y-70075673D01*
X149250400Y-70075664D01*
X149254208Y-70037001D01*
X149250400Y-69998338D01*
X149250400Y-65673361D01*
X149256709Y-65671447D01*
X149340000Y-65626927D01*
X149340001Y-75274556D01*
X149315990Y-75216589D01*
X149153475Y-74973368D01*
X148946632Y-74766525D01*
X148703411Y-74604010D01*
X148433158Y-74492068D01*
X148146260Y-74435000D01*
X147853740Y-74435000D01*
X147566842Y-74492068D01*
X147296589Y-74604010D01*
X147053368Y-74766525D01*
X146846525Y-74973368D01*
X146684010Y-75216589D01*
X146572068Y-75486842D01*
X146515000Y-75773740D01*
X146515000Y-76066260D01*
X146572068Y-76353158D01*
X146684010Y-76623411D01*
X146846525Y-76866632D01*
X147053368Y-77073475D01*
X147235534Y-77195195D01*
X147118645Y-77264822D01*
X146902412Y-77459731D01*
X146728359Y-77693080D01*
X146603175Y-77955901D01*
X146558524Y-78103110D01*
X146679845Y-78333000D01*
X147873000Y-78333000D01*
X147873000Y-78313000D01*
X148127000Y-78313000D01*
X148127000Y-78333000D01*
X148147000Y-78333000D01*
X148147000Y-78587000D01*
X148127000Y-78587000D01*
X148127000Y-78607000D01*
X147873000Y-78607000D01*
X147873000Y-78587000D01*
X146679845Y-78587000D01*
X146558524Y-78816890D01*
X146603175Y-78964099D01*
X146728359Y-79226920D01*
X146902412Y-79460269D01*
X146986466Y-79536034D01*
X146905820Y-79560498D01*
X146795506Y-79619463D01*
X146698815Y-79698815D01*
X146619463Y-79795506D01*
X146560498Y-79905820D01*
X146524188Y-80025518D01*
X146511928Y-80150000D01*
X146511928Y-81850000D01*
X146524188Y-81974482D01*
X146560498Y-82094180D01*
X146619463Y-82204494D01*
X146698815Y-82301185D01*
X146746111Y-82340000D01*
X143118886Y-82340000D01*
X143238005Y-82161727D01*
X143343314Y-81907490D01*
X143397000Y-81637592D01*
X143397000Y-81362408D01*
X143343314Y-81092510D01*
X143238005Y-80838273D01*
X143085120Y-80609465D01*
X142890535Y-80414880D01*
X142661727Y-80261995D01*
X142407490Y-80156686D01*
X142137592Y-80103000D01*
X141862408Y-80103000D01*
X141592510Y-80156686D01*
X141338273Y-80261995D01*
X141109465Y-80414880D01*
X140914880Y-80609465D01*
X140761995Y-80838273D01*
X140656686Y-81092510D01*
X140603000Y-81362408D01*
X140603000Y-81637592D01*
X140656686Y-81907490D01*
X140761995Y-82161727D01*
X140881114Y-82340000D01*
X139032279Y-82340000D01*
X138934576Y-82330420D01*
X138871643Y-82311420D01*
X138813594Y-82280554D01*
X138762657Y-82239011D01*
X138720752Y-82188356D01*
X138689485Y-82130529D01*
X138670044Y-82067728D01*
X138660000Y-81972165D01*
X138660000Y-68756917D01*
X141531942Y-68756917D01*
X141531942Y-69243083D01*
X141626788Y-69719906D01*
X141812835Y-70169064D01*
X142082934Y-70573295D01*
X142426705Y-70917066D01*
X142830936Y-71187165D01*
X143280094Y-71373212D01*
X143756917Y-71468058D01*
X144243083Y-71468058D01*
X144719906Y-71373212D01*
X145169064Y-71187165D01*
X145573295Y-70917066D01*
X145917066Y-70573295D01*
X146187165Y-70169064D01*
X146373212Y-69719906D01*
X146468058Y-69243083D01*
X146468058Y-68756917D01*
X146373212Y-68280094D01*
X146187165Y-67830936D01*
X145917066Y-67426705D01*
X145573295Y-67082934D01*
X145169064Y-66812835D01*
X144719906Y-66626788D01*
X144243083Y-66531942D01*
X143756917Y-66531942D01*
X143280094Y-66626788D01*
X142830936Y-66812835D01*
X142426705Y-67082934D01*
X142082934Y-67426705D01*
X141812835Y-67830936D01*
X141626788Y-68280094D01*
X141531942Y-68756917D01*
X138660000Y-68756917D01*
X138660000Y-65730102D01*
X138746000Y-65738572D01*
X139160250Y-65735500D01*
X139319000Y-65576750D01*
X139319000Y-64740000D01*
X139299000Y-64740000D01*
X139299000Y-64486000D01*
X139319000Y-64486000D01*
X139319000Y-64466000D01*
X139573000Y-64466000D01*
X139573000Y-64486000D01*
X139593000Y-64486000D01*
X139593000Y-64740000D01*
X139573000Y-64740000D01*
X139573000Y-65576750D01*
X139731750Y-65735500D01*
X140146000Y-65738572D01*
X140270482Y-65726312D01*
X140390180Y-65690002D01*
X140500494Y-65631037D01*
X140597185Y-65551685D01*
X140628784Y-65513182D01*
X140722336Y-65589958D01*
X140874791Y-65671447D01*
X141040215Y-65721628D01*
X141212250Y-65738572D01*
X142124750Y-65738572D01*
X142296785Y-65721628D01*
X142462209Y-65671447D01*
X142482689Y-65660500D01*
X143557428Y-65660500D01*
X143569688Y-65784982D01*
X143605998Y-65904680D01*
X143664963Y-66014994D01*
X143744315Y-66111685D01*
X143841006Y-66191037D01*
X143951320Y-66250002D01*
X144071018Y-66286312D01*
X144195500Y-66298572D01*
X144397250Y-66295500D01*
X144556000Y-66136750D01*
X144556000Y-65087500D01*
X143719250Y-65087500D01*
X143560500Y-65246250D01*
X143557428Y-65660500D01*
X142482689Y-65660500D01*
X142614664Y-65589958D01*
X142748292Y-65480292D01*
X142857958Y-65346664D01*
X142939447Y-65194209D01*
X142989628Y-65028785D01*
X143006572Y-64856750D01*
X143006572Y-64369250D01*
X142989628Y-64197215D01*
X142939447Y-64031791D01*
X142857958Y-63879336D01*
X142748292Y-63745708D01*
X142662744Y-63675500D01*
X142720013Y-63628500D01*
X143557428Y-63628500D01*
X143569688Y-63752982D01*
X143605998Y-63872680D01*
X143644387Y-63944500D01*
X143605998Y-64016320D01*
X143569688Y-64136018D01*
X143557428Y-64260500D01*
X143560500Y-64674750D01*
X143719250Y-64833500D01*
X144556000Y-64833500D01*
X144556000Y-63055500D01*
X143719250Y-63055500D01*
X143560500Y-63214250D01*
X143557428Y-63628500D01*
X142720013Y-63628500D01*
X142748292Y-63605292D01*
X142857958Y-63471664D01*
X142939447Y-63319209D01*
X142989628Y-63153785D01*
X143006572Y-62981750D01*
X143006572Y-62494250D01*
X142989628Y-62322215D01*
X142961200Y-62228500D01*
X143557428Y-62228500D01*
X143560500Y-62642750D01*
X143719250Y-62801500D01*
X144556000Y-62801500D01*
X144556000Y-61752250D01*
X144397250Y-61593500D01*
X144195500Y-61590428D01*
X144071018Y-61602688D01*
X143951320Y-61638998D01*
X143841006Y-61697963D01*
X143744315Y-61777315D01*
X143664963Y-61874006D01*
X143605998Y-61984320D01*
X143569688Y-62104018D01*
X143557428Y-62228500D01*
X142961200Y-62228500D01*
X142939447Y-62156791D01*
X142857958Y-62004336D01*
X142748292Y-61870708D01*
X142614664Y-61761042D01*
X142462209Y-61679553D01*
X142296785Y-61629372D01*
X142295882Y-61629283D01*
X142274056Y-61602688D01*
X142252621Y-61576569D01*
X142252619Y-61576567D01*
X142227969Y-61546531D01*
X142197933Y-61521881D01*
X141338072Y-60662021D01*
X141338072Y-60371787D01*
X141370815Y-60411685D01*
X141467506Y-60491037D01*
X141577820Y-60550002D01*
X141697518Y-60586312D01*
X141822000Y-60598572D01*
X141986250Y-60595500D01*
X142145000Y-60436750D01*
X142145000Y-59687500D01*
X141345750Y-59687500D01*
X141238208Y-59795042D01*
X141189458Y-59703836D01*
X141079792Y-59570208D01*
X140994244Y-59500000D01*
X141079792Y-59429792D01*
X141189458Y-59296164D01*
X141196061Y-59283811D01*
X141345750Y-59433500D01*
X142145000Y-59433500D01*
X142145000Y-58684250D01*
X141986250Y-58525500D01*
X141822000Y-58522428D01*
X141697518Y-58534688D01*
X141577820Y-58570998D01*
X141467506Y-58629963D01*
X141370815Y-58709315D01*
X141338072Y-58749213D01*
X141338072Y-58318750D01*
X141321128Y-58146715D01*
X141270947Y-57981291D01*
X141189458Y-57828836D01*
X141079792Y-57695208D01*
X141036891Y-57660000D01*
X143504854Y-57660000D01*
X143467506Y-57679963D01*
G37*
X143467506Y-57679963D02*
X143370815Y-57759315D01*
X143291463Y-57856006D01*
X143232498Y-57966320D01*
X143196188Y-58086018D01*
X143183928Y-58210500D01*
X143183928Y-58722405D01*
X143173185Y-58709315D01*
X143076494Y-58629963D01*
X142966180Y-58570998D01*
X142846482Y-58534688D01*
X142722000Y-58522428D01*
X142557750Y-58525500D01*
X142399000Y-58684250D01*
X142399000Y-59433500D01*
X143198250Y-59433500D01*
X143282857Y-59348893D01*
X143291463Y-59364994D01*
X143370815Y-59461685D01*
X143467506Y-59541037D01*
X143503918Y-59560500D01*
X143467506Y-59579963D01*
X143370815Y-59659315D01*
X143291463Y-59756006D01*
X143282857Y-59772107D01*
X143198250Y-59687500D01*
X142399000Y-59687500D01*
X142399000Y-60436750D01*
X142557750Y-60595500D01*
X142722000Y-60598572D01*
X142846482Y-60586312D01*
X142966180Y-60550002D01*
X143076494Y-60491037D01*
X143173185Y-60411685D01*
X143183928Y-60398595D01*
X143183928Y-60910500D01*
X143196188Y-61034982D01*
X143232498Y-61154680D01*
X143291463Y-61264994D01*
X143370815Y-61361685D01*
X143467506Y-61441037D01*
X143577820Y-61500002D01*
X143697518Y-61536312D01*
X143822000Y-61548572D01*
X144160368Y-61548572D01*
X144170061Y-61550500D01*
X144373939Y-61550500D01*
X144383632Y-61548572D01*
X144722000Y-61548572D01*
X144846482Y-61536312D01*
X144966180Y-61500002D01*
X145076494Y-61441037D01*
X145173185Y-61361685D01*
X145252537Y-61264994D01*
X145311502Y-61154680D01*
X145333746Y-61081350D01*
X145333998Y-61082180D01*
X145392963Y-61192494D01*
X145472315Y-61289185D01*
X145569006Y-61368537D01*
X145666100Y-61420436D01*
X145666101Y-61831436D01*
X145621685Y-61777315D01*
X145524994Y-61697963D01*
X145414680Y-61638998D01*
X145294982Y-61602688D01*
X145170500Y-61590428D01*
X144968750Y-61593500D01*
X144810000Y-61752250D01*
X144810000Y-62801500D01*
X144830000Y-62801500D01*
X144830000Y-63055500D01*
X144810000Y-63055500D01*
X144810000Y-64833500D01*
X144830000Y-64833500D01*
X144830000Y-65087500D01*
X144810000Y-65087500D01*
X144810000Y-66136750D01*
X144968750Y-66295500D01*
X145170500Y-66298572D01*
X145294982Y-66286312D01*
X145414680Y-66250002D01*
X145524994Y-66191037D01*
X145621685Y-66111685D01*
X145685492Y-66033936D01*
X145690708Y-66040292D01*
X145824336Y-66149958D01*
X145976791Y-66231447D01*
X146142215Y-66281628D01*
X146314250Y-66298572D01*
X146801750Y-66298572D01*
X146973785Y-66281628D01*
X147139209Y-66231447D01*
X147291664Y-66149958D01*
X147425292Y-66040292D01*
X147534958Y-65906664D01*
X147616447Y-65754209D01*
X147645423Y-65658689D01*
X147669291Y-65671447D01*
X147675601Y-65673361D01*
X147675600Y-69710848D01*
X142259250Y-75127199D01*
X142137592Y-75103000D01*
X141862408Y-75103000D01*
X141592510Y-75156686D01*
X141338273Y-75261995D01*
X141109465Y-75414880D01*
X140914880Y-75609465D01*
X140761995Y-75838273D01*
X140656686Y-76092510D01*
X140603000Y-76362408D01*
X140603000Y-76637592D01*
X140656686Y-76907490D01*
X140761995Y-77161727D01*
X140914880Y-77390535D01*
X141109465Y-77585120D01*
X141338273Y-77738005D01*
X141592510Y-77843314D01*
X141862408Y-77897000D01*
X142137592Y-77897000D01*
X142259251Y-77872801D01*
X143127199Y-78740750D01*
X143103000Y-78862408D01*
X143103000Y-79137592D01*
X143156686Y-79407490D01*
X143261995Y-79661727D01*
X143414880Y-79890535D01*
X143609465Y-80085120D01*
X143838273Y-80238005D01*
X144092510Y-80343314D01*
X144362408Y-80397000D01*
X144637592Y-80397000D01*
X144907490Y-80343314D01*
X145161727Y-80238005D01*
X145390535Y-80085120D01*
X145585120Y-79890535D01*
X145738005Y-79661727D01*
X145843314Y-79407490D01*
X145897000Y-79137592D01*
X145897000Y-78862408D01*
X145843314Y-78592510D01*
X145738005Y-78338273D01*
X145585120Y-78109465D01*
X145390535Y-77914880D01*
X145161727Y-77761995D01*
X144907490Y-77656686D01*
X144637592Y-77603000D01*
X144362408Y-77603000D01*
X144240750Y-77627199D01*
X143372801Y-76759251D01*
X143397000Y-76637592D01*
X143397000Y-76362408D01*
X143372801Y-76240750D01*
X148992434Y-70621118D01*
X149022469Y-70596469D01*
X149120866Y-70476572D01*
X149193982Y-70339783D01*
X149239006Y-70191357D01*
X149250400Y-70075673D01*
X149250400Y-70075664D01*
X149254208Y-70037001D01*
X149250400Y-69998338D01*
X149250400Y-65673361D01*
X149256709Y-65671447D01*
X149340000Y-65626927D01*
X149340001Y-75274556D01*
X149315990Y-75216589D01*
X149153475Y-74973368D01*
X148946632Y-74766525D01*
X148703411Y-74604010D01*
X148433158Y-74492068D01*
X148146260Y-74435000D01*
X147853740Y-74435000D01*
X147566842Y-74492068D01*
X147296589Y-74604010D01*
X147053368Y-74766525D01*
X146846525Y-74973368D01*
X146684010Y-75216589D01*
X146572068Y-75486842D01*
X146515000Y-75773740D01*
X146515000Y-76066260D01*
X146572068Y-76353158D01*
X146684010Y-76623411D01*
X146846525Y-76866632D01*
X147053368Y-77073475D01*
X147235534Y-77195195D01*
X147118645Y-77264822D01*
X146902412Y-77459731D01*
X146728359Y-77693080D01*
X146603175Y-77955901D01*
X146558524Y-78103110D01*
X146679845Y-78333000D01*
X147873000Y-78333000D01*
X147873000Y-78313000D01*
X148127000Y-78313000D01*
X148127000Y-78333000D01*
X148147000Y-78333000D01*
X148147000Y-78587000D01*
X148127000Y-78587000D01*
X148127000Y-78607000D01*
X147873000Y-78607000D01*
X147873000Y-78587000D01*
X146679845Y-78587000D01*
X146558524Y-78816890D01*
X146603175Y-78964099D01*
X146728359Y-79226920D01*
X146902412Y-79460269D01*
X146986466Y-79536034D01*
X146905820Y-79560498D01*
X146795506Y-79619463D01*
X146698815Y-79698815D01*
X146619463Y-79795506D01*
X146560498Y-79905820D01*
X146524188Y-80025518D01*
X146511928Y-80150000D01*
X146511928Y-81850000D01*
X146524188Y-81974482D01*
X146560498Y-82094180D01*
X146619463Y-82204494D01*
X146698815Y-82301185D01*
X146746111Y-82340000D01*
X143118886Y-82340000D01*
X143238005Y-82161727D01*
X143343314Y-81907490D01*
X143397000Y-81637592D01*
X143397000Y-81362408D01*
X143343314Y-81092510D01*
X143238005Y-80838273D01*
X143085120Y-80609465D01*
X142890535Y-80414880D01*
X142661727Y-80261995D01*
X142407490Y-80156686D01*
X142137592Y-80103000D01*
X141862408Y-80103000D01*
X141592510Y-80156686D01*
X141338273Y-80261995D01*
X141109465Y-80414880D01*
X140914880Y-80609465D01*
X140761995Y-80838273D01*
X140656686Y-81092510D01*
X140603000Y-81362408D01*
X140603000Y-81637592D01*
X140656686Y-81907490D01*
X140761995Y-82161727D01*
X140881114Y-82340000D01*
X139032279Y-82340000D01*
X138934576Y-82330420D01*
X138871643Y-82311420D01*
X138813594Y-82280554D01*
X138762657Y-82239011D01*
X138720752Y-82188356D01*
X138689485Y-82130529D01*
X138670044Y-82067728D01*
X138660000Y-81972165D01*
X138660000Y-68756917D01*
X141531942Y-68756917D01*
X141531942Y-69243083D01*
X141626788Y-69719906D01*
X141812835Y-70169064D01*
X142082934Y-70573295D01*
X142426705Y-70917066D01*
X142830936Y-71187165D01*
X143280094Y-71373212D01*
X143756917Y-71468058D01*
X144243083Y-71468058D01*
X144719906Y-71373212D01*
X145169064Y-71187165D01*
X145573295Y-70917066D01*
X145917066Y-70573295D01*
X146187165Y-70169064D01*
X146373212Y-69719906D01*
X146468058Y-69243083D01*
X146468058Y-68756917D01*
X146373212Y-68280094D01*
X146187165Y-67830936D01*
X145917066Y-67426705D01*
X145573295Y-67082934D01*
X145169064Y-66812835D01*
X144719906Y-66626788D01*
X144243083Y-66531942D01*
X143756917Y-66531942D01*
X143280094Y-66626788D01*
X142830936Y-66812835D01*
X142426705Y-67082934D01*
X142082934Y-67426705D01*
X141812835Y-67830936D01*
X141626788Y-68280094D01*
X141531942Y-68756917D01*
X138660000Y-68756917D01*
X138660000Y-65730102D01*
X138746000Y-65738572D01*
X139160250Y-65735500D01*
X139319000Y-65576750D01*
X139319000Y-64740000D01*
X139299000Y-64740000D01*
X139299000Y-64486000D01*
X139319000Y-64486000D01*
X139319000Y-64466000D01*
X139573000Y-64466000D01*
X139573000Y-64486000D01*
X139593000Y-64486000D01*
X139593000Y-64740000D01*
X139573000Y-64740000D01*
X139573000Y-65576750D01*
X139731750Y-65735500D01*
X140146000Y-65738572D01*
X140270482Y-65726312D01*
X140390180Y-65690002D01*
X140500494Y-65631037D01*
X140597185Y-65551685D01*
X140628784Y-65513182D01*
X140722336Y-65589958D01*
X140874791Y-65671447D01*
X141040215Y-65721628D01*
X141212250Y-65738572D01*
X142124750Y-65738572D01*
X142296785Y-65721628D01*
X142462209Y-65671447D01*
X142482689Y-65660500D01*
X143557428Y-65660500D01*
X143569688Y-65784982D01*
X143605998Y-65904680D01*
X143664963Y-66014994D01*
X143744315Y-66111685D01*
X143841006Y-66191037D01*
X143951320Y-66250002D01*
X144071018Y-66286312D01*
X144195500Y-66298572D01*
X144397250Y-66295500D01*
X144556000Y-66136750D01*
X144556000Y-65087500D01*
X143719250Y-65087500D01*
X143560500Y-65246250D01*
X143557428Y-65660500D01*
X142482689Y-65660500D01*
X142614664Y-65589958D01*
X142748292Y-65480292D01*
X142857958Y-65346664D01*
X142939447Y-65194209D01*
X142989628Y-65028785D01*
X143006572Y-64856750D01*
X143006572Y-64369250D01*
X142989628Y-64197215D01*
X142939447Y-64031791D01*
X142857958Y-63879336D01*
X142748292Y-63745708D01*
X142662744Y-63675500D01*
X142720013Y-63628500D01*
X143557428Y-63628500D01*
X143569688Y-63752982D01*
X143605998Y-63872680D01*
X143644387Y-63944500D01*
X143605998Y-64016320D01*
X143569688Y-64136018D01*
X143557428Y-64260500D01*
X143560500Y-64674750D01*
X143719250Y-64833500D01*
X144556000Y-64833500D01*
X144556000Y-63055500D01*
X143719250Y-63055500D01*
X143560500Y-63214250D01*
X143557428Y-63628500D01*
X142720013Y-63628500D01*
X142748292Y-63605292D01*
X142857958Y-63471664D01*
X142939447Y-63319209D01*
X142989628Y-63153785D01*
X143006572Y-62981750D01*
X143006572Y-62494250D01*
X142989628Y-62322215D01*
X142961200Y-62228500D01*
X143557428Y-62228500D01*
X143560500Y-62642750D01*
X143719250Y-62801500D01*
X144556000Y-62801500D01*
X144556000Y-61752250D01*
X144397250Y-61593500D01*
X144195500Y-61590428D01*
X144071018Y-61602688D01*
X143951320Y-61638998D01*
X143841006Y-61697963D01*
X143744315Y-61777315D01*
X143664963Y-61874006D01*
X143605998Y-61984320D01*
X143569688Y-62104018D01*
X143557428Y-62228500D01*
X142961200Y-62228500D01*
X142939447Y-62156791D01*
X142857958Y-62004336D01*
X142748292Y-61870708D01*
X142614664Y-61761042D01*
X142462209Y-61679553D01*
X142296785Y-61629372D01*
X142295882Y-61629283D01*
X142274056Y-61602688D01*
X142252621Y-61576569D01*
X142252619Y-61576567D01*
X142227969Y-61546531D01*
X142197933Y-61521881D01*
X141338072Y-60662021D01*
X141338072Y-60371787D01*
X141370815Y-60411685D01*
X141467506Y-60491037D01*
X141577820Y-60550002D01*
X141697518Y-60586312D01*
X141822000Y-60598572D01*
X141986250Y-60595500D01*
X142145000Y-60436750D01*
X142145000Y-59687500D01*
X141345750Y-59687500D01*
X141238208Y-59795042D01*
X141189458Y-59703836D01*
X141079792Y-59570208D01*
X140994244Y-59500000D01*
X141079792Y-59429792D01*
X141189458Y-59296164D01*
X141196061Y-59283811D01*
X141345750Y-59433500D01*
X142145000Y-59433500D01*
X142145000Y-58684250D01*
X141986250Y-58525500D01*
X141822000Y-58522428D01*
X141697518Y-58534688D01*
X141577820Y-58570998D01*
X141467506Y-58629963D01*
X141370815Y-58709315D01*
X141338072Y-58749213D01*
X141338072Y-58318750D01*
X141321128Y-58146715D01*
X141270947Y-57981291D01*
X141189458Y-57828836D01*
X141079792Y-57695208D01*
X141036891Y-57660000D01*
X143504854Y-57660000D01*
X143467506Y-57679963D01*
M02*
