G04 #@! TF.GenerationSoftware,KiCad,Pcbnew,(5.1.5)-3*
G04 #@! TF.CreationDate,2021-01-20T15:53:11+10:30*
G04 #@! TF.ProjectId,HallSingle,48616c6c-5369-46e6-976c-652e6b696361,rev?*
G04 #@! TF.SameCoordinates,Original*
G04 #@! TF.FileFunction,Legend,Top*
G04 #@! TF.FilePolarity,Positive*
%FSLAX46Y46*%
G04 Gerber Fmt 4.6, Leading zero omitted, Abs format (unit mm)*
G04 Created by KiCad (PCBNEW (5.1.5)-3) date 2021-01-20 15:53:11*
%MOMM*%
%LPD*%
G04 APERTURE LIST*
%ADD10C,0.120000*%
%ADD11C,0.150000*%
%ADD12C,0.100000*%
%ADD13C,0.125000*%
%ADD14C,3.302000*%
%ADD15R,1.162000X0.752000*%
%ADD16R,1.002000X0.902000*%
%ADD17C,1.626000*%
%ADD18O,1.802000X1.802000*%
%ADD19R,1.802000X1.802000*%
G04 APERTURE END LIST*
D10*
X146600000Y-61160000D02*
X149050000Y-61160000D01*
X148400000Y-57940000D02*
X146600000Y-57940000D01*
X142512000Y-57980500D02*
X143972000Y-57980500D01*
X142512000Y-61140500D02*
X144672000Y-61140500D01*
X142512000Y-61140500D02*
X142512000Y-60210500D01*
X142512000Y-57980500D02*
X142512000Y-58910500D01*
D11*
X145500000Y-80000000D02*
X145500000Y-76500000D01*
X138500000Y-80000000D02*
X145500000Y-80000000D01*
X138500000Y-73000000D02*
X138500000Y-80000000D01*
X145500000Y-73000000D02*
X138500000Y-73000000D01*
X145500000Y-76500000D02*
X145500000Y-73000000D01*
D10*
X142378500Y-63934078D02*
X142378500Y-63416922D01*
X140958500Y-63934078D02*
X140958500Y-63416922D01*
X145879078Y-62218500D02*
X145361922Y-62218500D01*
X145879078Y-63638500D02*
X145361922Y-63638500D01*
X149173000Y-63934078D02*
X149173000Y-63416922D01*
X147753000Y-63934078D02*
X147753000Y-63416922D01*
X149330000Y-79910000D02*
X148000000Y-79910000D01*
X149330000Y-78580000D02*
X149330000Y-79910000D01*
X149330000Y-77310000D02*
X146670000Y-77310000D01*
X146670000Y-77310000D02*
X146670000Y-72170000D01*
X149330000Y-77310000D02*
X149330000Y-72170000D01*
X149330000Y-72170000D02*
X146670000Y-72170000D01*
X139040000Y-57815000D02*
X139040000Y-60500000D01*
X140960000Y-57815000D02*
X139040000Y-57815000D01*
X140960000Y-60500000D02*
X140960000Y-57815000D01*
X138736000Y-63416922D02*
X138736000Y-63934078D01*
X140156000Y-63416922D02*
X140156000Y-63934078D01*
X145879078Y-64250500D02*
X145361922Y-64250500D01*
X145879078Y-65670500D02*
X145361922Y-65670500D01*
D11*
X143338095Y-69502380D02*
X143338095Y-68502380D01*
X143338095Y-68978571D02*
X143909523Y-68978571D01*
X143909523Y-69502380D02*
X143909523Y-68502380D01*
X144909523Y-69502380D02*
X144338095Y-69502380D01*
X144623809Y-69502380D02*
X144623809Y-68502380D01*
X144528571Y-68645238D01*
X144433333Y-68740476D01*
X144338095Y-68788095D01*
X146738095Y-61902380D02*
X146738095Y-62711904D01*
X146785714Y-62807142D01*
X146833333Y-62854761D01*
X146928571Y-62902380D01*
X147119047Y-62902380D01*
X147214285Y-62854761D01*
X147261904Y-62807142D01*
X147309523Y-62711904D01*
X147309523Y-61902380D01*
X147738095Y-61997619D02*
X147785714Y-61950000D01*
X147880952Y-61902380D01*
X148119047Y-61902380D01*
X148214285Y-61950000D01*
X148261904Y-61997619D01*
X148309523Y-62092857D01*
X148309523Y-62188095D01*
X148261904Y-62330952D01*
X147690476Y-62902380D01*
X148309523Y-62902380D01*
D12*
X141517785Y-61529428D02*
X142124928Y-61529428D01*
X142196357Y-61493714D01*
X142232071Y-61458000D01*
X142267785Y-61386571D01*
X142267785Y-61243714D01*
X142232071Y-61172285D01*
X142196357Y-61136571D01*
X142124928Y-61100857D01*
X141517785Y-61100857D01*
X142267785Y-60350857D02*
X142267785Y-60779428D01*
X142267785Y-60565142D02*
X141517785Y-60565142D01*
X141624928Y-60636571D01*
X141696357Y-60708000D01*
X141732071Y-60779428D01*
D11*
X139295261Y-72628380D02*
X138961928Y-72152190D01*
X138723833Y-72628380D02*
X138723833Y-71628380D01*
X139104785Y-71628380D01*
X139200023Y-71676000D01*
X139247642Y-71723619D01*
X139295261Y-71818857D01*
X139295261Y-71961714D01*
X139247642Y-72056952D01*
X139200023Y-72104571D01*
X139104785Y-72152190D01*
X138723833Y-72152190D01*
X139580976Y-71628380D02*
X139914309Y-72628380D01*
X140247642Y-71628380D01*
X141104785Y-72628380D02*
X140533357Y-72628380D01*
X140819071Y-72628380D02*
X140819071Y-71628380D01*
X140723833Y-71771238D01*
X140628595Y-71866476D01*
X140533357Y-71914095D01*
X141547833Y-61713880D02*
X141214500Y-61237690D01*
X140976404Y-61713880D02*
X140976404Y-60713880D01*
X141357357Y-60713880D01*
X141452595Y-60761500D01*
X141500214Y-60809119D01*
X141547833Y-60904357D01*
X141547833Y-61047214D01*
X141500214Y-61142452D01*
X141452595Y-61190071D01*
X141357357Y-61237690D01*
X140976404Y-61237690D01*
X141881166Y-60713880D02*
X142500214Y-60713880D01*
X142166880Y-61094833D01*
X142309738Y-61094833D01*
X142404976Y-61142452D01*
X142452595Y-61190071D01*
X142500214Y-61285309D01*
X142500214Y-61523404D01*
X142452595Y-61618642D01*
X142404976Y-61666261D01*
X142309738Y-61713880D01*
X142024023Y-61713880D01*
X141928785Y-61666261D01*
X141881166Y-61618642D01*
X143771880Y-63095166D02*
X143295690Y-63428500D01*
X143771880Y-63666595D02*
X142771880Y-63666595D01*
X142771880Y-63285642D01*
X142819500Y-63190404D01*
X142867119Y-63142785D01*
X142962357Y-63095166D01*
X143105214Y-63095166D01*
X143200452Y-63142785D01*
X143248071Y-63190404D01*
X143295690Y-63285642D01*
X143295690Y-63666595D01*
X142867119Y-62714214D02*
X142819500Y-62666595D01*
X142771880Y-62571357D01*
X142771880Y-62333261D01*
X142819500Y-62238023D01*
X142867119Y-62190404D01*
X142962357Y-62142785D01*
X143057595Y-62142785D01*
X143200452Y-62190404D01*
X143771880Y-62761833D01*
X143771880Y-62142785D01*
X148359833Y-66555880D02*
X148026500Y-66079690D01*
X147788404Y-66555880D02*
X147788404Y-65555880D01*
X148169357Y-65555880D01*
X148264595Y-65603500D01*
X148312214Y-65651119D01*
X148359833Y-65746357D01*
X148359833Y-65889214D01*
X148312214Y-65984452D01*
X148264595Y-66032071D01*
X148169357Y-66079690D01*
X147788404Y-66079690D01*
X149312214Y-66555880D02*
X148740785Y-66555880D01*
X149026500Y-66555880D02*
X149026500Y-65555880D01*
X148931261Y-65698738D01*
X148836023Y-65793976D01*
X148740785Y-65841595D01*
X147666666Y-70819380D02*
X147666666Y-71533666D01*
X147619047Y-71676523D01*
X147523809Y-71771761D01*
X147380952Y-71819380D01*
X147285714Y-71819380D01*
X148666666Y-71819380D02*
X148095238Y-71819380D01*
X148380952Y-71819380D02*
X148380952Y-70819380D01*
X148285714Y-70962238D01*
X148190476Y-71057476D01*
X148095238Y-71105095D01*
D13*
X140889428Y-59776285D02*
X140889428Y-59026285D01*
X141068000Y-59026285D01*
X141175142Y-59062000D01*
X141246571Y-59133428D01*
X141282285Y-59204857D01*
X141318000Y-59347714D01*
X141318000Y-59454857D01*
X141282285Y-59597714D01*
X141246571Y-59669142D01*
X141175142Y-59740571D01*
X141068000Y-59776285D01*
X140889428Y-59776285D01*
X142032285Y-59776285D02*
X141603714Y-59776285D01*
X141818000Y-59776285D02*
X141818000Y-59026285D01*
X141746571Y-59133428D01*
X141675142Y-59204857D01*
X141603714Y-59240571D01*
D11*
X139215833Y-66460642D02*
X139168214Y-66508261D01*
X139025357Y-66555880D01*
X138930119Y-66555880D01*
X138787261Y-66508261D01*
X138692023Y-66413023D01*
X138644404Y-66317785D01*
X138596785Y-66127309D01*
X138596785Y-65984452D01*
X138644404Y-65793976D01*
X138692023Y-65698738D01*
X138787261Y-65603500D01*
X138930119Y-65555880D01*
X139025357Y-65555880D01*
X139168214Y-65603500D01*
X139215833Y-65651119D01*
X139596785Y-65651119D02*
X139644404Y-65603500D01*
X139739642Y-65555880D01*
X139977738Y-65555880D01*
X140072976Y-65603500D01*
X140120595Y-65651119D01*
X140168214Y-65746357D01*
X140168214Y-65841595D01*
X140120595Y-65984452D01*
X139549166Y-66555880D01*
X140168214Y-66555880D01*
X143676642Y-65127166D02*
X143724261Y-65174785D01*
X143771880Y-65317642D01*
X143771880Y-65412880D01*
X143724261Y-65555738D01*
X143629023Y-65650976D01*
X143533785Y-65698595D01*
X143343309Y-65746214D01*
X143200452Y-65746214D01*
X143009976Y-65698595D01*
X142914738Y-65650976D01*
X142819500Y-65555738D01*
X142771880Y-65412880D01*
X142771880Y-65317642D01*
X142819500Y-65174785D01*
X142867119Y-65127166D01*
X143771880Y-64174785D02*
X143771880Y-64746214D01*
X143771880Y-64460500D02*
X142771880Y-64460500D01*
X142914738Y-64555738D01*
X143009976Y-64650976D01*
X143057595Y-64746214D01*
%LPC*%
D14*
X144000000Y-69000000D03*
D15*
X146400000Y-60500000D03*
X146400000Y-58600000D03*
X148600000Y-58600000D03*
X148600000Y-59550000D03*
X148600000Y-60500000D03*
D16*
X142272000Y-59560500D03*
X144272000Y-58610500D03*
X144272000Y-60510500D03*
D17*
X142000000Y-79000000D03*
X144500000Y-76500000D03*
X142000000Y-74000000D03*
D12*
G36*
X142176641Y-62200797D02*
G01*
X142202778Y-62204674D01*
X142228409Y-62211094D01*
X142253288Y-62219995D01*
X142277174Y-62231293D01*
X142299837Y-62244877D01*
X142321060Y-62260617D01*
X142340639Y-62278361D01*
X142358383Y-62297940D01*
X142374123Y-62319163D01*
X142387707Y-62341826D01*
X142399005Y-62365712D01*
X142407906Y-62390591D01*
X142414326Y-62416222D01*
X142418203Y-62442359D01*
X142419500Y-62468750D01*
X142419500Y-63007250D01*
X142418203Y-63033641D01*
X142414326Y-63059778D01*
X142407906Y-63085409D01*
X142399005Y-63110288D01*
X142387707Y-63134174D01*
X142374123Y-63156837D01*
X142358383Y-63178060D01*
X142340639Y-63197639D01*
X142321060Y-63215383D01*
X142299837Y-63231123D01*
X142277174Y-63244707D01*
X142253288Y-63256005D01*
X142228409Y-63264906D01*
X142202778Y-63271326D01*
X142176641Y-63275203D01*
X142150250Y-63276500D01*
X141186750Y-63276500D01*
X141160359Y-63275203D01*
X141134222Y-63271326D01*
X141108591Y-63264906D01*
X141083712Y-63256005D01*
X141059826Y-63244707D01*
X141037163Y-63231123D01*
X141015940Y-63215383D01*
X140996361Y-63197639D01*
X140978617Y-63178060D01*
X140962877Y-63156837D01*
X140949293Y-63134174D01*
X140937995Y-63110288D01*
X140929094Y-63085409D01*
X140922674Y-63059778D01*
X140918797Y-63033641D01*
X140917500Y-63007250D01*
X140917500Y-62468750D01*
X140918797Y-62442359D01*
X140922674Y-62416222D01*
X140929094Y-62390591D01*
X140937995Y-62365712D01*
X140949293Y-62341826D01*
X140962877Y-62319163D01*
X140978617Y-62297940D01*
X140996361Y-62278361D01*
X141015940Y-62260617D01*
X141037163Y-62244877D01*
X141059826Y-62231293D01*
X141083712Y-62219995D01*
X141108591Y-62211094D01*
X141134222Y-62204674D01*
X141160359Y-62200797D01*
X141186750Y-62199500D01*
X142150250Y-62199500D01*
X142176641Y-62200797D01*
G37*
G36*
X142176641Y-64075797D02*
G01*
X142202778Y-64079674D01*
X142228409Y-64086094D01*
X142253288Y-64094995D01*
X142277174Y-64106293D01*
X142299837Y-64119877D01*
X142321060Y-64135617D01*
X142340639Y-64153361D01*
X142358383Y-64172940D01*
X142374123Y-64194163D01*
X142387707Y-64216826D01*
X142399005Y-64240712D01*
X142407906Y-64265591D01*
X142414326Y-64291222D01*
X142418203Y-64317359D01*
X142419500Y-64343750D01*
X142419500Y-64882250D01*
X142418203Y-64908641D01*
X142414326Y-64934778D01*
X142407906Y-64960409D01*
X142399005Y-64985288D01*
X142387707Y-65009174D01*
X142374123Y-65031837D01*
X142358383Y-65053060D01*
X142340639Y-65072639D01*
X142321060Y-65090383D01*
X142299837Y-65106123D01*
X142277174Y-65119707D01*
X142253288Y-65131005D01*
X142228409Y-65139906D01*
X142202778Y-65146326D01*
X142176641Y-65150203D01*
X142150250Y-65151500D01*
X141186750Y-65151500D01*
X141160359Y-65150203D01*
X141134222Y-65146326D01*
X141108591Y-65139906D01*
X141083712Y-65131005D01*
X141059826Y-65119707D01*
X141037163Y-65106123D01*
X141015940Y-65090383D01*
X140996361Y-65072639D01*
X140978617Y-65053060D01*
X140962877Y-65031837D01*
X140949293Y-65009174D01*
X140937995Y-64985288D01*
X140929094Y-64960409D01*
X140922674Y-64934778D01*
X140918797Y-64908641D01*
X140917500Y-64882250D01*
X140917500Y-64343750D01*
X140918797Y-64317359D01*
X140922674Y-64291222D01*
X140929094Y-64265591D01*
X140937995Y-64240712D01*
X140949293Y-64216826D01*
X140962877Y-64194163D01*
X140978617Y-64172940D01*
X140996361Y-64153361D01*
X141015940Y-64135617D01*
X141037163Y-64119877D01*
X141059826Y-64106293D01*
X141083712Y-64094995D01*
X141108591Y-64086094D01*
X141134222Y-64079674D01*
X141160359Y-64075797D01*
X141186750Y-64074500D01*
X142150250Y-64074500D01*
X142176641Y-64075797D01*
G37*
G36*
X144978641Y-62178797D02*
G01*
X145004778Y-62182674D01*
X145030409Y-62189094D01*
X145055288Y-62197995D01*
X145079174Y-62209293D01*
X145101837Y-62222877D01*
X145123060Y-62238617D01*
X145142639Y-62256361D01*
X145160383Y-62275940D01*
X145176123Y-62297163D01*
X145189707Y-62319826D01*
X145201005Y-62343712D01*
X145209906Y-62368591D01*
X145216326Y-62394222D01*
X145220203Y-62420359D01*
X145221500Y-62446750D01*
X145221500Y-63410250D01*
X145220203Y-63436641D01*
X145216326Y-63462778D01*
X145209906Y-63488409D01*
X145201005Y-63513288D01*
X145189707Y-63537174D01*
X145176123Y-63559837D01*
X145160383Y-63581060D01*
X145142639Y-63600639D01*
X145123060Y-63618383D01*
X145101837Y-63634123D01*
X145079174Y-63647707D01*
X145055288Y-63659005D01*
X145030409Y-63667906D01*
X145004778Y-63674326D01*
X144978641Y-63678203D01*
X144952250Y-63679500D01*
X144413750Y-63679500D01*
X144387359Y-63678203D01*
X144361222Y-63674326D01*
X144335591Y-63667906D01*
X144310712Y-63659005D01*
X144286826Y-63647707D01*
X144264163Y-63634123D01*
X144242940Y-63618383D01*
X144223361Y-63600639D01*
X144205617Y-63581060D01*
X144189877Y-63559837D01*
X144176293Y-63537174D01*
X144164995Y-63513288D01*
X144156094Y-63488409D01*
X144149674Y-63462778D01*
X144145797Y-63436641D01*
X144144500Y-63410250D01*
X144144500Y-62446750D01*
X144145797Y-62420359D01*
X144149674Y-62394222D01*
X144156094Y-62368591D01*
X144164995Y-62343712D01*
X144176293Y-62319826D01*
X144189877Y-62297163D01*
X144205617Y-62275940D01*
X144223361Y-62256361D01*
X144242940Y-62238617D01*
X144264163Y-62222877D01*
X144286826Y-62209293D01*
X144310712Y-62197995D01*
X144335591Y-62189094D01*
X144361222Y-62182674D01*
X144387359Y-62178797D01*
X144413750Y-62177500D01*
X144952250Y-62177500D01*
X144978641Y-62178797D01*
G37*
G36*
X146853641Y-62178797D02*
G01*
X146879778Y-62182674D01*
X146905409Y-62189094D01*
X146930288Y-62197995D01*
X146954174Y-62209293D01*
X146976837Y-62222877D01*
X146998060Y-62238617D01*
X147017639Y-62256361D01*
X147035383Y-62275940D01*
X147051123Y-62297163D01*
X147064707Y-62319826D01*
X147076005Y-62343712D01*
X147084906Y-62368591D01*
X147091326Y-62394222D01*
X147095203Y-62420359D01*
X147096500Y-62446750D01*
X147096500Y-63410250D01*
X147095203Y-63436641D01*
X147091326Y-63462778D01*
X147084906Y-63488409D01*
X147076005Y-63513288D01*
X147064707Y-63537174D01*
X147051123Y-63559837D01*
X147035383Y-63581060D01*
X147017639Y-63600639D01*
X146998060Y-63618383D01*
X146976837Y-63634123D01*
X146954174Y-63647707D01*
X146930288Y-63659005D01*
X146905409Y-63667906D01*
X146879778Y-63674326D01*
X146853641Y-63678203D01*
X146827250Y-63679500D01*
X146288750Y-63679500D01*
X146262359Y-63678203D01*
X146236222Y-63674326D01*
X146210591Y-63667906D01*
X146185712Y-63659005D01*
X146161826Y-63647707D01*
X146139163Y-63634123D01*
X146117940Y-63618383D01*
X146098361Y-63600639D01*
X146080617Y-63581060D01*
X146064877Y-63559837D01*
X146051293Y-63537174D01*
X146039995Y-63513288D01*
X146031094Y-63488409D01*
X146024674Y-63462778D01*
X146020797Y-63436641D01*
X146019500Y-63410250D01*
X146019500Y-62446750D01*
X146020797Y-62420359D01*
X146024674Y-62394222D01*
X146031094Y-62368591D01*
X146039995Y-62343712D01*
X146051293Y-62319826D01*
X146064877Y-62297163D01*
X146080617Y-62275940D01*
X146098361Y-62256361D01*
X146117940Y-62238617D01*
X146139163Y-62222877D01*
X146161826Y-62209293D01*
X146185712Y-62197995D01*
X146210591Y-62189094D01*
X146236222Y-62182674D01*
X146262359Y-62178797D01*
X146288750Y-62177500D01*
X146827250Y-62177500D01*
X146853641Y-62178797D01*
G37*
G36*
X148971141Y-62200797D02*
G01*
X148997278Y-62204674D01*
X149022909Y-62211094D01*
X149047788Y-62219995D01*
X149071674Y-62231293D01*
X149094337Y-62244877D01*
X149115560Y-62260617D01*
X149135139Y-62278361D01*
X149152883Y-62297940D01*
X149168623Y-62319163D01*
X149182207Y-62341826D01*
X149193505Y-62365712D01*
X149202406Y-62390591D01*
X149208826Y-62416222D01*
X149212703Y-62442359D01*
X149214000Y-62468750D01*
X149214000Y-63007250D01*
X149212703Y-63033641D01*
X149208826Y-63059778D01*
X149202406Y-63085409D01*
X149193505Y-63110288D01*
X149182207Y-63134174D01*
X149168623Y-63156837D01*
X149152883Y-63178060D01*
X149135139Y-63197639D01*
X149115560Y-63215383D01*
X149094337Y-63231123D01*
X149071674Y-63244707D01*
X149047788Y-63256005D01*
X149022909Y-63264906D01*
X148997278Y-63271326D01*
X148971141Y-63275203D01*
X148944750Y-63276500D01*
X147981250Y-63276500D01*
X147954859Y-63275203D01*
X147928722Y-63271326D01*
X147903091Y-63264906D01*
X147878212Y-63256005D01*
X147854326Y-63244707D01*
X147831663Y-63231123D01*
X147810440Y-63215383D01*
X147790861Y-63197639D01*
X147773117Y-63178060D01*
X147757377Y-63156837D01*
X147743793Y-63134174D01*
X147732495Y-63110288D01*
X147723594Y-63085409D01*
X147717174Y-63059778D01*
X147713297Y-63033641D01*
X147712000Y-63007250D01*
X147712000Y-62468750D01*
X147713297Y-62442359D01*
X147717174Y-62416222D01*
X147723594Y-62390591D01*
X147732495Y-62365712D01*
X147743793Y-62341826D01*
X147757377Y-62319163D01*
X147773117Y-62297940D01*
X147790861Y-62278361D01*
X147810440Y-62260617D01*
X147831663Y-62244877D01*
X147854326Y-62231293D01*
X147878212Y-62219995D01*
X147903091Y-62211094D01*
X147928722Y-62204674D01*
X147954859Y-62200797D01*
X147981250Y-62199500D01*
X148944750Y-62199500D01*
X148971141Y-62200797D01*
G37*
G36*
X148971141Y-64075797D02*
G01*
X148997278Y-64079674D01*
X149022909Y-64086094D01*
X149047788Y-64094995D01*
X149071674Y-64106293D01*
X149094337Y-64119877D01*
X149115560Y-64135617D01*
X149135139Y-64153361D01*
X149152883Y-64172940D01*
X149168623Y-64194163D01*
X149182207Y-64216826D01*
X149193505Y-64240712D01*
X149202406Y-64265591D01*
X149208826Y-64291222D01*
X149212703Y-64317359D01*
X149214000Y-64343750D01*
X149214000Y-64882250D01*
X149212703Y-64908641D01*
X149208826Y-64934778D01*
X149202406Y-64960409D01*
X149193505Y-64985288D01*
X149182207Y-65009174D01*
X149168623Y-65031837D01*
X149152883Y-65053060D01*
X149135139Y-65072639D01*
X149115560Y-65090383D01*
X149094337Y-65106123D01*
X149071674Y-65119707D01*
X149047788Y-65131005D01*
X149022909Y-65139906D01*
X148997278Y-65146326D01*
X148971141Y-65150203D01*
X148944750Y-65151500D01*
X147981250Y-65151500D01*
X147954859Y-65150203D01*
X147928722Y-65146326D01*
X147903091Y-65139906D01*
X147878212Y-65131005D01*
X147854326Y-65119707D01*
X147831663Y-65106123D01*
X147810440Y-65090383D01*
X147790861Y-65072639D01*
X147773117Y-65053060D01*
X147757377Y-65031837D01*
X147743793Y-65009174D01*
X147732495Y-64985288D01*
X147723594Y-64960409D01*
X147717174Y-64934778D01*
X147713297Y-64908641D01*
X147712000Y-64882250D01*
X147712000Y-64343750D01*
X147713297Y-64317359D01*
X147717174Y-64291222D01*
X147723594Y-64265591D01*
X147732495Y-64240712D01*
X147743793Y-64216826D01*
X147757377Y-64194163D01*
X147773117Y-64172940D01*
X147790861Y-64153361D01*
X147810440Y-64135617D01*
X147831663Y-64119877D01*
X147854326Y-64106293D01*
X147878212Y-64094995D01*
X147903091Y-64086094D01*
X147928722Y-64079674D01*
X147954859Y-64075797D01*
X147981250Y-64074500D01*
X148944750Y-64074500D01*
X148971141Y-64075797D01*
G37*
D18*
X148000000Y-73500000D03*
X148000000Y-76040000D03*
D19*
X148000000Y-78580000D03*
D12*
G36*
X140508141Y-59900297D02*
G01*
X140534278Y-59904174D01*
X140559909Y-59910594D01*
X140584788Y-59919495D01*
X140608674Y-59930793D01*
X140631337Y-59944377D01*
X140652560Y-59960117D01*
X140672139Y-59977861D01*
X140689883Y-59997440D01*
X140705623Y-60018663D01*
X140719207Y-60041326D01*
X140730505Y-60065212D01*
X140739406Y-60090091D01*
X140745826Y-60115722D01*
X140749703Y-60141859D01*
X140751000Y-60168250D01*
X140751000Y-60706750D01*
X140749703Y-60733141D01*
X140745826Y-60759278D01*
X140739406Y-60784909D01*
X140730505Y-60809788D01*
X140719207Y-60833674D01*
X140705623Y-60856337D01*
X140689883Y-60877560D01*
X140672139Y-60897139D01*
X140652560Y-60914883D01*
X140631337Y-60930623D01*
X140608674Y-60944207D01*
X140584788Y-60955505D01*
X140559909Y-60964406D01*
X140534278Y-60970826D01*
X140508141Y-60974703D01*
X140481750Y-60976000D01*
X139518250Y-60976000D01*
X139491859Y-60974703D01*
X139465722Y-60970826D01*
X139440091Y-60964406D01*
X139415212Y-60955505D01*
X139391326Y-60944207D01*
X139368663Y-60930623D01*
X139347440Y-60914883D01*
X139327861Y-60897139D01*
X139310117Y-60877560D01*
X139294377Y-60856337D01*
X139280793Y-60833674D01*
X139269495Y-60809788D01*
X139260594Y-60784909D01*
X139254174Y-60759278D01*
X139250297Y-60733141D01*
X139249000Y-60706750D01*
X139249000Y-60168250D01*
X139250297Y-60141859D01*
X139254174Y-60115722D01*
X139260594Y-60090091D01*
X139269495Y-60065212D01*
X139280793Y-60041326D01*
X139294377Y-60018663D01*
X139310117Y-59997440D01*
X139327861Y-59977861D01*
X139347440Y-59960117D01*
X139368663Y-59944377D01*
X139391326Y-59930793D01*
X139415212Y-59919495D01*
X139440091Y-59910594D01*
X139465722Y-59904174D01*
X139491859Y-59900297D01*
X139518250Y-59899000D01*
X140481750Y-59899000D01*
X140508141Y-59900297D01*
G37*
G36*
X140508141Y-58025297D02*
G01*
X140534278Y-58029174D01*
X140559909Y-58035594D01*
X140584788Y-58044495D01*
X140608674Y-58055793D01*
X140631337Y-58069377D01*
X140652560Y-58085117D01*
X140672139Y-58102861D01*
X140689883Y-58122440D01*
X140705623Y-58143663D01*
X140719207Y-58166326D01*
X140730505Y-58190212D01*
X140739406Y-58215091D01*
X140745826Y-58240722D01*
X140749703Y-58266859D01*
X140751000Y-58293250D01*
X140751000Y-58831750D01*
X140749703Y-58858141D01*
X140745826Y-58884278D01*
X140739406Y-58909909D01*
X140730505Y-58934788D01*
X140719207Y-58958674D01*
X140705623Y-58981337D01*
X140689883Y-59002560D01*
X140672139Y-59022139D01*
X140652560Y-59039883D01*
X140631337Y-59055623D01*
X140608674Y-59069207D01*
X140584788Y-59080505D01*
X140559909Y-59089406D01*
X140534278Y-59095826D01*
X140508141Y-59099703D01*
X140481750Y-59101000D01*
X139518250Y-59101000D01*
X139491859Y-59099703D01*
X139465722Y-59095826D01*
X139440091Y-59089406D01*
X139415212Y-59080505D01*
X139391326Y-59069207D01*
X139368663Y-59055623D01*
X139347440Y-59039883D01*
X139327861Y-59022139D01*
X139310117Y-59002560D01*
X139294377Y-58981337D01*
X139280793Y-58958674D01*
X139269495Y-58934788D01*
X139260594Y-58909909D01*
X139254174Y-58884278D01*
X139250297Y-58858141D01*
X139249000Y-58831750D01*
X139249000Y-58293250D01*
X139250297Y-58266859D01*
X139254174Y-58240722D01*
X139260594Y-58215091D01*
X139269495Y-58190212D01*
X139280793Y-58166326D01*
X139294377Y-58143663D01*
X139310117Y-58122440D01*
X139327861Y-58102861D01*
X139347440Y-58085117D01*
X139368663Y-58069377D01*
X139391326Y-58055793D01*
X139415212Y-58044495D01*
X139440091Y-58035594D01*
X139465722Y-58029174D01*
X139491859Y-58025297D01*
X139518250Y-58024000D01*
X140481750Y-58024000D01*
X140508141Y-58025297D01*
G37*
G36*
X139954141Y-64075797D02*
G01*
X139980278Y-64079674D01*
X140005909Y-64086094D01*
X140030788Y-64094995D01*
X140054674Y-64106293D01*
X140077337Y-64119877D01*
X140098560Y-64135617D01*
X140118139Y-64153361D01*
X140135883Y-64172940D01*
X140151623Y-64194163D01*
X140165207Y-64216826D01*
X140176505Y-64240712D01*
X140185406Y-64265591D01*
X140191826Y-64291222D01*
X140195703Y-64317359D01*
X140197000Y-64343750D01*
X140197000Y-64882250D01*
X140195703Y-64908641D01*
X140191826Y-64934778D01*
X140185406Y-64960409D01*
X140176505Y-64985288D01*
X140165207Y-65009174D01*
X140151623Y-65031837D01*
X140135883Y-65053060D01*
X140118139Y-65072639D01*
X140098560Y-65090383D01*
X140077337Y-65106123D01*
X140054674Y-65119707D01*
X140030788Y-65131005D01*
X140005909Y-65139906D01*
X139980278Y-65146326D01*
X139954141Y-65150203D01*
X139927750Y-65151500D01*
X138964250Y-65151500D01*
X138937859Y-65150203D01*
X138911722Y-65146326D01*
X138886091Y-65139906D01*
X138861212Y-65131005D01*
X138837326Y-65119707D01*
X138814663Y-65106123D01*
X138793440Y-65090383D01*
X138773861Y-65072639D01*
X138756117Y-65053060D01*
X138740377Y-65031837D01*
X138726793Y-65009174D01*
X138715495Y-64985288D01*
X138706594Y-64960409D01*
X138700174Y-64934778D01*
X138696297Y-64908641D01*
X138695000Y-64882250D01*
X138695000Y-64343750D01*
X138696297Y-64317359D01*
X138700174Y-64291222D01*
X138706594Y-64265591D01*
X138715495Y-64240712D01*
X138726793Y-64216826D01*
X138740377Y-64194163D01*
X138756117Y-64172940D01*
X138773861Y-64153361D01*
X138793440Y-64135617D01*
X138814663Y-64119877D01*
X138837326Y-64106293D01*
X138861212Y-64094995D01*
X138886091Y-64086094D01*
X138911722Y-64079674D01*
X138937859Y-64075797D01*
X138964250Y-64074500D01*
X139927750Y-64074500D01*
X139954141Y-64075797D01*
G37*
G36*
X139954141Y-62200797D02*
G01*
X139980278Y-62204674D01*
X140005909Y-62211094D01*
X140030788Y-62219995D01*
X140054674Y-62231293D01*
X140077337Y-62244877D01*
X140098560Y-62260617D01*
X140118139Y-62278361D01*
X140135883Y-62297940D01*
X140151623Y-62319163D01*
X140165207Y-62341826D01*
X140176505Y-62365712D01*
X140185406Y-62390591D01*
X140191826Y-62416222D01*
X140195703Y-62442359D01*
X140197000Y-62468750D01*
X140197000Y-63007250D01*
X140195703Y-63033641D01*
X140191826Y-63059778D01*
X140185406Y-63085409D01*
X140176505Y-63110288D01*
X140165207Y-63134174D01*
X140151623Y-63156837D01*
X140135883Y-63178060D01*
X140118139Y-63197639D01*
X140098560Y-63215383D01*
X140077337Y-63231123D01*
X140054674Y-63244707D01*
X140030788Y-63256005D01*
X140005909Y-63264906D01*
X139980278Y-63271326D01*
X139954141Y-63275203D01*
X139927750Y-63276500D01*
X138964250Y-63276500D01*
X138937859Y-63275203D01*
X138911722Y-63271326D01*
X138886091Y-63264906D01*
X138861212Y-63256005D01*
X138837326Y-63244707D01*
X138814663Y-63231123D01*
X138793440Y-63215383D01*
X138773861Y-63197639D01*
X138756117Y-63178060D01*
X138740377Y-63156837D01*
X138726793Y-63134174D01*
X138715495Y-63110288D01*
X138706594Y-63085409D01*
X138700174Y-63059778D01*
X138696297Y-63033641D01*
X138695000Y-63007250D01*
X138695000Y-62468750D01*
X138696297Y-62442359D01*
X138700174Y-62416222D01*
X138706594Y-62390591D01*
X138715495Y-62365712D01*
X138726793Y-62341826D01*
X138740377Y-62319163D01*
X138756117Y-62297940D01*
X138773861Y-62278361D01*
X138793440Y-62260617D01*
X138814663Y-62244877D01*
X138837326Y-62231293D01*
X138861212Y-62219995D01*
X138886091Y-62211094D01*
X138911722Y-62204674D01*
X138937859Y-62200797D01*
X138964250Y-62199500D01*
X139927750Y-62199500D01*
X139954141Y-62200797D01*
G37*
G36*
X144978641Y-64210797D02*
G01*
X145004778Y-64214674D01*
X145030409Y-64221094D01*
X145055288Y-64229995D01*
X145079174Y-64241293D01*
X145101837Y-64254877D01*
X145123060Y-64270617D01*
X145142639Y-64288361D01*
X145160383Y-64307940D01*
X145176123Y-64329163D01*
X145189707Y-64351826D01*
X145201005Y-64375712D01*
X145209906Y-64400591D01*
X145216326Y-64426222D01*
X145220203Y-64452359D01*
X145221500Y-64478750D01*
X145221500Y-65442250D01*
X145220203Y-65468641D01*
X145216326Y-65494778D01*
X145209906Y-65520409D01*
X145201005Y-65545288D01*
X145189707Y-65569174D01*
X145176123Y-65591837D01*
X145160383Y-65613060D01*
X145142639Y-65632639D01*
X145123060Y-65650383D01*
X145101837Y-65666123D01*
X145079174Y-65679707D01*
X145055288Y-65691005D01*
X145030409Y-65699906D01*
X145004778Y-65706326D01*
X144978641Y-65710203D01*
X144952250Y-65711500D01*
X144413750Y-65711500D01*
X144387359Y-65710203D01*
X144361222Y-65706326D01*
X144335591Y-65699906D01*
X144310712Y-65691005D01*
X144286826Y-65679707D01*
X144264163Y-65666123D01*
X144242940Y-65650383D01*
X144223361Y-65632639D01*
X144205617Y-65613060D01*
X144189877Y-65591837D01*
X144176293Y-65569174D01*
X144164995Y-65545288D01*
X144156094Y-65520409D01*
X144149674Y-65494778D01*
X144145797Y-65468641D01*
X144144500Y-65442250D01*
X144144500Y-64478750D01*
X144145797Y-64452359D01*
X144149674Y-64426222D01*
X144156094Y-64400591D01*
X144164995Y-64375712D01*
X144176293Y-64351826D01*
X144189877Y-64329163D01*
X144205617Y-64307940D01*
X144223361Y-64288361D01*
X144242940Y-64270617D01*
X144264163Y-64254877D01*
X144286826Y-64241293D01*
X144310712Y-64229995D01*
X144335591Y-64221094D01*
X144361222Y-64214674D01*
X144387359Y-64210797D01*
X144413750Y-64209500D01*
X144952250Y-64209500D01*
X144978641Y-64210797D01*
G37*
G36*
X146853641Y-64210797D02*
G01*
X146879778Y-64214674D01*
X146905409Y-64221094D01*
X146930288Y-64229995D01*
X146954174Y-64241293D01*
X146976837Y-64254877D01*
X146998060Y-64270617D01*
X147017639Y-64288361D01*
X147035383Y-64307940D01*
X147051123Y-64329163D01*
X147064707Y-64351826D01*
X147076005Y-64375712D01*
X147084906Y-64400591D01*
X147091326Y-64426222D01*
X147095203Y-64452359D01*
X147096500Y-64478750D01*
X147096500Y-65442250D01*
X147095203Y-65468641D01*
X147091326Y-65494778D01*
X147084906Y-65520409D01*
X147076005Y-65545288D01*
X147064707Y-65569174D01*
X147051123Y-65591837D01*
X147035383Y-65613060D01*
X147017639Y-65632639D01*
X146998060Y-65650383D01*
X146976837Y-65666123D01*
X146954174Y-65679707D01*
X146930288Y-65691005D01*
X146905409Y-65699906D01*
X146879778Y-65706326D01*
X146853641Y-65710203D01*
X146827250Y-65711500D01*
X146288750Y-65711500D01*
X146262359Y-65710203D01*
X146236222Y-65706326D01*
X146210591Y-65699906D01*
X146185712Y-65691005D01*
X146161826Y-65679707D01*
X146139163Y-65666123D01*
X146117940Y-65650383D01*
X146098361Y-65632639D01*
X146080617Y-65613060D01*
X146064877Y-65591837D01*
X146051293Y-65569174D01*
X146039995Y-65545288D01*
X146031094Y-65520409D01*
X146024674Y-65494778D01*
X146020797Y-65468641D01*
X146019500Y-65442250D01*
X146019500Y-64478750D01*
X146020797Y-64452359D01*
X146024674Y-64426222D01*
X146031094Y-64400591D01*
X146039995Y-64375712D01*
X146051293Y-64351826D01*
X146064877Y-64329163D01*
X146080617Y-64307940D01*
X146098361Y-64288361D01*
X146117940Y-64270617D01*
X146139163Y-64254877D01*
X146161826Y-64241293D01*
X146185712Y-64229995D01*
X146210591Y-64221094D01*
X146236222Y-64214674D01*
X146262359Y-64210797D01*
X146288750Y-64209500D01*
X146827250Y-64209500D01*
X146853641Y-64210797D01*
G37*
M02*
