G04 #@! TF.GenerationSoftware,KiCad,Pcbnew,(5.1.5)-3*
G04 #@! TF.CreationDate,2021-01-22T16:59:30+10:30*
G04 #@! TF.ProjectId,HallSingle,48616c6c-5369-46e6-976c-652e6b696361,rev?*
G04 #@! TF.SameCoordinates,Original*
G04 #@! TF.FileFunction,Legend,Bot*
G04 #@! TF.FilePolarity,Positive*
%FSLAX46Y46*%
G04 Gerber Fmt 4.6, Leading zero omitted, Abs format (unit mm)*
G04 Created by KiCad (PCBNEW (5.1.5)-3) date 2021-01-22 16:59:30*
%MOMM*%
%LPD*%
G04 APERTURE LIST*
%ADD10C,0.150000*%
%ADD11C,3.302000*%
%ADD12C,1.626000*%
%ADD13O,1.802000X1.802000*%
%ADD14R,1.802000X1.802000*%
G04 APERTURE END LIST*
D10*
X139377380Y-66314285D02*
X138377380Y-66314285D01*
X139377380Y-66885714D01*
X138377380Y-66885714D01*
X139282142Y-67933333D02*
X139329761Y-67885714D01*
X139377380Y-67742857D01*
X139377380Y-67647619D01*
X139329761Y-67504761D01*
X139234523Y-67409523D01*
X139139285Y-67361904D01*
X138948809Y-67314285D01*
X138805952Y-67314285D01*
X138615476Y-67361904D01*
X138520238Y-67409523D01*
X138425000Y-67504761D01*
X138377380Y-67647619D01*
X138377380Y-67742857D01*
X138425000Y-67885714D01*
X138472619Y-67933333D01*
X138377380Y-68980952D02*
X139377380Y-69314285D01*
X138377380Y-69647619D01*
X139377380Y-70504761D02*
X139377380Y-69933333D01*
X139377380Y-70219047D02*
X138377380Y-70219047D01*
X138520238Y-70123809D01*
X138615476Y-70028571D01*
X138663095Y-69933333D01*
X139282142Y-70933333D02*
X139329761Y-70980952D01*
X139377380Y-70933333D01*
X139329761Y-70885714D01*
X139282142Y-70933333D01*
X139377380Y-70933333D01*
X139377380Y-71933333D02*
X139377380Y-71361904D01*
X139377380Y-71647619D02*
X138377380Y-71647619D01*
X138520238Y-71552380D01*
X138615476Y-71457142D01*
X138663095Y-71361904D01*
X140027380Y-66909523D02*
X140027380Y-67480952D01*
X141027380Y-67195238D02*
X140027380Y-67195238D01*
X140979761Y-67766666D02*
X141027380Y-67909523D01*
X141027380Y-68147619D01*
X140979761Y-68242857D01*
X140932142Y-68290476D01*
X140836904Y-68338095D01*
X140741666Y-68338095D01*
X140646428Y-68290476D01*
X140598809Y-68242857D01*
X140551190Y-68147619D01*
X140503571Y-67957142D01*
X140455952Y-67861904D01*
X140408333Y-67814285D01*
X140313095Y-67766666D01*
X140217857Y-67766666D01*
X140122619Y-67814285D01*
X140075000Y-67861904D01*
X140027380Y-67957142D01*
X140027380Y-68195238D01*
X140075000Y-68338095D01*
X140027380Y-68671428D02*
X140027380Y-69290476D01*
X140408333Y-68957142D01*
X140408333Y-69100000D01*
X140455952Y-69195238D01*
X140503571Y-69242857D01*
X140598809Y-69290476D01*
X140836904Y-69290476D01*
X140932142Y-69242857D01*
X140979761Y-69195238D01*
X141027380Y-69100000D01*
X141027380Y-68814285D01*
X140979761Y-68719047D01*
X140932142Y-68671428D01*
X140027380Y-69623809D02*
X140027380Y-70242857D01*
X140408333Y-69909523D01*
X140408333Y-70052380D01*
X140455952Y-70147619D01*
X140503571Y-70195238D01*
X140598809Y-70242857D01*
X140836904Y-70242857D01*
X140932142Y-70195238D01*
X140979761Y-70147619D01*
X141027380Y-70052380D01*
X141027380Y-69766666D01*
X140979761Y-69671428D01*
X140932142Y-69623809D01*
X141027380Y-71195238D02*
X141027380Y-70623809D01*
X141027380Y-70909523D02*
X140027380Y-70909523D01*
X140170238Y-70814285D01*
X140265476Y-70719047D01*
X140313095Y-70623809D01*
X146042095Y-75700000D02*
X146137333Y-75652380D01*
X146280190Y-75652380D01*
X146423047Y-75700000D01*
X146518285Y-75795238D01*
X146565904Y-75890476D01*
X146613523Y-76080952D01*
X146613523Y-76223809D01*
X146565904Y-76414285D01*
X146518285Y-76509523D01*
X146423047Y-76604761D01*
X146280190Y-76652380D01*
X146184952Y-76652380D01*
X146042095Y-76604761D01*
X145994476Y-76557142D01*
X145994476Y-76223809D01*
X146184952Y-76223809D01*
X146780095Y-78557428D02*
X146018190Y-78557428D01*
X146399142Y-78938380D02*
X146399142Y-78176476D01*
X145065809Y-77938380D02*
X145542000Y-77938380D01*
X145589619Y-78414571D01*
X145542000Y-78366952D01*
X145446761Y-78319333D01*
X145208666Y-78319333D01*
X145113428Y-78366952D01*
X145065809Y-78414571D01*
X145018190Y-78509809D01*
X145018190Y-78747904D01*
X145065809Y-78843142D01*
X145113428Y-78890761D01*
X145208666Y-78938380D01*
X145446761Y-78938380D01*
X145542000Y-78890761D01*
X145589619Y-78843142D01*
X144684857Y-78271714D02*
X144446761Y-78938380D01*
X144208666Y-78271714D01*
X146589714Y-73904761D02*
X146446857Y-73952380D01*
X146208761Y-73952380D01*
X146113523Y-73904761D01*
X146065904Y-73857142D01*
X146018285Y-73761904D01*
X146018285Y-73666666D01*
X146065904Y-73571428D01*
X146113523Y-73523809D01*
X146208761Y-73476190D01*
X146399238Y-73428571D01*
X146494476Y-73380952D01*
X146542095Y-73333333D01*
X146589714Y-73238095D01*
X146589714Y-73142857D01*
X146542095Y-73047619D01*
X146494476Y-73000000D01*
X146399238Y-72952380D01*
X146161142Y-72952380D01*
X146018285Y-73000000D01*
%LPC*%
D11*
X144000000Y-69000000D03*
D12*
X142000000Y-79000000D03*
X144500000Y-76500000D03*
X142000000Y-74000000D03*
D13*
X148000000Y-73500000D03*
X148000000Y-76040000D03*
D14*
X148000000Y-78580000D03*
M02*
